<?xml version="1.0" encoding="utf-8" standalone="no"?>
<!DOCTYPE svg PUBLIC "-//W3C//DTD SVG 1.1//EN"
  "http://www.w3.org/Graphics/SVG/1.1/DTD/svg11.dtd">
<svg xmlns:xlink="http://www.w3.org/1999/xlink" width="578.239738pt" height="458.863769pt" viewBox="0 0 578.239738 458.863769" xmlns="http://www.w3.org/2000/svg" version="1.1">
 <metadata>
  <rdf:RDF xmlns:dc="http://purl.org/dc/elements/1.1/" xmlns:cc="http://creativecommons.org/ns#" xmlns:rdf="http://www.w3.org/1999/02/22-rdf-syntax-ns#">
   <cc:Work>
    <dc:type rdf:resource="http://purl.org/dc/dcmitype/StillImage"/>
    <dc:date>2026-04-14T14:26:55.358836</dc:date>
    <dc:format>image/svg+xml</dc:format>
    <dc:creator>
     <cc:Agent>
      <dc:title>Matplotlib v3.10.8, https://matplotlib.org/</dc:title>
     </cc:Agent>
    </dc:creator>
   </cc:Work>
  </rdf:RDF>
 </metadata>
 <defs>
  <style type="text/css">*{stroke-linejoin: round; stroke-linecap: butt}</style>
 </defs>
 <g id="figure_1">
  <g id="patch_1">
   <path d="M 0 458.863769 
L 578.239738 458.863769 
L 578.239738 0 
L 0 0 
z
" style="fill: #ffffff"/>
  </g>
  <g id="axes_1">
   <g id="patch_2">
    <path d="M 68.839738 355.414031 
L 571.039738 355.414031 
L 571.039738 22.774031 
L 68.839738 22.774031 
z
" style="fill: #ffffff"/>
   </g>
   <g id="matplotlib.axis_1">
    <g id="xtick_1">
     <g id="text_1">
      <!-- ExtraTrees (WO-A) -->
      <g style="fill: #262626" transform="translate(13.405707 449.965271) rotate(-45) scale(0.1155 -0.1155)">
       <defs>
        <path id="DejaVuSerif-45" d="M 353 0 
L 353 331 
L 947 331 
L 947 4331 
L 353 4331 
L 353 4666 
L 4109 4666 
L 4109 3628 
L 3725 3628 
L 3725 4281 
L 1581 4281 
L 1581 2719 
L 3109 2719 
L 3109 3303 
L 3494 3303 
L 3494 1753 
L 3109 1753 
L 3109 2338 
L 1581 2338 
L 1581 384 
L 3775 384 
L 3775 1038 
L 4159 1038 
L 4159 0 
L 353 0 
z
" transform="scale(0.015625)"/>
        <path id="DejaVuSerif-78" d="M 1863 2028 
L 2559 2988 
L 2113 2988 
L 2113 3322 
L 3391 3322 
L 3391 2988 
L 2950 2988 
L 2059 1759 
L 3097 331 
L 3531 331 
L 3531 0 
L 1997 0 
L 1997 331 
L 2419 331 
L 1697 1325 
L 972 331 
L 1403 331 
L 1403 0 
L 141 0 
L 141 331 
L 581 331 
L 1497 1594 
L 488 2988 
L 78 2988 
L 78 3322 
L 1563 3322 
L 1563 2988 
L 1166 2988 
L 1863 2028 
z
" transform="scale(0.015625)"/>
        <path id="DejaVuSerif-74" d="M 691 2988 
L 184 2988 
L 184 3322 
L 691 3322 
L 691 4353 
L 1269 4353 
L 1269 3322 
L 2350 3322 
L 2350 2988 
L 1269 2988 
L 1269 878 
Q 1269 456 1350 337 
Q 1431 219 1650 219 
Q 1875 219 1978 351 
Q 2081 484 2088 781 
L 2522 781 
Q 2497 328 2275 118 
Q 2053 -91 1600 -91 
Q 1103 -91 897 129 
Q 691 350 691 878 
L 691 2988 
z
" transform="scale(0.015625)"/>
        <path id="DejaVuSerif-72" d="M 3059 3328 
L 3059 2497 
L 2728 2497 
Q 2713 2744 2591 2866 
Q 2469 2988 2234 2988 
Q 1809 2988 1582 2694 
Q 1356 2400 1356 1850 
L 1356 331 
L 2022 331 
L 2022 0 
L 263 0 
L 263 331 
L 781 331 
L 781 2994 
L 231 2994 
L 231 3322 
L 1356 3322 
L 1356 2731 
Q 1525 3078 1790 3245 
Q 2056 3413 2438 3413 
Q 2578 3413 2733 3391 
Q 2888 3369 3059 3328 
z
" transform="scale(0.015625)"/>
        <path id="DejaVuSerif-61" d="M 2547 1044 
L 2547 1747 
L 1806 1747 
Q 1378 1747 1168 1562 
Q 959 1378 959 997 
Q 959 650 1171 447 
Q 1384 244 1747 244 
Q 2106 244 2326 466 
Q 2547 688 2547 1044 
z
M 3122 2075 
L 3122 331 
L 3634 331 
L 3634 0 
L 2547 0 
L 2547 359 
Q 2356 128 2106 18 
Q 1856 -91 1522 -91 
Q 969 -91 644 203 
Q 319 497 319 997 
Q 319 1513 691 1797 
Q 1063 2081 1741 2081 
L 2547 2081 
L 2547 2309 
Q 2547 2688 2317 2895 
Q 2088 3103 1672 3103 
Q 1328 3103 1125 2947 
Q 922 2791 872 2484 
L 575 2484 
L 575 3156 
Q 875 3284 1158 3348 
Q 1441 3413 1709 3413 
Q 2400 3413 2761 3070 
Q 3122 2728 3122 2075 
z
" transform="scale(0.015625)"/>
        <path id="DejaVuSerif-54" d="M 1222 0 
L 1222 331 
L 1819 331 
L 1819 4294 
L 447 4294 
L 447 3566 
L 63 3566 
L 63 4666 
L 4206 4666 
L 4206 3566 
L 3822 3566 
L 3822 4294 
L 2450 4294 
L 2450 331 
L 3047 331 
L 3047 0 
L 1222 0 
z
" transform="scale(0.015625)"/>
        <path id="DejaVuSerif-65" d="M 3469 1600 
L 991 1600 
L 991 1575 
Q 991 903 1244 561 
Q 1497 219 1991 219 
Q 2369 219 2611 417 
Q 2853 616 2950 1006 
L 3413 1006 
Q 3275 459 2904 184 
Q 2534 -91 1931 -91 
Q 1203 -91 761 389 
Q 319 869 319 1663 
Q 319 2450 753 2931 
Q 1188 3413 1894 3413 
Q 2647 3413 3050 2948 
Q 3453 2484 3469 1600 
z
M 2791 1931 
Q 2772 2513 2545 2808 
Q 2319 3103 1894 3103 
Q 1497 3103 1269 2806 
Q 1041 2509 991 1931 
L 2791 1931 
z
" transform="scale(0.015625)"/>
        <path id="DejaVuSerif-73" d="M 359 184 
L 359 959 
L 691 959 
Q 703 588 923 403 
Q 1144 219 1575 219 
Q 1963 219 2166 364 
Q 2369 509 2369 788 
Q 2369 1006 2220 1140 
Q 2072 1275 1594 1428 
L 1178 1569 
Q 750 1706 558 1912 
Q 366 2119 366 2438 
Q 366 2894 700 3153 
Q 1034 3413 1625 3413 
Q 1888 3413 2178 3344 
Q 2469 3275 2778 3144 
L 2778 2419 
L 2447 2419 
Q 2434 2741 2221 2922 
Q 2009 3103 1644 3103 
Q 1281 3103 1095 2975 
Q 909 2847 909 2591 
Q 909 2381 1050 2254 
Q 1191 2128 1613 1997 
L 2069 1856 
Q 2541 1709 2748 1489 
Q 2956 1269 2956 922 
Q 2956 450 2595 179 
Q 2234 -91 1600 -91 
Q 1278 -91 972 -22 
Q 666 47 359 184 
z
" transform="scale(0.015625)"/>
        <path id="DejaVuSerif-20" transform="scale(0.015625)"/>
        <path id="DejaVuSerif-28" d="M 2041 -997 
Q 1281 -656 893 83 
Q 506 822 506 1931 
Q 506 3044 893 3783 
Q 1281 4522 2041 4863 
L 2041 4556 
Q 1559 4225 1350 3623 
Q 1141 3022 1141 1931 
Q 1141 844 1350 242 
Q 1559 -359 2041 -691 
L 2041 -997 
z
" transform="scale(0.015625)"/>
        <path id="DejaVuSerif-57" d="M 4878 0 
L 4366 0 
L 3297 3794 
L 2228 0 
L 1716 0 
L 494 4331 
L 31 4331 
L 31 4666 
L 1734 4666 
L 1734 4331 
L 1153 4331 
L 2125 884 
L 3188 4666 
L 3694 4666 
L 4775 844 
L 5753 4331 
L 5216 4331 
L 5216 4666 
L 6559 4666 
L 6559 4331 
L 6100 4331 
L 4878 0 
z
" transform="scale(0.015625)"/>
        <path id="DejaVuSerif-4f" d="M 2625 244 
Q 3391 244 3781 770 
Q 4172 1297 4172 2328 
Q 4172 3363 3781 3889 
Q 3391 4416 2625 4416 
Q 1856 4416 1465 3889 
Q 1075 3363 1075 2328 
Q 1075 1297 1465 770 
Q 1856 244 2625 244 
z
M 2625 -91 
Q 2150 -91 1751 65 
Q 1353 222 1050 525 
Q 700 875 529 1319 
Q 359 1763 359 2328 
Q 359 2894 529 3339 
Q 700 3784 1050 4134 
Q 1356 4441 1750 4595 
Q 2144 4750 2625 4750 
Q 3641 4750 4266 4084 
Q 4891 3419 4891 2328 
Q 4891 1769 4719 1320 
Q 4547 872 4197 525 
Q 3891 219 3497 64 
Q 3103 -91 2625 -91 
z
" transform="scale(0.015625)"/>
        <path id="DejaVuSerif-2d" d="M 281 1959 
L 1881 1959 
L 1881 1472 
L 281 1472 
L 281 1959 
z
" transform="scale(0.015625)"/>
        <path id="DejaVuSerif-41" d="M 1281 1691 
L 2994 1691 
L 2138 3909 
L 1281 1691 
z
M -38 0 
L -38 331 
L 372 331 
L 2034 4666 
L 2559 4666 
L 4225 331 
L 4684 331 
L 4684 0 
L 2988 0 
L 2988 331 
L 3506 331 
L 3116 1356 
L 1153 1356 
L 763 331 
L 1275 331 
L 1275 0 
L -38 0 
z
" transform="scale(0.015625)"/>
        <path id="DejaVuSerif-29" d="M 453 -997 
L 453 -691 
Q 934 -359 1145 242 
Q 1356 844 1356 1931 
Q 1356 3022 1145 3623 
Q 934 4225 453 4556 
L 453 4863 
Q 1216 4522 1603 3783 
Q 1991 3044 1991 1931 
Q 1991 822 1603 83 
Q 1216 -656 453 -997 
z
" transform="scale(0.015625)"/>
       </defs>
       <use xlink:href="#DejaVuSerif-45"/>
       <use xlink:href="#DejaVuSerif-78" transform="translate(72.998047 0)"/>
       <use xlink:href="#DejaVuSerif-74" transform="translate(129.394531 0)"/>
       <use xlink:href="#DejaVuSerif-72" transform="translate(169.580078 0)"/>
       <use xlink:href="#DejaVuSerif-61" transform="translate(217.382812 0)"/>
       <use xlink:href="#DejaVuSerif-54" transform="translate(277.001953 0)"/>
       <use xlink:href="#DejaVuSerif-72" transform="translate(343.701172 0)"/>
       <use xlink:href="#DejaVuSerif-65" transform="translate(391.503906 0)"/>
       <use xlink:href="#DejaVuSerif-65" transform="translate(450.683594 0)"/>
       <use xlink:href="#DejaVuSerif-73" transform="translate(509.863281 0)"/>
       <use xlink:href="#DejaVuSerif-20" transform="translate(561.181641 0)"/>
       <use xlink:href="#DejaVuSerif-28" transform="translate(592.96875 0)"/>
       <use xlink:href="#DejaVuSerif-57" transform="translate(631.982422 0)"/>
       <use xlink:href="#DejaVuSerif-4f" transform="translate(734.765625 0)"/>
       <use xlink:href="#DejaVuSerif-2d" transform="translate(820.373047 0)"/>
       <use xlink:href="#DejaVuSerif-41" transform="translate(854.162109 0)"/>
       <use xlink:href="#DejaVuSerif-29" transform="translate(926.378906 0)"/>
      </g>
     </g>
    </g>
    <g id="xtick_2">
     <g id="text_2">
      <!-- LightGBM (WO-A) -->
      <g style="fill: #262626" transform="translate(66.647528 446.827325) rotate(-45) scale(0.1155 -0.1155)">
       <defs>
        <path id="DejaVuSerif-4c" d="M 353 0 
L 353 331 
L 947 331 
L 947 4331 
L 353 4331 
L 353 4666 
L 2175 4666 
L 2175 4331 
L 1581 4331 
L 1581 384 
L 3713 384 
L 3713 1166 
L 4097 1166 
L 4097 0 
L 353 0 
z
" transform="scale(0.015625)"/>
        <path id="DejaVuSerif-69" d="M 622 4353 
Q 622 4497 726 4603 
Q 831 4709 978 4709 
Q 1122 4709 1226 4603 
Q 1331 4497 1331 4353 
Q 1331 4206 1228 4103 
Q 1125 4000 978 4000 
Q 831 4000 726 4103 
Q 622 4206 622 4353 
z
M 1356 331 
L 1900 331 
L 1900 0 
L 231 0 
L 231 331 
L 781 331 
L 781 2988 
L 231 2988 
L 231 3322 
L 1356 3322 
L 1356 331 
z
" transform="scale(0.015625)"/>
        <path id="DejaVuSerif-67" d="M 3359 2988 
L 3359 72 
Q 3359 -644 2965 -1033 
Q 2572 -1422 1844 -1422 
Q 1516 -1422 1216 -1362 
Q 916 -1303 641 -1184 
L 641 -488 
L 941 -488 
Q 997 -813 1206 -963 
Q 1416 -1113 1806 -1113 
Q 2313 -1113 2548 -827 
Q 2784 -541 2784 72 
L 2784 519 
Q 2616 206 2355 57 
Q 2094 -91 1709 -91 
Q 1097 -91 708 395 
Q 319 881 319 1663 
Q 319 2444 706 2928 
Q 1094 3413 1709 3413 
Q 2094 3413 2355 3264 
Q 2616 3116 2784 2803 
L 2784 3322 
L 3909 3322 
L 3909 2988 
L 3359 2988 
z
M 2784 1825 
Q 2784 2422 2554 2737 
Q 2325 3053 1888 3053 
Q 1444 3053 1217 2703 
Q 991 2353 991 1663 
Q 991 975 1217 622 
Q 1444 269 1888 269 
Q 2325 269 2554 583 
Q 2784 897 2784 1497 
L 2784 1825 
z
" transform="scale(0.015625)"/>
        <path id="DejaVuSerif-68" d="M 263 0 
L 263 331 
L 781 331 
L 781 4531 
L 231 4531 
L 231 4863 
L 1356 4863 
L 1356 2731 
Q 1516 3069 1770 3241 
Q 2025 3413 2363 3413 
Q 2913 3413 3172 3097 
Q 3431 2781 3431 2113 
L 3431 331 
L 3944 331 
L 3944 0 
L 2356 0 
L 2356 331 
L 2853 331 
L 2853 1931 
Q 2853 2541 2704 2764 
Q 2556 2988 2175 2988 
Q 1775 2988 1565 2697 
Q 1356 2406 1356 1850 
L 1356 331 
L 1856 331 
L 1856 0 
L 263 0 
z
" transform="scale(0.015625)"/>
        <path id="DejaVuSerif-47" d="M 4097 3272 
Q 3988 3856 3641 4136 
Q 3294 4416 2675 4416 
Q 1869 4416 1472 3897 
Q 1075 3378 1075 2328 
Q 1075 1300 1484 772 
Q 1894 244 2688 244 
Q 3041 244 3362 331 
Q 3684 419 3975 594 
L 3975 1797 
L 3097 1797 
L 3097 2131 
L 4609 2131 
L 4609 391 
Q 4194 150 3714 29 
Q 3234 -91 2688 -91 
Q 1631 -91 995 570 
Q 359 1231 359 2328 
Q 359 3434 996 4092 
Q 1634 4750 2713 4750 
Q 3113 4750 3539 4658 
Q 3966 4566 4447 4378 
L 4447 3272 
L 4097 3272 
z
" transform="scale(0.015625)"/>
        <path id="DejaVuSerif-42" d="M 1581 331 
L 2516 331 
Q 3078 331 3337 575 
Q 3597 819 3597 1350 
Q 3597 1878 3339 2120 
Q 3081 2363 2516 2363 
L 1581 2363 
L 1581 331 
z
M 1581 2694 
L 2375 2694 
Q 2888 2694 3123 2891 
Q 3359 3088 3359 3513 
Q 3359 3941 3123 4136 
Q 2888 4331 2375 4331 
L 1581 4331 
L 1581 2694 
z
M 353 0 
L 353 331 
L 947 331 
L 947 4331 
L 353 4331 
L 353 4666 
L 2656 4666 
Q 3363 4666 3720 4377 
Q 4078 4088 4078 3513 
Q 4078 3097 3829 2850 
Q 3581 2603 3103 2547 
Q 3697 2472 4005 2167 
Q 4313 1863 4313 1350 
Q 4313 656 3875 328 
Q 3438 0 2509 0 
L 353 0 
z
" transform="scale(0.015625)"/>
        <path id="DejaVuSerif-4d" d="M 353 0 
L 353 331 
L 947 331 
L 947 4331 
L 319 4331 
L 319 4666 
L 1678 4666 
L 3316 1344 
L 4953 4666 
L 6228 4666 
L 6228 4331 
L 5606 4331 
L 5606 331 
L 6203 331 
L 6203 0 
L 4378 0 
L 4378 331 
L 4972 331 
L 4972 3938 
L 3372 684 
L 2931 684 
L 1331 3938 
L 1331 331 
L 1925 331 
L 1925 0 
L 353 0 
z
" transform="scale(0.015625)"/>
       </defs>
       <use xlink:href="#DejaVuSerif-4c"/>
       <use xlink:href="#DejaVuSerif-69" transform="translate(66.40625 0)"/>
       <use xlink:href="#DejaVuSerif-67" transform="translate(98.388672 0)"/>
       <use xlink:href="#DejaVuSerif-68" transform="translate(162.402344 0)"/>
       <use xlink:href="#DejaVuSerif-74" transform="translate(226.806641 0)"/>
       <use xlink:href="#DejaVuSerif-47" transform="translate(266.992188 0)"/>
       <use xlink:href="#DejaVuSerif-42" transform="translate(346.875 0)"/>
       <use xlink:href="#DejaVuSerif-4d" transform="translate(420.361328 0)"/>
       <use xlink:href="#DejaVuSerif-20" transform="translate(522.753906 0)"/>
       <use xlink:href="#DejaVuSerif-28" transform="translate(554.541016 0)"/>
       <use xlink:href="#DejaVuSerif-57" transform="translate(593.554688 0)"/>
       <use xlink:href="#DejaVuSerif-4f" transform="translate(696.337891 0)"/>
       <use xlink:href="#DejaVuSerif-2d" transform="translate(781.945312 0)"/>
       <use xlink:href="#DejaVuSerif-41" transform="translate(815.734375 0)"/>
       <use xlink:href="#DejaVuSerif-29" transform="translate(887.951172 0)"/>
      </g>
     </g>
    </g>
    <g id="xtick_3">
     <g id="text_3">
      <!-- ExtraTrees (W-A) -->
      <g style="fill: #262626" transform="translate(121.42961 442.381369) rotate(-45) scale(0.1155 -0.1155)">
       <use xlink:href="#DejaVuSerif-45"/>
       <use xlink:href="#DejaVuSerif-78" transform="translate(72.998047 0)"/>
       <use xlink:href="#DejaVuSerif-74" transform="translate(129.394531 0)"/>
       <use xlink:href="#DejaVuSerif-72" transform="translate(169.580078 0)"/>
       <use xlink:href="#DejaVuSerif-61" transform="translate(217.382812 0)"/>
       <use xlink:href="#DejaVuSerif-54" transform="translate(277.001953 0)"/>
       <use xlink:href="#DejaVuSerif-72" transform="translate(343.701172 0)"/>
       <use xlink:href="#DejaVuSerif-65" transform="translate(391.503906 0)"/>
       <use xlink:href="#DejaVuSerif-65" transform="translate(450.683594 0)"/>
       <use xlink:href="#DejaVuSerif-73" transform="translate(509.863281 0)"/>
       <use xlink:href="#DejaVuSerif-20" transform="translate(561.181641 0)"/>
       <use xlink:href="#DejaVuSerif-28" transform="translate(592.96875 0)"/>
       <use xlink:href="#DejaVuSerif-57" transform="translate(631.982422 0)"/>
       <use xlink:href="#DejaVuSerif-2d" transform="translate(727.515625 0)"/>
       <use xlink:href="#DejaVuSerif-41" transform="translate(761.304688 0)"/>
       <use xlink:href="#DejaVuSerif-29" transform="translate(833.521484 0)"/>
      </g>
     </g>
    </g>
    <g id="xtick_4">
     <g id="text_4">
      <!-- LightGBM (W-A) -->
      <g style="fill: #262626" transform="translate(174.671431 439.243422) rotate(-45) scale(0.1155 -0.1155)">
       <use xlink:href="#DejaVuSerif-4c"/>
       <use xlink:href="#DejaVuSerif-69" transform="translate(66.40625 0)"/>
       <use xlink:href="#DejaVuSerif-67" transform="translate(98.388672 0)"/>
       <use xlink:href="#DejaVuSerif-68" transform="translate(162.402344 0)"/>
       <use xlink:href="#DejaVuSerif-74" transform="translate(226.806641 0)"/>
       <use xlink:href="#DejaVuSerif-47" transform="translate(266.992188 0)"/>
       <use xlink:href="#DejaVuSerif-42" transform="translate(346.875 0)"/>
       <use xlink:href="#DejaVuSerif-4d" transform="translate(420.361328 0)"/>
       <use xlink:href="#DejaVuSerif-20" transform="translate(522.753906 0)"/>
       <use xlink:href="#DejaVuSerif-28" transform="translate(554.541016 0)"/>
       <use xlink:href="#DejaVuSerif-57" transform="translate(593.554688 0)"/>
       <use xlink:href="#DejaVuSerif-2d" transform="translate(689.087891 0)"/>
       <use xlink:href="#DejaVuSerif-41" transform="translate(722.876953 0)"/>
       <use xlink:href="#DejaVuSerif-29" transform="translate(795.09375 0)"/>
      </g>
     </g>
    </g>
    <g id="xtick_5">
     <g id="text_5">
      <!-- XGBoost (W-L) -->
      <g style="fill: #262626" transform="translate(232.530206 431.720773) rotate(-45) scale(0.1155 -0.1155)">
       <defs>
        <path id="DejaVuSerif-58" d="M 2119 1997 
L 978 331 
L 1581 331 
L 1581 0 
L 38 0 
L 38 331 
L 575 331 
L 1919 2291 
L 556 4331 
L 56 4331 
L 56 4666 
L 1906 4666 
L 1906 4331 
L 1356 4331 
L 2356 2828 
L 3384 4331 
L 2784 4331 
L 2784 4666 
L 4313 4666 
L 4313 4331 
L 3788 4331 
L 2553 2534 
L 4025 331 
L 4525 331 
L 4525 0 
L 2675 0 
L 2675 331 
L 3231 331 
L 2119 1997 
z
" transform="scale(0.015625)"/>
        <path id="DejaVuSerif-6f" d="M 1925 219 
Q 2388 219 2623 584 
Q 2859 950 2859 1663 
Q 2859 2375 2623 2739 
Q 2388 3103 1925 3103 
Q 1463 3103 1227 2739 
Q 991 2375 991 1663 
Q 991 950 1228 584 
Q 1466 219 1925 219 
z
M 1925 -91 
Q 1200 -91 759 389 
Q 319 869 319 1663 
Q 319 2456 758 2934 
Q 1197 3413 1925 3413 
Q 2653 3413 3092 2934 
Q 3531 2456 3531 1663 
Q 3531 869 3092 389 
Q 2653 -91 1925 -91 
z
" transform="scale(0.015625)"/>
       </defs>
       <use xlink:href="#DejaVuSerif-58"/>
       <use xlink:href="#DejaVuSerif-47" transform="translate(71.191406 0)"/>
       <use xlink:href="#DejaVuSerif-42" transform="translate(151.074219 0)"/>
       <use xlink:href="#DejaVuSerif-6f" transform="translate(224.560547 0)"/>
       <use xlink:href="#DejaVuSerif-6f" transform="translate(284.765625 0)"/>
       <use xlink:href="#DejaVuSerif-73" transform="translate(344.970703 0)"/>
       <use xlink:href="#DejaVuSerif-74" transform="translate(396.289062 0)"/>
       <use xlink:href="#DejaVuSerif-20" transform="translate(436.474609 0)"/>
       <use xlink:href="#DejaVuSerif-28" transform="translate(468.261719 0)"/>
       <use xlink:href="#DejaVuSerif-57" transform="translate(507.275391 0)"/>
       <use xlink:href="#DejaVuSerif-2d" transform="translate(602.808594 0)"/>
       <use xlink:href="#DejaVuSerif-4c" transform="translate(636.597656 0)"/>
       <use xlink:href="#DejaVuSerif-29" transform="translate(703.003906 0)"/>
      </g>
     </g>
    </g>
    <g id="xtick_6">
     <g id="text_6">
      <!-- ExtraTrees (WO-L) -->
      <g style="fill: #262626" transform="translate(264.980419 449.49056) rotate(-45) scale(0.1155 -0.1155)">
       <use xlink:href="#DejaVuSerif-45"/>
       <use xlink:href="#DejaVuSerif-78" transform="translate(72.998047 0)"/>
       <use xlink:href="#DejaVuSerif-74" transform="translate(129.394531 0)"/>
       <use xlink:href="#DejaVuSerif-72" transform="translate(169.580078 0)"/>
       <use xlink:href="#DejaVuSerif-61" transform="translate(217.382812 0)"/>
       <use xlink:href="#DejaVuSerif-54" transform="translate(277.001953 0)"/>
       <use xlink:href="#DejaVuSerif-72" transform="translate(343.701172 0)"/>
       <use xlink:href="#DejaVuSerif-65" transform="translate(391.503906 0)"/>
       <use xlink:href="#DejaVuSerif-65" transform="translate(450.683594 0)"/>
       <use xlink:href="#DejaVuSerif-73" transform="translate(509.863281 0)"/>
       <use xlink:href="#DejaVuSerif-20" transform="translate(561.181641 0)"/>
       <use xlink:href="#DejaVuSerif-28" transform="translate(592.96875 0)"/>
       <use xlink:href="#DejaVuSerif-57" transform="translate(631.982422 0)"/>
       <use xlink:href="#DejaVuSerif-4f" transform="translate(734.765625 0)"/>
       <use xlink:href="#DejaVuSerif-2d" transform="translate(820.373047 0)"/>
       <use xlink:href="#DejaVuSerif-4c" transform="translate(854.162109 0)"/>
       <use xlink:href="#DejaVuSerif-29" transform="translate(920.568359 0)"/>
      </g>
     </g>
    </g>
    <g id="xtick_7">
     <g id="text_7">
      <!-- CatBoost (WO-A) -->
      <g style="fill: #262626" transform="translate(322.849403 441.841576) rotate(-45) scale(0.1155 -0.1155)">
       <defs>
        <path id="DejaVuSerif-43" d="M 4513 1234 
Q 4306 581 3820 245 
Q 3334 -91 2591 -91 
Q 2134 -91 1743 65 
Q 1353 222 1050 525 
Q 700 875 529 1320 
Q 359 1766 359 2328 
Q 359 3416 987 4083 
Q 1616 4750 2644 4750 
Q 3025 4750 3456 4650 
Q 3888 4550 4384 4347 
L 4384 3272 
L 4031 3272 
Q 3916 3859 3567 4137 
Q 3219 4416 2591 4416 
Q 1844 4416 1459 3886 
Q 1075 3356 1075 2328 
Q 1075 1303 1459 773 
Q 1844 244 2591 244 
Q 3113 244 3450 492 
Q 3788 741 3938 1234 
L 4513 1234 
z
" transform="scale(0.015625)"/>
       </defs>
       <use xlink:href="#DejaVuSerif-43"/>
       <use xlink:href="#DejaVuSerif-61" transform="translate(76.513672 0)"/>
       <use xlink:href="#DejaVuSerif-74" transform="translate(136.132812 0)"/>
       <use xlink:href="#DejaVuSerif-42" transform="translate(176.318359 0)"/>
       <use xlink:href="#DejaVuSerif-6f" transform="translate(249.804688 0)"/>
       <use xlink:href="#DejaVuSerif-6f" transform="translate(310.009766 0)"/>
       <use xlink:href="#DejaVuSerif-73" transform="translate(370.214844 0)"/>
       <use xlink:href="#DejaVuSerif-74" transform="translate(421.533203 0)"/>
       <use xlink:href="#DejaVuSerif-20" transform="translate(461.71875 0)"/>
       <use xlink:href="#DejaVuSerif-28" transform="translate(493.505859 0)"/>
       <use xlink:href="#DejaVuSerif-57" transform="translate(532.519531 0)"/>
       <use xlink:href="#DejaVuSerif-4f" transform="translate(635.302734 0)"/>
       <use xlink:href="#DejaVuSerif-2d" transform="translate(720.910156 0)"/>
       <use xlink:href="#DejaVuSerif-41" transform="translate(754.699219 0)"/>
       <use xlink:href="#DejaVuSerif-29" transform="translate(826.916016 0)"/>
      </g>
     </g>
    </g>
    <g id="xtick_8">
     <g id="text_8">
      <!-- LightGBM (W-L) -->
      <g style="fill: #262626" transform="translate(376.026142 438.768711) rotate(-45) scale(0.1155 -0.1155)">
       <use xlink:href="#DejaVuSerif-4c"/>
       <use xlink:href="#DejaVuSerif-69" transform="translate(66.40625 0)"/>
       <use xlink:href="#DejaVuSerif-67" transform="translate(98.388672 0)"/>
       <use xlink:href="#DejaVuSerif-68" transform="translate(162.402344 0)"/>
       <use xlink:href="#DejaVuSerif-74" transform="translate(226.806641 0)"/>
       <use xlink:href="#DejaVuSerif-47" transform="translate(266.992188 0)"/>
       <use xlink:href="#DejaVuSerif-42" transform="translate(346.875 0)"/>
       <use xlink:href="#DejaVuSerif-4d" transform="translate(420.361328 0)"/>
       <use xlink:href="#DejaVuSerif-20" transform="translate(522.753906 0)"/>
       <use xlink:href="#DejaVuSerif-28" transform="translate(554.541016 0)"/>
       <use xlink:href="#DejaVuSerif-57" transform="translate(593.554688 0)"/>
       <use xlink:href="#DejaVuSerif-2d" transform="translate(689.087891 0)"/>
       <use xlink:href="#DejaVuSerif-4c" transform="translate(722.876953 0)"/>
       <use xlink:href="#DejaVuSerif-29" transform="translate(789.283203 0)"/>
      </g>
     </g>
    </g>
    <g id="xtick_9">
     <g id="text_9">
      <!-- ExtraTrees (W-L) -->
      <g style="fill: #262626" transform="translate(423.224321 441.906657) rotate(-45) scale(0.1155 -0.1155)">
       <use xlink:href="#DejaVuSerif-45"/>
       <use xlink:href="#DejaVuSerif-78" transform="translate(72.998047 0)"/>
       <use xlink:href="#DejaVuSerif-74" transform="translate(129.394531 0)"/>
       <use xlink:href="#DejaVuSerif-72" transform="translate(169.580078 0)"/>
       <use xlink:href="#DejaVuSerif-61" transform="translate(217.382812 0)"/>
       <use xlink:href="#DejaVuSerif-54" transform="translate(277.001953 0)"/>
       <use xlink:href="#DejaVuSerif-72" transform="translate(343.701172 0)"/>
       <use xlink:href="#DejaVuSerif-65" transform="translate(391.503906 0)"/>
       <use xlink:href="#DejaVuSerif-65" transform="translate(450.683594 0)"/>
       <use xlink:href="#DejaVuSerif-73" transform="translate(509.863281 0)"/>
       <use xlink:href="#DejaVuSerif-20" transform="translate(561.181641 0)"/>
       <use xlink:href="#DejaVuSerif-28" transform="translate(592.96875 0)"/>
       <use xlink:href="#DejaVuSerif-57" transform="translate(631.982422 0)"/>
       <use xlink:href="#DejaVuSerif-2d" transform="translate(727.515625 0)"/>
       <use xlink:href="#DejaVuSerif-4c" transform="translate(761.304688 0)"/>
       <use xlink:href="#DejaVuSerif-29" transform="translate(827.710938 0)"/>
      </g>
     </g>
    </g>
    <g id="xtick_10">
     <g id="text_10">
      <!-- XGBoost (WO-A) -->
      <g style="fill: #262626" transform="translate(475.571591 439.779387) rotate(-45) scale(0.1155 -0.1155)">
       <use xlink:href="#DejaVuSerif-58"/>
       <use xlink:href="#DejaVuSerif-47" transform="translate(71.191406 0)"/>
       <use xlink:href="#DejaVuSerif-42" transform="translate(151.074219 0)"/>
       <use xlink:href="#DejaVuSerif-6f" transform="translate(224.560547 0)"/>
       <use xlink:href="#DejaVuSerif-6f" transform="translate(284.765625 0)"/>
       <use xlink:href="#DejaVuSerif-73" transform="translate(344.970703 0)"/>
       <use xlink:href="#DejaVuSerif-74" transform="translate(396.289062 0)"/>
       <use xlink:href="#DejaVuSerif-20" transform="translate(436.474609 0)"/>
       <use xlink:href="#DejaVuSerif-28" transform="translate(468.261719 0)"/>
       <use xlink:href="#DejaVuSerif-57" transform="translate(507.275391 0)"/>
       <use xlink:href="#DejaVuSerif-4f" transform="translate(610.058594 0)"/>
       <use xlink:href="#DejaVuSerif-2d" transform="translate(695.666016 0)"/>
       <use xlink:href="#DejaVuSerif-41" transform="translate(729.455078 0)"/>
       <use xlink:href="#DejaVuSerif-29" transform="translate(801.671875 0)"/>
      </g>
     </g>
    </g>
   </g>
   <g id="matplotlib.axis_2">
    <g id="ytick_1">
     <g id="line2d_1">
      <path d="M 68.839738 326.167806 
L 571.039738 326.167806 
" clip-path="url(#p772abcfa1a)" style="fill: none; stroke: #cccccc; stroke-linecap: round"/>
     </g>
     <g id="text_11">
      <!-- 0.600 -->
      <g style="fill: #262626" transform="translate(26.274254 330.555904) scale(0.1155 -0.1155)">
       <defs>
        <path id="DejaVuSerif-30" d="M 2034 219 
Q 2513 219 2750 744 
Q 2988 1269 2988 2328 
Q 2988 3391 2750 3916 
Q 2513 4441 2034 4441 
Q 1556 4441 1318 3916 
Q 1081 3391 1081 2328 
Q 1081 1269 1318 744 
Q 1556 219 2034 219 
z
M 2034 -91 
Q 1275 -91 848 546 
Q 422 1184 422 2328 
Q 422 3475 848 4112 
Q 1275 4750 2034 4750 
Q 2797 4750 3222 4112 
Q 3647 3475 3647 2328 
Q 3647 1184 3222 546 
Q 2797 -91 2034 -91 
z
" transform="scale(0.015625)"/>
        <path id="DejaVuSerif-2e" d="M 603 325 
Q 603 500 722 622 
Q 841 744 1019 744 
Q 1191 744 1312 622 
Q 1434 500 1434 325 
Q 1434 153 1312 31 
Q 1191 -91 1019 -91 
Q 841 -91 722 29 
Q 603 150 603 325 
z
" transform="scale(0.015625)"/>
        <path id="DejaVuSerif-36" d="M 2094 219 
Q 2534 219 2771 542 
Q 3009 866 3009 1472 
Q 3009 2078 2771 2401 
Q 2534 2725 2094 2725 
Q 1647 2725 1412 2412 
Q 1178 2100 1178 1509 
Q 1178 888 1415 553 
Q 1653 219 2094 219 
z
M 1075 2569 
Q 1288 2803 1556 2918 
Q 1825 3034 2163 3034 
Q 2859 3034 3264 2615 
Q 3669 2197 3669 1472 
Q 3669 763 3233 336 
Q 2797 -91 2069 -91 
Q 1278 -91 853 498 
Q 428 1088 428 2181 
Q 428 3406 931 4078 
Q 1434 4750 2350 4750 
Q 2597 4750 2869 4703 
Q 3141 4656 3425 4563 
L 3425 3794 
L 3072 3794 
Q 3034 4109 2831 4275 
Q 2628 4441 2284 4441 
Q 1678 4441 1381 3981 
Q 1084 3522 1075 2569 
z
" transform="scale(0.015625)"/>
       </defs>
       <use xlink:href="#DejaVuSerif-30"/>
       <use xlink:href="#DejaVuSerif-2e" transform="translate(63.623047 0)"/>
       <use xlink:href="#DejaVuSerif-36" transform="translate(95.410156 0)"/>
       <use xlink:href="#DejaVuSerif-30" transform="translate(159.033203 0)"/>
       <use xlink:href="#DejaVuSerif-30" transform="translate(222.65625 0)"/>
      </g>
     </g>
    </g>
    <g id="ytick_2">
     <g id="line2d_2">
      <path d="M 68.839738 281.827284 
L 571.039738 281.827284 
" clip-path="url(#p772abcfa1a)" style="fill: none; stroke: #cccccc; stroke-linecap: round"/>
     </g>
     <g id="text_12">
      <!-- 0.625 -->
      <g style="fill: #262626" transform="translate(26.274254 286.215382) scale(0.1155 -0.1155)">
       <defs>
        <path id="DejaVuSerif-32" d="M 819 3553 
L 469 3553 
L 469 4384 
Q 803 4563 1142 4656 
Q 1481 4750 1806 4750 
Q 2534 4750 2956 4397 
Q 3378 4044 3378 3438 
Q 3378 2753 2422 1800 
Q 2347 1728 2309 1691 
L 1131 513 
L 3078 513 
L 3078 1088 
L 3444 1088 
L 3444 0 
L 434 0 
L 434 341 
L 1850 1753 
Q 2319 2222 2519 2614 
Q 2719 3006 2719 3438 
Q 2719 3909 2473 4175 
Q 2228 4441 1797 4441 
Q 1350 4441 1106 4219 
Q 863 3997 819 3553 
z
" transform="scale(0.015625)"/>
        <path id="DejaVuSerif-35" d="M 3219 4666 
L 3219 4153 
L 1081 4153 
L 1081 2816 
Q 1244 2928 1461 2984 
Q 1678 3041 1947 3041 
Q 2703 3041 3140 2622 
Q 3578 2203 3578 1478 
Q 3578 738 3136 323 
Q 2694 -91 1894 -91 
Q 1572 -91 1234 -12 
Q 897 66 544 225 
L 544 1131 
L 897 1131 
Q 925 688 1179 453 
Q 1434 219 1894 219 
Q 2388 219 2653 544 
Q 2919 869 2919 1478 
Q 2919 2084 2655 2407 
Q 2391 2731 1894 2731 
Q 1613 2731 1398 2631 
Q 1184 2531 1019 2322 
L 750 2322 
L 750 4666 
L 3219 4666 
z
" transform="scale(0.015625)"/>
       </defs>
       <use xlink:href="#DejaVuSerif-30"/>
       <use xlink:href="#DejaVuSerif-2e" transform="translate(63.623047 0)"/>
       <use xlink:href="#DejaVuSerif-36" transform="translate(95.410156 0)"/>
       <use xlink:href="#DejaVuSerif-32" transform="translate(159.033203 0)"/>
       <use xlink:href="#DejaVuSerif-35" transform="translate(222.65625 0)"/>
      </g>
     </g>
    </g>
    <g id="ytick_3">
     <g id="line2d_3">
      <path d="M 68.839738 237.486762 
L 571.039738 237.486762 
" clip-path="url(#p772abcfa1a)" style="fill: none; stroke: #cccccc; stroke-linecap: round"/>
     </g>
     <g id="text_13">
      <!-- 0.650 -->
      <g style="fill: #262626" transform="translate(26.274254 241.87486) scale(0.1155 -0.1155)">
       <use xlink:href="#DejaVuSerif-30"/>
       <use xlink:href="#DejaVuSerif-2e" transform="translate(63.623047 0)"/>
       <use xlink:href="#DejaVuSerif-36" transform="translate(95.410156 0)"/>
       <use xlink:href="#DejaVuSerif-35" transform="translate(159.033203 0)"/>
       <use xlink:href="#DejaVuSerif-30" transform="translate(222.65625 0)"/>
      </g>
     </g>
    </g>
    <g id="ytick_4">
     <g id="line2d_4">
      <path d="M 68.839738 193.14624 
L 571.039738 193.14624 
" clip-path="url(#p772abcfa1a)" style="fill: none; stroke: #cccccc; stroke-linecap: round"/>
     </g>
     <g id="text_14">
      <!-- 0.675 -->
      <g style="fill: #262626" transform="translate(26.274254 197.534338) scale(0.1155 -0.1155)">
       <defs>
        <path id="DejaVuSerif-37" d="M 3609 4347 
L 1784 0 
L 1319 0 
L 3059 4153 
L 903 4153 
L 903 3578 
L 538 3578 
L 538 4666 
L 3609 4666 
L 3609 4347 
z
" transform="scale(0.015625)"/>
       </defs>
       <use xlink:href="#DejaVuSerif-30"/>
       <use xlink:href="#DejaVuSerif-2e" transform="translate(63.623047 0)"/>
       <use xlink:href="#DejaVuSerif-36" transform="translate(95.410156 0)"/>
       <use xlink:href="#DejaVuSerif-37" transform="translate(159.033203 0)"/>
       <use xlink:href="#DejaVuSerif-35" transform="translate(222.65625 0)"/>
      </g>
     </g>
    </g>
    <g id="ytick_5">
     <g id="line2d_5">
      <path d="M 68.839738 148.805719 
L 571.039738 148.805719 
" clip-path="url(#p772abcfa1a)" style="fill: none; stroke: #cccccc; stroke-linecap: round"/>
     </g>
     <g id="text_15">
      <!-- 0.700 -->
      <g style="fill: #262626" transform="translate(26.274254 153.193816) scale(0.1155 -0.1155)">
       <use xlink:href="#DejaVuSerif-30"/>
       <use xlink:href="#DejaVuSerif-2e" transform="translate(63.623047 0)"/>
       <use xlink:href="#DejaVuSerif-37" transform="translate(95.410156 0)"/>
       <use xlink:href="#DejaVuSerif-30" transform="translate(159.033203 0)"/>
       <use xlink:href="#DejaVuSerif-30" transform="translate(222.65625 0)"/>
      </g>
     </g>
    </g>
    <g id="ytick_6">
     <g id="line2d_6">
      <path d="M 68.839738 104.465197 
L 571.039738 104.465197 
" clip-path="url(#p772abcfa1a)" style="fill: none; stroke: #cccccc; stroke-linecap: round"/>
     </g>
     <g id="text_16">
      <!-- 0.725 -->
      <g style="fill: #262626" transform="translate(26.274254 108.853294) scale(0.1155 -0.1155)">
       <use xlink:href="#DejaVuSerif-30"/>
       <use xlink:href="#DejaVuSerif-2e" transform="translate(63.623047 0)"/>
       <use xlink:href="#DejaVuSerif-37" transform="translate(95.410156 0)"/>
       <use xlink:href="#DejaVuSerif-32" transform="translate(159.033203 0)"/>
       <use xlink:href="#DejaVuSerif-35" transform="translate(222.65625 0)"/>
      </g>
     </g>
    </g>
    <g id="ytick_7">
     <g id="line2d_7">
      <path d="M 68.839738 60.124675 
L 571.039738 60.124675 
" clip-path="url(#p772abcfa1a)" style="fill: none; stroke: #cccccc; stroke-linecap: round"/>
     </g>
     <g id="text_17">
      <!-- 0.750 -->
      <g style="fill: #262626" transform="translate(26.274254 64.512772) scale(0.1155 -0.1155)">
       <use xlink:href="#DejaVuSerif-30"/>
       <use xlink:href="#DejaVuSerif-2e" transform="translate(63.623047 0)"/>
       <use xlink:href="#DejaVuSerif-37" transform="translate(95.410156 0)"/>
       <use xlink:href="#DejaVuSerif-35" transform="translate(159.033203 0)"/>
       <use xlink:href="#DejaVuSerif-30" transform="translate(222.65625 0)"/>
      </g>
     </g>
    </g>
    <g id="text_18">
     <!-- RMSE_log -->
     <g style="fill: #262626" transform="translate(19.30341 222.193641) rotate(-90) scale(0.126 -0.126)">
      <defs>
       <path id="DejaVuSerif-52" d="M 3066 2316 
Q 3284 2256 3442 2114 
Q 3600 1972 3725 1716 
L 4403 331 
L 4972 331 
L 4972 0 
L 3872 0 
L 3144 1484 
Q 2934 1916 2759 2042 
Q 2584 2169 2278 2169 
L 1581 2169 
L 1581 331 
L 2241 331 
L 2241 0 
L 353 0 
L 353 331 
L 947 331 
L 947 4331 
L 353 4331 
L 353 4666 
L 2719 4666 
Q 3400 4666 3770 4341 
Q 4141 4016 4141 3419 
Q 4141 2938 3870 2661 
Q 3600 2384 3066 2316 
z
M 1581 2503 
L 2503 2503 
Q 2975 2503 3200 2726 
Q 3425 2950 3425 3419 
Q 3425 3888 3200 4109 
Q 2975 4331 2503 4331 
L 1581 4331 
L 1581 2503 
z
" transform="scale(0.015625)"/>
       <path id="DejaVuSerif-53" d="M 594 225 
L 594 1288 
L 953 1284 
Q 969 753 1261 498 
Q 1553 244 2150 244 
Q 2706 244 2998 464 
Q 3291 684 3291 1106 
Q 3291 1444 3114 1625 
Q 2938 1806 2369 1978 
L 1753 2163 
Q 1084 2366 811 2669 
Q 538 2972 538 3500 
Q 538 4094 959 4422 
Q 1381 4750 2144 4750 
Q 2469 4750 2856 4679 
Q 3244 4609 3681 4475 
L 3681 3481 
L 3328 3481 
Q 3275 3975 2998 4195 
Q 2722 4416 2156 4416 
Q 1663 4416 1405 4214 
Q 1147 4013 1147 3628 
Q 1147 3294 1340 3103 
Q 1534 2913 2163 2725 
L 2741 2553 
Q 3375 2363 3645 2067 
Q 3916 1772 3916 1275 
Q 3916 597 3481 253 
Q 3047 -91 2188 -91 
Q 1803 -91 1404 -12 
Q 1006 66 594 225 
z
" transform="scale(0.015625)"/>
       <path id="DejaVuSerif-5f" d="M 3200 -1259 
L 3200 -1509 
L 0 -1509 
L 0 -1259 
L 3200 -1259 
z
" transform="scale(0.015625)"/>
       <path id="DejaVuSerif-6c" d="M 1313 331 
L 1856 331 
L 1856 0 
L 184 0 
L 184 331 
L 738 331 
L 738 4531 
L 184 4531 
L 184 4863 
L 1313 4863 
L 1313 331 
z
" transform="scale(0.015625)"/>
      </defs>
      <use xlink:href="#DejaVuSerif-52"/>
      <use xlink:href="#DejaVuSerif-4d" transform="translate(75.292969 0)"/>
      <use xlink:href="#DejaVuSerif-53" transform="translate(177.685547 0)"/>
      <use xlink:href="#DejaVuSerif-45" transform="translate(246.191406 0)"/>
      <use xlink:href="#DejaVuSerif-5f" transform="translate(319.189453 0)"/>
      <use xlink:href="#DejaVuSerif-6c" transform="translate(369.189453 0)"/>
      <use xlink:href="#DejaVuSerif-6f" transform="translate(401.171875 0)"/>
      <use xlink:href="#DejaVuSerif-67" transform="translate(461.376953 0)"/>
     </g>
    </g>
   </g>
   <g id="patch_3">
    <path d="M 80.139238 255.528721 
L 107.760238 255.528721 
L 107.760238 134.18745 
L 80.139238 134.18745 
L 80.139238 255.528721 
z
" clip-path="url(#p772abcfa1a)" style="fill: #96cac1; stroke: #5f5f5f; stroke-width: 0.8; stroke-linejoin: miter"/>
   </g>
   <g id="line2d_8">
    <path d="M 93.949738 255.528721 
L 93.949738 301.397826 
" clip-path="url(#p772abcfa1a)" style="fill: none; stroke: #5f5f5f; stroke-width: 0.8"/>
   </g>
   <g id="line2d_9">
    <path d="M 93.949738 134.18745 
L 93.949738 89.73085 
" clip-path="url(#p772abcfa1a)" style="fill: none; stroke: #5f5f5f; stroke-width: 0.8"/>
   </g>
   <g id="line2d_10">
    <path d="M 87.044488 301.397826 
L 100.854988 301.397826 
" clip-path="url(#p772abcfa1a)" style="fill: none; stroke: #5f5f5f; stroke-width: 0.8; stroke-linecap: round"/>
   </g>
   <g id="line2d_11">
    <path d="M 87.044488 89.73085 
L 100.854988 89.73085 
" clip-path="url(#p772abcfa1a)" style="fill: none; stroke: #5f5f5f; stroke-width: 0.8; stroke-linecap: round"/>
   </g>
   <g id="line2d_12"/>
   <g id="patch_4">
    <path d="M 130.359238 260.197861 
L 157.980238 260.197861 
L 157.980238 147.54101 
L 130.359238 147.54101 
L 130.359238 260.197861 
z
" clip-path="url(#p772abcfa1a)" style="fill: #f6f6bc; stroke: #5f5f5f; stroke-width: 0.8; stroke-linejoin: miter"/>
   </g>
   <g id="line2d_13">
    <path d="M 144.169738 260.197861 
L 144.169738 324.829411 
" clip-path="url(#p772abcfa1a)" style="fill: none; stroke: #5f5f5f; stroke-width: 0.8"/>
   </g>
   <g id="line2d_14">
    <path d="M 144.169738 147.54101 
L 144.169738 46.573511 
" clip-path="url(#p772abcfa1a)" style="fill: none; stroke: #5f5f5f; stroke-width: 0.8"/>
   </g>
   <g id="line2d_15">
    <path d="M 137.264488 324.829411 
L 151.074988 324.829411 
" clip-path="url(#p772abcfa1a)" style="fill: none; stroke: #5f5f5f; stroke-width: 0.8; stroke-linecap: round"/>
   </g>
   <g id="line2d_16">
    <path d="M 137.264488 46.573511 
L 151.074988 46.573511 
" clip-path="url(#p772abcfa1a)" style="fill: none; stroke: #5f5f5f; stroke-width: 0.8; stroke-linecap: round"/>
   </g>
   <g id="line2d_17"/>
   <g id="patch_5">
    <path d="M 180.579238 262.960612 
L 208.200238 262.960612 
L 208.200238 136.504719 
L 180.579238 136.504719 
L 180.579238 262.960612 
z
" clip-path="url(#p772abcfa1a)" style="fill: #c1bed6; stroke: #5f5f5f; stroke-width: 0.8; stroke-linejoin: miter"/>
   </g>
   <g id="line2d_18">
    <path d="M 194.389738 262.960612 
L 194.389738 308.418662 
" clip-path="url(#p772abcfa1a)" style="fill: none; stroke: #5f5f5f; stroke-width: 0.8"/>
   </g>
   <g id="line2d_19">
    <path d="M 194.389738 136.504719 
L 194.389738 57.720109 
" clip-path="url(#p772abcfa1a)" style="fill: none; stroke: #5f5f5f; stroke-width: 0.8"/>
   </g>
   <g id="line2d_20">
    <path d="M 187.484488 308.418662 
L 201.294988 308.418662 
" clip-path="url(#p772abcfa1a)" style="fill: none; stroke: #5f5f5f; stroke-width: 0.8; stroke-linecap: round"/>
   </g>
   <g id="line2d_21">
    <path d="M 187.484488 57.720109 
L 201.294988 57.720109 
" clip-path="url(#p772abcfa1a)" style="fill: none; stroke: #5f5f5f; stroke-width: 0.8; stroke-linecap: round"/>
   </g>
   <g id="line2d_22"/>
   <g id="patch_6">
    <path d="M 230.799238 238.021339 
L 258.420238 238.021339 
L 258.420238 167.060452 
L 230.799238 167.060452 
L 230.799238 238.021339 
z
" clip-path="url(#p772abcfa1a)" style="fill: #ea8e83; stroke: #5f5f5f; stroke-width: 0.8; stroke-linejoin: miter"/>
   </g>
   <g id="line2d_23">
    <path d="M 244.609738 238.021339 
L 244.609738 327.691124 
" clip-path="url(#p772abcfa1a)" style="fill: none; stroke: #5f5f5f; stroke-width: 0.8"/>
   </g>
   <g id="line2d_24">
    <path d="M 244.609738 167.060452 
L 244.609738 144.395799 
" clip-path="url(#p772abcfa1a)" style="fill: none; stroke: #5f5f5f; stroke-width: 0.8"/>
   </g>
   <g id="line2d_25">
    <path d="M 237.704488 327.691124 
L 251.514988 327.691124 
" clip-path="url(#p772abcfa1a)" style="fill: none; stroke: #5f5f5f; stroke-width: 0.8; stroke-linecap: round"/>
   </g>
   <g id="line2d_26">
    <path d="M 237.704488 144.395799 
L 251.514988 144.395799 
" clip-path="url(#p772abcfa1a)" style="fill: none; stroke: #5f5f5f; stroke-width: 0.8; stroke-linecap: round"/>
   </g>
   <g id="line2d_27"/>
   <g id="patch_7">
    <path d="M 281.019238 250.95023 
L 308.640238 250.95023 
L 308.640238 151.080495 
L 281.019238 151.080495 
L 281.019238 250.95023 
z
" clip-path="url(#p772abcfa1a)" style="fill: #8aafc9; stroke: #5f5f5f; stroke-width: 0.8; stroke-linejoin: miter"/>
   </g>
   <g id="line2d_28">
    <path d="M 294.829738 250.95023 
L 294.829738 276.207167 
" clip-path="url(#p772abcfa1a)" style="fill: none; stroke: #5f5f5f; stroke-width: 0.8"/>
   </g>
   <g id="line2d_29">
    <path d="M 294.829738 151.080495 
L 294.829738 106.574821 
" clip-path="url(#p772abcfa1a)" style="fill: none; stroke: #5f5f5f; stroke-width: 0.8"/>
   </g>
   <g id="line2d_30">
    <path d="M 287.924488 276.207167 
L 301.734988 276.207167 
" clip-path="url(#p772abcfa1a)" style="fill: none; stroke: #5f5f5f; stroke-width: 0.8; stroke-linecap: round"/>
   </g>
   <g id="line2d_31">
    <path d="M 287.924488 106.574821 
L 301.734988 106.574821 
" clip-path="url(#p772abcfa1a)" style="fill: none; stroke: #5f5f5f; stroke-width: 0.8; stroke-linecap: round"/>
   </g>
   <g id="line2d_32"/>
   <g id="patch_8">
    <path d="M 331.239238 260.306998 
L 358.860238 260.306998 
L 358.860238 124.377706 
L 331.239238 124.377706 
L 331.239238 260.306998 
z
" clip-path="url(#p772abcfa1a)" style="fill: #eab375; stroke: #5f5f5f; stroke-width: 0.8; stroke-linejoin: miter"/>
   </g>
   <g id="line2d_33">
    <path d="M 345.049738 260.306998 
L 345.049738 313.240664 
" clip-path="url(#p772abcfa1a)" style="fill: none; stroke: #5f5f5f; stroke-width: 0.8"/>
   </g>
   <g id="line2d_34">
    <path d="M 345.049738 124.377706 
L 345.049738 80.187938 
" clip-path="url(#p772abcfa1a)" style="fill: none; stroke: #5f5f5f; stroke-width: 0.8"/>
   </g>
   <g id="line2d_35">
    <path d="M 338.144488 313.240664 
L 351.954988 313.240664 
" clip-path="url(#p772abcfa1a)" style="fill: none; stroke: #5f5f5f; stroke-width: 0.8; stroke-linecap: round"/>
   </g>
   <g id="line2d_36">
    <path d="M 338.144488 80.187938 
L 351.954988 80.187938 
" clip-path="url(#p772abcfa1a)" style="fill: none; stroke: #5f5f5f; stroke-width: 0.8; stroke-linecap: round"/>
   </g>
   <g id="line2d_37"/>
   <g id="patch_9">
    <path d="M 381.459238 257.064179 
L 409.080238 257.064179 
L 409.080238 145.420914 
L 381.459238 145.420914 
L 381.459238 257.064179 
z
" clip-path="url(#p772abcfa1a)" style="fill: #afcf78; stroke: #5f5f5f; stroke-width: 0.8; stroke-linejoin: miter"/>
   </g>
   <g id="line2d_38">
    <path d="M 395.269738 257.064179 
L 395.269738 292.139729 
" clip-path="url(#p772abcfa1a)" style="fill: none; stroke: #5f5f5f; stroke-width: 0.8"/>
   </g>
   <g id="line2d_39">
    <path d="M 395.269738 145.420914 
L 395.269738 38.057161 
" clip-path="url(#p772abcfa1a)" style="fill: none; stroke: #5f5f5f; stroke-width: 0.8"/>
   </g>
   <g id="line2d_40">
    <path d="M 388.364488 292.139729 
L 402.174988 292.139729 
" clip-path="url(#p772abcfa1a)" style="fill: none; stroke: #5f5f5f; stroke-width: 0.8; stroke-linecap: round"/>
   </g>
   <g id="line2d_41">
    <path d="M 388.364488 38.057161 
L 402.174988 38.057161 
" clip-path="url(#p772abcfa1a)" style="fill: none; stroke: #5f5f5f; stroke-width: 0.8; stroke-linecap: round"/>
   </g>
   <g id="line2d_42"/>
   <g id="patch_10">
    <path d="M 431.679238 233.53901 
L 459.300238 233.53901 
L 459.300238 145.352981 
L 431.679238 145.352981 
L 431.679238 233.53901 
z
" clip-path="url(#p772abcfa1a)" style="fill: #f6d3e5; stroke: #5f5f5f; stroke-width: 0.8; stroke-linejoin: miter"/>
   </g>
   <g id="line2d_43">
    <path d="M 445.489738 233.53901 
L 445.489738 340.294031 
" clip-path="url(#p772abcfa1a)" style="fill: none; stroke: #5f5f5f; stroke-width: 0.8"/>
   </g>
   <g id="line2d_44">
    <path d="M 445.489738 145.352981 
L 445.489738 85.643007 
" clip-path="url(#p772abcfa1a)" style="fill: none; stroke: #5f5f5f; stroke-width: 0.8"/>
   </g>
   <g id="line2d_45">
    <path d="M 438.584488 340.294031 
L 452.394988 340.294031 
" clip-path="url(#p772abcfa1a)" style="fill: none; stroke: #5f5f5f; stroke-width: 0.8; stroke-linecap: round"/>
   </g>
   <g id="line2d_46">
    <path d="M 438.584488 85.643007 
L 452.394988 85.643007 
" clip-path="url(#p772abcfa1a)" style="fill: none; stroke: #5f5f5f; stroke-width: 0.8; stroke-linecap: round"/>
   </g>
   <g id="line2d_47"/>
   <g id="patch_11">
    <path d="M 481.899238 258.165305 
L 509.520238 258.165305 
L 509.520238 130.753348 
L 481.899238 130.753348 
L 481.899238 258.165305 
z
" clip-path="url(#p772abcfa1a)" style="fill: #d9d9d9; stroke: #5f5f5f; stroke-width: 0.8; stroke-linejoin: miter"/>
   </g>
   <g id="line2d_48">
    <path d="M 495.709738 258.165305 
L 495.709738 292.613902 
" clip-path="url(#p772abcfa1a)" style="fill: none; stroke: #5f5f5f; stroke-width: 0.8"/>
   </g>
   <g id="line2d_49">
    <path d="M 495.709738 130.753348 
L 495.709738 72.181938 
" clip-path="url(#p772abcfa1a)" style="fill: none; stroke: #5f5f5f; stroke-width: 0.8"/>
   </g>
   <g id="line2d_50">
    <path d="M 488.804488 292.613902 
L 502.614988 292.613902 
" clip-path="url(#p772abcfa1a)" style="fill: none; stroke: #5f5f5f; stroke-width: 0.8; stroke-linecap: round"/>
   </g>
   <g id="line2d_51">
    <path d="M 488.804488 72.181938 
L 502.614988 72.181938 
" clip-path="url(#p772abcfa1a)" style="fill: none; stroke: #5f5f5f; stroke-width: 0.8; stroke-linecap: round"/>
   </g>
   <g id="line2d_52"/>
   <g id="patch_12">
    <path d="M 532.119238 241.186364 
L 559.740238 241.186364 
L 559.740238 148.068119 
L 532.119238 148.068119 
L 532.119238 241.186364 
z
" clip-path="url(#p772abcfa1a)" style="fill: #b588b5; stroke: #5f5f5f; stroke-width: 0.8; stroke-linejoin: miter"/>
   </g>
   <g id="line2d_53">
    <path d="M 545.929738 241.186364 
L 545.929738 286.741229 
" clip-path="url(#p772abcfa1a)" style="fill: none; stroke: #5f5f5f; stroke-width: 0.8"/>
   </g>
   <g id="line2d_54">
    <path d="M 545.929738 148.068119 
L 545.929738 59.942323 
" clip-path="url(#p772abcfa1a)" style="fill: none; stroke: #5f5f5f; stroke-width: 0.8"/>
   </g>
   <g id="line2d_55">
    <path d="M 539.024488 286.741229 
L 552.834988 286.741229 
" clip-path="url(#p772abcfa1a)" style="fill: none; stroke: #5f5f5f; stroke-width: 0.8; stroke-linecap: round"/>
   </g>
   <g id="line2d_56">
    <path d="M 539.024488 59.942323 
L 552.834988 59.942323 
" clip-path="url(#p772abcfa1a)" style="fill: none; stroke: #5f5f5f; stroke-width: 0.8; stroke-linecap: round"/>
   </g>
   <g id="line2d_57"/>
   <g id="line2d_58">
    <path d="M 80.139238 216.075795 
L 107.760238 216.075795 
" clip-path="url(#p772abcfa1a)" style="fill: none; stroke: #5f5f5f; stroke-width: 0.8"/>
   </g>
   <g id="line2d_59">
    <path d="M 80.139238 198.090973 
L 107.760238 198.090973 
" clip-path="url(#p772abcfa1a)" style="fill: none; stroke: #ff0000; stroke-opacity: 0.65; stroke-width: 1.6"/>
   </g>
   <g id="line2d_60">
    <path d="M 130.359238 194.050436 
L 157.980238 194.050436 
" clip-path="url(#p772abcfa1a)" style="fill: none; stroke: #5f5f5f; stroke-width: 0.8"/>
   </g>
   <g id="line2d_61">
    <path d="M 130.359238 197.275871 
L 157.980238 197.275871 
" clip-path="url(#p772abcfa1a)" style="fill: none; stroke: #ff0000; stroke-opacity: 0.65; stroke-width: 1.6"/>
   </g>
   <g id="line2d_62">
    <path d="M 180.579238 205.079246 
L 208.200238 205.079246 
" clip-path="url(#p772abcfa1a)" style="fill: none; stroke: #5f5f5f; stroke-width: 0.8"/>
   </g>
   <g id="line2d_63">
    <path d="M 180.579238 195.735526 
L 208.200238 195.735526 
" clip-path="url(#p772abcfa1a)" style="fill: none; stroke: #ff0000; stroke-opacity: 0.65; stroke-width: 1.6"/>
   </g>
   <g id="line2d_64">
    <path d="M 230.799238 193.261768 
L 258.420238 193.261768 
" clip-path="url(#p772abcfa1a)" style="fill: none; stroke: #5f5f5f; stroke-width: 0.8"/>
   </g>
   <g id="line2d_65">
    <path d="M 230.799238 195.572929 
L 258.420238 195.572929 
" clip-path="url(#p772abcfa1a)" style="fill: none; stroke: #ff0000; stroke-opacity: 0.65; stroke-width: 1.6"/>
   </g>
   <g id="line2d_66">
    <path d="M 281.019238 178.251653 
L 308.640238 178.251653 
" clip-path="url(#p772abcfa1a)" style="fill: none; stroke: #5f5f5f; stroke-width: 0.8"/>
   </g>
   <g id="line2d_67">
    <path d="M 281.019238 195.013585 
L 308.640238 195.013585 
" clip-path="url(#p772abcfa1a)" style="fill: none; stroke: #ff0000; stroke-opacity: 0.65; stroke-width: 1.6"/>
   </g>
   <g id="line2d_68">
    <path d="M 331.239238 193.89552 
L 358.860238 193.89552 
" clip-path="url(#p772abcfa1a)" style="fill: none; stroke: #5f5f5f; stroke-width: 0.8"/>
   </g>
   <g id="line2d_69">
    <path d="M 331.239238 193.813362 
L 358.860238 193.813362 
" clip-path="url(#p772abcfa1a)" style="fill: none; stroke: #ff0000; stroke-opacity: 0.65; stroke-width: 1.6"/>
   </g>
   <g id="line2d_70">
    <path d="M 381.459238 220.256808 
L 409.080238 220.256808 
" clip-path="url(#p772abcfa1a)" style="fill: none; stroke: #5f5f5f; stroke-width: 0.8"/>
   </g>
   <g id="line2d_71">
    <path d="M 381.459238 193.631984 
L 409.080238 193.631984 
" clip-path="url(#p772abcfa1a)" style="fill: none; stroke: #ff0000; stroke-opacity: 0.65; stroke-width: 1.6"/>
   </g>
   <g id="line2d_72">
    <path d="M 431.679238 170.939834 
L 459.300238 170.939834 
" clip-path="url(#p772abcfa1a)" style="fill: none; stroke: #5f5f5f; stroke-width: 0.8"/>
   </g>
   <g id="line2d_73">
    <path d="M 431.679238 193.522979 
L 459.300238 193.522979 
" clip-path="url(#p772abcfa1a)" style="fill: none; stroke: #ff0000; stroke-opacity: 0.65; stroke-width: 1.6"/>
   </g>
   <g id="line2d_74">
    <path d="M 481.899238 211.88285 
L 509.520238 211.88285 
" clip-path="url(#p772abcfa1a)" style="fill: none; stroke: #5f5f5f; stroke-width: 0.8"/>
   </g>
   <g id="line2d_75">
    <path d="M 481.899238 193.502285 
L 509.520238 193.502285 
" clip-path="url(#p772abcfa1a)" style="fill: none; stroke: #ff0000; stroke-opacity: 0.65; stroke-width: 1.6"/>
   </g>
   <g id="line2d_76">
    <path d="M 532.119238 210.434805 
L 559.740238 210.434805 
" clip-path="url(#p772abcfa1a)" style="fill: none; stroke: #5f5f5f; stroke-width: 0.8"/>
   </g>
   <g id="line2d_77">
    <path d="M 532.119238 190.803903 
L 559.740238 190.803903 
" clip-path="url(#p772abcfa1a)" style="fill: none; stroke: #ff0000; stroke-opacity: 0.65; stroke-width: 1.6"/>
   </g>
   <g id="patch_13">
    <path d="M 68.839738 355.414031 
L 68.839738 22.774031 
" style="fill: none; stroke: #cccccc; stroke-width: 1.25; stroke-linejoin: miter; stroke-linecap: square"/>
   </g>
   <g id="patch_14">
    <path d="M 571.039738 355.414031 
L 571.039738 22.774031 
" style="fill: none; stroke: #cccccc; stroke-width: 1.25; stroke-linejoin: miter; stroke-linecap: square"/>
   </g>
   <g id="patch_15">
    <path d="M 68.839738 355.414031 
L 571.039738 355.414031 
" style="fill: none; stroke: #cccccc; stroke-width: 1.25; stroke-linejoin: miter; stroke-linecap: square"/>
   </g>
   <g id="patch_16">
    <path d="M 68.839738 22.774031 
L 571.039738 22.774031 
" style="fill: none; stroke: #cccccc; stroke-width: 1.25; stroke-linejoin: miter; stroke-linecap: square"/>
   </g>
   <g id="PathCollection_1">
    <defs>
     <path id="m270cc73f16" d="M 0 2.5 
C 0.663008 2.5 1.29895 2.236584 1.767767 1.767767 
C 2.236584 1.29895 2.5 0.663008 2.5 0 
C 2.5 -0.663008 2.236584 -1.29895 1.767767 -1.767767 
C 1.29895 -2.236584 0.663008 -2.5 0 -2.5 
C -0.663008 -2.5 -1.29895 -2.236584 -1.767767 -1.767767 
C -2.236584 -1.29895 -2.5 -0.663008 -2.5 0 
C -2.5 0.663008 -2.236584 1.29895 -1.767767 1.767767 
C -1.29895 2.236584 -0.663008 2.5 0 2.5 
z
"/>
    </defs>
    <g clip-path="url(#p772abcfa1a)">
     <use xlink:href="#m270cc73f16" x="92.193903" y="301.397826" style="fill-opacity: 0.75"/>
     <use xlink:href="#m270cc73f16" x="92.62511" y="89.73085" style="fill-opacity: 0.75"/>
     <use xlink:href="#m270cc73f16" x="92.06936" y="241.918632" style="fill-opacity: 0.75"/>
     <use xlink:href="#m270cc73f16" x="89.499446" y="269.13881" style="fill-opacity: 0.75"/>
     <use xlink:href="#m270cc73f16" x="89.812161" y="216.075795" style="fill-opacity: 0.75"/>
     <use xlink:href="#m270cc73f16" x="95.893076" y="157.141578" style="fill-opacity: 0.75"/>
     <use xlink:href="#m270cc73f16" x="98.332117" y="111.233322" style="fill-opacity: 0.75"/>
    </g>
   </g>
   <g id="PathCollection_2">
    <g clip-path="url(#p772abcfa1a)">
     <use xlink:href="#m270cc73f16" x="146.117691" y="287.973564" style="fill-opacity: 0.75"/>
     <use xlink:href="#m270cc73f16" x="139.844826" y="126.748224" style="fill-opacity: 0.75"/>
     <use xlink:href="#m270cc73f16" x="143.335129" y="324.829411" style="fill-opacity: 0.75"/>
     <use xlink:href="#m270cc73f16" x="146.467584" y="194.050436" style="fill-opacity: 0.75"/>
     <use xlink:href="#m270cc73f16" x="143.589084" y="232.422159" style="fill-opacity: 0.75"/>
     <use xlink:href="#m270cc73f16" x="148.834975" y="168.333796" style="fill-opacity: 0.75"/>
     <use xlink:href="#m270cc73f16" x="140.32885" y="46.573511" style="fill-opacity: 0.75"/>
    </g>
   </g>
   <g id="PathCollection_3">
    <g clip-path="url(#p772abcfa1a)">
     <use xlink:href="#m270cc73f16" x="193.369749" y="308.418662" style="fill-opacity: 0.75"/>
     <use xlink:href="#m270cc73f16" x="191.808395" y="57.720109" style="fill-opacity: 0.75"/>
     <use xlink:href="#m270cc73f16" x="196.656669" y="262.568448" style="fill-opacity: 0.75"/>
     <use xlink:href="#m270cc73f16" x="190.899607" y="263.352777" style="fill-opacity: 0.75"/>
     <use xlink:href="#m270cc73f16" x="195.094269" y="205.079246" style="fill-opacity: 0.75"/>
     <use xlink:href="#m270cc73f16" x="193.894922" y="155.184258" style="fill-opacity: 0.75"/>
     <use xlink:href="#m270cc73f16" x="192.834065" y="117.82518" style="fill-opacity: 0.75"/>
    </g>
   </g>
   <g id="PathCollection_4">
    <g clip-path="url(#p772abcfa1a)">
     <use xlink:href="#m270cc73f16" x="247.749803" y="258.046289" style="fill-opacity: 0.75"/>
     <use xlink:href="#m270cc73f16" x="241.580229" y="144.395799" style="fill-opacity: 0.75"/>
     <use xlink:href="#m270cc73f16" x="247.96463" y="327.691124" style="fill-opacity: 0.75"/>
     <use xlink:href="#m270cc73f16" x="244.584705" y="217.996389" style="fill-opacity: 0.75"/>
     <use xlink:href="#m270cc73f16" x="248.032865" y="193.261768" style="fill-opacity: 0.75"/>
     <use xlink:href="#m270cc73f16" x="245.12675" y="189.725105" style="fill-opacity: 0.75"/>
     <use xlink:href="#m270cc73f16" x="244.389867" y="37.894031" style="fill-opacity: 0.75"/>
    </g>
   </g>
   <g id="PathCollection_5">
    <g clip-path="url(#p772abcfa1a)">
     <use xlink:href="#m270cc73f16" x="299.064498" y="233.729401" style="fill-opacity: 0.75"/>
     <use xlink:href="#m270cc73f16" x="295.600853" y="106.574821" style="fill-opacity: 0.75"/>
     <use xlink:href="#m270cc73f16" x="290.608381" y="268.17106" style="fill-opacity: 0.75"/>
     <use xlink:href="#m270cc73f16" x="298.511965" y="172.727481" style="fill-opacity: 0.75"/>
     <use xlink:href="#m270cc73f16" x="297.44967" y="276.207167" style="fill-opacity: 0.75"/>
     <use xlink:href="#m270cc73f16" x="294.475185" y="178.251653" style="fill-opacity: 0.75"/>
     <use xlink:href="#m270cc73f16" x="298.161605" y="129.433509" style="fill-opacity: 0.75"/>
    </g>
   </g>
   <g id="PathCollection_6">
    <g clip-path="url(#p772abcfa1a)">
     <use xlink:href="#m270cc73f16" x="345.883362" y="313.240664" style="fill-opacity: 0.75"/>
     <use xlink:href="#m270cc73f16" x="345.106634" y="80.187938" style="fill-opacity: 0.75"/>
     <use xlink:href="#m270cc73f16" x="348.200696" y="253.053246" style="fill-opacity: 0.75"/>
     <use xlink:href="#m270cc73f16" x="344.55873" y="267.560751" style="fill-opacity: 0.75"/>
     <use xlink:href="#m270cc73f16" x="340.360129" y="193.89552" style="fill-opacity: 0.75"/>
     <use xlink:href="#m270cc73f16" x="341.25167" y="147.256102" style="fill-opacity: 0.75"/>
     <use xlink:href="#m270cc73f16" x="349.069027" y="101.499311" style="fill-opacity: 0.75"/>
    </g>
   </g>
   <g id="PathCollection_7">
    <g clip-path="url(#p772abcfa1a)">
     <use xlink:href="#m270cc73f16" x="392.055526" y="291.349314" style="fill-opacity: 0.75"/>
     <use xlink:href="#m270cc73f16" x="396.707437" y="133.730842" style="fill-opacity: 0.75"/>
     <use xlink:href="#m270cc73f16" x="392.179806" y="292.139729" style="fill-opacity: 0.75"/>
     <use xlink:href="#m270cc73f16" x="396.769147" y="222.779045" style="fill-opacity: 0.75"/>
     <use xlink:href="#m270cc73f16" x="390.449581" y="220.256808" style="fill-opacity: 0.75"/>
     <use xlink:href="#m270cc73f16" x="390.865575" y="157.110986" style="fill-opacity: 0.75"/>
     <use xlink:href="#m270cc73f16" x="390.526153" y="38.057161" style="fill-opacity: 0.75"/>
    </g>
   </g>
   <g id="PathCollection_8">
    <g clip-path="url(#p772abcfa1a)">
     <use xlink:href="#m270cc73f16" x="449.181757" y="249.628978" style="fill-opacity: 0.75"/>
     <use xlink:href="#m270cc73f16" x="441.722787" y="125.773195" style="fill-opacity: 0.75"/>
     <use xlink:href="#m270cc73f16" x="446.001066" y="340.294031" style="fill-opacity: 0.75"/>
     <use xlink:href="#m270cc73f16" x="442.894155" y="164.932767" style="fill-opacity: 0.75"/>
     <use xlink:href="#m270cc73f16" x="441.273426" y="217.449043" style="fill-opacity: 0.75"/>
     <use xlink:href="#m270cc73f16" x="449.715353" y="170.939834" style="fill-opacity: 0.75"/>
     <use xlink:href="#m270cc73f16" x="445.657647" y="85.643007" style="fill-opacity: 0.75"/>
    </g>
   </g>
   <g id="PathCollection_9">
    <g clip-path="url(#p772abcfa1a)">
     <use xlink:href="#m270cc73f16" x="499.808016" y="292.613902" style="fill-opacity: 0.75"/>
     <use xlink:href="#m270cc73f16" x="491.725085" y="72.181938" style="fill-opacity: 0.75"/>
     <use xlink:href="#m270cc73f16" x="497.186516" y="255.609069" style="fill-opacity: 0.75"/>
     <use xlink:href="#m270cc73f16" x="500.724091" y="260.721542" style="fill-opacity: 0.75"/>
     <use xlink:href="#m270cc73f16" x="494.188221" y="211.88285" style="fill-opacity: 0.75"/>
     <use xlink:href="#m270cc73f16" x="493.375385" y="149.318477" style="fill-opacity: 0.75"/>
     <use xlink:href="#m270cc73f16" x="491.157182" y="112.188219" style="fill-opacity: 0.75"/>
    </g>
   </g>
   <g id="PathCollection_10">
    <g clip-path="url(#p772abcfa1a)">
     <use xlink:href="#m270cc73f16" x="544.153051" y="258.786495" style="fill-opacity: 0.75"/>
     <use xlink:href="#m270cc73f16" x="549.497783" y="137.00569" style="fill-opacity: 0.75"/>
     <use xlink:href="#m270cc73f16" x="550.058893" y="286.741229" style="fill-opacity: 0.75"/>
     <use xlink:href="#m270cc73f16" x="545.362544" y="159.130547" style="fill-opacity: 0.75"/>
     <use xlink:href="#m270cc73f16" x="545.831555" y="223.586233" style="fill-opacity: 0.75"/>
     <use xlink:href="#m270cc73f16" x="548.249966" y="210.434805" style="fill-opacity: 0.75"/>
     <use xlink:href="#m270cc73f16" x="546.12649" y="59.942323" style="fill-opacity: 0.75"/>
    </g>
   </g>
   <g id="text_19">
    <!-- Top 10 - RMSE_log (sorted by mean, best at left; red line = mean) -->
    <g style="fill: #262626" transform="translate(108.837566 16.774031) scale(0.126 -0.126)">
     <defs>
      <path id="DejaVuSerif-70" d="M 1313 1825 
L 1313 1497 
Q 1313 897 1542 583 
Q 1772 269 2209 269 
Q 2650 269 2876 622 
Q 3103 975 3103 1663 
Q 3103 2353 2876 2703 
Q 2650 3053 2209 3053 
Q 1772 3053 1542 2737 
Q 1313 2422 1313 1825 
z
M 738 2988 
L 184 2988 
L 184 3322 
L 1313 3322 
L 1313 2803 
Q 1481 3116 1742 3264 
Q 2003 3413 2388 3413 
Q 3000 3413 3387 2928 
Q 3775 2444 3775 1663 
Q 3775 881 3387 395 
Q 3000 -91 2388 -91 
Q 2003 -91 1742 57 
Q 1481 206 1313 519 
L 1313 -997 
L 1856 -997 
L 1856 -1331 
L 184 -1331 
L 184 -997 
L 738 -997 
L 738 2988 
z
" transform="scale(0.015625)"/>
      <path id="DejaVuSerif-31" d="M 909 0 
L 909 331 
L 1722 331 
L 1722 4213 
L 781 3603 
L 781 4013 
L 1919 4750 
L 2350 4750 
L 2350 331 
L 3163 331 
L 3163 0 
L 909 0 
z
" transform="scale(0.015625)"/>
      <path id="DejaVuSerif-64" d="M 3359 331 
L 3909 331 
L 3909 0 
L 2784 0 
L 2784 519 
Q 2616 206 2355 57 
Q 2094 -91 1709 -91 
Q 1097 -91 708 395 
Q 319 881 319 1663 
Q 319 2444 706 2928 
Q 1094 3413 1709 3413 
Q 2094 3413 2355 3264 
Q 2616 3116 2784 2803 
L 2784 4531 
L 2241 4531 
L 2241 4863 
L 3359 4863 
L 3359 331 
z
M 2784 1497 
L 2784 1825 
Q 2784 2422 2554 2737 
Q 2325 3053 1888 3053 
Q 1444 3053 1217 2703 
Q 991 2353 991 1663 
Q 991 975 1217 622 
Q 1444 269 1888 269 
Q 2325 269 2554 583 
Q 2784 897 2784 1497 
z
" transform="scale(0.015625)"/>
      <path id="DejaVuSerif-62" d="M 738 331 
L 738 4531 
L 184 4531 
L 184 4863 
L 1313 4863 
L 1313 2803 
Q 1481 3116 1742 3264 
Q 2003 3413 2388 3413 
Q 3000 3413 3387 2928 
Q 3775 2444 3775 1663 
Q 3775 881 3387 395 
Q 3000 -91 2388 -91 
Q 2003 -91 1742 57 
Q 1481 206 1313 519 
L 1313 0 
L 184 0 
L 184 331 
L 738 331 
z
M 1313 1497 
Q 1313 897 1542 583 
Q 1772 269 2209 269 
Q 2650 269 2876 622 
Q 3103 975 3103 1663 
Q 3103 2353 2876 2703 
Q 2650 3053 2209 3053 
Q 1772 3053 1542 2737 
Q 1313 2422 1313 1825 
L 1313 1497 
z
" transform="scale(0.015625)"/>
      <path id="DejaVuSerif-79" d="M 1381 -609 
L 1600 -56 
L 359 2988 
L -19 2988 
L -19 3322 
L 1509 3322 
L 1509 2988 
L 978 2988 
L 1913 703 
L 2847 2988 
L 2350 2988 
L 2350 3322 
L 3597 3322 
L 3597 2988 
L 3225 2988 
L 1703 -750 
Q 1547 -1138 1356 -1280 
Q 1166 -1422 819 -1422 
Q 672 -1422 517 -1397 
Q 363 -1372 206 -1325 
L 206 -691 
L 500 -691 
Q 519 -903 608 -995 
Q 697 -1088 884 -1088 
Q 1056 -1088 1161 -992 
Q 1266 -897 1381 -609 
z
" transform="scale(0.015625)"/>
      <path id="DejaVuSerif-6d" d="M 3316 2675 
Q 3481 3041 3739 3227 
Q 3997 3413 4341 3413 
Q 4863 3413 5119 3089 
Q 5375 2766 5375 2113 
L 5375 331 
L 5894 331 
L 5894 0 
L 4300 0 
L 4300 331 
L 4800 331 
L 4800 2047 
Q 4800 2556 4650 2772 
Q 4500 2988 4153 2988 
Q 3769 2988 3567 2697 
Q 3366 2406 3366 1850 
L 3366 331 
L 3866 331 
L 3866 0 
L 2291 0 
L 2291 331 
L 2791 331 
L 2791 2069 
Q 2791 2566 2641 2777 
Q 2491 2988 2144 2988 
Q 1759 2988 1557 2697 
Q 1356 2406 1356 1850 
L 1356 331 
L 1856 331 
L 1856 0 
L 263 0 
L 263 331 
L 781 331 
L 781 2994 
L 231 2994 
L 231 3322 
L 1356 3322 
L 1356 2731 
Q 1516 3063 1762 3238 
Q 2009 3413 2322 3413 
Q 2709 3413 2968 3220 
Q 3228 3028 3316 2675 
z
" transform="scale(0.015625)"/>
      <path id="DejaVuSerif-6e" d="M 263 0 
L 263 331 
L 781 331 
L 781 2988 
L 231 2988 
L 231 3322 
L 1356 3322 
L 1356 2731 
Q 1516 3069 1770 3241 
Q 2025 3413 2363 3413 
Q 2913 3413 3172 3097 
Q 3431 2781 3431 2113 
L 3431 331 
L 3944 331 
L 3944 0 
L 2356 0 
L 2356 331 
L 2853 331 
L 2853 1931 
Q 2853 2541 2703 2767 
Q 2553 2994 2175 2994 
Q 1775 2994 1565 2701 
Q 1356 2409 1356 1850 
L 1356 331 
L 1856 331 
L 1856 0 
L 263 0 
z
" transform="scale(0.015625)"/>
      <path id="DejaVuSerif-2c" d="M 231 -622 
Q 525 -406 662 -114 
Q 800 178 800 594 
L 800 709 
L 1416 709 
Q 1391 175 1164 -208 
Q 938 -591 481 -872 
L 231 -622 
z
" transform="scale(0.015625)"/>
      <path id="DejaVuSerif-66" d="M 2753 4078 
L 2450 4078 
Q 2447 4313 2317 4434 
Q 2188 4556 1941 4556 
Q 1619 4556 1487 4379 
Q 1356 4203 1356 3750 
L 1356 3322 
L 2284 3322 
L 2284 2988 
L 1356 2988 
L 1356 331 
L 2094 331 
L 2094 0 
L 231 0 
L 231 331 
L 781 331 
L 781 2988 
L 231 2988 
L 231 3322 
L 781 3322 
L 781 3738 
Q 781 4294 1070 4578 
Q 1359 4863 1919 4863 
Q 2128 4863 2337 4825 
Q 2547 4788 2753 4709 
L 2753 4078 
z
" transform="scale(0.015625)"/>
      <path id="DejaVuSerif-3b" d="M 231 -622 
Q 525 -406 662 -114 
Q 800 178 800 594 
L 800 709 
L 1416 709 
Q 1391 175 1164 -208 
Q 938 -591 481 -872 
L 231 -622 
z
M 678 2363 
Q 678 2538 798 2658 
Q 919 2778 1094 2778 
Q 1269 2778 1389 2656 
Q 1509 2534 1509 2363 
Q 1509 2188 1389 2067 
Q 1269 1947 1094 1947 
Q 919 1947 798 2067 
Q 678 2188 678 2363 
z
" transform="scale(0.015625)"/>
      <path id="DejaVuSerif-3d" d="M 678 2894 
L 4684 2894 
L 4684 2394 
L 678 2394 
L 678 2894 
z
M 678 1619 
L 4684 1619 
L 4684 1119 
L 678 1119 
L 678 1619 
z
" transform="scale(0.015625)"/>
     </defs>
     <use xlink:href="#DejaVuSerif-54"/>
     <use xlink:href="#DejaVuSerif-6f" transform="translate(58.949219 0)"/>
     <use xlink:href="#DejaVuSerif-70" transform="translate(119.154297 0)"/>
     <use xlink:href="#DejaVuSerif-20" transform="translate(183.167969 0)"/>
     <use xlink:href="#DejaVuSerif-31" transform="translate(214.955078 0)"/>
     <use xlink:href="#DejaVuSerif-30" transform="translate(278.578125 0)"/>
     <use xlink:href="#DejaVuSerif-20" transform="translate(342.201172 0)"/>
     <use xlink:href="#DejaVuSerif-2d" transform="translate(373.988281 0)"/>
     <use xlink:href="#DejaVuSerif-20" transform="translate(407.777344 0)"/>
     <use xlink:href="#DejaVuSerif-52" transform="translate(439.564453 0)"/>
     <use xlink:href="#DejaVuSerif-4d" transform="translate(514.857422 0)"/>
     <use xlink:href="#DejaVuSerif-53" transform="translate(617.25 0)"/>
     <use xlink:href="#DejaVuSerif-45" transform="translate(685.755859 0)"/>
     <use xlink:href="#DejaVuSerif-5f" transform="translate(758.753906 0)"/>
     <use xlink:href="#DejaVuSerif-6c" transform="translate(808.753906 0)"/>
     <use xlink:href="#DejaVuSerif-6f" transform="translate(840.736328 0)"/>
     <use xlink:href="#DejaVuSerif-67" transform="translate(900.941406 0)"/>
     <use xlink:href="#DejaVuSerif-20" transform="translate(964.955078 0)"/>
     <use xlink:href="#DejaVuSerif-28" transform="translate(996.742188 0)"/>
     <use xlink:href="#DejaVuSerif-73" transform="translate(1035.755859 0)"/>
     <use xlink:href="#DejaVuSerif-6f" transform="translate(1087.074219 0)"/>
     <use xlink:href="#DejaVuSerif-72" transform="translate(1147.279297 0)"/>
     <use xlink:href="#DejaVuSerif-74" transform="translate(1195.082031 0)"/>
     <use xlink:href="#DejaVuSerif-65" transform="translate(1235.267578 0)"/>
     <use xlink:href="#DejaVuSerif-64" transform="translate(1294.447266 0)"/>
     <use xlink:href="#DejaVuSerif-20" transform="translate(1358.460938 0)"/>
     <use xlink:href="#DejaVuSerif-62" transform="translate(1390.248047 0)"/>
     <use xlink:href="#DejaVuSerif-79" transform="translate(1454.261719 0)"/>
     <use xlink:href="#DejaVuSerif-20" transform="translate(1510.755859 0)"/>
     <use xlink:href="#DejaVuSerif-6d" transform="translate(1542.542969 0)"/>
     <use xlink:href="#DejaVuSerif-65" transform="translate(1637.367188 0)"/>
     <use xlink:href="#DejaVuSerif-61" transform="translate(1696.546875 0)"/>
     <use xlink:href="#DejaVuSerif-6e" transform="translate(1756.166016 0)"/>
     <use xlink:href="#DejaVuSerif-2c" transform="translate(1820.570312 0)"/>
     <use xlink:href="#DejaVuSerif-20" transform="translate(1852.357422 0)"/>
     <use xlink:href="#DejaVuSerif-62" transform="translate(1884.144531 0)"/>
     <use xlink:href="#DejaVuSerif-65" transform="translate(1948.158203 0)"/>
     <use xlink:href="#DejaVuSerif-73" transform="translate(2007.337891 0)"/>
     <use xlink:href="#DejaVuSerif-74" transform="translate(2058.65625 0)"/>
     <use xlink:href="#DejaVuSerif-20" transform="translate(2098.841797 0)"/>
     <use xlink:href="#DejaVuSerif-61" transform="translate(2130.628906 0)"/>
     <use xlink:href="#DejaVuSerif-74" transform="translate(2190.248047 0)"/>
     <use xlink:href="#DejaVuSerif-20" transform="translate(2230.433594 0)"/>
     <use xlink:href="#DejaVuSerif-6c" transform="translate(2262.220703 0)"/>
     <use xlink:href="#DejaVuSerif-65" transform="translate(2294.203125 0)"/>
     <use xlink:href="#DejaVuSerif-66" transform="translate(2353.382812 0)"/>
     <use xlink:href="#DejaVuSerif-74" transform="translate(2390.394531 0)"/>
     <use xlink:href="#DejaVuSerif-3b" transform="translate(2430.580078 0)"/>
     <use xlink:href="#DejaVuSerif-20" transform="translate(2464.271484 0)"/>
     <use xlink:href="#DejaVuSerif-72" transform="translate(2496.058594 0)"/>
     <use xlink:href="#DejaVuSerif-65" transform="translate(2543.861328 0)"/>
     <use xlink:href="#DejaVuSerif-64" transform="translate(2603.041016 0)"/>
     <use xlink:href="#DejaVuSerif-20" transform="translate(2667.054688 0)"/>
     <use xlink:href="#DejaVuSerif-6c" transform="translate(2698.841797 0)"/>
     <use xlink:href="#DejaVuSerif-69" transform="translate(2730.824219 0)"/>
     <use xlink:href="#DejaVuSerif-6e" transform="translate(2762.806641 0)"/>
     <use xlink:href="#DejaVuSerif-65" transform="translate(2827.210938 0)"/>
     <use xlink:href="#DejaVuSerif-20" transform="translate(2886.390625 0)"/>
     <use xlink:href="#DejaVuSerif-3d" transform="translate(2918.177734 0)"/>
     <use xlink:href="#DejaVuSerif-20" transform="translate(3001.966797 0)"/>
     <use xlink:href="#DejaVuSerif-6d" transform="translate(3033.753906 0)"/>
     <use xlink:href="#DejaVuSerif-65" transform="translate(3128.578125 0)"/>
     <use xlink:href="#DejaVuSerif-61" transform="translate(3187.757812 0)"/>
     <use xlink:href="#DejaVuSerif-6e" transform="translate(3247.376953 0)"/>
     <use xlink:href="#DejaVuSerif-29" transform="translate(3311.78125 0)"/>
    </g>
   </g>
  </g>
 </g>
 <defs>
  <clipPath id="p772abcfa1a">
   <rect x="68.839738" y="22.774031" width="502.2" height="332.64"/>
  </clipPath>
 </defs>
</svg>
