<?xml version="1.0" encoding="utf-8" standalone="no"?>
<!DOCTYPE svg PUBLIC "-//W3C//DTD SVG 1.1//EN"
  "http://www.w3.org/Graphics/SVG/1.1/DTD/svg11.dtd">
<svg xmlns:xlink="http://www.w3.org/1999/xlink" width="568.361672pt" height="455.277141pt" viewBox="0 0 568.361672 455.277141" xmlns="http://www.w3.org/2000/svg" version="1.1">
 <metadata>
  <rdf:RDF xmlns:dc="http://purl.org/dc/elements/1.1/" xmlns:cc="http://creativecommons.org/ns#" xmlns:rdf="http://www.w3.org/1999/02/22-rdf-syntax-ns#">
   <cc:Work>
    <dc:type rdf:resource="http://purl.org/dc/dcmitype/StillImage"/>
    <dc:date>2026-04-14T14:26:56.206277</dc:date>
    <dc:format>image/svg+xml</dc:format>
    <dc:creator>
     <cc:Agent>
      <dc:title>Matplotlib v3.10.8, https://matplotlib.org/</dc:title>
     </cc:Agent>
    </dc:creator>
   </cc:Work>
  </rdf:RDF>
 </metadata>
 <defs>
  <style type="text/css">*{stroke-linejoin: round; stroke-linecap: butt}</style>
 </defs>
 <g id="figure_1">
  <g id="patch_1">
   <path d="M -0 455.277141 
L 568.361672 455.277141 
L 568.361672 0 
L -0 0 
z
" style="fill: #ffffff"/>
  </g>
  <g id="axes_1">
   <g id="patch_2">
    <path d="M 58.961672 410.854031 
L 561.161672 410.854031 
L 561.161672 22.774031 
L 58.961672 22.774031 
z
" style="fill: #ffffff"/>
   </g>
   <g id="matplotlib.axis_1">
    <g id="xtick_1">
     <g id="line2d_1">
      <path d="M 88.673638 410.854031 
L 88.673638 22.774031 
" clip-path="url(#p73caf0e744)" style="fill: none; stroke: #cccccc; stroke-linecap: round"/>
     </g>
     <g id="text_1">
      <!-- 0.675 -->
      <g style="fill: #262626" transform="translate(72.140896 429.130227) scale(0.1155 -0.1155)">
       <defs>
        <path id="DejaVuSerif-30" d="M 2034 219 
Q 2513 219 2750 744 
Q 2988 1269 2988 2328 
Q 2988 3391 2750 3916 
Q 2513 4441 2034 4441 
Q 1556 4441 1318 3916 
Q 1081 3391 1081 2328 
Q 1081 1269 1318 744 
Q 1556 219 2034 219 
z
M 2034 -91 
Q 1275 -91 848 546 
Q 422 1184 422 2328 
Q 422 3475 848 4112 
Q 1275 4750 2034 4750 
Q 2797 4750 3222 4112 
Q 3647 3475 3647 2328 
Q 3647 1184 3222 546 
Q 2797 -91 2034 -91 
z
" transform="scale(0.015625)"/>
        <path id="DejaVuSerif-2e" d="M 603 325 
Q 603 500 722 622 
Q 841 744 1019 744 
Q 1191 744 1312 622 
Q 1434 500 1434 325 
Q 1434 153 1312 31 
Q 1191 -91 1019 -91 
Q 841 -91 722 29 
Q 603 150 603 325 
z
" transform="scale(0.015625)"/>
        <path id="DejaVuSerif-36" d="M 2094 219 
Q 2534 219 2771 542 
Q 3009 866 3009 1472 
Q 3009 2078 2771 2401 
Q 2534 2725 2094 2725 
Q 1647 2725 1412 2412 
Q 1178 2100 1178 1509 
Q 1178 888 1415 553 
Q 1653 219 2094 219 
z
M 1075 2569 
Q 1288 2803 1556 2918 
Q 1825 3034 2163 3034 
Q 2859 3034 3264 2615 
Q 3669 2197 3669 1472 
Q 3669 763 3233 336 
Q 2797 -91 2069 -91 
Q 1278 -91 853 498 
Q 428 1088 428 2181 
Q 428 3406 931 4078 
Q 1434 4750 2350 4750 
Q 2597 4750 2869 4703 
Q 3141 4656 3425 4563 
L 3425 3794 
L 3072 3794 
Q 3034 4109 2831 4275 
Q 2628 4441 2284 4441 
Q 1678 4441 1381 3981 
Q 1084 3522 1075 2569 
z
" transform="scale(0.015625)"/>
        <path id="DejaVuSerif-37" d="M 3609 4347 
L 1784 0 
L 1319 0 
L 3059 4153 
L 903 4153 
L 903 3578 
L 538 3578 
L 538 4666 
L 3609 4666 
L 3609 4347 
z
" transform="scale(0.015625)"/>
        <path id="DejaVuSerif-35" d="M 3219 4666 
L 3219 4153 
L 1081 4153 
L 1081 2816 
Q 1244 2928 1461 2984 
Q 1678 3041 1947 3041 
Q 2703 3041 3140 2622 
Q 3578 2203 3578 1478 
Q 3578 738 3136 323 
Q 2694 -91 1894 -91 
Q 1572 -91 1234 -12 
Q 897 66 544 225 
L 544 1131 
L 897 1131 
Q 925 688 1179 453 
Q 1434 219 1894 219 
Q 2388 219 2653 544 
Q 2919 869 2919 1478 
Q 2919 2084 2655 2407 
Q 2391 2731 1894 2731 
Q 1613 2731 1398 2631 
Q 1184 2531 1019 2322 
L 750 2322 
L 750 4666 
L 3219 4666 
z
" transform="scale(0.015625)"/>
       </defs>
       <use xlink:href="#DejaVuSerif-30"/>
       <use xlink:href="#DejaVuSerif-2e" transform="translate(63.623047 0)"/>
       <use xlink:href="#DejaVuSerif-36" transform="translate(95.410156 0)"/>
       <use xlink:href="#DejaVuSerif-37" transform="translate(159.033203 0)"/>
       <use xlink:href="#DejaVuSerif-35" transform="translate(222.65625 0)"/>
      </g>
     </g>
    </g>
    <g id="xtick_2">
     <g id="line2d_2">
      <path d="M 150.410224 410.854031 
L 150.410224 22.774031 
" clip-path="url(#p73caf0e744)" style="fill: none; stroke: #cccccc; stroke-linecap: round"/>
     </g>
     <g id="text_2">
      <!-- 0.700 -->
      <g style="fill: #262626" transform="translate(133.877482 429.130227) scale(0.1155 -0.1155)">
       <use xlink:href="#DejaVuSerif-30"/>
       <use xlink:href="#DejaVuSerif-2e" transform="translate(63.623047 0)"/>
       <use xlink:href="#DejaVuSerif-37" transform="translate(95.410156 0)"/>
       <use xlink:href="#DejaVuSerif-30" transform="translate(159.033203 0)"/>
       <use xlink:href="#DejaVuSerif-30" transform="translate(222.65625 0)"/>
      </g>
     </g>
    </g>
    <g id="xtick_3">
     <g id="line2d_3">
      <path d="M 212.146809 410.854031 
L 212.146809 22.774031 
" clip-path="url(#p73caf0e744)" style="fill: none; stroke: #cccccc; stroke-linecap: round"/>
     </g>
     <g id="text_3">
      <!-- 0.725 -->
      <g style="fill: #262626" transform="translate(195.614067 429.130227) scale(0.1155 -0.1155)">
       <defs>
        <path id="DejaVuSerif-32" d="M 819 3553 
L 469 3553 
L 469 4384 
Q 803 4563 1142 4656 
Q 1481 4750 1806 4750 
Q 2534 4750 2956 4397 
Q 3378 4044 3378 3438 
Q 3378 2753 2422 1800 
Q 2347 1728 2309 1691 
L 1131 513 
L 3078 513 
L 3078 1088 
L 3444 1088 
L 3444 0 
L 434 0 
L 434 341 
L 1850 1753 
Q 2319 2222 2519 2614 
Q 2719 3006 2719 3438 
Q 2719 3909 2473 4175 
Q 2228 4441 1797 4441 
Q 1350 4441 1106 4219 
Q 863 3997 819 3553 
z
" transform="scale(0.015625)"/>
       </defs>
       <use xlink:href="#DejaVuSerif-30"/>
       <use xlink:href="#DejaVuSerif-2e" transform="translate(63.623047 0)"/>
       <use xlink:href="#DejaVuSerif-37" transform="translate(95.410156 0)"/>
       <use xlink:href="#DejaVuSerif-32" transform="translate(159.033203 0)"/>
       <use xlink:href="#DejaVuSerif-35" transform="translate(222.65625 0)"/>
      </g>
     </g>
    </g>
    <g id="xtick_4">
     <g id="line2d_4">
      <path d="M 273.883395 410.854031 
L 273.883395 22.774031 
" clip-path="url(#p73caf0e744)" style="fill: none; stroke: #cccccc; stroke-linecap: round"/>
     </g>
     <g id="text_4">
      <!-- 0.750 -->
      <g style="fill: #262626" transform="translate(257.350653 429.130227) scale(0.1155 -0.1155)">
       <use xlink:href="#DejaVuSerif-30"/>
       <use xlink:href="#DejaVuSerif-2e" transform="translate(63.623047 0)"/>
       <use xlink:href="#DejaVuSerif-37" transform="translate(95.410156 0)"/>
       <use xlink:href="#DejaVuSerif-35" transform="translate(159.033203 0)"/>
       <use xlink:href="#DejaVuSerif-30" transform="translate(222.65625 0)"/>
      </g>
     </g>
    </g>
    <g id="xtick_5">
     <g id="line2d_5">
      <path d="M 335.61998 410.854031 
L 335.61998 22.774031 
" clip-path="url(#p73caf0e744)" style="fill: none; stroke: #cccccc; stroke-linecap: round"/>
     </g>
     <g id="text_5">
      <!-- 0.775 -->
      <g style="fill: #262626" transform="translate(319.087238 429.130227) scale(0.1155 -0.1155)">
       <use xlink:href="#DejaVuSerif-30"/>
       <use xlink:href="#DejaVuSerif-2e" transform="translate(63.623047 0)"/>
       <use xlink:href="#DejaVuSerif-37" transform="translate(95.410156 0)"/>
       <use xlink:href="#DejaVuSerif-37" transform="translate(159.033203 0)"/>
       <use xlink:href="#DejaVuSerif-35" transform="translate(222.65625 0)"/>
      </g>
     </g>
    </g>
    <g id="xtick_6">
     <g id="line2d_6">
      <path d="M 397.356566 410.854031 
L 397.356566 22.774031 
" clip-path="url(#p73caf0e744)" style="fill: none; stroke: #cccccc; stroke-linecap: round"/>
     </g>
     <g id="text_6">
      <!-- 0.800 -->
      <g style="fill: #262626" transform="translate(380.823824 429.130227) scale(0.1155 -0.1155)">
       <defs>
        <path id="DejaVuSerif-38" d="M 2981 1275 
Q 2981 1775 2732 2051 
Q 2484 2328 2034 2328 
Q 1584 2328 1336 2051 
Q 1088 1775 1088 1275 
Q 1088 772 1336 495 
Q 1584 219 2034 219 
Q 2484 219 2732 495 
Q 2981 772 2981 1275 
z
M 2853 3541 
Q 2853 3966 2637 4203 
Q 2422 4441 2034 4441 
Q 1650 4441 1433 4203 
Q 1216 3966 1216 3541 
Q 1216 3113 1433 2875 
Q 1650 2638 2034 2638 
Q 2422 2638 2637 2875 
Q 2853 3113 2853 3541 
z
M 2516 2484 
Q 3047 2413 3344 2092 
Q 3641 1772 3641 1275 
Q 3641 619 3225 264 
Q 2809 -91 2034 -91 
Q 1263 -91 845 264 
Q 428 619 428 1275 
Q 428 1772 725 2092 
Q 1022 2413 1556 2484 
Q 1084 2569 832 2842 
Q 581 3116 581 3541 
Q 581 4103 968 4426 
Q 1356 4750 2034 4750 
Q 2713 4750 3100 4426 
Q 3488 4103 3488 3541 
Q 3488 3116 3236 2842 
Q 2984 2569 2516 2484 
z
" transform="scale(0.015625)"/>
       </defs>
       <use xlink:href="#DejaVuSerif-30"/>
       <use xlink:href="#DejaVuSerif-2e" transform="translate(63.623047 0)"/>
       <use xlink:href="#DejaVuSerif-38" transform="translate(95.410156 0)"/>
       <use xlink:href="#DejaVuSerif-30" transform="translate(159.033203 0)"/>
       <use xlink:href="#DejaVuSerif-30" transform="translate(222.65625 0)"/>
      </g>
     </g>
    </g>
    <g id="xtick_7">
     <g id="line2d_7">
      <path d="M 459.093151 410.854031 
L 459.093151 22.774031 
" clip-path="url(#p73caf0e744)" style="fill: none; stroke: #cccccc; stroke-linecap: round"/>
     </g>
     <g id="text_7">
      <!-- 0.825 -->
      <g style="fill: #262626" transform="translate(442.560409 429.130227) scale(0.1155 -0.1155)">
       <use xlink:href="#DejaVuSerif-30"/>
       <use xlink:href="#DejaVuSerif-2e" transform="translate(63.623047 0)"/>
       <use xlink:href="#DejaVuSerif-38" transform="translate(95.410156 0)"/>
       <use xlink:href="#DejaVuSerif-32" transform="translate(159.033203 0)"/>
       <use xlink:href="#DejaVuSerif-35" transform="translate(222.65625 0)"/>
      </g>
     </g>
    </g>
    <g id="xtick_8">
     <g id="line2d_8">
      <path d="M 520.829737 410.854031 
L 520.829737 22.774031 
" clip-path="url(#p73caf0e744)" style="fill: none; stroke: #cccccc; stroke-linecap: round"/>
     </g>
     <g id="text_8">
      <!-- 0.850 -->
      <g style="fill: #262626" transform="translate(504.296995 429.130227) scale(0.1155 -0.1155)">
       <use xlink:href="#DejaVuSerif-30"/>
       <use xlink:href="#DejaVuSerif-2e" transform="translate(63.623047 0)"/>
       <use xlink:href="#DejaVuSerif-38" transform="translate(95.410156 0)"/>
       <use xlink:href="#DejaVuSerif-35" transform="translate(159.033203 0)"/>
       <use xlink:href="#DejaVuSerif-30" transform="translate(222.65625 0)"/>
      </g>
     </g>
    </g>
    <g id="text_9">
     <!-- Mean RMSE_log -->
     <g style="fill: #262626" transform="translate(256.966453 445.106297) scale(0.126 -0.126)">
      <defs>
       <path id="DejaVuSerif-4d" d="M 353 0 
L 353 331 
L 947 331 
L 947 4331 
L 319 4331 
L 319 4666 
L 1678 4666 
L 3316 1344 
L 4953 4666 
L 6228 4666 
L 6228 4331 
L 5606 4331 
L 5606 331 
L 6203 331 
L 6203 0 
L 4378 0 
L 4378 331 
L 4972 331 
L 4972 3938 
L 3372 684 
L 2931 684 
L 1331 3938 
L 1331 331 
L 1925 331 
L 1925 0 
L 353 0 
z
" transform="scale(0.015625)"/>
       <path id="DejaVuSerif-65" d="M 3469 1600 
L 991 1600 
L 991 1575 
Q 991 903 1244 561 
Q 1497 219 1991 219 
Q 2369 219 2611 417 
Q 2853 616 2950 1006 
L 3413 1006 
Q 3275 459 2904 184 
Q 2534 -91 1931 -91 
Q 1203 -91 761 389 
Q 319 869 319 1663 
Q 319 2450 753 2931 
Q 1188 3413 1894 3413 
Q 2647 3413 3050 2948 
Q 3453 2484 3469 1600 
z
M 2791 1931 
Q 2772 2513 2545 2808 
Q 2319 3103 1894 3103 
Q 1497 3103 1269 2806 
Q 1041 2509 991 1931 
L 2791 1931 
z
" transform="scale(0.015625)"/>
       <path id="DejaVuSerif-61" d="M 2547 1044 
L 2547 1747 
L 1806 1747 
Q 1378 1747 1168 1562 
Q 959 1378 959 997 
Q 959 650 1171 447 
Q 1384 244 1747 244 
Q 2106 244 2326 466 
Q 2547 688 2547 1044 
z
M 3122 2075 
L 3122 331 
L 3634 331 
L 3634 0 
L 2547 0 
L 2547 359 
Q 2356 128 2106 18 
Q 1856 -91 1522 -91 
Q 969 -91 644 203 
Q 319 497 319 997 
Q 319 1513 691 1797 
Q 1063 2081 1741 2081 
L 2547 2081 
L 2547 2309 
Q 2547 2688 2317 2895 
Q 2088 3103 1672 3103 
Q 1328 3103 1125 2947 
Q 922 2791 872 2484 
L 575 2484 
L 575 3156 
Q 875 3284 1158 3348 
Q 1441 3413 1709 3413 
Q 2400 3413 2761 3070 
Q 3122 2728 3122 2075 
z
" transform="scale(0.015625)"/>
       <path id="DejaVuSerif-6e" d="M 263 0 
L 263 331 
L 781 331 
L 781 2988 
L 231 2988 
L 231 3322 
L 1356 3322 
L 1356 2731 
Q 1516 3069 1770 3241 
Q 2025 3413 2363 3413 
Q 2913 3413 3172 3097 
Q 3431 2781 3431 2113 
L 3431 331 
L 3944 331 
L 3944 0 
L 2356 0 
L 2356 331 
L 2853 331 
L 2853 1931 
Q 2853 2541 2703 2767 
Q 2553 2994 2175 2994 
Q 1775 2994 1565 2701 
Q 1356 2409 1356 1850 
L 1356 331 
L 1856 331 
L 1856 0 
L 263 0 
z
" transform="scale(0.015625)"/>
       <path id="DejaVuSerif-20" transform="scale(0.015625)"/>
       <path id="DejaVuSerif-52" d="M 3066 2316 
Q 3284 2256 3442 2114 
Q 3600 1972 3725 1716 
L 4403 331 
L 4972 331 
L 4972 0 
L 3872 0 
L 3144 1484 
Q 2934 1916 2759 2042 
Q 2584 2169 2278 2169 
L 1581 2169 
L 1581 331 
L 2241 331 
L 2241 0 
L 353 0 
L 353 331 
L 947 331 
L 947 4331 
L 353 4331 
L 353 4666 
L 2719 4666 
Q 3400 4666 3770 4341 
Q 4141 4016 4141 3419 
Q 4141 2938 3870 2661 
Q 3600 2384 3066 2316 
z
M 1581 2503 
L 2503 2503 
Q 2975 2503 3200 2726 
Q 3425 2950 3425 3419 
Q 3425 3888 3200 4109 
Q 2975 4331 2503 4331 
L 1581 4331 
L 1581 2503 
z
" transform="scale(0.015625)"/>
       <path id="DejaVuSerif-53" d="M 594 225 
L 594 1288 
L 953 1284 
Q 969 753 1261 498 
Q 1553 244 2150 244 
Q 2706 244 2998 464 
Q 3291 684 3291 1106 
Q 3291 1444 3114 1625 
Q 2938 1806 2369 1978 
L 1753 2163 
Q 1084 2366 811 2669 
Q 538 2972 538 3500 
Q 538 4094 959 4422 
Q 1381 4750 2144 4750 
Q 2469 4750 2856 4679 
Q 3244 4609 3681 4475 
L 3681 3481 
L 3328 3481 
Q 3275 3975 2998 4195 
Q 2722 4416 2156 4416 
Q 1663 4416 1405 4214 
Q 1147 4013 1147 3628 
Q 1147 3294 1340 3103 
Q 1534 2913 2163 2725 
L 2741 2553 
Q 3375 2363 3645 2067 
Q 3916 1772 3916 1275 
Q 3916 597 3481 253 
Q 3047 -91 2188 -91 
Q 1803 -91 1404 -12 
Q 1006 66 594 225 
z
" transform="scale(0.015625)"/>
       <path id="DejaVuSerif-45" d="M 353 0 
L 353 331 
L 947 331 
L 947 4331 
L 353 4331 
L 353 4666 
L 4109 4666 
L 4109 3628 
L 3725 3628 
L 3725 4281 
L 1581 4281 
L 1581 2719 
L 3109 2719 
L 3109 3303 
L 3494 3303 
L 3494 1753 
L 3109 1753 
L 3109 2338 
L 1581 2338 
L 1581 384 
L 3775 384 
L 3775 1038 
L 4159 1038 
L 4159 0 
L 353 0 
z
" transform="scale(0.015625)"/>
       <path id="DejaVuSerif-5f" d="M 3200 -1259 
L 3200 -1509 
L 0 -1509 
L 0 -1259 
L 3200 -1259 
z
" transform="scale(0.015625)"/>
       <path id="DejaVuSerif-6c" d="M 1313 331 
L 1856 331 
L 1856 0 
L 184 0 
L 184 331 
L 738 331 
L 738 4531 
L 184 4531 
L 184 4863 
L 1313 4863 
L 1313 331 
z
" transform="scale(0.015625)"/>
       <path id="DejaVuSerif-6f" d="M 1925 219 
Q 2388 219 2623 584 
Q 2859 950 2859 1663 
Q 2859 2375 2623 2739 
Q 2388 3103 1925 3103 
Q 1463 3103 1227 2739 
Q 991 2375 991 1663 
Q 991 950 1228 584 
Q 1466 219 1925 219 
z
M 1925 -91 
Q 1200 -91 759 389 
Q 319 869 319 1663 
Q 319 2456 758 2934 
Q 1197 3413 1925 3413 
Q 2653 3413 3092 2934 
Q 3531 2456 3531 1663 
Q 3531 869 3092 389 
Q 2653 -91 1925 -91 
z
" transform="scale(0.015625)"/>
       <path id="DejaVuSerif-67" d="M 3359 2988 
L 3359 72 
Q 3359 -644 2965 -1033 
Q 2572 -1422 1844 -1422 
Q 1516 -1422 1216 -1362 
Q 916 -1303 641 -1184 
L 641 -488 
L 941 -488 
Q 997 -813 1206 -963 
Q 1416 -1113 1806 -1113 
Q 2313 -1113 2548 -827 
Q 2784 -541 2784 72 
L 2784 519 
Q 2616 206 2355 57 
Q 2094 -91 1709 -91 
Q 1097 -91 708 395 
Q 319 881 319 1663 
Q 319 2444 706 2928 
Q 1094 3413 1709 3413 
Q 2094 3413 2355 3264 
Q 2616 3116 2784 2803 
L 2784 3322 
L 3909 3322 
L 3909 2988 
L 3359 2988 
z
M 2784 1825 
Q 2784 2422 2554 2737 
Q 2325 3053 1888 3053 
Q 1444 3053 1217 2703 
Q 991 2353 991 1663 
Q 991 975 1217 622 
Q 1444 269 1888 269 
Q 2325 269 2554 583 
Q 2784 897 2784 1497 
L 2784 1825 
z
" transform="scale(0.015625)"/>
      </defs>
      <use xlink:href="#DejaVuSerif-4d"/>
      <use xlink:href="#DejaVuSerif-65" transform="translate(102.392578 0)"/>
      <use xlink:href="#DejaVuSerif-61" transform="translate(161.572266 0)"/>
      <use xlink:href="#DejaVuSerif-6e" transform="translate(221.191406 0)"/>
      <use xlink:href="#DejaVuSerif-20" transform="translate(285.595703 0)"/>
      <use xlink:href="#DejaVuSerif-52" transform="translate(317.382812 0)"/>
      <use xlink:href="#DejaVuSerif-4d" transform="translate(392.675781 0)"/>
      <use xlink:href="#DejaVuSerif-53" transform="translate(495.068359 0)"/>
      <use xlink:href="#DejaVuSerif-45" transform="translate(563.574219 0)"/>
      <use xlink:href="#DejaVuSerif-5f" transform="translate(636.572266 0)"/>
      <use xlink:href="#DejaVuSerif-6c" transform="translate(686.572266 0)"/>
      <use xlink:href="#DejaVuSerif-6f" transform="translate(718.554688 0)"/>
      <use xlink:href="#DejaVuSerif-67" transform="translate(778.759766 0)"/>
     </g>
    </g>
   </g>
   <g id="matplotlib.axis_2">
    <g id="ytick_1">
     <g id="line2d_9">
      <path d="M 58.961672 369.776859 
L 561.161672 369.776859 
" clip-path="url(#p73caf0e744)" style="fill: none; stroke: #cccccc; stroke-linecap: round"/>
     </g>
     <g id="text_10">
      <!-- 0.05 -->
      <g style="fill: #262626" transform="translate(23.744875 374.164957) scale(0.1155 -0.1155)">
       <use xlink:href="#DejaVuSerif-30"/>
       <use xlink:href="#DejaVuSerif-2e" transform="translate(63.623047 0)"/>
       <use xlink:href="#DejaVuSerif-30" transform="translate(95.410156 0)"/>
       <use xlink:href="#DejaVuSerif-35" transform="translate(159.033203 0)"/>
      </g>
     </g>
    </g>
    <g id="ytick_2">
     <g id="line2d_10">
      <path d="M 58.961672 308.142038 
L 561.161672 308.142038 
" clip-path="url(#p73caf0e744)" style="fill: none; stroke: #cccccc; stroke-linecap: round"/>
     </g>
     <g id="text_11">
      <!-- 0.10 -->
      <g style="fill: #262626" transform="translate(23.744875 312.530136) scale(0.1155 -0.1155)">
       <defs>
        <path id="DejaVuSerif-31" d="M 909 0 
L 909 331 
L 1722 331 
L 1722 4213 
L 781 3603 
L 781 4013 
L 1919 4750 
L 2350 4750 
L 2350 331 
L 3163 331 
L 3163 0 
L 909 0 
z
" transform="scale(0.015625)"/>
       </defs>
       <use xlink:href="#DejaVuSerif-30"/>
       <use xlink:href="#DejaVuSerif-2e" transform="translate(63.623047 0)"/>
       <use xlink:href="#DejaVuSerif-31" transform="translate(95.410156 0)"/>
       <use xlink:href="#DejaVuSerif-30" transform="translate(159.033203 0)"/>
      </g>
     </g>
    </g>
    <g id="ytick_3">
     <g id="line2d_11">
      <path d="M 58.961672 246.507217 
L 561.161672 246.507217 
" clip-path="url(#p73caf0e744)" style="fill: none; stroke: #cccccc; stroke-linecap: round"/>
     </g>
     <g id="text_12">
      <!-- 0.15 -->
      <g style="fill: #262626" transform="translate(23.744875 250.895315) scale(0.1155 -0.1155)">
       <use xlink:href="#DejaVuSerif-30"/>
       <use xlink:href="#DejaVuSerif-2e" transform="translate(63.623047 0)"/>
       <use xlink:href="#DejaVuSerif-31" transform="translate(95.410156 0)"/>
       <use xlink:href="#DejaVuSerif-35" transform="translate(159.033203 0)"/>
      </g>
     </g>
    </g>
    <g id="ytick_4">
     <g id="line2d_12">
      <path d="M 58.961672 184.872396 
L 561.161672 184.872396 
" clip-path="url(#p73caf0e744)" style="fill: none; stroke: #cccccc; stroke-linecap: round"/>
     </g>
     <g id="text_13">
      <!-- 0.20 -->
      <g style="fill: #262626" transform="translate(23.744875 189.260494) scale(0.1155 -0.1155)">
       <use xlink:href="#DejaVuSerif-30"/>
       <use xlink:href="#DejaVuSerif-2e" transform="translate(63.623047 0)"/>
       <use xlink:href="#DejaVuSerif-32" transform="translate(95.410156 0)"/>
       <use xlink:href="#DejaVuSerif-30" transform="translate(159.033203 0)"/>
      </g>
     </g>
    </g>
    <g id="ytick_5">
     <g id="line2d_13">
      <path d="M 58.961672 123.237575 
L 561.161672 123.237575 
" clip-path="url(#p73caf0e744)" style="fill: none; stroke: #cccccc; stroke-linecap: round"/>
     </g>
     <g id="text_14">
      <!-- 0.25 -->
      <g style="fill: #262626" transform="translate(23.744875 127.625673) scale(0.1155 -0.1155)">
       <use xlink:href="#DejaVuSerif-30"/>
       <use xlink:href="#DejaVuSerif-2e" transform="translate(63.623047 0)"/>
       <use xlink:href="#DejaVuSerif-32" transform="translate(95.410156 0)"/>
       <use xlink:href="#DejaVuSerif-35" transform="translate(159.033203 0)"/>
      </g>
     </g>
    </g>
    <g id="ytick_6">
     <g id="line2d_14">
      <path d="M 58.961672 61.602754 
L 561.161672 61.602754 
" clip-path="url(#p73caf0e744)" style="fill: none; stroke: #cccccc; stroke-linecap: round"/>
     </g>
     <g id="text_15">
      <!-- 0.30 -->
      <g style="fill: #262626" transform="translate(23.744875 65.990852) scale(0.1155 -0.1155)">
       <defs>
        <path id="DejaVuSerif-33" d="M 622 4469 
Q 988 4606 1323 4678 
Q 1659 4750 1953 4750 
Q 2638 4750 3022 4454 
Q 3406 4159 3406 3634 
Q 3406 3213 3140 2930 
Q 2875 2647 2388 2547 
Q 2963 2466 3280 2130 
Q 3597 1794 3597 1259 
Q 3597 606 3158 257 
Q 2719 -91 1894 -91 
Q 1528 -91 1179 -12 
Q 831 66 488 225 
L 488 1131 
L 838 1131 
Q 869 681 1141 450 
Q 1413 219 1906 219 
Q 2384 219 2661 495 
Q 2938 772 2938 1253 
Q 2938 1803 2653 2086 
Q 2369 2369 1819 2369 
L 1522 2369 
L 1522 2688 
L 1678 2688 
Q 2225 2688 2498 2914 
Q 2772 3141 2772 3597 
Q 2772 4006 2547 4223 
Q 2322 4441 1900 4441 
Q 1478 4441 1245 4241 
Q 1013 4041 972 3647 
L 622 3647 
L 622 4469 
z
" transform="scale(0.015625)"/>
       </defs>
       <use xlink:href="#DejaVuSerif-30"/>
       <use xlink:href="#DejaVuSerif-2e" transform="translate(63.623047 0)"/>
       <use xlink:href="#DejaVuSerif-33" transform="translate(95.410156 0)"/>
       <use xlink:href="#DejaVuSerif-30" transform="translate(159.033203 0)"/>
      </g>
     </g>
    </g>
    <g id="text_16">
     <!-- Std RMSE_log -->
     <g style="fill: #262626" transform="translate(16.774031 262.796156) rotate(-90) scale(0.126 -0.126)">
      <defs>
       <path id="DejaVuSerif-74" d="M 691 2988 
L 184 2988 
L 184 3322 
L 691 3322 
L 691 4353 
L 1269 4353 
L 1269 3322 
L 2350 3322 
L 2350 2988 
L 1269 2988 
L 1269 878 
Q 1269 456 1350 337 
Q 1431 219 1650 219 
Q 1875 219 1978 351 
Q 2081 484 2088 781 
L 2522 781 
Q 2497 328 2275 118 
Q 2053 -91 1600 -91 
Q 1103 -91 897 129 
Q 691 350 691 878 
L 691 2988 
z
" transform="scale(0.015625)"/>
       <path id="DejaVuSerif-64" d="M 3359 331 
L 3909 331 
L 3909 0 
L 2784 0 
L 2784 519 
Q 2616 206 2355 57 
Q 2094 -91 1709 -91 
Q 1097 -91 708 395 
Q 319 881 319 1663 
Q 319 2444 706 2928 
Q 1094 3413 1709 3413 
Q 2094 3413 2355 3264 
Q 2616 3116 2784 2803 
L 2784 4531 
L 2241 4531 
L 2241 4863 
L 3359 4863 
L 3359 331 
z
M 2784 1497 
L 2784 1825 
Q 2784 2422 2554 2737 
Q 2325 3053 1888 3053 
Q 1444 3053 1217 2703 
Q 991 2353 991 1663 
Q 991 975 1217 622 
Q 1444 269 1888 269 
Q 2325 269 2554 583 
Q 2784 897 2784 1497 
z
" transform="scale(0.015625)"/>
      </defs>
      <use xlink:href="#DejaVuSerif-53"/>
      <use xlink:href="#DejaVuSerif-74" transform="translate(68.505859 0)"/>
      <use xlink:href="#DejaVuSerif-64" transform="translate(108.691406 0)"/>
      <use xlink:href="#DejaVuSerif-20" transform="translate(172.705078 0)"/>
      <use xlink:href="#DejaVuSerif-52" transform="translate(204.492188 0)"/>
      <use xlink:href="#DejaVuSerif-4d" transform="translate(279.785156 0)"/>
      <use xlink:href="#DejaVuSerif-53" transform="translate(382.177734 0)"/>
      <use xlink:href="#DejaVuSerif-45" transform="translate(450.683594 0)"/>
      <use xlink:href="#DejaVuSerif-5f" transform="translate(523.681641 0)"/>
      <use xlink:href="#DejaVuSerif-6c" transform="translate(573.681641 0)"/>
      <use xlink:href="#DejaVuSerif-6f" transform="translate(605.664062 0)"/>
      <use xlink:href="#DejaVuSerif-67" transform="translate(665.869141 0)"/>
     </g>
    </g>
   </g>
   <g id="PathCollection_1">
    <defs>
     <path id="m72b16779f1" d="M 0 3.872983 
C 1.027127 3.872983 2.012324 3.464901 2.738613 2.738613 
C 3.464901 2.012324 3.872983 1.027127 3.872983 0 
C 3.872983 -1.027127 3.464901 -2.012324 2.738613 -2.738613 
C 2.012324 -3.464901 1.027127 -3.872983 0 -3.872983 
C -1.027127 -3.872983 -2.012324 -3.464901 -2.738613 -2.738613 
C -3.464901 -2.012324 -3.872983 -1.027127 -3.872983 0 
C -3.872983 1.027127 -3.464901 2.012324 -2.738613 2.738613 
C -2.012324 3.464901 -1.027127 3.872983 0 3.872983 
z
" style="stroke: #000000; stroke-opacity: 0.8; stroke-width: 0.5"/>
    </defs>
    <g clip-path="url(#p73caf0e744)">
     <use xlink:href="#m72b16779f1" x="121.517034" y="370.573394" style="fill: #66c2a5; fill-opacity: 0.8; stroke: #000000; stroke-opacity: 0.8; stroke-width: 0.5"/>
     <use xlink:href="#m72b16779f1" x="114.822009" y="361.799873" style="fill: #66c2a5; fill-opacity: 0.8; stroke: #000000; stroke-opacity: 0.8; stroke-width: 0.5"/>
     <use xlink:href="#m72b16779f1" x="94.788996" y="379.58348" style="fill: #66c2a5; fill-opacity: 0.8; stroke: #000000; stroke-opacity: 0.8; stroke-width: 0.5"/>
     <use xlink:href="#m72b16779f1" x="226.719579" y="346.510638" style="fill: #66c2a5; fill-opacity: 0.8; stroke: #000000; stroke-opacity: 0.8; stroke-width: 0.5"/>
     <use xlink:href="#m72b16779f1" x="144.890419" y="350.269965" style="fill: #66c2a5; fill-opacity: 0.8; stroke: #000000; stroke-opacity: 0.8; stroke-width: 0.5"/>
     <use xlink:href="#m72b16779f1" x="85.068502" y="368.869038" style="fill: #66c2a5; fill-opacity: 0.8; stroke: #000000; stroke-opacity: 0.8; stroke-width: 0.5"/>
     <use xlink:href="#m72b16779f1" x="132.92898" y="353.047226" style="fill: #66c2a5; fill-opacity: 0.8; stroke: #000000; stroke-opacity: 0.8; stroke-width: 0.5"/>
     <use xlink:href="#m72b16779f1" x="100.429481" y="358.404789" style="fill: #66c2a5; fill-opacity: 0.8; stroke: #000000; stroke-opacity: 0.8; stroke-width: 0.5"/>
     <use xlink:href="#m72b16779f1" x="375.642382" y="316.113462" style="fill: #66c2a5; fill-opacity: 0.8; stroke: #000000; stroke-opacity: 0.8; stroke-width: 0.5"/>
     <use xlink:href="#m72b16779f1" x="136.678841" y="347.677657" style="fill: #66c2a5; fill-opacity: 0.8; stroke: #000000; stroke-opacity: 0.8; stroke-width: 0.5"/>
     <use xlink:href="#m72b16779f1" x="85.29489" y="368.358785" style="fill: #66c2a5; fill-opacity: 0.8; stroke: #000000; stroke-opacity: 0.8; stroke-width: 0.5"/>
     <use xlink:href="#m72b16779f1" x="367.593503" y="303.053149" style="fill: #66c2a5; fill-opacity: 0.8; stroke: #000000; stroke-opacity: 0.8; stroke-width: 0.5"/>
     <use xlink:href="#m72b16779f1" x="98.434537" y="366.729357" style="fill: #66c2a5; fill-opacity: 0.8; stroke: #000000; stroke-opacity: 0.8; stroke-width: 0.5"/>
     <use xlink:href="#m72b16779f1" x="503.16032" y="88.088579" style="fill: #66c2a5; fill-opacity: 0.8; stroke: #000000; stroke-opacity: 0.8; stroke-width: 0.5"/>
     <use xlink:href="#m72b16779f1" x="102.891791" y="379.518921" style="fill: #66c2a5; fill-opacity: 0.8; stroke: #000000; stroke-opacity: 0.8; stroke-width: 0.5"/>
    </g>
   </g>
   <g id="PathCollection_2">
    <defs>
     <path id="m28dffcf8df" d="M 0 3.872983 
C 1.027127 3.872983 2.012324 3.464901 2.738613 2.738613 
C 3.464901 2.012324 3.872983 1.027127 3.872983 0 
C 3.872983 -1.027127 3.464901 -2.012324 2.738613 -2.738613 
C 2.012324 -3.464901 1.027127 -3.872983 0 -3.872983 
C -1.027127 -3.872983 -2.012324 -3.464901 -2.738613 -2.738613 
C -3.464901 -2.012324 -3.872983 -1.027127 -3.872983 0 
C -3.872983 1.027127 -3.464901 2.012324 -2.738613 2.738613 
C -2.012324 3.464901 -1.027127 3.872983 0 3.872983 
z
" style="stroke: #000000; stroke-opacity: 0.8; stroke-width: 0.5"/>
    </defs>
    <g clip-path="url(#p73caf0e744)">
     <use xlink:href="#m28dffcf8df" x="120.649591" y="371.233717" style="fill: #fc8d62; fill-opacity: 0.8; stroke: #000000; stroke-opacity: 0.8; stroke-width: 0.5"/>
     <use xlink:href="#m28dffcf8df" x="109.910386" y="359.477218" style="fill: #fc8d62; fill-opacity: 0.8; stroke: #000000; stroke-opacity: 0.8; stroke-width: 0.5"/>
     <use xlink:href="#m28dffcf8df" x="93.828727" y="372.235216" style="fill: #fc8d62; fill-opacity: 0.8; stroke: #000000; stroke-opacity: 0.8; stroke-width: 0.5"/>
     <use xlink:href="#m28dffcf8df" x="241.267152" y="393.214031" style="fill: #fc8d62; fill-opacity: 0.8; stroke: #000000; stroke-opacity: 0.8; stroke-width: 0.5"/>
     <use xlink:href="#m28dffcf8df" x="149.316492" y="347.639464" style="fill: #fc8d62; fill-opacity: 0.8; stroke: #000000; stroke-opacity: 0.8; stroke-width: 0.5"/>
     <use xlink:href="#m28dffcf8df" x="88.177907" y="373.387517" style="fill: #fc8d62; fill-opacity: 0.8; stroke: #000000; stroke-opacity: 0.8; stroke-width: 0.5"/>
     <use xlink:href="#m28dffcf8df" x="136.346754" y="367.063528" style="fill: #fc8d62; fill-opacity: 0.8; stroke: #000000; stroke-opacity: 0.8; stroke-width: 0.5"/>
     <use xlink:href="#m28dffcf8df" x="115.300905" y="346.423496" style="fill: #fc8d62; fill-opacity: 0.8; stroke: #000000; stroke-opacity: 0.8; stroke-width: 0.5"/>
     <use xlink:href="#m28dffcf8df" x="380.396132" y="317.085917" style="fill: #fc8d62; fill-opacity: 0.8; stroke: #000000; stroke-opacity: 0.8; stroke-width: 0.5"/>
     <use xlink:href="#m28dffcf8df" x="147.884608" y="347.057448" style="fill: #fc8d62; fill-opacity: 0.8; stroke: #000000; stroke-opacity: 0.8; stroke-width: 0.5"/>
     <use xlink:href="#m28dffcf8df" x="88.149094" y="372.699138" style="fill: #fc8d62; fill-opacity: 0.8; stroke: #000000; stroke-opacity: 0.8; stroke-width: 0.5"/>
     <use xlink:href="#m28dffcf8df" x="358.192981" y="252.825401" style="fill: #fc8d62; fill-opacity: 0.8; stroke: #000000; stroke-opacity: 0.8; stroke-width: 0.5"/>
     <use xlink:href="#m28dffcf8df" x="97.936588" y="366.708901" style="fill: #fc8d62; fill-opacity: 0.8; stroke: #000000; stroke-opacity: 0.8; stroke-width: 0.5"/>
     <use xlink:href="#m28dffcf8df" x="492.811261" y="111.059521" style="fill: #fc8d62; fill-opacity: 0.8; stroke: #000000; stroke-opacity: 0.8; stroke-width: 0.5"/>
     <use xlink:href="#m28dffcf8df" x="86.073681" y="385.359166" style="fill: #fc8d62; fill-opacity: 0.8; stroke: #000000; stroke-opacity: 0.8; stroke-width: 0.5"/>
    </g>
   </g>
   <g id="PathCollection_3">
    <defs>
     <path id="m51f999fce9" d="M 0 3.872983 
C 1.027127 3.872983 2.012324 3.464901 2.738613 2.738613 
C 3.464901 2.012324 3.872983 1.027127 3.872983 0 
C 3.872983 -1.027127 3.464901 -2.012324 2.738613 -2.738613 
C 2.012324 -3.464901 1.027127 -3.872983 0 -3.872983 
C -1.027127 -3.872983 -2.012324 -3.464901 -2.738613 -2.738613 
C -3.464901 -2.012324 -3.872983 -1.027127 -3.872983 0 
C -3.872983 1.027127 -3.464901 2.012324 -2.738613 2.738613 
C -2.012324 3.464901 -1.027127 3.872983 0 3.872983 
z
" style="stroke: #000000; stroke-opacity: 0.8; stroke-width: 0.5"/>
    </defs>
    <g clip-path="url(#p73caf0e744)">
     <use xlink:href="#m51f999fce9" x="115.769357" y="375.124287" style="fill: #8da0cb; fill-opacity: 0.8; stroke: #000000; stroke-opacity: 0.8; stroke-width: 0.5"/>
     <use xlink:href="#m51f999fce9" x="108.257235" y="361.149618" style="fill: #8da0cb; fill-opacity: 0.8; stroke: #000000; stroke-opacity: 0.8; stroke-width: 0.5"/>
     <use xlink:href="#m51f999fce9" x="87.997324" y="368.006013" style="fill: #8da0cb; fill-opacity: 0.8; stroke: #000000; stroke-opacity: 0.8; stroke-width: 0.5"/>
     <use xlink:href="#m51f999fce9" x="250.640766" y="341.632189" style="fill: #8da0cb; fill-opacity: 0.8; stroke: #000000; stroke-opacity: 0.8; stroke-width: 0.5"/>
     <use xlink:href="#m51f999fce9" x="145.641862" y="364.84962" style="fill: #8da0cb; fill-opacity: 0.8; stroke: #000000; stroke-opacity: 0.8; stroke-width: 0.5"/>
     <use xlink:href="#m51f999fce9" x="81.788945" y="375.42978" style="fill: #8da0cb; fill-opacity: 0.8; stroke: #000000; stroke-opacity: 0.8; stroke-width: 0.5"/>
     <use xlink:href="#m51f999fce9" x="131.59023" y="376.763791" style="fill: #8da0cb; fill-opacity: 0.8; stroke: #000000; stroke-opacity: 0.8; stroke-width: 0.5"/>
     <use xlink:href="#m51f999fce9" x="98.778186" y="357.261715" style="fill: #8da0cb; fill-opacity: 0.8; stroke: #000000; stroke-opacity: 0.8; stroke-width: 0.5"/>
     <use xlink:href="#m51f999fce9" x="391.616222" y="315.507715" style="fill: #8da0cb; fill-opacity: 0.8; stroke: #000000; stroke-opacity: 0.8; stroke-width: 0.5"/>
     <use xlink:href="#m51f999fce9" x="133.992994" y="361.834429" style="fill: #8da0cb; fill-opacity: 0.8; stroke: #000000; stroke-opacity: 0.8; stroke-width: 0.5"/>
     <use xlink:href="#m51f999fce9" x="82.923834" y="365.315225" style="fill: #8da0cb; fill-opacity: 0.8; stroke: #000000; stroke-opacity: 0.8; stroke-width: 0.5"/>
     <use xlink:href="#m51f999fce9" x="423.593169" y="323.36036" style="fill: #8da0cb; fill-opacity: 0.8; stroke: #000000; stroke-opacity: 0.8; stroke-width: 0.5"/>
     <use xlink:href="#m51f999fce9" x="96.32178" y="379.287888" style="fill: #8da0cb; fill-opacity: 0.8; stroke: #000000; stroke-opacity: 0.8; stroke-width: 0.5"/>
     <use xlink:href="#m51f999fce9" x="513.666488" y="73.716967" style="fill: #8da0cb; fill-opacity: 0.8; stroke: #000000; stroke-opacity: 0.8; stroke-width: 0.5"/>
     <use xlink:href="#m51f999fce9" x="91.934942" y="377.346203" style="fill: #8da0cb; fill-opacity: 0.8; stroke: #000000; stroke-opacity: 0.8; stroke-width: 0.5"/>
    </g>
   </g>
   <g id="PathCollection_4">
    <defs>
     <path id="m6cb298409b" d="M 0 3.872983 
C 1.027127 3.872983 2.012324 3.464901 2.738613 2.738613 
C 3.464901 2.012324 3.872983 1.027127 3.872983 0 
C 3.872983 -1.027127 3.464901 -2.012324 2.738613 -2.738613 
C 2.012324 -3.464901 1.027127 -3.872983 0 -3.872983 
C -1.027127 -3.872983 -2.012324 -3.464901 -2.738613 -2.738613 
C -3.464901 -2.012324 -3.872983 -1.027127 -3.872983 0 
C -3.872983 1.027127 -3.464901 2.012324 -2.738613 2.738613 
C -2.012324 3.464901 -1.027127 3.872983 0 3.872983 
z
" style="stroke: #000000; stroke-opacity: 0.8; stroke-width: 0.5"/>
    </defs>
    <g clip-path="url(#p73caf0e744)">
     <use xlink:href="#m6cb298409b" x="118.912435" y="371.492695" style="fill: #e78ac3; fill-opacity: 0.8; stroke: #000000; stroke-opacity: 0.8; stroke-width: 0.5"/>
     <use xlink:href="#m6cb298409b" x="113.447902" y="366.099696" style="fill: #e78ac3; fill-opacity: 0.8; stroke: #000000; stroke-opacity: 0.8; stroke-width: 0.5"/>
     <use xlink:href="#m6cb298409b" x="100.548046" y="381.202568" style="fill: #e78ac3; fill-opacity: 0.8; stroke: #000000; stroke-opacity: 0.8; stroke-width: 0.5"/>
     <use xlink:href="#m6cb298409b" x="268.883441" y="377.617159" style="fill: #e78ac3; fill-opacity: 0.8; stroke: #000000; stroke-opacity: 0.8; stroke-width: 0.5"/>
     <use xlink:href="#m6cb298409b" x="147.994482" y="370.518346" style="fill: #e78ac3; fill-opacity: 0.8; stroke: #000000; stroke-opacity: 0.8; stroke-width: 0.5"/>
     <use xlink:href="#m6cb298409b" x="87.744786" y="370.022156" style="fill: #e78ac3; fill-opacity: 0.8; stroke: #000000; stroke-opacity: 0.8; stroke-width: 0.5"/>
     <use xlink:href="#m6cb298409b" x="146.897173" y="376.118472" style="fill: #e78ac3; fill-opacity: 0.8; stroke: #000000; stroke-opacity: 0.8; stroke-width: 0.5"/>
     <use xlink:href="#m6cb298409b" x="118.823744" y="341.826246" style="fill: #e78ac3; fill-opacity: 0.8; stroke: #000000; stroke-opacity: 0.8; stroke-width: 0.5"/>
     <use xlink:href="#m6cb298409b" x="410.193175" y="323.939391" style="fill: #e78ac3; fill-opacity: 0.8; stroke: #000000; stroke-opacity: 0.8; stroke-width: 0.5"/>
     <use xlink:href="#m6cb298409b" x="135.463635" y="366.552589" style="fill: #e78ac3; fill-opacity: 0.8; stroke: #000000; stroke-opacity: 0.8; stroke-width: 0.5"/>
     <use xlink:href="#m6cb298409b" x="98.920565" y="365.965761" style="fill: #e78ac3; fill-opacity: 0.8; stroke: #000000; stroke-opacity: 0.8; stroke-width: 0.5"/>
     <use xlink:href="#m6cb298409b" x="404.91113" y="254.128769" style="fill: #e78ac3; fill-opacity: 0.8; stroke: #000000; stroke-opacity: 0.8; stroke-width: 0.5"/>
     <use xlink:href="#m6cb298409b" x="101.323742" y="372.146973" style="fill: #e78ac3; fill-opacity: 0.8; stroke: #000000; stroke-opacity: 0.8; stroke-width: 0.5"/>
     <use xlink:href="#m6cb298409b" x="538.334399" y="40.414031" style="fill: #e78ac3; fill-opacity: 0.8; stroke: #000000; stroke-opacity: 0.8; stroke-width: 0.5"/>
     <use xlink:href="#m6cb298409b" x="96.753038" y="375.081816" style="fill: #e78ac3; fill-opacity: 0.8; stroke: #000000; stroke-opacity: 0.8; stroke-width: 0.5"/>
    </g>
   </g>
   <g id="patch_3">
    <path d="M 58.961672 410.854031 
L 58.961672 22.774031 
" style="fill: none; stroke: #cccccc; stroke-width: 1.25; stroke-linejoin: miter; stroke-linecap: square"/>
   </g>
   <g id="patch_4">
    <path d="M 561.161672 410.854031 
L 561.161672 22.774031 
" style="fill: none; stroke: #cccccc; stroke-width: 1.25; stroke-linejoin: miter; stroke-linecap: square"/>
   </g>
   <g id="patch_5">
    <path d="M 58.961672 410.854031 
L 561.161672 410.854031 
" style="fill: none; stroke: #cccccc; stroke-width: 1.25; stroke-linejoin: miter; stroke-linecap: square"/>
   </g>
   <g id="patch_6">
    <path d="M 58.961672 22.774031 
L 561.161672 22.774031 
" style="fill: none; stroke: #cccccc; stroke-width: 1.25; stroke-linejoin: miter; stroke-linecap: square"/>
   </g>
   <g id="text_17">
    <!-- ExtraTrees -->
    <g style="fill: #262626" transform="translate(85.788945 369.76603) scale(0.08 -0.08)">
     <defs>
      <path id="DejaVuSerif-78" d="M 1863 2028 
L 2559 2988 
L 2113 2988 
L 2113 3322 
L 3391 3322 
L 3391 2988 
L 2950 2988 
L 2059 1759 
L 3097 331 
L 3531 331 
L 3531 0 
L 1997 0 
L 1997 331 
L 2419 331 
L 1697 1325 
L 972 331 
L 1403 331 
L 1403 0 
L 141 0 
L 141 331 
L 581 331 
L 1497 1594 
L 488 2988 
L 78 2988 
L 78 3322 
L 1563 3322 
L 1563 2988 
L 1166 2988 
L 1863 2028 
z
" transform="scale(0.015625)"/>
      <path id="DejaVuSerif-72" d="M 3059 3328 
L 3059 2497 
L 2728 2497 
Q 2713 2744 2591 2866 
Q 2469 2988 2234 2988 
Q 1809 2988 1582 2694 
Q 1356 2400 1356 1850 
L 1356 331 
L 2022 331 
L 2022 0 
L 263 0 
L 263 331 
L 781 331 
L 781 2994 
L 231 2994 
L 231 3322 
L 1356 3322 
L 1356 2731 
Q 1525 3078 1790 3245 
Q 2056 3413 2438 3413 
Q 2578 3413 2733 3391 
Q 2888 3369 3059 3328 
z
" transform="scale(0.015625)"/>
      <path id="DejaVuSerif-54" d="M 1222 0 
L 1222 331 
L 1819 331 
L 1819 4294 
L 447 4294 
L 447 3566 
L 63 3566 
L 63 4666 
L 4206 4666 
L 4206 3566 
L 3822 3566 
L 3822 4294 
L 2450 4294 
L 2450 331 
L 3047 331 
L 3047 0 
L 1222 0 
z
" transform="scale(0.015625)"/>
      <path id="DejaVuSerif-73" d="M 359 184 
L 359 959 
L 691 959 
Q 703 588 923 403 
Q 1144 219 1575 219 
Q 1963 219 2166 364 
Q 2369 509 2369 788 
Q 2369 1006 2220 1140 
Q 2072 1275 1594 1428 
L 1178 1569 
Q 750 1706 558 1912 
Q 366 2119 366 2438 
Q 366 2894 700 3153 
Q 1034 3413 1625 3413 
Q 1888 3413 2178 3344 
Q 2469 3275 2778 3144 
L 2778 2419 
L 2447 2419 
Q 2434 2741 2221 2922 
Q 2009 3103 1644 3103 
Q 1281 3103 1095 2975 
Q 909 2847 909 2591 
Q 909 2381 1050 2254 
Q 1191 2128 1613 1997 
L 2069 1856 
Q 2541 1709 2748 1489 
Q 2956 1269 2956 922 
Q 2956 450 2595 179 
Q 2234 -91 1600 -91 
Q 1278 -91 972 -22 
Q 666 47 359 184 
z
" transform="scale(0.015625)"/>
     </defs>
     <use xlink:href="#DejaVuSerif-45"/>
     <use xlink:href="#DejaVuSerif-78" transform="translate(72.998047 0)"/>
     <use xlink:href="#DejaVuSerif-74" transform="translate(129.394531 0)"/>
     <use xlink:href="#DejaVuSerif-72" transform="translate(169.580078 0)"/>
     <use xlink:href="#DejaVuSerif-61" transform="translate(217.382812 0)"/>
     <use xlink:href="#DejaVuSerif-54" transform="translate(277.001953 0)"/>
     <use xlink:href="#DejaVuSerif-72" transform="translate(343.701172 0)"/>
     <use xlink:href="#DejaVuSerif-65" transform="translate(391.503906 0)"/>
     <use xlink:href="#DejaVuSerif-65" transform="translate(450.683594 0)"/>
     <use xlink:href="#DejaVuSerif-73" transform="translate(509.863281 0)"/>
    </g>
   </g>
   <g id="text_18">
    <!-- LightGBM -->
    <g style="fill: #262626" transform="translate(86.923834 359.537725) scale(0.08 -0.08)">
     <defs>
      <path id="DejaVuSerif-4c" d="M 353 0 
L 353 331 
L 947 331 
L 947 4331 
L 353 4331 
L 353 4666 
L 2175 4666 
L 2175 4331 
L 1581 4331 
L 1581 384 
L 3713 384 
L 3713 1166 
L 4097 1166 
L 4097 0 
L 353 0 
z
" transform="scale(0.015625)"/>
      <path id="DejaVuSerif-69" d="M 622 4353 
Q 622 4497 726 4603 
Q 831 4709 978 4709 
Q 1122 4709 1226 4603 
Q 1331 4497 1331 4353 
Q 1331 4206 1228 4103 
Q 1125 4000 978 4000 
Q 831 4000 726 4103 
Q 622 4206 622 4353 
z
M 1356 331 
L 1900 331 
L 1900 0 
L 231 0 
L 231 331 
L 781 331 
L 781 2988 
L 231 2988 
L 231 3322 
L 1356 3322 
L 1356 331 
z
" transform="scale(0.015625)"/>
      <path id="DejaVuSerif-68" d="M 263 0 
L 263 331 
L 781 331 
L 781 4531 
L 231 4531 
L 231 4863 
L 1356 4863 
L 1356 2731 
Q 1516 3069 1770 3241 
Q 2025 3413 2363 3413 
Q 2913 3413 3172 3097 
Q 3431 2781 3431 2113 
L 3431 331 
L 3944 331 
L 3944 0 
L 2356 0 
L 2356 331 
L 2853 331 
L 2853 1931 
Q 2853 2541 2704 2764 
Q 2556 2988 2175 2988 
Q 1775 2988 1565 2697 
Q 1356 2406 1356 1850 
L 1356 331 
L 1856 331 
L 1856 0 
L 263 0 
z
" transform="scale(0.015625)"/>
      <path id="DejaVuSerif-47" d="M 4097 3272 
Q 3988 3856 3641 4136 
Q 3294 4416 2675 4416 
Q 1869 4416 1472 3897 
Q 1075 3378 1075 2328 
Q 1075 1300 1484 772 
Q 1894 244 2688 244 
Q 3041 244 3362 331 
Q 3684 419 3975 594 
L 3975 1797 
L 3097 1797 
L 3097 2131 
L 4609 2131 
L 4609 391 
Q 4194 150 3714 29 
Q 3234 -91 2688 -91 
Q 1631 -91 995 570 
Q 359 1231 359 2328 
Q 359 3434 996 4092 
Q 1634 4750 2713 4750 
Q 3113 4750 3539 4658 
Q 3966 4566 4447 4378 
L 4447 3272 
L 4097 3272 
z
" transform="scale(0.015625)"/>
      <path id="DejaVuSerif-42" d="M 1581 331 
L 2516 331 
Q 3078 331 3337 575 
Q 3597 819 3597 1350 
Q 3597 1878 3339 2120 
Q 3081 2363 2516 2363 
L 1581 2363 
L 1581 331 
z
M 1581 2694 
L 2375 2694 
Q 2888 2694 3123 2891 
Q 3359 3088 3359 3513 
Q 3359 3941 3123 4136 
Q 2888 4331 2375 4331 
L 1581 4331 
L 1581 2694 
z
M 353 0 
L 353 331 
L 947 331 
L 947 4331 
L 353 4331 
L 353 4666 
L 2656 4666 
Q 3363 4666 3720 4377 
Q 4078 4088 4078 3513 
Q 4078 3097 3829 2850 
Q 3581 2603 3103 2547 
Q 3697 2472 4005 2167 
Q 4313 1863 4313 1350 
Q 4313 656 3875 328 
Q 3438 0 2509 0 
L 353 0 
z
" transform="scale(0.015625)"/>
     </defs>
     <use xlink:href="#DejaVuSerif-4c"/>
     <use xlink:href="#DejaVuSerif-69" transform="translate(66.40625 0)"/>
     <use xlink:href="#DejaVuSerif-67" transform="translate(98.388672 0)"/>
     <use xlink:href="#DejaVuSerif-68" transform="translate(162.402344 0)"/>
     <use xlink:href="#DejaVuSerif-74" transform="translate(226.806641 0)"/>
     <use xlink:href="#DejaVuSerif-47" transform="translate(266.992188 0)"/>
     <use xlink:href="#DejaVuSerif-42" transform="translate(346.875 0)"/>
     <use xlink:href="#DejaVuSerif-4d" transform="translate(420.361328 0)"/>
    </g>
   </g>
   <g id="text_19">
    <!-- ExtraTrees -->
    <g style="fill: #262626" transform="translate(89.068502 363.205288) scale(0.08 -0.08)">
     <use xlink:href="#DejaVuSerif-45"/>
     <use xlink:href="#DejaVuSerif-78" transform="translate(72.998047 0)"/>
     <use xlink:href="#DejaVuSerif-74" transform="translate(129.394531 0)"/>
     <use xlink:href="#DejaVuSerif-72" transform="translate(169.580078 0)"/>
     <use xlink:href="#DejaVuSerif-61" transform="translate(217.382812 0)"/>
     <use xlink:href="#DejaVuSerif-54" transform="translate(277.001953 0)"/>
     <use xlink:href="#DejaVuSerif-72" transform="translate(343.701172 0)"/>
     <use xlink:href="#DejaVuSerif-65" transform="translate(391.503906 0)"/>
     <use xlink:href="#DejaVuSerif-65" transform="translate(450.683594 0)"/>
     <use xlink:href="#DejaVuSerif-73" transform="translate(509.863281 0)"/>
    </g>
   </g>
   <g id="text_20">
    <!-- LightGBM -->
    <g style="fill: #262626" transform="translate(89.29489 362.581285) scale(0.08 -0.08)">
     <use xlink:href="#DejaVuSerif-4c"/>
     <use xlink:href="#DejaVuSerif-69" transform="translate(66.40625 0)"/>
     <use xlink:href="#DejaVuSerif-67" transform="translate(98.388672 0)"/>
     <use xlink:href="#DejaVuSerif-68" transform="translate(162.402344 0)"/>
     <use xlink:href="#DejaVuSerif-74" transform="translate(226.806641 0)"/>
     <use xlink:href="#DejaVuSerif-47" transform="translate(266.992188 0)"/>
     <use xlink:href="#DejaVuSerif-42" transform="translate(346.875 0)"/>
     <use xlink:href="#DejaVuSerif-4d" transform="translate(420.361328 0)"/>
    </g>
   </g>
   <g id="text_21">
    <!-- XGBoost -->
    <g style="fill: #262626" transform="translate(90.073681 379.695416) scale(0.08 -0.08)">
     <defs>
      <path id="DejaVuSerif-58" d="M 2119 1997 
L 978 331 
L 1581 331 
L 1581 0 
L 38 0 
L 38 331 
L 575 331 
L 1919 2291 
L 556 4331 
L 56 4331 
L 56 4666 
L 1906 4666 
L 1906 4331 
L 1356 4331 
L 2356 2828 
L 3384 4331 
L 2784 4331 
L 2784 4666 
L 4313 4666 
L 4313 4331 
L 3788 4331 
L 2553 2534 
L 4025 331 
L 4525 331 
L 4525 0 
L 2675 0 
L 2675 331 
L 3231 331 
L 2119 1997 
z
" transform="scale(0.015625)"/>
     </defs>
     <use xlink:href="#DejaVuSerif-58"/>
     <use xlink:href="#DejaVuSerif-47" transform="translate(71.191406 0)"/>
     <use xlink:href="#DejaVuSerif-42" transform="translate(151.074219 0)"/>
     <use xlink:href="#DejaVuSerif-6f" transform="translate(224.560547 0)"/>
     <use xlink:href="#DejaVuSerif-6f" transform="translate(284.765625 0)"/>
     <use xlink:href="#DejaVuSerif-73" transform="translate(344.970703 0)"/>
     <use xlink:href="#DejaVuSerif-74" transform="translate(396.289062 0)"/>
    </g>
   </g>
   <g id="text_22">
    <!-- Performance vs Consistency (RMSE_log) -->
    <g style="fill: #262626" transform="translate(179.814094 16.774031) scale(0.126 -0.126)">
     <defs>
      <path id="DejaVuSerif-50" d="M 1581 2375 
L 2406 2375 
Q 2872 2375 3115 2626 
Q 3359 2878 3359 3353 
Q 3359 3831 3115 4081 
Q 2872 4331 2406 4331 
L 1581 4331 
L 1581 2375 
z
M 353 0 
L 353 331 
L 947 331 
L 947 4331 
L 353 4331 
L 353 4666 
L 2559 4666 
Q 3259 4666 3668 4311 
Q 4078 3956 4078 3353 
Q 4078 2753 3668 2397 
Q 3259 2041 2559 2041 
L 1581 2041 
L 1581 331 
L 2303 331 
L 2303 0 
L 353 0 
z
" transform="scale(0.015625)"/>
      <path id="DejaVuSerif-66" d="M 2753 4078 
L 2450 4078 
Q 2447 4313 2317 4434 
Q 2188 4556 1941 4556 
Q 1619 4556 1487 4379 
Q 1356 4203 1356 3750 
L 1356 3322 
L 2284 3322 
L 2284 2988 
L 1356 2988 
L 1356 331 
L 2094 331 
L 2094 0 
L 231 0 
L 231 331 
L 781 331 
L 781 2988 
L 231 2988 
L 231 3322 
L 781 3322 
L 781 3738 
Q 781 4294 1070 4578 
Q 1359 4863 1919 4863 
Q 2128 4863 2337 4825 
Q 2547 4788 2753 4709 
L 2753 4078 
z
" transform="scale(0.015625)"/>
      <path id="DejaVuSerif-6d" d="M 3316 2675 
Q 3481 3041 3739 3227 
Q 3997 3413 4341 3413 
Q 4863 3413 5119 3089 
Q 5375 2766 5375 2113 
L 5375 331 
L 5894 331 
L 5894 0 
L 4300 0 
L 4300 331 
L 4800 331 
L 4800 2047 
Q 4800 2556 4650 2772 
Q 4500 2988 4153 2988 
Q 3769 2988 3567 2697 
Q 3366 2406 3366 1850 
L 3366 331 
L 3866 331 
L 3866 0 
L 2291 0 
L 2291 331 
L 2791 331 
L 2791 2069 
Q 2791 2566 2641 2777 
Q 2491 2988 2144 2988 
Q 1759 2988 1557 2697 
Q 1356 2406 1356 1850 
L 1356 331 
L 1856 331 
L 1856 0 
L 263 0 
L 263 331 
L 781 331 
L 781 2994 
L 231 2994 
L 231 3322 
L 1356 3322 
L 1356 2731 
Q 1516 3063 1762 3238 
Q 2009 3413 2322 3413 
Q 2709 3413 2968 3220 
Q 3228 3028 3316 2675 
z
" transform="scale(0.015625)"/>
      <path id="DejaVuSerif-63" d="M 3291 997 
Q 3169 466 2822 187 
Q 2475 -91 1925 -91 
Q 1200 -91 759 389 
Q 319 869 319 1663 
Q 319 2459 759 2936 
Q 1200 3413 1925 3413 
Q 2241 3413 2553 3339 
Q 2866 3266 3181 3116 
L 3181 2266 
L 2847 2266 
Q 2781 2703 2561 2903 
Q 2341 3103 1931 3103 
Q 1466 3103 1228 2742 
Q 991 2381 991 1663 
Q 991 944 1227 581 
Q 1463 219 1931 219 
Q 2303 219 2525 412 
Q 2747 606 2828 997 
L 3291 997 
z
" transform="scale(0.015625)"/>
      <path id="DejaVuSerif-76" d="M 1581 0 
L 359 2988 
L -19 2988 
L -19 3322 
L 1509 3322 
L 1509 2988 
L 978 2988 
L 1913 703 
L 2847 2988 
L 2350 2988 
L 2350 3322 
L 3597 3322 
L 3597 2988 
L 3225 2988 
L 2003 0 
L 1581 0 
z
" transform="scale(0.015625)"/>
      <path id="DejaVuSerif-43" d="M 4513 1234 
Q 4306 581 3820 245 
Q 3334 -91 2591 -91 
Q 2134 -91 1743 65 
Q 1353 222 1050 525 
Q 700 875 529 1320 
Q 359 1766 359 2328 
Q 359 3416 987 4083 
Q 1616 4750 2644 4750 
Q 3025 4750 3456 4650 
Q 3888 4550 4384 4347 
L 4384 3272 
L 4031 3272 
Q 3916 3859 3567 4137 
Q 3219 4416 2591 4416 
Q 1844 4416 1459 3886 
Q 1075 3356 1075 2328 
Q 1075 1303 1459 773 
Q 1844 244 2591 244 
Q 3113 244 3450 492 
Q 3788 741 3938 1234 
L 4513 1234 
z
" transform="scale(0.015625)"/>
      <path id="DejaVuSerif-79" d="M 1381 -609 
L 1600 -56 
L 359 2988 
L -19 2988 
L -19 3322 
L 1509 3322 
L 1509 2988 
L 978 2988 
L 1913 703 
L 2847 2988 
L 2350 2988 
L 2350 3322 
L 3597 3322 
L 3597 2988 
L 3225 2988 
L 1703 -750 
Q 1547 -1138 1356 -1280 
Q 1166 -1422 819 -1422 
Q 672 -1422 517 -1397 
Q 363 -1372 206 -1325 
L 206 -691 
L 500 -691 
Q 519 -903 608 -995 
Q 697 -1088 884 -1088 
Q 1056 -1088 1161 -992 
Q 1266 -897 1381 -609 
z
" transform="scale(0.015625)"/>
      <path id="DejaVuSerif-28" d="M 2041 -997 
Q 1281 -656 893 83 
Q 506 822 506 1931 
Q 506 3044 893 3783 
Q 1281 4522 2041 4863 
L 2041 4556 
Q 1559 4225 1350 3623 
Q 1141 3022 1141 1931 
Q 1141 844 1350 242 
Q 1559 -359 2041 -691 
L 2041 -997 
z
" transform="scale(0.015625)"/>
      <path id="DejaVuSerif-29" d="M 453 -997 
L 453 -691 
Q 934 -359 1145 242 
Q 1356 844 1356 1931 
Q 1356 3022 1145 3623 
Q 934 4225 453 4556 
L 453 4863 
Q 1216 4522 1603 3783 
Q 1991 3044 1991 1931 
Q 1991 822 1603 83 
Q 1216 -656 453 -997 
z
" transform="scale(0.015625)"/>
     </defs>
     <use xlink:href="#DejaVuSerif-50"/>
     <use xlink:href="#DejaVuSerif-65" transform="translate(62.785156 0)"/>
     <use xlink:href="#DejaVuSerif-72" transform="translate(121.964844 0)"/>
     <use xlink:href="#DejaVuSerif-66" transform="translate(169.767578 0)"/>
     <use xlink:href="#DejaVuSerif-6f" transform="translate(206.779297 0)"/>
     <use xlink:href="#DejaVuSerif-72" transform="translate(266.984375 0)"/>
     <use xlink:href="#DejaVuSerif-6d" transform="translate(314.787109 0)"/>
     <use xlink:href="#DejaVuSerif-61" transform="translate(409.611328 0)"/>
     <use xlink:href="#DejaVuSerif-6e" transform="translate(469.230469 0)"/>
     <use xlink:href="#DejaVuSerif-63" transform="translate(533.634766 0)"/>
     <use xlink:href="#DejaVuSerif-65" transform="translate(589.640625 0)"/>
     <use xlink:href="#DejaVuSerif-20" transform="translate(648.820312 0)"/>
     <use xlink:href="#DejaVuSerif-76" transform="translate(680.607422 0)"/>
     <use xlink:href="#DejaVuSerif-73" transform="translate(737.101562 0)"/>
     <use xlink:href="#DejaVuSerif-20" transform="translate(788.419922 0)"/>
     <use xlink:href="#DejaVuSerif-43" transform="translate(820.207031 0)"/>
     <use xlink:href="#DejaVuSerif-6f" transform="translate(896.720703 0)"/>
     <use xlink:href="#DejaVuSerif-6e" transform="translate(956.925781 0)"/>
     <use xlink:href="#DejaVuSerif-73" transform="translate(1021.330078 0)"/>
     <use xlink:href="#DejaVuSerif-69" transform="translate(1072.648438 0)"/>
     <use xlink:href="#DejaVuSerif-73" transform="translate(1104.630859 0)"/>
     <use xlink:href="#DejaVuSerif-74" transform="translate(1155.949219 0)"/>
     <use xlink:href="#DejaVuSerif-65" transform="translate(1196.134766 0)"/>
     <use xlink:href="#DejaVuSerif-6e" transform="translate(1255.314453 0)"/>
     <use xlink:href="#DejaVuSerif-63" transform="translate(1319.71875 0)"/>
     <use xlink:href="#DejaVuSerif-79" transform="translate(1375.724609 0)"/>
     <use xlink:href="#DejaVuSerif-20" transform="translate(1432.21875 0)"/>
     <use xlink:href="#DejaVuSerif-28" transform="translate(1464.005859 0)"/>
     <use xlink:href="#DejaVuSerif-52" transform="translate(1503.019531 0)"/>
     <use xlink:href="#DejaVuSerif-4d" transform="translate(1578.3125 0)"/>
     <use xlink:href="#DejaVuSerif-53" transform="translate(1680.705078 0)"/>
     <use xlink:href="#DejaVuSerif-45" transform="translate(1749.210938 0)"/>
     <use xlink:href="#DejaVuSerif-5f" transform="translate(1822.208984 0)"/>
     <use xlink:href="#DejaVuSerif-6c" transform="translate(1872.208984 0)"/>
     <use xlink:href="#DejaVuSerif-6f" transform="translate(1904.191406 0)"/>
     <use xlink:href="#DejaVuSerif-67" transform="translate(1964.396484 0)"/>
     <use xlink:href="#DejaVuSerif-29" transform="translate(2028.410156 0)"/>
    </g>
   </g>
   <g id="legend_1">
    <g id="patch_7">
     <path d="M 64.561672 93.228469 
L 210.120422 93.228469 
Q 211.720422 93.228469 211.720422 91.628469 
L 211.720422 28.374031 
Q 211.720422 26.774031 210.120422 26.774031 
L 64.561672 26.774031 
Q 62.961672 26.774031 62.961672 28.374031 
L 62.961672 91.628469 
Q 62.961672 93.228469 64.561672 93.228469 
z
" style="fill: #ffffff; opacity: 0.8; stroke: #cccccc; stroke-linejoin: miter"/>
    </g>
    <g id="text_23">
     <!-- Variant -->
     <g style="fill: #262626" transform="translate(114.237766 39.548062) scale(0.126 -0.126)">
      <defs>
       <path id="DejaVuSerif-56" d="M 1119 4331 
L 2497 750 
L 3872 4331 
L 3347 4331 
L 3347 4666 
L 4716 4666 
L 4716 4331 
L 4263 4331 
L 2597 0 
L 2059 0 
L 403 4331 
L -63 4331 
L -63 4666 
L 1638 4666 
L 1638 4331 
L 1119 4331 
z
" transform="scale(0.015625)"/>
      </defs>
      <use xlink:href="#DejaVuSerif-56"/>
      <use xlink:href="#DejaVuSerif-61" transform="translate(63.091797 0)"/>
      <use xlink:href="#DejaVuSerif-72" transform="translate(122.710938 0)"/>
      <use xlink:href="#DejaVuSerif-69" transform="translate(170.513672 0)"/>
      <use xlink:href="#DejaVuSerif-61" transform="translate(202.496094 0)"/>
      <use xlink:href="#DejaVuSerif-6e" transform="translate(262.115234 0)"/>
      <use xlink:href="#DejaVuSerif-74" transform="translate(326.519531 0)"/>
     </g>
    </g>
    <g id="PathCollection_5">
     <g>
      <use xlink:href="#m72b16779f1" x="74.161672" y="50.147219" style="fill: #66c2a5; fill-opacity: 0.8; stroke: #000000; stroke-opacity: 0.8; stroke-width: 0.5"/>
     </g>
    </g>
    <g id="text_24">
     <!-- with_outlier_default_adaptive -->
     <g style="fill: #262626" transform="translate(88.561672 52.247219) scale(0.08 -0.08)">
      <defs>
       <path id="DejaVuSerif-77" d="M 3072 3322 
L 3922 728 
L 4672 2988 
L 4191 2988 
L 4191 3322 
L 5394 3322 
L 5394 2988 
L 5025 2988 
L 4038 0 
L 3559 0 
L 2741 2484 
L 1919 0 
L 1459 0 
L 475 2988 
L 103 2988 
L 103 3322 
L 1606 3322 
L 1606 2988 
L 1069 2988 
L 1813 728 
L 2669 3322 
L 3072 3322 
z
" transform="scale(0.015625)"/>
       <path id="DejaVuSerif-75" d="M 2266 3322 
L 3341 3322 
L 3341 331 
L 3884 331 
L 3884 0 
L 2766 0 
L 2766 588 
Q 2606 256 2353 82 
Q 2100 -91 1766 -91 
Q 1213 -91 952 223 
Q 691 538 691 1209 
L 691 2988 
L 172 2988 
L 172 3322 
L 1269 3322 
L 1269 1388 
Q 1269 781 1417 556 
Q 1566 331 1947 331 
Q 2347 331 2556 625 
Q 2766 919 2766 1478 
L 2766 2988 
L 2266 2988 
L 2266 3322 
z
" transform="scale(0.015625)"/>
       <path id="DejaVuSerif-70" d="M 1313 1825 
L 1313 1497 
Q 1313 897 1542 583 
Q 1772 269 2209 269 
Q 2650 269 2876 622 
Q 3103 975 3103 1663 
Q 3103 2353 2876 2703 
Q 2650 3053 2209 3053 
Q 1772 3053 1542 2737 
Q 1313 2422 1313 1825 
z
M 738 2988 
L 184 2988 
L 184 3322 
L 1313 3322 
L 1313 2803 
Q 1481 3116 1742 3264 
Q 2003 3413 2388 3413 
Q 3000 3413 3387 2928 
Q 3775 2444 3775 1663 
Q 3775 881 3387 395 
Q 3000 -91 2388 -91 
Q 2003 -91 1742 57 
Q 1481 206 1313 519 
L 1313 -997 
L 1856 -997 
L 1856 -1331 
L 184 -1331 
L 184 -997 
L 738 -997 
L 738 2988 
z
" transform="scale(0.015625)"/>
      </defs>
      <use xlink:href="#DejaVuSerif-77"/>
      <use xlink:href="#DejaVuSerif-69" transform="translate(85.595703 0)"/>
      <use xlink:href="#DejaVuSerif-74" transform="translate(117.578125 0)"/>
      <use xlink:href="#DejaVuSerif-68" transform="translate(157.763672 0)"/>
      <use xlink:href="#DejaVuSerif-5f" transform="translate(222.167969 0)"/>
      <use xlink:href="#DejaVuSerif-6f" transform="translate(272.167969 0)"/>
      <use xlink:href="#DejaVuSerif-75" transform="translate(332.373047 0)"/>
      <use xlink:href="#DejaVuSerif-74" transform="translate(396.777344 0)"/>
      <use xlink:href="#DejaVuSerif-6c" transform="translate(436.962891 0)"/>
      <use xlink:href="#DejaVuSerif-69" transform="translate(468.945312 0)"/>
      <use xlink:href="#DejaVuSerif-65" transform="translate(500.927734 0)"/>
      <use xlink:href="#DejaVuSerif-72" transform="translate(560.107422 0)"/>
      <use xlink:href="#DejaVuSerif-5f" transform="translate(607.910156 0)"/>
      <use xlink:href="#DejaVuSerif-64" transform="translate(657.910156 0)"/>
      <use xlink:href="#DejaVuSerif-65" transform="translate(721.923828 0)"/>
      <use xlink:href="#DejaVuSerif-66" transform="translate(781.103516 0)"/>
      <use xlink:href="#DejaVuSerif-61" transform="translate(818.115234 0)"/>
      <use xlink:href="#DejaVuSerif-75" transform="translate(877.734375 0)"/>
      <use xlink:href="#DejaVuSerif-6c" transform="translate(942.138672 0)"/>
      <use xlink:href="#DejaVuSerif-74" transform="translate(974.121094 0)"/>
      <use xlink:href="#DejaVuSerif-5f" transform="translate(1014.306641 0)"/>
      <use xlink:href="#DejaVuSerif-61" transform="translate(1064.306641 0)"/>
      <use xlink:href="#DejaVuSerif-64" transform="translate(1123.925781 0)"/>
      <use xlink:href="#DejaVuSerif-61" transform="translate(1187.939453 0)"/>
      <use xlink:href="#DejaVuSerif-70" transform="translate(1247.558594 0)"/>
      <use xlink:href="#DejaVuSerif-74" transform="translate(1311.572266 0)"/>
      <use xlink:href="#DejaVuSerif-69" transform="translate(1351.757812 0)"/>
      <use xlink:href="#DejaVuSerif-76" transform="translate(1383.740234 0)"/>
      <use xlink:href="#DejaVuSerif-65" transform="translate(1440.234375 0)"/>
     </g>
    </g>
    <g id="PathCollection_6">
     <g>
      <use xlink:href="#m28dffcf8df" x="74.161672" y="62.112219" style="fill: #fc8d62; fill-opacity: 0.8; stroke: #000000; stroke-opacity: 0.8; stroke-width: 0.5"/>
     </g>
    </g>
    <g id="text_25">
     <!-- with_outlier_default_linear -->
     <g style="fill: #262626" transform="translate(88.561672 64.212219) scale(0.08 -0.08)">
      <use xlink:href="#DejaVuSerif-77"/>
      <use xlink:href="#DejaVuSerif-69" transform="translate(85.595703 0)"/>
      <use xlink:href="#DejaVuSerif-74" transform="translate(117.578125 0)"/>
      <use xlink:href="#DejaVuSerif-68" transform="translate(157.763672 0)"/>
      <use xlink:href="#DejaVuSerif-5f" transform="translate(222.167969 0)"/>
      <use xlink:href="#DejaVuSerif-6f" transform="translate(272.167969 0)"/>
      <use xlink:href="#DejaVuSerif-75" transform="translate(332.373047 0)"/>
      <use xlink:href="#DejaVuSerif-74" transform="translate(396.777344 0)"/>
      <use xlink:href="#DejaVuSerif-6c" transform="translate(436.962891 0)"/>
      <use xlink:href="#DejaVuSerif-69" transform="translate(468.945312 0)"/>
      <use xlink:href="#DejaVuSerif-65" transform="translate(500.927734 0)"/>
      <use xlink:href="#DejaVuSerif-72" transform="translate(560.107422 0)"/>
      <use xlink:href="#DejaVuSerif-5f" transform="translate(607.910156 0)"/>
      <use xlink:href="#DejaVuSerif-64" transform="translate(657.910156 0)"/>
      <use xlink:href="#DejaVuSerif-65" transform="translate(721.923828 0)"/>
      <use xlink:href="#DejaVuSerif-66" transform="translate(781.103516 0)"/>
      <use xlink:href="#DejaVuSerif-61" transform="translate(818.115234 0)"/>
      <use xlink:href="#DejaVuSerif-75" transform="translate(877.734375 0)"/>
      <use xlink:href="#DejaVuSerif-6c" transform="translate(942.138672 0)"/>
      <use xlink:href="#DejaVuSerif-74" transform="translate(974.121094 0)"/>
      <use xlink:href="#DejaVuSerif-5f" transform="translate(1014.306641 0)"/>
      <use xlink:href="#DejaVuSerif-6c" transform="translate(1064.306641 0)"/>
      <use xlink:href="#DejaVuSerif-69" transform="translate(1096.289062 0)"/>
      <use xlink:href="#DejaVuSerif-6e" transform="translate(1128.271484 0)"/>
      <use xlink:href="#DejaVuSerif-65" transform="translate(1192.675781 0)"/>
      <use xlink:href="#DejaVuSerif-61" transform="translate(1251.855469 0)"/>
      <use xlink:href="#DejaVuSerif-72" transform="translate(1311.474609 0)"/>
     </g>
    </g>
    <g id="PathCollection_7">
     <g>
      <use xlink:href="#m51f999fce9" x="74.161672" y="74.077219" style="fill: #8da0cb; fill-opacity: 0.8; stroke: #000000; stroke-opacity: 0.8; stroke-width: 0.5"/>
     </g>
    </g>
    <g id="text_26">
     <!-- without_outlier_adaptive -->
     <g style="fill: #262626" transform="translate(88.561672 76.177219) scale(0.08 -0.08)">
      <use xlink:href="#DejaVuSerif-77"/>
      <use xlink:href="#DejaVuSerif-69" transform="translate(85.595703 0)"/>
      <use xlink:href="#DejaVuSerif-74" transform="translate(117.578125 0)"/>
      <use xlink:href="#DejaVuSerif-68" transform="translate(157.763672 0)"/>
      <use xlink:href="#DejaVuSerif-6f" transform="translate(222.167969 0)"/>
      <use xlink:href="#DejaVuSerif-75" transform="translate(282.373047 0)"/>
      <use xlink:href="#DejaVuSerif-74" transform="translate(346.777344 0)"/>
      <use xlink:href="#DejaVuSerif-5f" transform="translate(386.962891 0)"/>
      <use xlink:href="#DejaVuSerif-6f" transform="translate(436.962891 0)"/>
      <use xlink:href="#DejaVuSerif-75" transform="translate(497.167969 0)"/>
      <use xlink:href="#DejaVuSerif-74" transform="translate(561.572266 0)"/>
      <use xlink:href="#DejaVuSerif-6c" transform="translate(601.757812 0)"/>
      <use xlink:href="#DejaVuSerif-69" transform="translate(633.740234 0)"/>
      <use xlink:href="#DejaVuSerif-65" transform="translate(665.722656 0)"/>
      <use xlink:href="#DejaVuSerif-72" transform="translate(724.902344 0)"/>
      <use xlink:href="#DejaVuSerif-5f" transform="translate(772.705078 0)"/>
      <use xlink:href="#DejaVuSerif-61" transform="translate(822.705078 0)"/>
      <use xlink:href="#DejaVuSerif-64" transform="translate(882.324219 0)"/>
      <use xlink:href="#DejaVuSerif-61" transform="translate(946.337891 0)"/>
      <use xlink:href="#DejaVuSerif-70" transform="translate(1005.957031 0)"/>
      <use xlink:href="#DejaVuSerif-74" transform="translate(1069.970703 0)"/>
      <use xlink:href="#DejaVuSerif-69" transform="translate(1110.15625 0)"/>
      <use xlink:href="#DejaVuSerif-76" transform="translate(1142.138672 0)"/>
      <use xlink:href="#DejaVuSerif-65" transform="translate(1198.632812 0)"/>
     </g>
    </g>
    <g id="PathCollection_8">
     <g>
      <use xlink:href="#m6cb298409b" x="74.161672" y="86.042219" style="fill: #e78ac3; fill-opacity: 0.8; stroke: #000000; stroke-opacity: 0.8; stroke-width: 0.5"/>
     </g>
    </g>
    <g id="text_27">
     <!-- without_outlier_linear -->
     <g style="fill: #262626" transform="translate(88.561672 88.142219) scale(0.08 -0.08)">
      <use xlink:href="#DejaVuSerif-77"/>
      <use xlink:href="#DejaVuSerif-69" transform="translate(85.595703 0)"/>
      <use xlink:href="#DejaVuSerif-74" transform="translate(117.578125 0)"/>
      <use xlink:href="#DejaVuSerif-68" transform="translate(157.763672 0)"/>
      <use xlink:href="#DejaVuSerif-6f" transform="translate(222.167969 0)"/>
      <use xlink:href="#DejaVuSerif-75" transform="translate(282.373047 0)"/>
      <use xlink:href="#DejaVuSerif-74" transform="translate(346.777344 0)"/>
      <use xlink:href="#DejaVuSerif-5f" transform="translate(386.962891 0)"/>
      <use xlink:href="#DejaVuSerif-6f" transform="translate(436.962891 0)"/>
      <use xlink:href="#DejaVuSerif-75" transform="translate(497.167969 0)"/>
      <use xlink:href="#DejaVuSerif-74" transform="translate(561.572266 0)"/>
      <use xlink:href="#DejaVuSerif-6c" transform="translate(601.757812 0)"/>
      <use xlink:href="#DejaVuSerif-69" transform="translate(633.740234 0)"/>
      <use xlink:href="#DejaVuSerif-65" transform="translate(665.722656 0)"/>
      <use xlink:href="#DejaVuSerif-72" transform="translate(724.902344 0)"/>
      <use xlink:href="#DejaVuSerif-5f" transform="translate(772.705078 0)"/>
      <use xlink:href="#DejaVuSerif-6c" transform="translate(822.705078 0)"/>
      <use xlink:href="#DejaVuSerif-69" transform="translate(854.6875 0)"/>
      <use xlink:href="#DejaVuSerif-6e" transform="translate(886.669922 0)"/>
      <use xlink:href="#DejaVuSerif-65" transform="translate(951.074219 0)"/>
      <use xlink:href="#DejaVuSerif-61" transform="translate(1010.253906 0)"/>
      <use xlink:href="#DejaVuSerif-72" transform="translate(1069.873047 0)"/>
     </g>
    </g>
   </g>
  </g>
 </g>
 <defs>
  <clipPath id="p73caf0e744">
   <rect x="58.961672" y="22.774031" width="502.2" height="388.08"/>
  </clipPath>
 </defs>
</svg>
