<?xml version="1.0" encoding="utf-8" standalone="no"?>
<!DOCTYPE svg PUBLIC "-//W3C//DTD SVG 1.1//EN"
  "http://www.w3.org/Graphics/SVG/1.1/DTD/svg11.dtd">
<svg xmlns:xlink="http://www.w3.org/1999/xlink" width="659.410359pt" height="470.264507pt" viewBox="0 0 659.410359 470.264507" xmlns="http://www.w3.org/2000/svg" version="1.1">
 <metadata>
  <rdf:RDF xmlns:dc="http://purl.org/dc/elements/1.1/" xmlns:cc="http://creativecommons.org/ns#" xmlns:rdf="http://www.w3.org/1999/02/22-rdf-syntax-ns#">
   <cc:Work>
    <dc:type rdf:resource="http://purl.org/dc/dcmitype/StillImage"/>
    <dc:date>2026-04-14T14:26:59.144548</dc:date>
    <dc:format>image/svg+xml</dc:format>
    <dc:creator>
     <cc:Agent>
      <dc:title>Matplotlib v3.10.8, https://matplotlib.org/</dc:title>
     </cc:Agent>
    </dc:creator>
   </cc:Work>
  </rdf:RDF>
 </metadata>
 <defs>
  <style type="text/css">*{stroke-linejoin: round; stroke-linecap: butt}</style>
 </defs>
 <g id="figure_1">
  <g id="patch_1">
   <path d="M 0 470.264507 
L 659.410359 470.264507 
L 659.410359 -0 
L 0 -0 
z
" style="fill: #ffffff"/>
  </g>
  <g id="axes_1">
   <g id="patch_2">
    <path d="M 66.310359 355.414031 
L 652.210359 355.414031 
L 652.210359 22.774031 
L 66.310359 22.774031 
z
" style="fill: #ffffff"/>
   </g>
   <g id="matplotlib.axis_1">
    <g id="xtick_1">
     <g id="text_1">
      <!-- ExtraTrees -->
      <g style="fill: #262626" transform="translate(38.309211 416.952389) rotate(-45) scale(0.1155 -0.1155)">
       <defs>
        <path id="DejaVuSerif-45" d="M 353 0 
L 353 331 
L 947 331 
L 947 4331 
L 353 4331 
L 353 4666 
L 4109 4666 
L 4109 3628 
L 3725 3628 
L 3725 4281 
L 1581 4281 
L 1581 2719 
L 3109 2719 
L 3109 3303 
L 3494 3303 
L 3494 1753 
L 3109 1753 
L 3109 2338 
L 1581 2338 
L 1581 384 
L 3775 384 
L 3775 1038 
L 4159 1038 
L 4159 0 
L 353 0 
z
" transform="scale(0.015625)"/>
        <path id="DejaVuSerif-78" d="M 1863 2028 
L 2559 2988 
L 2113 2988 
L 2113 3322 
L 3391 3322 
L 3391 2988 
L 2950 2988 
L 2059 1759 
L 3097 331 
L 3531 331 
L 3531 0 
L 1997 0 
L 1997 331 
L 2419 331 
L 1697 1325 
L 972 331 
L 1403 331 
L 1403 0 
L 141 0 
L 141 331 
L 581 331 
L 1497 1594 
L 488 2988 
L 78 2988 
L 78 3322 
L 1563 3322 
L 1563 2988 
L 1166 2988 
L 1863 2028 
z
" transform="scale(0.015625)"/>
        <path id="DejaVuSerif-74" d="M 691 2988 
L 184 2988 
L 184 3322 
L 691 3322 
L 691 4353 
L 1269 4353 
L 1269 3322 
L 2350 3322 
L 2350 2988 
L 1269 2988 
L 1269 878 
Q 1269 456 1350 337 
Q 1431 219 1650 219 
Q 1875 219 1978 351 
Q 2081 484 2088 781 
L 2522 781 
Q 2497 328 2275 118 
Q 2053 -91 1600 -91 
Q 1103 -91 897 129 
Q 691 350 691 878 
L 691 2988 
z
" transform="scale(0.015625)"/>
        <path id="DejaVuSerif-72" d="M 3059 3328 
L 3059 2497 
L 2728 2497 
Q 2713 2744 2591 2866 
Q 2469 2988 2234 2988 
Q 1809 2988 1582 2694 
Q 1356 2400 1356 1850 
L 1356 331 
L 2022 331 
L 2022 0 
L 263 0 
L 263 331 
L 781 331 
L 781 2994 
L 231 2994 
L 231 3322 
L 1356 3322 
L 1356 2731 
Q 1525 3078 1790 3245 
Q 2056 3413 2438 3413 
Q 2578 3413 2733 3391 
Q 2888 3369 3059 3328 
z
" transform="scale(0.015625)"/>
        <path id="DejaVuSerif-61" d="M 2547 1044 
L 2547 1747 
L 1806 1747 
Q 1378 1747 1168 1562 
Q 959 1378 959 997 
Q 959 650 1171 447 
Q 1384 244 1747 244 
Q 2106 244 2326 466 
Q 2547 688 2547 1044 
z
M 3122 2075 
L 3122 331 
L 3634 331 
L 3634 0 
L 2547 0 
L 2547 359 
Q 2356 128 2106 18 
Q 1856 -91 1522 -91 
Q 969 -91 644 203 
Q 319 497 319 997 
Q 319 1513 691 1797 
Q 1063 2081 1741 2081 
L 2547 2081 
L 2547 2309 
Q 2547 2688 2317 2895 
Q 2088 3103 1672 3103 
Q 1328 3103 1125 2947 
Q 922 2791 872 2484 
L 575 2484 
L 575 3156 
Q 875 3284 1158 3348 
Q 1441 3413 1709 3413 
Q 2400 3413 2761 3070 
Q 3122 2728 3122 2075 
z
" transform="scale(0.015625)"/>
        <path id="DejaVuSerif-54" d="M 1222 0 
L 1222 331 
L 1819 331 
L 1819 4294 
L 447 4294 
L 447 3566 
L 63 3566 
L 63 4666 
L 4206 4666 
L 4206 3566 
L 3822 3566 
L 3822 4294 
L 2450 4294 
L 2450 331 
L 3047 331 
L 3047 0 
L 1222 0 
z
" transform="scale(0.015625)"/>
        <path id="DejaVuSerif-65" d="M 3469 1600 
L 991 1600 
L 991 1575 
Q 991 903 1244 561 
Q 1497 219 1991 219 
Q 2369 219 2611 417 
Q 2853 616 2950 1006 
L 3413 1006 
Q 3275 459 2904 184 
Q 2534 -91 1931 -91 
Q 1203 -91 761 389 
Q 319 869 319 1663 
Q 319 2450 753 2931 
Q 1188 3413 1894 3413 
Q 2647 3413 3050 2948 
Q 3453 2484 3469 1600 
z
M 2791 1931 
Q 2772 2513 2545 2808 
Q 2319 3103 1894 3103 
Q 1497 3103 1269 2806 
Q 1041 2509 991 1931 
L 2791 1931 
z
" transform="scale(0.015625)"/>
        <path id="DejaVuSerif-73" d="M 359 184 
L 359 959 
L 691 959 
Q 703 588 923 403 
Q 1144 219 1575 219 
Q 1963 219 2166 364 
Q 2369 509 2369 788 
Q 2369 1006 2220 1140 
Q 2072 1275 1594 1428 
L 1178 1569 
Q 750 1706 558 1912 
Q 366 2119 366 2438 
Q 366 2894 700 3153 
Q 1034 3413 1625 3413 
Q 1888 3413 2178 3344 
Q 2469 3275 2778 3144 
L 2778 2419 
L 2447 2419 
Q 2434 2741 2221 2922 
Q 2009 3103 1644 3103 
Q 1281 3103 1095 2975 
Q 909 2847 909 2591 
Q 909 2381 1050 2254 
Q 1191 2128 1613 1997 
L 2069 1856 
Q 2541 1709 2748 1489 
Q 2956 1269 2956 922 
Q 2956 450 2595 179 
Q 2234 -91 1600 -91 
Q 1278 -91 972 -22 
Q 666 47 359 184 
z
" transform="scale(0.015625)"/>
       </defs>
       <use xlink:href="#DejaVuSerif-45"/>
       <use xlink:href="#DejaVuSerif-78" transform="translate(72.998047 0)"/>
       <use xlink:href="#DejaVuSerif-74" transform="translate(129.394531 0)"/>
       <use xlink:href="#DejaVuSerif-72" transform="translate(169.580078 0)"/>
       <use xlink:href="#DejaVuSerif-61" transform="translate(217.382812 0)"/>
       <use xlink:href="#DejaVuSerif-54" transform="translate(277.001953 0)"/>
       <use xlink:href="#DejaVuSerif-72" transform="translate(343.701172 0)"/>
       <use xlink:href="#DejaVuSerif-65" transform="translate(391.503906 0)"/>
       <use xlink:href="#DejaVuSerif-65" transform="translate(450.683594 0)"/>
       <use xlink:href="#DejaVuSerif-73" transform="translate(509.863281 0)"/>
      </g>
     </g>
    </g>
    <g id="xtick_2">
     <g id="text_2">
      <!-- LightGBM -->
      <g style="fill: #262626" transform="translate(80.391031 413.814443) rotate(-45) scale(0.1155 -0.1155)">
       <defs>
        <path id="DejaVuSerif-4c" d="M 353 0 
L 353 331 
L 947 331 
L 947 4331 
L 353 4331 
L 353 4666 
L 2175 4666 
L 2175 4331 
L 1581 4331 
L 1581 384 
L 3713 384 
L 3713 1166 
L 4097 1166 
L 4097 0 
L 353 0 
z
" transform="scale(0.015625)"/>
        <path id="DejaVuSerif-69" d="M 622 4353 
Q 622 4497 726 4603 
Q 831 4709 978 4709 
Q 1122 4709 1226 4603 
Q 1331 4497 1331 4353 
Q 1331 4206 1228 4103 
Q 1125 4000 978 4000 
Q 831 4000 726 4103 
Q 622 4206 622 4353 
z
M 1356 331 
L 1900 331 
L 1900 0 
L 231 0 
L 231 331 
L 781 331 
L 781 2988 
L 231 2988 
L 231 3322 
L 1356 3322 
L 1356 331 
z
" transform="scale(0.015625)"/>
        <path id="DejaVuSerif-67" d="M 3359 2988 
L 3359 72 
Q 3359 -644 2965 -1033 
Q 2572 -1422 1844 -1422 
Q 1516 -1422 1216 -1362 
Q 916 -1303 641 -1184 
L 641 -488 
L 941 -488 
Q 997 -813 1206 -963 
Q 1416 -1113 1806 -1113 
Q 2313 -1113 2548 -827 
Q 2784 -541 2784 72 
L 2784 519 
Q 2616 206 2355 57 
Q 2094 -91 1709 -91 
Q 1097 -91 708 395 
Q 319 881 319 1663 
Q 319 2444 706 2928 
Q 1094 3413 1709 3413 
Q 2094 3413 2355 3264 
Q 2616 3116 2784 2803 
L 2784 3322 
L 3909 3322 
L 3909 2988 
L 3359 2988 
z
M 2784 1825 
Q 2784 2422 2554 2737 
Q 2325 3053 1888 3053 
Q 1444 3053 1217 2703 
Q 991 2353 991 1663 
Q 991 975 1217 622 
Q 1444 269 1888 269 
Q 2325 269 2554 583 
Q 2784 897 2784 1497 
L 2784 1825 
z
" transform="scale(0.015625)"/>
        <path id="DejaVuSerif-68" d="M 263 0 
L 263 331 
L 781 331 
L 781 4531 
L 231 4531 
L 231 4863 
L 1356 4863 
L 1356 2731 
Q 1516 3069 1770 3241 
Q 2025 3413 2363 3413 
Q 2913 3413 3172 3097 
Q 3431 2781 3431 2113 
L 3431 331 
L 3944 331 
L 3944 0 
L 2356 0 
L 2356 331 
L 2853 331 
L 2853 1931 
Q 2853 2541 2704 2764 
Q 2556 2988 2175 2988 
Q 1775 2988 1565 2697 
Q 1356 2406 1356 1850 
L 1356 331 
L 1856 331 
L 1856 0 
L 263 0 
z
" transform="scale(0.015625)"/>
        <path id="DejaVuSerif-47" d="M 4097 3272 
Q 3988 3856 3641 4136 
Q 3294 4416 2675 4416 
Q 1869 4416 1472 3897 
Q 1075 3378 1075 2328 
Q 1075 1300 1484 772 
Q 1894 244 2688 244 
Q 3041 244 3362 331 
Q 3684 419 3975 594 
L 3975 1797 
L 3097 1797 
L 3097 2131 
L 4609 2131 
L 4609 391 
Q 4194 150 3714 29 
Q 3234 -91 2688 -91 
Q 1631 -91 995 570 
Q 359 1231 359 2328 
Q 359 3434 996 4092 
Q 1634 4750 2713 4750 
Q 3113 4750 3539 4658 
Q 3966 4566 4447 4378 
L 4447 3272 
L 4097 3272 
z
" transform="scale(0.015625)"/>
        <path id="DejaVuSerif-42" d="M 1581 331 
L 2516 331 
Q 3078 331 3337 575 
Q 3597 819 3597 1350 
Q 3597 1878 3339 2120 
Q 3081 2363 2516 2363 
L 1581 2363 
L 1581 331 
z
M 1581 2694 
L 2375 2694 
Q 2888 2694 3123 2891 
Q 3359 3088 3359 3513 
Q 3359 3941 3123 4136 
Q 2888 4331 2375 4331 
L 1581 4331 
L 1581 2694 
z
M 353 0 
L 353 331 
L 947 331 
L 947 4331 
L 353 4331 
L 353 4666 
L 2656 4666 
Q 3363 4666 3720 4377 
Q 4078 4088 4078 3513 
Q 4078 3097 3829 2850 
Q 3581 2603 3103 2547 
Q 3697 2472 4005 2167 
Q 4313 1863 4313 1350 
Q 4313 656 3875 328 
Q 3438 0 2509 0 
L 353 0 
z
" transform="scale(0.015625)"/>
        <path id="DejaVuSerif-4d" d="M 353 0 
L 353 331 
L 947 331 
L 947 4331 
L 319 4331 
L 319 4666 
L 1678 4666 
L 3316 1344 
L 4953 4666 
L 6228 4666 
L 6228 4331 
L 5606 4331 
L 5606 331 
L 6203 331 
L 6203 0 
L 4378 0 
L 4378 331 
L 4972 331 
L 4972 3938 
L 3372 684 
L 2931 684 
L 1331 3938 
L 1331 331 
L 1925 331 
L 1925 0 
L 353 0 
z
" transform="scale(0.015625)"/>
       </defs>
       <use xlink:href="#DejaVuSerif-4c"/>
       <use xlink:href="#DejaVuSerif-69" transform="translate(66.40625 0)"/>
       <use xlink:href="#DejaVuSerif-67" transform="translate(98.388672 0)"/>
       <use xlink:href="#DejaVuSerif-68" transform="translate(162.402344 0)"/>
       <use xlink:href="#DejaVuSerif-74" transform="translate(226.806641 0)"/>
       <use xlink:href="#DejaVuSerif-47" transform="translate(266.992188 0)"/>
       <use xlink:href="#DejaVuSerif-42" transform="translate(346.875 0)"/>
       <use xlink:href="#DejaVuSerif-4d" transform="translate(420.361328 0)"/>
      </g>
     </g>
    </g>
    <g id="xtick_3">
     <g id="text_3">
      <!-- CatBoost -->
      <g style="fill: #262626" transform="translate(124.552906 408.828693) rotate(-45) scale(0.1155 -0.1155)">
       <defs>
        <path id="DejaVuSerif-43" d="M 4513 1234 
Q 4306 581 3820 245 
Q 3334 -91 2591 -91 
Q 2134 -91 1743 65 
Q 1353 222 1050 525 
Q 700 875 529 1320 
Q 359 1766 359 2328 
Q 359 3416 987 4083 
Q 1616 4750 2644 4750 
Q 3025 4750 3456 4650 
Q 3888 4550 4384 4347 
L 4384 3272 
L 4031 3272 
Q 3916 3859 3567 4137 
Q 3219 4416 2591 4416 
Q 1844 4416 1459 3886 
Q 1075 3356 1075 2328 
Q 1075 1303 1459 773 
Q 1844 244 2591 244 
Q 3113 244 3450 492 
Q 3788 741 3938 1234 
L 4513 1234 
z
" transform="scale(0.015625)"/>
        <path id="DejaVuSerif-6f" d="M 1925 219 
Q 2388 219 2623 584 
Q 2859 950 2859 1663 
Q 2859 2375 2623 2739 
Q 2388 3103 1925 3103 
Q 1463 3103 1227 2739 
Q 991 2375 991 1663 
Q 991 950 1228 584 
Q 1466 219 1925 219 
z
M 1925 -91 
Q 1200 -91 759 389 
Q 319 869 319 1663 
Q 319 2456 758 2934 
Q 1197 3413 1925 3413 
Q 2653 3413 3092 2934 
Q 3531 2456 3531 1663 
Q 3531 869 3092 389 
Q 2653 -91 1925 -91 
z
" transform="scale(0.015625)"/>
       </defs>
       <use xlink:href="#DejaVuSerif-43"/>
       <use xlink:href="#DejaVuSerif-61" transform="translate(76.513672 0)"/>
       <use xlink:href="#DejaVuSerif-74" transform="translate(136.132812 0)"/>
       <use xlink:href="#DejaVuSerif-42" transform="translate(176.318359 0)"/>
       <use xlink:href="#DejaVuSerif-6f" transform="translate(249.804688 0)"/>
       <use xlink:href="#DejaVuSerif-6f" transform="translate(310.009766 0)"/>
       <use xlink:href="#DejaVuSerif-73" transform="translate(370.214844 0)"/>
       <use xlink:href="#DejaVuSerif-74" transform="translate(421.533203 0)"/>
      </g>
     </g>
    </g>
    <g id="xtick_4">
     <g id="text_4">
      <!-- XGBoost -->
      <g style="fill: #262626" transform="translate(165.675095 406.766505) rotate(-45) scale(0.1155 -0.1155)">
       <defs>
        <path id="DejaVuSerif-58" d="M 2119 1997 
L 978 331 
L 1581 331 
L 1581 0 
L 38 0 
L 38 331 
L 575 331 
L 1919 2291 
L 556 4331 
L 56 4331 
L 56 4666 
L 1906 4666 
L 1906 4331 
L 1356 4331 
L 2356 2828 
L 3384 4331 
L 2784 4331 
L 2784 4666 
L 4313 4666 
L 4313 4331 
L 3788 4331 
L 2553 2534 
L 4025 331 
L 4525 331 
L 4525 0 
L 2675 0 
L 2675 331 
L 3231 331 
L 2119 1997 
z
" transform="scale(0.015625)"/>
       </defs>
       <use xlink:href="#DejaVuSerif-58"/>
       <use xlink:href="#DejaVuSerif-47" transform="translate(71.191406 0)"/>
       <use xlink:href="#DejaVuSerif-42" transform="translate(151.074219 0)"/>
       <use xlink:href="#DejaVuSerif-6f" transform="translate(224.560547 0)"/>
       <use xlink:href="#DejaVuSerif-6f" transform="translate(284.765625 0)"/>
       <use xlink:href="#DejaVuSerif-73" transform="translate(344.970703 0)"/>
       <use xlink:href="#DejaVuSerif-74" transform="translate(396.289062 0)"/>
      </g>
     </g>
    </g>
    <g id="xtick_5">
     <g id="text_5">
      <!-- RandomForest -->
      <g style="fill: #262626" transform="translate(179.683843 431.817757) rotate(-45) scale(0.1155 -0.1155)">
       <defs>
        <path id="DejaVuSerif-52" d="M 3066 2316 
Q 3284 2256 3442 2114 
Q 3600 1972 3725 1716 
L 4403 331 
L 4972 331 
L 4972 0 
L 3872 0 
L 3144 1484 
Q 2934 1916 2759 2042 
Q 2584 2169 2278 2169 
L 1581 2169 
L 1581 331 
L 2241 331 
L 2241 0 
L 353 0 
L 353 331 
L 947 331 
L 947 4331 
L 353 4331 
L 353 4666 
L 2719 4666 
Q 3400 4666 3770 4341 
Q 4141 4016 4141 3419 
Q 4141 2938 3870 2661 
Q 3600 2384 3066 2316 
z
M 1581 2503 
L 2503 2503 
Q 2975 2503 3200 2726 
Q 3425 2950 3425 3419 
Q 3425 3888 3200 4109 
Q 2975 4331 2503 4331 
L 1581 4331 
L 1581 2503 
z
" transform="scale(0.015625)"/>
        <path id="DejaVuSerif-6e" d="M 263 0 
L 263 331 
L 781 331 
L 781 2988 
L 231 2988 
L 231 3322 
L 1356 3322 
L 1356 2731 
Q 1516 3069 1770 3241 
Q 2025 3413 2363 3413 
Q 2913 3413 3172 3097 
Q 3431 2781 3431 2113 
L 3431 331 
L 3944 331 
L 3944 0 
L 2356 0 
L 2356 331 
L 2853 331 
L 2853 1931 
Q 2853 2541 2703 2767 
Q 2553 2994 2175 2994 
Q 1775 2994 1565 2701 
Q 1356 2409 1356 1850 
L 1356 331 
L 1856 331 
L 1856 0 
L 263 0 
z
" transform="scale(0.015625)"/>
        <path id="DejaVuSerif-64" d="M 3359 331 
L 3909 331 
L 3909 0 
L 2784 0 
L 2784 519 
Q 2616 206 2355 57 
Q 2094 -91 1709 -91 
Q 1097 -91 708 395 
Q 319 881 319 1663 
Q 319 2444 706 2928 
Q 1094 3413 1709 3413 
Q 2094 3413 2355 3264 
Q 2616 3116 2784 2803 
L 2784 4531 
L 2241 4531 
L 2241 4863 
L 3359 4863 
L 3359 331 
z
M 2784 1497 
L 2784 1825 
Q 2784 2422 2554 2737 
Q 2325 3053 1888 3053 
Q 1444 3053 1217 2703 
Q 991 2353 991 1663 
Q 991 975 1217 622 
Q 1444 269 1888 269 
Q 2325 269 2554 583 
Q 2784 897 2784 1497 
z
" transform="scale(0.015625)"/>
        <path id="DejaVuSerif-6d" d="M 3316 2675 
Q 3481 3041 3739 3227 
Q 3997 3413 4341 3413 
Q 4863 3413 5119 3089 
Q 5375 2766 5375 2113 
L 5375 331 
L 5894 331 
L 5894 0 
L 4300 0 
L 4300 331 
L 4800 331 
L 4800 2047 
Q 4800 2556 4650 2772 
Q 4500 2988 4153 2988 
Q 3769 2988 3567 2697 
Q 3366 2406 3366 1850 
L 3366 331 
L 3866 331 
L 3866 0 
L 2291 0 
L 2291 331 
L 2791 331 
L 2791 2069 
Q 2791 2566 2641 2777 
Q 2491 2988 2144 2988 
Q 1759 2988 1557 2697 
Q 1356 2406 1356 1850 
L 1356 331 
L 1856 331 
L 1856 0 
L 263 0 
L 263 331 
L 781 331 
L 781 2994 
L 231 2994 
L 231 3322 
L 1356 3322 
L 1356 2731 
Q 1516 3063 1762 3238 
Q 2009 3413 2322 3413 
Q 2709 3413 2968 3220 
Q 3228 3028 3316 2675 
z
" transform="scale(0.015625)"/>
        <path id="DejaVuSerif-46" d="M 353 0 
L 353 331 
L 947 331 
L 947 4331 
L 353 4331 
L 353 4666 
L 4172 4666 
L 4172 3628 
L 3788 3628 
L 3788 4281 
L 1581 4281 
L 1581 2719 
L 3175 2719 
L 3175 3303 
L 3559 3303 
L 3559 1753 
L 3175 1753 
L 3175 2338 
L 1581 2338 
L 1581 331 
L 2328 331 
L 2328 0 
L 353 0 
z
" transform="scale(0.015625)"/>
       </defs>
       <use xlink:href="#DejaVuSerif-52"/>
       <use xlink:href="#DejaVuSerif-61" transform="translate(77.542969 0)"/>
       <use xlink:href="#DejaVuSerif-6e" transform="translate(137.162109 0)"/>
       <use xlink:href="#DejaVuSerif-64" transform="translate(201.566406 0)"/>
       <use xlink:href="#DejaVuSerif-6f" transform="translate(265.580078 0)"/>
       <use xlink:href="#DejaVuSerif-6d" transform="translate(325.785156 0)"/>
       <use xlink:href="#DejaVuSerif-46" transform="translate(420.609375 0)"/>
       <use xlink:href="#DejaVuSerif-6f" transform="translate(484.494141 0)"/>
       <use xlink:href="#DejaVuSerif-72" transform="translate(544.699219 0)"/>
       <use xlink:href="#DejaVuSerif-65" transform="translate(592.501953 0)"/>
       <use xlink:href="#DejaVuSerif-73" transform="translate(651.681641 0)"/>
       <use xlink:href="#DejaVuSerif-74" transform="translate(703 0)"/>
      </g>
     </g>
    </g>
    <g id="xtick_6">
     <g id="text_6">
      <!-- HistGradientBoosting -->
      <g style="fill: #262626" transform="translate(189.195591 461.249883) rotate(-45) scale(0.1155 -0.1155)">
       <defs>
        <path id="DejaVuSerif-48" d="M 353 0 
L 353 331 
L 947 331 
L 947 4331 
L 353 4331 
L 353 4666 
L 2175 4666 
L 2175 4331 
L 1581 4331 
L 1581 2719 
L 4000 2719 
L 4000 4331 
L 3406 4331 
L 3406 4666 
L 5228 4666 
L 5228 4331 
L 4634 4331 
L 4634 331 
L 5228 331 
L 5228 0 
L 3406 0 
L 3406 331 
L 4000 331 
L 4000 2338 
L 1581 2338 
L 1581 331 
L 2175 331 
L 2175 0 
L 353 0 
z
" transform="scale(0.015625)"/>
       </defs>
       <use xlink:href="#DejaVuSerif-48"/>
       <use xlink:href="#DejaVuSerif-69" transform="translate(87.207031 0)"/>
       <use xlink:href="#DejaVuSerif-73" transform="translate(119.189453 0)"/>
       <use xlink:href="#DejaVuSerif-74" transform="translate(170.507812 0)"/>
       <use xlink:href="#DejaVuSerif-47" transform="translate(210.693359 0)"/>
       <use xlink:href="#DejaVuSerif-72" transform="translate(290.576172 0)"/>
       <use xlink:href="#DejaVuSerif-61" transform="translate(338.378906 0)"/>
       <use xlink:href="#DejaVuSerif-64" transform="translate(397.998047 0)"/>
       <use xlink:href="#DejaVuSerif-69" transform="translate(462.011719 0)"/>
       <use xlink:href="#DejaVuSerif-65" transform="translate(493.994141 0)"/>
       <use xlink:href="#DejaVuSerif-6e" transform="translate(553.173828 0)"/>
       <use xlink:href="#DejaVuSerif-74" transform="translate(617.578125 0)"/>
       <use xlink:href="#DejaVuSerif-42" transform="translate(657.763672 0)"/>
       <use xlink:href="#DejaVuSerif-6f" transform="translate(731.25 0)"/>
       <use xlink:href="#DejaVuSerif-6f" transform="translate(791.455078 0)"/>
       <use xlink:href="#DejaVuSerif-73" transform="translate(851.660156 0)"/>
       <use xlink:href="#DejaVuSerif-74" transform="translate(902.978516 0)"/>
       <use xlink:href="#DejaVuSerif-69" transform="translate(943.164062 0)"/>
       <use xlink:href="#DejaVuSerif-6e" transform="translate(975.146484 0)"/>
       <use xlink:href="#DejaVuSerif-67" transform="translate(1039.550781 0)"/>
      </g>
     </g>
    </g>
    <g id="xtick_7">
     <g id="text_7">
      <!-- Bagging -->
      <g style="fill: #262626" transform="translate(283.957651 405.431697) rotate(-45) scale(0.1155 -0.1155)">
       <use xlink:href="#DejaVuSerif-42"/>
       <use xlink:href="#DejaVuSerif-61" transform="translate(73.486328 0)"/>
       <use xlink:href="#DejaVuSerif-67" transform="translate(133.105469 0)"/>
       <use xlink:href="#DejaVuSerif-67" transform="translate(197.119141 0)"/>
       <use xlink:href="#DejaVuSerif-69" transform="translate(261.132812 0)"/>
       <use xlink:href="#DejaVuSerif-6e" transform="translate(293.115234 0)"/>
       <use xlink:href="#DejaVuSerif-67" transform="translate(357.519531 0)"/>
      </g>
     </g>
    </g>
    <g id="xtick_8">
     <g id="text_8">
      <!-- AdaBoost -->
      <g style="fill: #262626" transform="translate(318.257773 410.423827) rotate(-45) scale(0.1155 -0.1155)">
       <defs>
        <path id="DejaVuSerif-41" d="M 1281 1691 
L 2994 1691 
L 2138 3909 
L 1281 1691 
z
M -38 0 
L -38 331 
L 372 331 
L 2034 4666 
L 2559 4666 
L 4225 331 
L 4684 331 
L 4684 0 
L 2988 0 
L 2988 331 
L 3506 331 
L 3116 1356 
L 1153 1356 
L 763 331 
L 1275 331 
L 1275 0 
L -38 0 
z
" transform="scale(0.015625)"/>
       </defs>
       <use xlink:href="#DejaVuSerif-41"/>
       <use xlink:href="#DejaVuSerif-64" transform="translate(72.216797 0)"/>
       <use xlink:href="#DejaVuSerif-61" transform="translate(136.230469 0)"/>
       <use xlink:href="#DejaVuSerif-42" transform="translate(195.849609 0)"/>
       <use xlink:href="#DejaVuSerif-6f" transform="translate(269.335938 0)"/>
       <use xlink:href="#DejaVuSerif-6f" transform="translate(329.541016 0)"/>
       <use xlink:href="#DejaVuSerif-73" transform="translate(389.746094 0)"/>
       <use xlink:href="#DejaVuSerif-74" transform="translate(441.064453 0)"/>
      </g>
     </g>
    </g>
    <g id="xtick_9">
     <g id="text_9">
      <!-- GradientBoosting -->
      <g style="fill: #262626" transform="translate(323.582614 444.04286) rotate(-45) scale(0.1155 -0.1155)">
       <use xlink:href="#DejaVuSerif-47"/>
       <use xlink:href="#DejaVuSerif-72" transform="translate(79.882812 0)"/>
       <use xlink:href="#DejaVuSerif-61" transform="translate(127.685547 0)"/>
       <use xlink:href="#DejaVuSerif-64" transform="translate(187.304688 0)"/>
       <use xlink:href="#DejaVuSerif-69" transform="translate(251.318359 0)"/>
       <use xlink:href="#DejaVuSerif-65" transform="translate(283.300781 0)"/>
       <use xlink:href="#DejaVuSerif-6e" transform="translate(342.480469 0)"/>
       <use xlink:href="#DejaVuSerif-74" transform="translate(406.884766 0)"/>
       <use xlink:href="#DejaVuSerif-42" transform="translate(447.070312 0)"/>
       <use xlink:href="#DejaVuSerif-6f" transform="translate(520.556641 0)"/>
       <use xlink:href="#DejaVuSerif-6f" transform="translate(580.761719 0)"/>
       <use xlink:href="#DejaVuSerif-73" transform="translate(640.966797 0)"/>
       <use xlink:href="#DejaVuSerif-74" transform="translate(692.285156 0)"/>
       <use xlink:href="#DejaVuSerif-69" transform="translate(732.470703 0)"/>
       <use xlink:href="#DejaVuSerif-6e" transform="translate(764.453125 0)"/>
       <use xlink:href="#DejaVuSerif-67" transform="translate(828.857422 0)"/>
      </g>
     </g>
    </g>
    <g id="xtick_10">
     <g id="text_10">
      <!-- Lasso -->
      <g style="fill: #262626" transform="translate(412.090475 394.711124) rotate(-45) scale(0.1155 -0.1155)">
       <use xlink:href="#DejaVuSerif-4c"/>
       <use xlink:href="#DejaVuSerif-61" transform="translate(66.40625 0)"/>
       <use xlink:href="#DejaVuSerif-73" transform="translate(126.025391 0)"/>
       <use xlink:href="#DejaVuSerif-73" transform="translate(177.34375 0)"/>
       <use xlink:href="#DejaVuSerif-6f" transform="translate(228.662109 0)"/>
      </g>
     </g>
    </g>
    <g id="xtick_11">
     <g id="text_11">
      <!-- ElasticNet -->
      <g style="fill: #262626" transform="translate(431.377201 414.484399) rotate(-45) scale(0.1155 -0.1155)">
       <defs>
        <path id="DejaVuSerif-6c" d="M 1313 331 
L 1856 331 
L 1856 0 
L 184 0 
L 184 331 
L 738 331 
L 738 4531 
L 184 4531 
L 184 4863 
L 1313 4863 
L 1313 331 
z
" transform="scale(0.015625)"/>
        <path id="DejaVuSerif-63" d="M 3291 997 
Q 3169 466 2822 187 
Q 2475 -91 1925 -91 
Q 1200 -91 759 389 
Q 319 869 319 1663 
Q 319 2459 759 2936 
Q 1200 3413 1925 3413 
Q 2241 3413 2553 3339 
Q 2866 3266 3181 3116 
L 3181 2266 
L 2847 2266 
Q 2781 2703 2561 2903 
Q 2341 3103 1931 3103 
Q 1466 3103 1228 2742 
Q 991 2381 991 1663 
Q 991 944 1227 581 
Q 1463 219 1931 219 
Q 2303 219 2525 412 
Q 2747 606 2828 997 
L 3291 997 
z
" transform="scale(0.015625)"/>
        <path id="DejaVuSerif-4e" d="M 313 0 
L 313 331 
L 941 331 
L 941 4331 
L 313 4331 
L 313 4666 
L 1509 4666 
L 4306 984 
L 4306 4331 
L 3681 4331 
L 3681 4666 
L 5319 4666 
L 5319 4331 
L 4691 4331 
L 4691 -91 
L 4313 -91 
L 1325 3841 
L 1325 331 
L 1953 331 
L 1953 0 
L 313 0 
z
" transform="scale(0.015625)"/>
       </defs>
       <use xlink:href="#DejaVuSerif-45"/>
       <use xlink:href="#DejaVuSerif-6c" transform="translate(72.998047 0)"/>
       <use xlink:href="#DejaVuSerif-61" transform="translate(104.980469 0)"/>
       <use xlink:href="#DejaVuSerif-73" transform="translate(164.599609 0)"/>
       <use xlink:href="#DejaVuSerif-74" transform="translate(215.917969 0)"/>
       <use xlink:href="#DejaVuSerif-69" transform="translate(256.103516 0)"/>
       <use xlink:href="#DejaVuSerif-63" transform="translate(288.085938 0)"/>
       <use xlink:href="#DejaVuSerif-4e" transform="translate(344.091797 0)"/>
       <use xlink:href="#DejaVuSerif-65" transform="translate(431.591797 0)"/>
       <use xlink:href="#DejaVuSerif-74" transform="translate(490.771484 0)"/>
      </g>
     </g>
    </g>
    <g id="xtick_12">
     <g id="text_12">
      <!-- DecisionTree -->
      <g style="fill: #262626" transform="translate(459.235536 425.686064) rotate(-45) scale(0.1155 -0.1155)">
       <defs>
        <path id="DejaVuSerif-44" d="M 1581 331 
L 2163 331 
Q 3072 331 3558 850 
Q 4044 1369 4044 2338 
Q 4044 3306 3559 3818 
Q 3075 4331 2163 4331 
L 1581 4331 
L 1581 331 
z
M 353 0 
L 353 331 
L 947 331 
L 947 4331 
L 353 4331 
L 353 4666 
L 2209 4666 
Q 3416 4666 4089 4050 
Q 4763 3434 4763 2338 
Q 4763 1238 4088 619 
Q 3413 0 2209 0 
L 353 0 
z
" transform="scale(0.015625)"/>
       </defs>
       <use xlink:href="#DejaVuSerif-44"/>
       <use xlink:href="#DejaVuSerif-65" transform="translate(80.175781 0)"/>
       <use xlink:href="#DejaVuSerif-63" transform="translate(139.355469 0)"/>
       <use xlink:href="#DejaVuSerif-69" transform="translate(195.361328 0)"/>
       <use xlink:href="#DejaVuSerif-73" transform="translate(227.34375 0)"/>
       <use xlink:href="#DejaVuSerif-69" transform="translate(278.662109 0)"/>
       <use xlink:href="#DejaVuSerif-6f" transform="translate(310.644531 0)"/>
       <use xlink:href="#DejaVuSerif-6e" transform="translate(370.849609 0)"/>
       <use xlink:href="#DejaVuSerif-54" transform="translate(435.253906 0)"/>
       <use xlink:href="#DejaVuSerif-72" transform="translate(501.953125 0)"/>
       <use xlink:href="#DejaVuSerif-65" transform="translate(549.755859 0)"/>
       <use xlink:href="#DejaVuSerif-65" transform="translate(608.935547 0)"/>
      </g>
     </g>
    </g>
    <g id="xtick_13">
     <g id="text_13">
      <!-- MLP -->
      <g style="fill: #262626" transform="translate(533.581164 390.400436) rotate(-45) scale(0.1155 -0.1155)">
       <defs>
        <path id="DejaVuSerif-50" d="M 1581 2375 
L 2406 2375 
Q 2872 2375 3115 2626 
Q 3359 2878 3359 3353 
Q 3359 3831 3115 4081 
Q 2872 4331 2406 4331 
L 1581 4331 
L 1581 2375 
z
M 353 0 
L 353 331 
L 947 331 
L 947 4331 
L 353 4331 
L 353 4666 
L 2559 4666 
Q 3259 4666 3668 4311 
Q 4078 3956 4078 3353 
Q 4078 2753 3668 2397 
Q 3259 2041 2559 2041 
L 1581 2041 
L 1581 331 
L 2303 331 
L 2303 0 
L 353 0 
z
" transform="scale(0.015625)"/>
       </defs>
       <use xlink:href="#DejaVuSerif-4d"/>
       <use xlink:href="#DejaVuSerif-4c" transform="translate(102.392578 0)"/>
       <use xlink:href="#DejaVuSerif-50" transform="translate(168.798828 0)"/>
      </g>
     </g>
    </g>
    <g id="xtick_14">
     <g id="text_14">
      <!-- KNeighbors -->
      <g style="fill: #262626" transform="translate(542.384673 420.540801) rotate(-45) scale(0.1155 -0.1155)">
       <defs>
        <path id="DejaVuSerif-4b" d="M 353 0 
L 353 331 
L 947 331 
L 947 4331 
L 353 4331 
L 353 4666 
L 2175 4666 
L 2175 4331 
L 1581 4331 
L 1581 2566 
L 3591 4331 
L 3084 4331 
L 3084 4666 
L 4634 4666 
L 4634 4331 
L 4109 4331 
L 2106 2572 
L 4347 331 
L 4878 331 
L 4878 0 
L 3794 0 
L 1581 2216 
L 1581 331 
L 2175 331 
L 2175 0 
L 353 0 
z
" transform="scale(0.015625)"/>
        <path id="DejaVuSerif-62" d="M 738 331 
L 738 4531 
L 184 4531 
L 184 4863 
L 1313 4863 
L 1313 2803 
Q 1481 3116 1742 3264 
Q 2003 3413 2388 3413 
Q 3000 3413 3387 2928 
Q 3775 2444 3775 1663 
Q 3775 881 3387 395 
Q 3000 -91 2388 -91 
Q 2003 -91 1742 57 
Q 1481 206 1313 519 
L 1313 0 
L 184 0 
L 184 331 
L 738 331 
z
M 1313 1497 
Q 1313 897 1542 583 
Q 1772 269 2209 269 
Q 2650 269 2876 622 
Q 3103 975 3103 1663 
Q 3103 2353 2876 2703 
Q 2650 3053 2209 3053 
Q 1772 3053 1542 2737 
Q 1313 2422 1313 1825 
L 1313 1497 
z
" transform="scale(0.015625)"/>
       </defs>
       <use xlink:href="#DejaVuSerif-4b"/>
       <use xlink:href="#DejaVuSerif-4e" transform="translate(74.707031 0)"/>
       <use xlink:href="#DejaVuSerif-65" transform="translate(162.207031 0)"/>
       <use xlink:href="#DejaVuSerif-69" transform="translate(221.386719 0)"/>
       <use xlink:href="#DejaVuSerif-67" transform="translate(253.369141 0)"/>
       <use xlink:href="#DejaVuSerif-68" transform="translate(317.382812 0)"/>
       <use xlink:href="#DejaVuSerif-62" transform="translate(381.787109 0)"/>
       <use xlink:href="#DejaVuSerif-6f" transform="translate(445.800781 0)"/>
       <use xlink:href="#DejaVuSerif-72" transform="translate(506.005859 0)"/>
       <use xlink:href="#DejaVuSerif-73" transform="translate(553.808594 0)"/>
      </g>
     </g>
    </g>
    <g id="xtick_15">
     <g id="text_15">
      <!-- Ridge -->
      <g style="fill: #262626" transform="translate(606.813675 395.171799) rotate(-45) scale(0.1155 -0.1155)">
       <use xlink:href="#DejaVuSerif-52"/>
       <use xlink:href="#DejaVuSerif-69" transform="translate(75.292969 0)"/>
       <use xlink:href="#DejaVuSerif-64" transform="translate(107.275391 0)"/>
       <use xlink:href="#DejaVuSerif-67" transform="translate(171.289062 0)"/>
       <use xlink:href="#DejaVuSerif-65" transform="translate(235.302734 0)"/>
      </g>
     </g>
    </g>
   </g>
   <g id="matplotlib.axis_2">
    <g id="ytick_1">
     <g id="line2d_1">
      <path d="M 66.310359 335.733847 
L 652.210359 335.733847 
" clip-path="url(#pa4c39bbeac)" style="fill: none; stroke: #cccccc; stroke-linecap: round"/>
     </g>
     <g id="text_16">
      <!-- 0.675 -->
      <g style="fill: #262626" transform="translate(23.744875 340.121945) scale(0.1155 -0.1155)">
       <defs>
        <path id="DejaVuSerif-30" d="M 2034 219 
Q 2513 219 2750 744 
Q 2988 1269 2988 2328 
Q 2988 3391 2750 3916 
Q 2513 4441 2034 4441 
Q 1556 4441 1318 3916 
Q 1081 3391 1081 2328 
Q 1081 1269 1318 744 
Q 1556 219 2034 219 
z
M 2034 -91 
Q 1275 -91 848 546 
Q 422 1184 422 2328 
Q 422 3475 848 4112 
Q 1275 4750 2034 4750 
Q 2797 4750 3222 4112 
Q 3647 3475 3647 2328 
Q 3647 1184 3222 546 
Q 2797 -91 2034 -91 
z
" transform="scale(0.015625)"/>
        <path id="DejaVuSerif-2e" d="M 603 325 
Q 603 500 722 622 
Q 841 744 1019 744 
Q 1191 744 1312 622 
Q 1434 500 1434 325 
Q 1434 153 1312 31 
Q 1191 -91 1019 -91 
Q 841 -91 722 29 
Q 603 150 603 325 
z
" transform="scale(0.015625)"/>
        <path id="DejaVuSerif-36" d="M 2094 219 
Q 2534 219 2771 542 
Q 3009 866 3009 1472 
Q 3009 2078 2771 2401 
Q 2534 2725 2094 2725 
Q 1647 2725 1412 2412 
Q 1178 2100 1178 1509 
Q 1178 888 1415 553 
Q 1653 219 2094 219 
z
M 1075 2569 
Q 1288 2803 1556 2918 
Q 1825 3034 2163 3034 
Q 2859 3034 3264 2615 
Q 3669 2197 3669 1472 
Q 3669 763 3233 336 
Q 2797 -91 2069 -91 
Q 1278 -91 853 498 
Q 428 1088 428 2181 
Q 428 3406 931 4078 
Q 1434 4750 2350 4750 
Q 2597 4750 2869 4703 
Q 3141 4656 3425 4563 
L 3425 3794 
L 3072 3794 
Q 3034 4109 2831 4275 
Q 2628 4441 2284 4441 
Q 1678 4441 1381 3981 
Q 1084 3522 1075 2569 
z
" transform="scale(0.015625)"/>
        <path id="DejaVuSerif-37" d="M 3609 4347 
L 1784 0 
L 1319 0 
L 3059 4153 
L 903 4153 
L 903 3578 
L 538 3578 
L 538 4666 
L 3609 4666 
L 3609 4347 
z
" transform="scale(0.015625)"/>
        <path id="DejaVuSerif-35" d="M 3219 4666 
L 3219 4153 
L 1081 4153 
L 1081 2816 
Q 1244 2928 1461 2984 
Q 1678 3041 1947 3041 
Q 2703 3041 3140 2622 
Q 3578 2203 3578 1478 
Q 3578 738 3136 323 
Q 2694 -91 1894 -91 
Q 1572 -91 1234 -12 
Q 897 66 544 225 
L 544 1131 
L 897 1131 
Q 925 688 1179 453 
Q 1434 219 1894 219 
Q 2388 219 2653 544 
Q 2919 869 2919 1478 
Q 2919 2084 2655 2407 
Q 2391 2731 1894 2731 
Q 1613 2731 1398 2631 
Q 1184 2531 1019 2322 
L 750 2322 
L 750 4666 
L 3219 4666 
z
" transform="scale(0.015625)"/>
       </defs>
       <use xlink:href="#DejaVuSerif-30"/>
       <use xlink:href="#DejaVuSerif-2e" transform="translate(63.623047 0)"/>
       <use xlink:href="#DejaVuSerif-36" transform="translate(95.410156 0)"/>
       <use xlink:href="#DejaVuSerif-37" transform="translate(159.033203 0)"/>
       <use xlink:href="#DejaVuSerif-35" transform="translate(222.65625 0)"/>
      </g>
     </g>
    </g>
    <g id="ytick_2">
     <g id="line2d_2">
      <path d="M 66.310359 294.841657 
L 652.210359 294.841657 
" clip-path="url(#pa4c39bbeac)" style="fill: none; stroke: #cccccc; stroke-linecap: round"/>
     </g>
     <g id="text_17">
      <!-- 0.700 -->
      <g style="fill: #262626" transform="translate(23.744875 299.229755) scale(0.1155 -0.1155)">
       <use xlink:href="#DejaVuSerif-30"/>
       <use xlink:href="#DejaVuSerif-2e" transform="translate(63.623047 0)"/>
       <use xlink:href="#DejaVuSerif-37" transform="translate(95.410156 0)"/>
       <use xlink:href="#DejaVuSerif-30" transform="translate(159.033203 0)"/>
       <use xlink:href="#DejaVuSerif-30" transform="translate(222.65625 0)"/>
      </g>
     </g>
    </g>
    <g id="ytick_3">
     <g id="line2d_3">
      <path d="M 66.310359 253.949467 
L 652.210359 253.949467 
" clip-path="url(#pa4c39bbeac)" style="fill: none; stroke: #cccccc; stroke-linecap: round"/>
     </g>
     <g id="text_18">
      <!-- 0.725 -->
      <g style="fill: #262626" transform="translate(23.744875 258.337565) scale(0.1155 -0.1155)">
       <defs>
        <path id="DejaVuSerif-32" d="M 819 3553 
L 469 3553 
L 469 4384 
Q 803 4563 1142 4656 
Q 1481 4750 1806 4750 
Q 2534 4750 2956 4397 
Q 3378 4044 3378 3438 
Q 3378 2753 2422 1800 
Q 2347 1728 2309 1691 
L 1131 513 
L 3078 513 
L 3078 1088 
L 3444 1088 
L 3444 0 
L 434 0 
L 434 341 
L 1850 1753 
Q 2319 2222 2519 2614 
Q 2719 3006 2719 3438 
Q 2719 3909 2473 4175 
Q 2228 4441 1797 4441 
Q 1350 4441 1106 4219 
Q 863 3997 819 3553 
z
" transform="scale(0.015625)"/>
       </defs>
       <use xlink:href="#DejaVuSerif-30"/>
       <use xlink:href="#DejaVuSerif-2e" transform="translate(63.623047 0)"/>
       <use xlink:href="#DejaVuSerif-37" transform="translate(95.410156 0)"/>
       <use xlink:href="#DejaVuSerif-32" transform="translate(159.033203 0)"/>
       <use xlink:href="#DejaVuSerif-35" transform="translate(222.65625 0)"/>
      </g>
     </g>
    </g>
    <g id="ytick_4">
     <g id="line2d_4">
      <path d="M 66.310359 213.057277 
L 652.210359 213.057277 
" clip-path="url(#pa4c39bbeac)" style="fill: none; stroke: #cccccc; stroke-linecap: round"/>
     </g>
     <g id="text_19">
      <!-- 0.750 -->
      <g style="fill: #262626" transform="translate(23.744875 217.445375) scale(0.1155 -0.1155)">
       <use xlink:href="#DejaVuSerif-30"/>
       <use xlink:href="#DejaVuSerif-2e" transform="translate(63.623047 0)"/>
       <use xlink:href="#DejaVuSerif-37" transform="translate(95.410156 0)"/>
       <use xlink:href="#DejaVuSerif-35" transform="translate(159.033203 0)"/>
       <use xlink:href="#DejaVuSerif-30" transform="translate(222.65625 0)"/>
      </g>
     </g>
    </g>
    <g id="ytick_5">
     <g id="line2d_5">
      <path d="M 66.310359 172.165087 
L 652.210359 172.165087 
" clip-path="url(#pa4c39bbeac)" style="fill: none; stroke: #cccccc; stroke-linecap: round"/>
     </g>
     <g id="text_20">
      <!-- 0.775 -->
      <g style="fill: #262626" transform="translate(23.744875 176.553185) scale(0.1155 -0.1155)">
       <use xlink:href="#DejaVuSerif-30"/>
       <use xlink:href="#DejaVuSerif-2e" transform="translate(63.623047 0)"/>
       <use xlink:href="#DejaVuSerif-37" transform="translate(95.410156 0)"/>
       <use xlink:href="#DejaVuSerif-37" transform="translate(159.033203 0)"/>
       <use xlink:href="#DejaVuSerif-35" transform="translate(222.65625 0)"/>
      </g>
     </g>
    </g>
    <g id="ytick_6">
     <g id="line2d_6">
      <path d="M 66.310359 131.272897 
L 652.210359 131.272897 
" clip-path="url(#pa4c39bbeac)" style="fill: none; stroke: #cccccc; stroke-linecap: round"/>
     </g>
     <g id="text_21">
      <!-- 0.800 -->
      <g style="fill: #262626" transform="translate(23.744875 135.660995) scale(0.1155 -0.1155)">
       <defs>
        <path id="DejaVuSerif-38" d="M 2981 1275 
Q 2981 1775 2732 2051 
Q 2484 2328 2034 2328 
Q 1584 2328 1336 2051 
Q 1088 1775 1088 1275 
Q 1088 772 1336 495 
Q 1584 219 2034 219 
Q 2484 219 2732 495 
Q 2981 772 2981 1275 
z
M 2853 3541 
Q 2853 3966 2637 4203 
Q 2422 4441 2034 4441 
Q 1650 4441 1433 4203 
Q 1216 3966 1216 3541 
Q 1216 3113 1433 2875 
Q 1650 2638 2034 2638 
Q 2422 2638 2637 2875 
Q 2853 3113 2853 3541 
z
M 2516 2484 
Q 3047 2413 3344 2092 
Q 3641 1772 3641 1275 
Q 3641 619 3225 264 
Q 2809 -91 2034 -91 
Q 1263 -91 845 264 
Q 428 619 428 1275 
Q 428 1772 725 2092 
Q 1022 2413 1556 2484 
Q 1084 2569 832 2842 
Q 581 3116 581 3541 
Q 581 4103 968 4426 
Q 1356 4750 2034 4750 
Q 2713 4750 3100 4426 
Q 3488 4103 3488 3541 
Q 3488 3116 3236 2842 
Q 2984 2569 2516 2484 
z
" transform="scale(0.015625)"/>
       </defs>
       <use xlink:href="#DejaVuSerif-30"/>
       <use xlink:href="#DejaVuSerif-2e" transform="translate(63.623047 0)"/>
       <use xlink:href="#DejaVuSerif-38" transform="translate(95.410156 0)"/>
       <use xlink:href="#DejaVuSerif-30" transform="translate(159.033203 0)"/>
       <use xlink:href="#DejaVuSerif-30" transform="translate(222.65625 0)"/>
      </g>
     </g>
    </g>
    <g id="ytick_7">
     <g id="line2d_7">
      <path d="M 66.310359 90.380707 
L 652.210359 90.380707 
" clip-path="url(#pa4c39bbeac)" style="fill: none; stroke: #cccccc; stroke-linecap: round"/>
     </g>
     <g id="text_22">
      <!-- 0.825 -->
      <g style="fill: #262626" transform="translate(23.744875 94.768805) scale(0.1155 -0.1155)">
       <use xlink:href="#DejaVuSerif-30"/>
       <use xlink:href="#DejaVuSerif-2e" transform="translate(63.623047 0)"/>
       <use xlink:href="#DejaVuSerif-38" transform="translate(95.410156 0)"/>
       <use xlink:href="#DejaVuSerif-32" transform="translate(159.033203 0)"/>
       <use xlink:href="#DejaVuSerif-35" transform="translate(222.65625 0)"/>
      </g>
     </g>
    </g>
    <g id="ytick_8">
     <g id="line2d_8">
      <path d="M 66.310359 49.488517 
L 652.210359 49.488517 
" clip-path="url(#pa4c39bbeac)" style="fill: none; stroke: #cccccc; stroke-linecap: round"/>
     </g>
     <g id="text_23">
      <!-- 0.850 -->
      <g style="fill: #262626" transform="translate(23.744875 53.876615) scale(0.1155 -0.1155)">
       <use xlink:href="#DejaVuSerif-30"/>
       <use xlink:href="#DejaVuSerif-2e" transform="translate(63.623047 0)"/>
       <use xlink:href="#DejaVuSerif-38" transform="translate(95.410156 0)"/>
       <use xlink:href="#DejaVuSerif-35" transform="translate(159.033203 0)"/>
       <use xlink:href="#DejaVuSerif-30" transform="translate(222.65625 0)"/>
      </g>
     </g>
    </g>
    <g id="text_24">
     <!-- RMSE_log mean (lower = better) -->
     <g style="fill: #262626" transform="translate(16.774031 295.420312) rotate(-90) scale(0.126 -0.126)">
      <defs>
       <path id="DejaVuSerif-53" d="M 594 225 
L 594 1288 
L 953 1284 
Q 969 753 1261 498 
Q 1553 244 2150 244 
Q 2706 244 2998 464 
Q 3291 684 3291 1106 
Q 3291 1444 3114 1625 
Q 2938 1806 2369 1978 
L 1753 2163 
Q 1084 2366 811 2669 
Q 538 2972 538 3500 
Q 538 4094 959 4422 
Q 1381 4750 2144 4750 
Q 2469 4750 2856 4679 
Q 3244 4609 3681 4475 
L 3681 3481 
L 3328 3481 
Q 3275 3975 2998 4195 
Q 2722 4416 2156 4416 
Q 1663 4416 1405 4214 
Q 1147 4013 1147 3628 
Q 1147 3294 1340 3103 
Q 1534 2913 2163 2725 
L 2741 2553 
Q 3375 2363 3645 2067 
Q 3916 1772 3916 1275 
Q 3916 597 3481 253 
Q 3047 -91 2188 -91 
Q 1803 -91 1404 -12 
Q 1006 66 594 225 
z
" transform="scale(0.015625)"/>
       <path id="DejaVuSerif-5f" d="M 3200 -1259 
L 3200 -1509 
L 0 -1509 
L 0 -1259 
L 3200 -1259 
z
" transform="scale(0.015625)"/>
       <path id="DejaVuSerif-20" transform="scale(0.015625)"/>
       <path id="DejaVuSerif-28" d="M 2041 -997 
Q 1281 -656 893 83 
Q 506 822 506 1931 
Q 506 3044 893 3783 
Q 1281 4522 2041 4863 
L 2041 4556 
Q 1559 4225 1350 3623 
Q 1141 3022 1141 1931 
Q 1141 844 1350 242 
Q 1559 -359 2041 -691 
L 2041 -997 
z
" transform="scale(0.015625)"/>
       <path id="DejaVuSerif-77" d="M 3072 3322 
L 3922 728 
L 4672 2988 
L 4191 2988 
L 4191 3322 
L 5394 3322 
L 5394 2988 
L 5025 2988 
L 4038 0 
L 3559 0 
L 2741 2484 
L 1919 0 
L 1459 0 
L 475 2988 
L 103 2988 
L 103 3322 
L 1606 3322 
L 1606 2988 
L 1069 2988 
L 1813 728 
L 2669 3322 
L 3072 3322 
z
" transform="scale(0.015625)"/>
       <path id="DejaVuSerif-3d" d="M 678 2894 
L 4684 2894 
L 4684 2394 
L 678 2394 
L 678 2894 
z
M 678 1619 
L 4684 1619 
L 4684 1119 
L 678 1119 
L 678 1619 
z
" transform="scale(0.015625)"/>
       <path id="DejaVuSerif-29" d="M 453 -997 
L 453 -691 
Q 934 -359 1145 242 
Q 1356 844 1356 1931 
Q 1356 3022 1145 3623 
Q 934 4225 453 4556 
L 453 4863 
Q 1216 4522 1603 3783 
Q 1991 3044 1991 1931 
Q 1991 822 1603 83 
Q 1216 -656 453 -997 
z
" transform="scale(0.015625)"/>
      </defs>
      <use xlink:href="#DejaVuSerif-52"/>
      <use xlink:href="#DejaVuSerif-4d" transform="translate(75.292969 0)"/>
      <use xlink:href="#DejaVuSerif-53" transform="translate(177.685547 0)"/>
      <use xlink:href="#DejaVuSerif-45" transform="translate(246.191406 0)"/>
      <use xlink:href="#DejaVuSerif-5f" transform="translate(319.189453 0)"/>
      <use xlink:href="#DejaVuSerif-6c" transform="translate(369.189453 0)"/>
      <use xlink:href="#DejaVuSerif-6f" transform="translate(401.171875 0)"/>
      <use xlink:href="#DejaVuSerif-67" transform="translate(461.376953 0)"/>
      <use xlink:href="#DejaVuSerif-20" transform="translate(525.390625 0)"/>
      <use xlink:href="#DejaVuSerif-6d" transform="translate(557.177734 0)"/>
      <use xlink:href="#DejaVuSerif-65" transform="translate(652.001953 0)"/>
      <use xlink:href="#DejaVuSerif-61" transform="translate(711.181641 0)"/>
      <use xlink:href="#DejaVuSerif-6e" transform="translate(770.800781 0)"/>
      <use xlink:href="#DejaVuSerif-20" transform="translate(835.205078 0)"/>
      <use xlink:href="#DejaVuSerif-28" transform="translate(866.992188 0)"/>
      <use xlink:href="#DejaVuSerif-6c" transform="translate(906.005859 0)"/>
      <use xlink:href="#DejaVuSerif-6f" transform="translate(937.988281 0)"/>
      <use xlink:href="#DejaVuSerif-77" transform="translate(998.193359 0)"/>
      <use xlink:href="#DejaVuSerif-65" transform="translate(1083.789062 0)"/>
      <use xlink:href="#DejaVuSerif-72" transform="translate(1142.96875 0)"/>
      <use xlink:href="#DejaVuSerif-20" transform="translate(1190.771484 0)"/>
      <use xlink:href="#DejaVuSerif-3d" transform="translate(1222.558594 0)"/>
      <use xlink:href="#DejaVuSerif-20" transform="translate(1306.347656 0)"/>
      <use xlink:href="#DejaVuSerif-62" transform="translate(1338.134766 0)"/>
      <use xlink:href="#DejaVuSerif-65" transform="translate(1402.148438 0)"/>
      <use xlink:href="#DejaVuSerif-74" transform="translate(1461.328125 0)"/>
      <use xlink:href="#DejaVuSerif-74" transform="translate(1501.513672 0)"/>
      <use xlink:href="#DejaVuSerif-65" transform="translate(1541.699219 0)"/>
      <use xlink:href="#DejaVuSerif-72" transform="translate(1600.878906 0)"/>
      <use xlink:href="#DejaVuSerif-29" transform="translate(1648.681641 0)"/>
     </g>
    </g>
   </g>
   <g id="patch_3">
    <path d="M 75.098859 338.664832 
L 96.581859 338.664832 
L 96.581859 336.277366 
L 75.098859 336.277366 
L 75.098859 338.664832 
z
" clip-path="url(#pa4c39bbeac)" style="fill: #176d9c; stroke: #303030; stroke-width: 0.8; stroke-linejoin: miter"/>
   </g>
   <g id="line2d_9">
    <path d="M 85.840359 338.664832 
L 85.840359 340.294031 
" clip-path="url(#pa4c39bbeac)" style="fill: none; stroke: #303030; stroke-width: 0.8"/>
   </g>
   <g id="line2d_10">
    <path d="M 85.840359 336.277366 
L 85.840359 336.062202 
" clip-path="url(#pa4c39bbeac)" style="fill: none; stroke: #303030; stroke-width: 0.8"/>
   </g>
   <g id="line2d_11">
    <path d="M 80.469609 340.294031 
L 91.211109 340.294031 
" clip-path="url(#pa4c39bbeac)" style="fill: none; stroke: #303030; stroke-width: 0.8; stroke-linecap: round"/>
   </g>
   <g id="line2d_12">
    <path d="M 80.469609 336.062202 
L 91.211109 336.062202 
" clip-path="url(#pa4c39bbeac)" style="fill: none; stroke: #303030; stroke-width: 0.8; stroke-linecap: round"/>
   </g>
   <g id="line2d_13"/>
   <g id="patch_4">
    <path d="M 114.158859 338.36444 
L 135.641859 338.36444 
L 135.641859 334.297624 
L 114.158859 334.297624 
L 114.158859 338.36444 
z
" clip-path="url(#pa4c39bbeac)" style="fill: #c38820; stroke: #303030; stroke-width: 0.8; stroke-linejoin: miter"/>
   </g>
   <g id="line2d_14">
    <path d="M 124.900359 338.36444 
L 124.900359 339.542319 
" clip-path="url(#pa4c39bbeac)" style="fill: none; stroke: #303030; stroke-width: 0.8"/>
   </g>
   <g id="line2d_15">
    <path d="M 124.900359 334.297624 
L 124.900359 328.946635 
" clip-path="url(#pa4c39bbeac)" style="fill: none; stroke: #303030; stroke-width: 0.8"/>
   </g>
   <g id="line2d_16">
    <path d="M 119.529609 339.542319 
L 130.271109 339.542319 
" clip-path="url(#pa4c39bbeac)" style="fill: none; stroke: #303030; stroke-width: 0.8; stroke-linecap: round"/>
   </g>
   <g id="line2d_17">
    <path d="M 119.529609 328.946635 
L 130.271109 328.946635 
" clip-path="url(#pa4c39bbeac)" style="fill: none; stroke: #303030; stroke-width: 0.8; stroke-linecap: round"/>
   </g>
   <g id="line2d_18"/>
   <g id="patch_5">
    <path d="M 153.218859 333.284924 
L 174.701859 333.284924 
L 174.701859 330.729595 
L 153.218859 330.729595 
L 153.218859 333.284924 
z
" clip-path="url(#pa4c39bbeac)" style="fill: #158b6a; stroke: #303030; stroke-width: 0.8; stroke-linejoin: miter"/>
   </g>
   <g id="line2d_19">
    <path d="M 163.960359 333.284924 
L 163.960359 336.181814 
" clip-path="url(#pa4c39bbeac)" style="fill: none; stroke: #303030; stroke-width: 0.8"/>
   </g>
   <g id="line2d_20">
    <path d="M 163.960359 330.729595 
L 163.960359 327.868648 
" clip-path="url(#pa4c39bbeac)" style="fill: none; stroke: #303030; stroke-width: 0.8"/>
   </g>
   <g id="line2d_21">
    <path d="M 158.589609 336.181814 
L 169.331109 336.181814 
" clip-path="url(#pa4c39bbeac)" style="fill: none; stroke: #303030; stroke-width: 0.8; stroke-linecap: round"/>
   </g>
   <g id="line2d_22">
    <path d="M 158.589609 327.868648 
L 169.331109 327.868648 
" clip-path="url(#pa4c39bbeac)" style="fill: none; stroke: #303030; stroke-width: 0.8; stroke-linecap: round"/>
   </g>
   <g id="line2d_23"/>
   <g id="patch_6">
    <path d="M 192.278859 334.544246 
L 213.761859 334.544246 
L 213.761859 329.365806 
L 192.278859 329.365806 
L 192.278859 334.544246 
z
" clip-path="url(#pa4c39bbeac)" style="fill: #ba611b; stroke: #303030; stroke-width: 0.8; stroke-linejoin: miter"/>
   </g>
   <g id="line2d_24">
    <path d="M 203.020359 334.544246 
L 203.020359 337.455969 
" clip-path="url(#pa4c39bbeac)" style="fill: none; stroke: #303030; stroke-width: 0.8"/>
   </g>
   <g id="line2d_25">
    <path d="M 203.020359 329.365806 
L 203.020359 326.316232 
" clip-path="url(#pa4c39bbeac)" style="fill: none; stroke: #303030; stroke-width: 0.8"/>
   </g>
   <g id="line2d_26">
    <path d="M 197.649609 337.455969 
L 208.391109 337.455969 
" clip-path="url(#pa4c39bbeac)" style="fill: none; stroke: #303030; stroke-width: 0.8; stroke-linecap: round"/>
   </g>
   <g id="line2d_27">
    <path d="M 197.649609 326.316232 
L 208.391109 326.316232 
" clip-path="url(#pa4c39bbeac)" style="fill: none; stroke: #303030; stroke-width: 0.8; stroke-linecap: round"/>
   </g>
   <g id="line2d_28"/>
   <g id="patch_7">
    <path d="M 231.338859 329.865786 
L 252.821859 329.865786 
L 252.821859 328.790136 
L 231.338859 328.790136 
L 231.338859 329.865786 
z
" clip-path="url(#pa4c39bbeac)" style="fill: #c282b5; stroke: #303030; stroke-width: 0.8; stroke-linejoin: miter"/>
   </g>
   <g id="line2d_29">
    <path d="M 242.080359 329.865786 
L 242.080359 330.667981 
" clip-path="url(#pa4c39bbeac)" style="fill: none; stroke: #303030; stroke-width: 0.8"/>
   </g>
   <g id="line2d_30">
    <path d="M 242.080359 328.790136 
L 242.080359 327.354854 
" clip-path="url(#pa4c39bbeac)" style="fill: none; stroke: #303030; stroke-width: 0.8"/>
   </g>
   <g id="line2d_31">
    <path d="M 236.709609 330.667981 
L 247.451109 330.667981 
" clip-path="url(#pa4c39bbeac)" style="fill: none; stroke: #303030; stroke-width: 0.8; stroke-linecap: round"/>
   </g>
   <g id="line2d_32">
    <path d="M 236.709609 327.354854 
L 247.451109 327.354854 
" clip-path="url(#pa4c39bbeac)" style="fill: none; stroke: #303030; stroke-width: 0.8; stroke-linecap: round"/>
   </g>
   <g id="line2d_33"/>
   <g id="patch_8">
    <path d="M 270.398859 328.220622 
L 291.881859 328.220622 
L 291.881859 317.51351 
L 270.398859 317.51351 
L 270.398859 328.220622 
z
" clip-path="url(#pa4c39bbeac)" style="fill: #bd926e; stroke: #303030; stroke-width: 0.8; stroke-linejoin: miter"/>
   </g>
   <g id="line2d_34">
    <path d="M 281.140359 328.220622 
L 281.140359 329.040943 
" clip-path="url(#pa4c39bbeac)" style="fill: none; stroke: #303030; stroke-width: 0.8"/>
   </g>
   <g id="line2d_35">
    <path d="M 281.140359 317.51351 
L 281.140359 315.763454 
" clip-path="url(#pa4c39bbeac)" style="fill: none; stroke: #303030; stroke-width: 0.8"/>
   </g>
   <g id="line2d_36">
    <path d="M 275.769609 329.040943 
L 286.511109 329.040943 
" clip-path="url(#pa4c39bbeac)" style="fill: none; stroke: #303030; stroke-width: 0.8; stroke-linecap: round"/>
   </g>
   <g id="line2d_37">
    <path d="M 275.769609 315.763454 
L 286.511109 315.763454 
" clip-path="url(#pa4c39bbeac)" style="fill: none; stroke: #303030; stroke-width: 0.8; stroke-linecap: round"/>
   </g>
   <g id="line2d_38"/>
   <g id="patch_9">
    <path d="M 309.458859 321.941104 
L 330.941859 321.941104 
L 330.941859 319.096687 
L 309.458859 319.096687 
L 309.458859 321.941104 
z
" clip-path="url(#pa4c39bbeac)" style="fill: #f2b8e0; stroke: #303030; stroke-width: 0.8; stroke-linejoin: miter"/>
   </g>
   <g id="line2d_39">
    <path d="M 320.200359 321.941104 
L 320.200359 322.762346 
" clip-path="url(#pa4c39bbeac)" style="fill: none; stroke: #303030; stroke-width: 0.8"/>
   </g>
   <g id="line2d_40">
    <path d="M 320.200359 319.096687 
L 320.200359 318.414066 
" clip-path="url(#pa4c39bbeac)" style="fill: none; stroke: #303030; stroke-width: 0.8"/>
   </g>
   <g id="line2d_41">
    <path d="M 314.829609 322.762346 
L 325.571109 322.762346 
" clip-path="url(#pa4c39bbeac)" style="fill: none; stroke: #303030; stroke-width: 0.8; stroke-linecap: round"/>
   </g>
   <g id="line2d_42">
    <path d="M 314.829609 318.414066 
L 325.571109 318.414066 
" clip-path="url(#pa4c39bbeac)" style="fill: none; stroke: #303030; stroke-width: 0.8; stroke-linecap: round"/>
   </g>
   <g id="line2d_43"/>
   <g id="patch_10">
    <path d="M 348.518859 316.225175 
L 370.001859 316.225175 
L 370.001859 314.410435 
L 348.518859 314.410435 
L 348.518859 316.225175 
z
" clip-path="url(#pa4c39bbeac)" style="fill: #949494; stroke: #303030; stroke-width: 0.8; stroke-linejoin: miter"/>
   </g>
   <g id="line2d_44">
    <path d="M 359.260359 316.225175 
L 359.260359 317.786575 
" clip-path="url(#pa4c39bbeac)" style="fill: none; stroke: #303030; stroke-width: 0.8"/>
   </g>
   <g id="line2d_45">
    <path d="M 359.260359 314.410435 
L 359.260359 313.979512 
" clip-path="url(#pa4c39bbeac)" style="fill: none; stroke: #303030; stroke-width: 0.8"/>
   </g>
   <g id="line2d_46">
    <path d="M 353.889609 317.786575 
L 364.631109 317.786575 
" clip-path="url(#pa4c39bbeac)" style="fill: none; stroke: #303030; stroke-width: 0.8; stroke-linecap: round"/>
   </g>
   <g id="line2d_47">
    <path d="M 353.889609 313.979512 
L 364.631109 313.979512 
" clip-path="url(#pa4c39bbeac)" style="fill: none; stroke: #303030; stroke-width: 0.8; stroke-linecap: round"/>
   </g>
   <g id="line2d_48"/>
   <g id="patch_11">
    <path d="M 387.578859 306.642317 
L 409.061859 306.642317 
L 409.061859 302.409757 
L 387.578859 302.409757 
L 387.578859 306.642317 
z
" clip-path="url(#pa4c39bbeac)" style="fill: #d5cd4a; stroke: #303030; stroke-width: 0.8; stroke-linejoin: miter"/>
   </g>
   <g id="line2d_49">
    <path d="M 398.320359 306.642317 
L 398.320359 307.307373 
" clip-path="url(#pa4c39bbeac)" style="fill: none; stroke: #303030; stroke-width: 0.8"/>
   </g>
   <g id="line2d_50">
    <path d="M 398.320359 302.409757 
L 398.320359 297.168581 
" clip-path="url(#pa4c39bbeac)" style="fill: none; stroke: #303030; stroke-width: 0.8"/>
   </g>
   <g id="line2d_51">
    <path d="M 392.949609 307.307373 
L 403.691109 307.307373 
" clip-path="url(#pa4c39bbeac)" style="fill: none; stroke: #303030; stroke-width: 0.8; stroke-linecap: round"/>
   </g>
   <g id="line2d_52">
    <path d="M 392.949609 297.168581 
L 403.691109 297.168581 
" clip-path="url(#pa4c39bbeac)" style="fill: none; stroke: #303030; stroke-width: 0.8; stroke-linecap: round"/>
   </g>
   <g id="line2d_53"/>
   <g id="patch_12">
    <path d="M 426.638859 304.985289 
L 448.121859 304.985289 
L 448.121859 302.081274 
L 426.638859 302.081274 
L 426.638859 304.985289 
z
" clip-path="url(#pa4c39bbeac)" style="fill: #68afd7; stroke: #303030; stroke-width: 0.8; stroke-linejoin: miter"/>
   </g>
   <g id="line2d_54">
    <path d="M 437.380359 304.985289 
L 437.380359 305.715865 
" clip-path="url(#pa4c39bbeac)" style="fill: none; stroke: #303030; stroke-width: 0.8"/>
   </g>
   <g id="line2d_55">
    <path d="M 437.380359 302.081274 
L 437.380359 302.081274 
" clip-path="url(#pa4c39bbeac)" style="fill: none; stroke: #303030; stroke-width: 0.8"/>
   </g>
   <g id="line2d_56">
    <path d="M 432.009609 305.715865 
L 442.751109 305.715865 
" clip-path="url(#pa4c39bbeac)" style="fill: none; stroke: #303030; stroke-width: 0.8; stroke-linecap: round"/>
   </g>
   <g id="line2d_57">
    <path d="M 432.009609 302.081274 
L 442.751109 302.081274 
" clip-path="url(#pa4c39bbeac)" style="fill: none; stroke: #303030; stroke-width: 0.8; stroke-linecap: round"/>
   </g>
   <g id="line2d_58"/>
   <g id="patch_13">
    <path d="M 465.698859 298.124489 
L 487.181859 298.124489 
L 487.181859 296.222848 
L 465.698859 296.222848 
L 465.698859 298.124489 
z
" clip-path="url(#pa4c39bbeac)" style="fill: #176d9c; stroke: #303030; stroke-width: 0.8; stroke-linejoin: miter"/>
   </g>
   <g id="line2d_59">
    <path d="M 476.440359 298.124489 
L 476.440359 298.497786 
" clip-path="url(#pa4c39bbeac)" style="fill: none; stroke: #303030; stroke-width: 0.8"/>
   </g>
   <g id="line2d_60">
    <path d="M 476.440359 296.222848 
L 476.440359 295.566107 
" clip-path="url(#pa4c39bbeac)" style="fill: none; stroke: #303030; stroke-width: 0.8"/>
   </g>
   <g id="line2d_61">
    <path d="M 471.069609 298.497786 
L 481.811109 298.497786 
" clip-path="url(#pa4c39bbeac)" style="fill: none; stroke: #303030; stroke-width: 0.8; stroke-linecap: round"/>
   </g>
   <g id="line2d_62">
    <path d="M 471.069609 295.566107 
L 481.811109 295.566107 
" clip-path="url(#pa4c39bbeac)" style="fill: none; stroke: #303030; stroke-width: 0.8; stroke-linecap: round"/>
   </g>
   <g id="line2d_63"/>
   <g id="patch_14">
    <path d="M 504.758859 237.070107 
L 526.241859 237.070107 
L 526.241859 225.431564 
L 504.758859 225.431564 
L 504.758859 237.070107 
z
" clip-path="url(#pa4c39bbeac)" style="fill: #c38820; stroke: #303030; stroke-width: 0.8; stroke-linejoin: miter"/>
   </g>
   <g id="line2d_64">
    <path d="M 515.500359 237.070107 
L 515.500359 244.296966 
" clip-path="url(#pa4c39bbeac)" style="fill: none; stroke: #303030; stroke-width: 0.8"/>
   </g>
   <g id="line2d_65">
    <path d="M 515.500359 225.431564 
L 515.500359 216.369074 
" clip-path="url(#pa4c39bbeac)" style="fill: none; stroke: #303030; stroke-width: 0.8"/>
   </g>
   <g id="line2d_66">
    <path d="M 510.129609 244.296966 
L 520.871109 244.296966 
" clip-path="url(#pa4c39bbeac)" style="fill: none; stroke: #303030; stroke-width: 0.8; stroke-linecap: round"/>
   </g>
   <g id="line2d_67">
    <path d="M 510.129609 216.369074 
L 520.871109 216.369074 
" clip-path="url(#pa4c39bbeac)" style="fill: none; stroke: #303030; stroke-width: 0.8; stroke-linecap: round"/>
   </g>
   <g id="line2d_68"/>
   <g id="patch_15">
    <path d="M 543.818859 152.543571 
L 565.301859 152.543571 
L 565.301859 123.175429 
L 543.818859 123.175429 
L 543.818859 152.543571 
z
" clip-path="url(#pa4c39bbeac)" style="fill: #158b6a; stroke: #303030; stroke-width: 0.8; stroke-linejoin: miter"/>
   </g>
   <g id="line2d_69">
    <path d="M 554.560359 152.543571 
L 554.560359 157.213508 
" clip-path="url(#pa4c39bbeac)" style="fill: none; stroke: #303030; stroke-width: 0.8"/>
   </g>
   <g id="line2d_70">
    <path d="M 554.560359 123.175429 
L 554.560359 113.894674 
" clip-path="url(#pa4c39bbeac)" style="fill: none; stroke: #303030; stroke-width: 0.8"/>
   </g>
   <g id="line2d_71">
    <path d="M 549.189609 157.213508 
L 559.931109 157.213508 
" clip-path="url(#pa4c39bbeac)" style="fill: none; stroke: #303030; stroke-width: 0.8; stroke-linecap: round"/>
   </g>
   <g id="line2d_72">
    <path d="M 549.189609 113.894674 
L 559.931109 113.894674 
" clip-path="url(#pa4c39bbeac)" style="fill: none; stroke: #303030; stroke-width: 0.8; stroke-linecap: round"/>
   </g>
   <g id="line2d_73"/>
   <g id="patch_16">
    <path d="M 582.878859 143.294085 
L 604.361859 143.294085 
L 604.361859 131.99892 
L 582.878859 131.99892 
L 582.878859 143.294085 
z
" clip-path="url(#pa4c39bbeac)" style="fill: #ba611b; stroke: #303030; stroke-width: 0.8; stroke-linejoin: miter"/>
   </g>
   <g id="line2d_74">
    <path d="M 593.620359 143.294085 
L 593.620359 145.655626 
" clip-path="url(#pa4c39bbeac)" style="fill: none; stroke: #303030; stroke-width: 0.8"/>
   </g>
   <g id="line2d_75">
    <path d="M 593.620359 131.99892 
L 593.620359 122.770369 
" clip-path="url(#pa4c39bbeac)" style="fill: none; stroke: #303030; stroke-width: 0.8"/>
   </g>
   <g id="line2d_76">
    <path d="M 588.249609 145.655626 
L 598.991109 145.655626 
" clip-path="url(#pa4c39bbeac)" style="fill: none; stroke: #303030; stroke-width: 0.8; stroke-linecap: round"/>
   </g>
   <g id="line2d_77">
    <path d="M 588.249609 122.770369 
L 598.991109 122.770369 
" clip-path="url(#pa4c39bbeac)" style="fill: none; stroke: #303030; stroke-width: 0.8; stroke-linecap: round"/>
   </g>
   <g id="line2d_78"/>
   <g id="patch_17">
    <path d="M 621.938859 62.905846 
L 643.421859 62.905846 
L 643.421859 50.148413 
L 621.938859 50.148413 
L 621.938859 62.905846 
z
" clip-path="url(#pa4c39bbeac)" style="fill: #c282b5; stroke: #303030; stroke-width: 0.8; stroke-linejoin: miter"/>
   </g>
   <g id="line2d_79">
    <path d="M 632.680359 62.905846 
L 632.680359 68.046992 
" clip-path="url(#pa4c39bbeac)" style="fill: none; stroke: #303030; stroke-width: 0.8"/>
   </g>
   <g id="line2d_80">
    <path d="M 632.680359 50.148413 
L 632.680359 37.894031 
" clip-path="url(#pa4c39bbeac)" style="fill: none; stroke: #303030; stroke-width: 0.8"/>
   </g>
   <g id="line2d_81">
    <path d="M 627.309609 68.046992 
L 638.051109 68.046992 
" clip-path="url(#pa4c39bbeac)" style="fill: none; stroke: #303030; stroke-width: 0.8; stroke-linecap: round"/>
   </g>
   <g id="line2d_82">
    <path d="M 627.309609 37.894031 
L 638.051109 37.894031 
" clip-path="url(#pa4c39bbeac)" style="fill: none; stroke: #303030; stroke-width: 0.8; stroke-linecap: round"/>
   </g>
   <g id="line2d_83"/>
   <g id="line2d_84">
    <path d="M 75.098859 337.235426 
L 96.581859 337.235426 
" clip-path="url(#pa4c39bbeac)" style="fill: none; stroke: #303030; stroke-width: 0.8"/>
   </g>
   <g id="line2d_85">
    <path d="M 75.098859 337.706771 
L 96.581859 337.706771 
" clip-path="url(#pa4c39bbeac)" style="fill: none; stroke: #ff0000; stroke-opacity: 0.65; stroke-width: 1.6"/>
   </g>
   <g id="line2d_86">
    <path d="M 114.158859 337.02655 
L 135.641859 337.02655 
" clip-path="url(#pa4c39bbeac)" style="fill: none; stroke: #303030; stroke-width: 0.8"/>
   </g>
   <g id="line2d_87">
    <path d="M 114.158859 335.635514 
L 135.641859 335.635514 
" clip-path="url(#pa4c39bbeac)" style="fill: none; stroke: #ff0000; stroke-opacity: 0.65; stroke-width: 1.6"/>
   </g>
   <g id="line2d_88">
    <path d="M 153.218859 332.001269 
L 174.701859 332.001269 
" clip-path="url(#pa4c39bbeac)" style="fill: none; stroke: #303030; stroke-width: 0.8"/>
   </g>
   <g id="line2d_89">
    <path d="M 153.218859 332.01325 
L 174.701859 332.01325 
" clip-path="url(#pa4c39bbeac)" style="fill: none; stroke: #ff0000; stroke-opacity: 0.65; stroke-width: 1.6"/>
   </g>
   <g id="line2d_90">
    <path d="M 192.278859 331.978001 
L 213.761859 331.978001 
" clip-path="url(#pa4c39bbeac)" style="fill: none; stroke: #303030; stroke-width: 0.8"/>
   </g>
   <g id="line2d_91">
    <path d="M 192.278859 331.932051 
L 213.761859 331.932051 
" clip-path="url(#pa4c39bbeac)" style="fill: none; stroke: #ff0000; stroke-opacity: 0.65; stroke-width: 1.6"/>
   </g>
   <g id="line2d_92">
    <path d="M 231.338859 329.433476 
L 252.821859 329.433476 
" clip-path="url(#pa4c39bbeac)" style="fill: none; stroke: #303030; stroke-width: 0.8"/>
   </g>
   <g id="line2d_93">
    <path d="M 231.338859 329.222447 
L 252.821859 329.222447 
" clip-path="url(#pa4c39bbeac)" style="fill: none; stroke: #ff0000; stroke-opacity: 0.65; stroke-width: 1.6"/>
   </g>
   <g id="line2d_94">
    <path d="M 270.398859 323.022021 
L 291.881859 323.022021 
" clip-path="url(#pa4c39bbeac)" style="fill: none; stroke: #303030; stroke-width: 0.8"/>
   </g>
   <g id="line2d_95">
    <path d="M 270.398859 322.71211 
L 291.881859 322.71211 
" clip-path="url(#pa4c39bbeac)" style="fill: none; stroke: #ff0000; stroke-opacity: 0.65; stroke-width: 1.6"/>
   </g>
   <g id="line2d_96">
    <path d="M 309.458859 320.495791 
L 330.941859 320.495791 
" clip-path="url(#pa4c39bbeac)" style="fill: none; stroke: #303030; stroke-width: 0.8"/>
   </g>
   <g id="line2d_97">
    <path d="M 309.458859 320.541999 
L 330.941859 320.541999 
" clip-path="url(#pa4c39bbeac)" style="fill: none; stroke: #ff0000; stroke-opacity: 0.65; stroke-width: 1.6"/>
   </g>
   <g id="line2d_98">
    <path d="M 348.518859 315.129392 
L 370.001859 315.129392 
" clip-path="url(#pa4c39bbeac)" style="fill: none; stroke: #303030; stroke-width: 0.8"/>
   </g>
   <g id="line2d_99">
    <path d="M 348.518859 315.506218 
L 370.001859 315.506218 
" clip-path="url(#pa4c39bbeac)" style="fill: none; stroke: #ff0000; stroke-opacity: 0.65; stroke-width: 1.6"/>
   </g>
   <g id="line2d_100">
    <path d="M 387.578859 305.288723 
L 409.061859 305.288723 
" clip-path="url(#pa4c39bbeac)" style="fill: none; stroke: #303030; stroke-width: 0.8"/>
   </g>
   <g id="line2d_101">
    <path d="M 387.578859 303.76335 
L 409.061859 303.76335 
" clip-path="url(#pa4c39bbeac)" style="fill: none; stroke: #ff0000; stroke-opacity: 0.65; stroke-width: 1.6"/>
   </g>
   <g id="line2d_102">
    <path d="M 426.638859 304.339308 
L 448.121859 304.339308 
" clip-path="url(#pa4c39bbeac)" style="fill: none; stroke: #303030; stroke-width: 0.8"/>
   </g>
   <g id="line2d_103">
    <path d="M 426.638859 302.727255 
L 448.121859 302.727255 
" clip-path="url(#pa4c39bbeac)" style="fill: none; stroke: #ff0000; stroke-opacity: 0.65; stroke-width: 1.6"/>
   </g>
   <g id="line2d_104">
    <path d="M 465.698859 297.220909 
L 487.181859 297.220909 
" clip-path="url(#pa4c39bbeac)" style="fill: none; stroke: #303030; stroke-width: 0.8"/>
   </g>
   <g id="line2d_105">
    <path d="M 465.698859 297.126428 
L 487.181859 297.126428 
" clip-path="url(#pa4c39bbeac)" style="fill: none; stroke: #ff0000; stroke-opacity: 0.65; stroke-width: 1.6"/>
   </g>
   <g id="line2d_106">
    <path d="M 504.758859 231.556774 
L 526.241859 231.556774 
" clip-path="url(#pa4c39bbeac)" style="fill: none; stroke: #303030; stroke-width: 0.8"/>
   </g>
   <g id="line2d_107">
    <path d="M 504.758859 230.944897 
L 526.241859 230.944897 
" clip-path="url(#pa4c39bbeac)" style="fill: none; stroke: #ff0000; stroke-opacity: 0.65; stroke-width: 1.6"/>
   </g>
   <g id="line2d_108">
    <path d="M 543.818859 138.62797 
L 565.301859 138.62797 
" clip-path="url(#pa4c39bbeac)" style="fill: none; stroke: #303030; stroke-width: 0.8"/>
   </g>
   <g id="line2d_109">
    <path d="M 543.818859 137.09103 
L 565.301859 137.09103 
" clip-path="url(#pa4c39bbeac)" style="fill: none; stroke: #ff0000; stroke-opacity: 0.65; stroke-width: 1.6"/>
   </g>
   <g id="line2d_110">
    <path d="M 582.878859 138.791004 
L 604.361859 138.791004 
" clip-path="url(#pa4c39bbeac)" style="fill: none; stroke: #303030; stroke-width: 0.8"/>
   </g>
   <g id="line2d_111">
    <path d="M 582.878859 136.502001 
L 604.361859 136.502001 
" clip-path="url(#pa4c39bbeac)" style="fill: none; stroke: #ff0000; stroke-opacity: 0.65; stroke-width: 1.6"/>
   </g>
   <g id="line2d_112">
    <path d="M 621.938859 57.712669 
L 643.421859 57.712669 
" clip-path="url(#pa4c39bbeac)" style="fill: none; stroke: #303030; stroke-width: 0.8"/>
   </g>
   <g id="line2d_113">
    <path d="M 621.938859 55.34159 
L 643.421859 55.34159 
" clip-path="url(#pa4c39bbeac)" style="fill: none; stroke: #ff0000; stroke-opacity: 0.65; stroke-width: 1.6"/>
   </g>
   <g id="patch_18">
    <path d="M 66.310359 355.414031 
L 66.310359 22.774031 
" style="fill: none; stroke: #cccccc; stroke-width: 1.25; stroke-linejoin: miter; stroke-linecap: square"/>
   </g>
   <g id="patch_19">
    <path d="M 652.210359 355.414031 
L 652.210359 22.774031 
" style="fill: none; stroke: #cccccc; stroke-width: 1.25; stroke-linejoin: miter; stroke-linecap: square"/>
   </g>
   <g id="patch_20">
    <path d="M 66.310359 355.414031 
L 652.210359 355.414031 
" style="fill: none; stroke: #cccccc; stroke-width: 1.25; stroke-linejoin: miter; stroke-linecap: square"/>
   </g>
   <g id="patch_21">
    <path d="M 66.310359 22.774031 
L 652.210359 22.774031 
" style="fill: none; stroke: #cccccc; stroke-width: 1.25; stroke-linejoin: miter; stroke-linecap: square"/>
   </g>
   <g id="PathCollection_1">
    <defs>
     <path id="m6e2ecdaf57" d="M 0 2.5 
C 0.663008 2.5 1.29895 2.236584 1.767767 1.767767 
C 2.236584 1.29895 2.5 0.663008 2.5 0 
C 2.5 -0.663008 2.236584 -1.29895 1.767767 -1.767767 
C 1.29895 -2.236584 0.663008 -2.5 0 -2.5 
C -0.663008 -2.5 -1.29895 -2.236584 -1.767767 -1.767767 
C -2.236584 -1.29895 -2.5 -0.663008 -2.5 0 
C -2.5 0.663008 -2.236584 1.29895 -1.767767 1.767767 
C -1.29895 2.236584 -0.663008 2.5 0 2.5 
z
"/>
    </defs>
    <g clip-path="url(#pa4c39bbeac)">
     <use xlink:href="#m6e2ecdaf57" x="88.50738" y="340.294031" style="fill-opacity: 0.75"/>
     <use xlink:href="#m6e2ecdaf57" x="84.910848" y="338.121765" style="fill-opacity: 0.75"/>
     <use xlink:href="#m6e2ecdaf57" x="83.070932" y="336.349087" style="fill-opacity: 0.75"/>
     <use xlink:href="#m6e2ecdaf57" x="83.321202" y="336.062202" style="fill-opacity: 0.75"/>
    </g>
   </g>
   <g id="PathCollection_2">
    <g clip-path="url(#pa4c39bbeac)">
     <use xlink:href="#m6e2ecdaf57" x="127.196841" y="339.542319" style="fill-opacity: 0.75"/>
     <use xlink:href="#m6e2ecdaf57" x="128.042667" y="337.971814" style="fill-opacity: 0.75"/>
     <use xlink:href="#m6e2ecdaf57" x="122.388141" y="336.081287" style="fill-opacity: 0.75"/>
     <use xlink:href="#m6e2ecdaf57" x="125.603202" y="328.946635" style="fill-opacity: 0.75"/>
    </g>
   </g>
   <g id="PathCollection_3">
    <g clip-path="url(#pa4c39bbeac)">
     <use xlink:href="#m6e2ecdaf57" x="166.593535" y="336.181814" style="fill-opacity: 0.75"/>
     <use xlink:href="#m6e2ecdaf57" x="160.36356" y="332.319294" style="fill-opacity: 0.75"/>
     <use xlink:href="#m6e2ecdaf57" x="162.22272" y="331.683244" style="fill-opacity: 0.75"/>
     <use xlink:href="#m6e2ecdaf57" x="164.834673" y="327.868648" style="fill-opacity: 0.75"/>
    </g>
   </g>
   <g id="PathCollection_4">
    <g clip-path="url(#pa4c39bbeac)">
     <use xlink:href="#m6e2ecdaf57" x="204.317405" y="337.455969" style="fill-opacity: 0.75"/>
     <use xlink:href="#m6e2ecdaf57" x="203.164848" y="333.573672" style="fill-opacity: 0.75"/>
     <use xlink:href="#m6e2ecdaf57" x="204.20302" y="330.382331" style="fill-opacity: 0.75"/>
     <use xlink:href="#m6e2ecdaf57" x="200.056504" y="326.316232" style="fill-opacity: 0.75"/>
    </g>
   </g>
   <g id="PathCollection_5">
    <g clip-path="url(#pa4c39bbeac)">
     <use xlink:href="#m6e2ecdaf57" x="240.139796" y="330.667981" style="fill-opacity: 0.75"/>
     <use xlink:href="#m6e2ecdaf57" x="242.817794" y="329.598388" style="fill-opacity: 0.75"/>
     <use xlink:href="#m6e2ecdaf57" x="244.618704" y="329.268564" style="fill-opacity: 0.75"/>
     <use xlink:href="#m6e2ecdaf57" x="241.125316" y="327.354854" style="fill-opacity: 0.75"/>
    </g>
   </g>
   <g id="PathCollection_6">
    <g clip-path="url(#pa4c39bbeac)">
     <use xlink:href="#m6e2ecdaf57" x="283.771711" y="329.040943" style="fill-opacity: 0.75"/>
     <use xlink:href="#m6e2ecdaf57" x="278.827594" y="327.947181" style="fill-opacity: 0.75"/>
     <use xlink:href="#m6e2ecdaf57" x="279.745438" y="318.096862" style="fill-opacity: 0.75"/>
     <use xlink:href="#m6e2ecdaf57" x="282.835989" y="315.763454" style="fill-opacity: 0.75"/>
    </g>
   </g>
   <g id="PathCollection_7">
    <g clip-path="url(#pa4c39bbeac)">
     <use xlink:href="#m6e2ecdaf57" x="319.513001" y="322.762346" style="fill-opacity: 0.75"/>
     <use xlink:href="#m6e2ecdaf57" x="320.233123" y="321.667356" style="fill-opacity: 0.75"/>
     <use xlink:href="#m6e2ecdaf57" x="318.372432" y="319.324227" style="fill-opacity: 0.75"/>
     <use xlink:href="#m6e2ecdaf57" x="323.942926" y="318.414066" style="fill-opacity: 0.75"/>
    </g>
   </g>
   <g id="PathCollection_8">
    <g clip-path="url(#pa4c39bbeac)">
     <use xlink:href="#m6e2ecdaf57" x="362.005449" y="317.786575" style="fill-opacity: 0.75"/>
     <use xlink:href="#m6e2ecdaf57" x="362.292069" y="315.704708" style="fill-opacity: 0.75"/>
     <use xlink:href="#m6e2ecdaf57" x="355.89515" y="314.554076" style="fill-opacity: 0.75"/>
     <use xlink:href="#m6e2ecdaf57" x="355.59066" y="313.979512" style="fill-opacity: 0.75"/>
    </g>
   </g>
   <g id="PathCollection_9">
    <g clip-path="url(#pa4c39bbeac)">
     <use xlink:href="#m6e2ecdaf57" x="399.711876" y="307.307373" style="fill-opacity: 0.75"/>
     <use xlink:href="#m6e2ecdaf57" x="395.672905" y="306.420631" style="fill-opacity: 0.75"/>
     <use xlink:href="#m6e2ecdaf57" x="394.805217" y="304.156816" style="fill-opacity: 0.75"/>
     <use xlink:href="#m6e2ecdaf57" x="394.58837" y="297.168581" style="fill-opacity: 0.75"/>
    </g>
   </g>
   <g id="PathCollection_10">
    <g clip-path="url(#pa4c39bbeac)">
     <use xlink:href="#m6e2ecdaf57" x="436.488765" y="305.715865" style="fill-opacity: 0.75"/>
     <use xlink:href="#m6e2ecdaf57" x="435.910311" y="304.741763" style="fill-opacity: 0.75"/>
     <use xlink:href="#m6e2ecdaf57" x="436.317679" y="303.936853" style="fill-opacity: 0.75"/>
     <use xlink:href="#m6e2ecdaf57" x="434.436002" y="296.514538" style="fill-opacity: 0.75"/>
    </g>
   </g>
   <g id="PathCollection_11">
    <g clip-path="url(#pa4c39bbeac)">
     <use xlink:href="#m6e2ecdaf57" x="475.824684" y="298.497786" style="fill-opacity: 0.75"/>
     <use xlink:href="#m6e2ecdaf57" x="473.106749" y="298.000056" style="fill-opacity: 0.75"/>
     <use xlink:href="#m6e2ecdaf57" x="475.566347" y="296.441762" style="fill-opacity: 0.75"/>
     <use xlink:href="#m6e2ecdaf57" x="479.614445" y="295.566107" style="fill-opacity: 0.75"/>
    </g>
   </g>
   <g id="PathCollection_12">
    <g clip-path="url(#pa4c39bbeac)">
     <use xlink:href="#m6e2ecdaf57" x="511.63488" y="244.296966" style="fill-opacity: 0.75"/>
     <use xlink:href="#m6e2ecdaf57" x="517.270106" y="234.661154" style="fill-opacity: 0.75"/>
     <use xlink:href="#m6e2ecdaf57" x="517.065673" y="228.452395" style="fill-opacity: 0.75"/>
     <use xlink:href="#m6e2ecdaf57" x="518.475563" y="216.369074" style="fill-opacity: 0.75"/>
    </g>
   </g>
   <g id="PathCollection_13">
    <g clip-path="url(#pa4c39bbeac)">
     <use xlink:href="#m6e2ecdaf57" x="552.960821" y="157.213508" style="fill-opacity: 0.75"/>
     <use xlink:href="#m6e2ecdaf57" x="556.92213" y="150.986926" style="fill-opacity: 0.75"/>
     <use xlink:href="#m6e2ecdaf57" x="550.704612" y="126.269014" style="fill-opacity: 0.75"/>
     <use xlink:href="#m6e2ecdaf57" x="555.724869" y="113.894674" style="fill-opacity: 0.75"/>
    </g>
   </g>
   <g id="PathCollection_14">
    <g clip-path="url(#pa4c39bbeac)">
     <use xlink:href="#m6e2ecdaf57" x="591.422682" y="145.655626" style="fill-opacity: 0.75"/>
     <use xlink:href="#m6e2ecdaf57" x="592.813083" y="142.506905" style="fill-opacity: 0.75"/>
     <use xlink:href="#m6e2ecdaf57" x="596.27786" y="135.075104" style="fill-opacity: 0.75"/>
     <use xlink:href="#m6e2ecdaf57" x="592.200742" y="122.770369" style="fill-opacity: 0.75"/>
    </g>
   </g>
   <g id="PathCollection_15">
    <g clip-path="url(#pa4c39bbeac)">
     <use xlink:href="#m6e2ecdaf57" x="636.313222" y="68.046992" style="fill-opacity: 0.75"/>
     <use xlink:href="#m6e2ecdaf57" x="629.351656" y="61.192131" style="fill-opacity: 0.75"/>
     <use xlink:href="#m6e2ecdaf57" x="629.366318" y="54.233207" style="fill-opacity: 0.75"/>
     <use xlink:href="#m6e2ecdaf57" x="629.584439" y="37.894031" style="fill-opacity: 0.75"/>
    </g>
   </g>
   <g id="text_25">
    <!-- Cross-Variant Model Robustness (red line = mean) -->
    <g style="fill: #262626" transform="translate(197.416312 16.774031) scale(0.126 -0.126)">
     <defs>
      <path id="DejaVuSerif-2d" d="M 281 1959 
L 1881 1959 
L 1881 1472 
L 281 1472 
L 281 1959 
z
" transform="scale(0.015625)"/>
      <path id="DejaVuSerif-56" d="M 1119 4331 
L 2497 750 
L 3872 4331 
L 3347 4331 
L 3347 4666 
L 4716 4666 
L 4716 4331 
L 4263 4331 
L 2597 0 
L 2059 0 
L 403 4331 
L -63 4331 
L -63 4666 
L 1638 4666 
L 1638 4331 
L 1119 4331 
z
" transform="scale(0.015625)"/>
      <path id="DejaVuSerif-75" d="M 2266 3322 
L 3341 3322 
L 3341 331 
L 3884 331 
L 3884 0 
L 2766 0 
L 2766 588 
Q 2606 256 2353 82 
Q 2100 -91 1766 -91 
Q 1213 -91 952 223 
Q 691 538 691 1209 
L 691 2988 
L 172 2988 
L 172 3322 
L 1269 3322 
L 1269 1388 
Q 1269 781 1417 556 
Q 1566 331 1947 331 
Q 2347 331 2556 625 
Q 2766 919 2766 1478 
L 2766 2988 
L 2266 2988 
L 2266 3322 
z
" transform="scale(0.015625)"/>
     </defs>
     <use xlink:href="#DejaVuSerif-43"/>
     <use xlink:href="#DejaVuSerif-72" transform="translate(76.513672 0)"/>
     <use xlink:href="#DejaVuSerif-6f" transform="translate(124.316406 0)"/>
     <use xlink:href="#DejaVuSerif-73" transform="translate(184.521484 0)"/>
     <use xlink:href="#DejaVuSerif-73" transform="translate(235.839844 0)"/>
     <use xlink:href="#DejaVuSerif-2d" transform="translate(287.158203 0)"/>
     <use xlink:href="#DejaVuSerif-56" transform="translate(313.697266 0)"/>
     <use xlink:href="#DejaVuSerif-61" transform="translate(376.789062 0)"/>
     <use xlink:href="#DejaVuSerif-72" transform="translate(436.408203 0)"/>
     <use xlink:href="#DejaVuSerif-69" transform="translate(484.210938 0)"/>
     <use xlink:href="#DejaVuSerif-61" transform="translate(516.193359 0)"/>
     <use xlink:href="#DejaVuSerif-6e" transform="translate(575.8125 0)"/>
     <use xlink:href="#DejaVuSerif-74" transform="translate(640.216797 0)"/>
     <use xlink:href="#DejaVuSerif-20" transform="translate(680.402344 0)"/>
     <use xlink:href="#DejaVuSerif-4d" transform="translate(712.189453 0)"/>
     <use xlink:href="#DejaVuSerif-6f" transform="translate(814.582031 0)"/>
     <use xlink:href="#DejaVuSerif-64" transform="translate(874.787109 0)"/>
     <use xlink:href="#DejaVuSerif-65" transform="translate(938.800781 0)"/>
     <use xlink:href="#DejaVuSerif-6c" transform="translate(997.980469 0)"/>
     <use xlink:href="#DejaVuSerif-20" transform="translate(1029.962891 0)"/>
     <use xlink:href="#DejaVuSerif-52" transform="translate(1061.75 0)"/>
     <use xlink:href="#DejaVuSerif-6f" transform="translate(1137.042969 0)"/>
     <use xlink:href="#DejaVuSerif-62" transform="translate(1197.248047 0)"/>
     <use xlink:href="#DejaVuSerif-75" transform="translate(1261.261719 0)"/>
     <use xlink:href="#DejaVuSerif-73" transform="translate(1325.666016 0)"/>
     <use xlink:href="#DejaVuSerif-74" transform="translate(1376.984375 0)"/>
     <use xlink:href="#DejaVuSerif-6e" transform="translate(1417.169922 0)"/>
     <use xlink:href="#DejaVuSerif-65" transform="translate(1481.574219 0)"/>
     <use xlink:href="#DejaVuSerif-73" transform="translate(1540.753906 0)"/>
     <use xlink:href="#DejaVuSerif-73" transform="translate(1592.072266 0)"/>
     <use xlink:href="#DejaVuSerif-20" transform="translate(1643.390625 0)"/>
     <use xlink:href="#DejaVuSerif-28" transform="translate(1675.177734 0)"/>
     <use xlink:href="#DejaVuSerif-72" transform="translate(1714.191406 0)"/>
     <use xlink:href="#DejaVuSerif-65" transform="translate(1761.994141 0)"/>
     <use xlink:href="#DejaVuSerif-64" transform="translate(1821.173828 0)"/>
     <use xlink:href="#DejaVuSerif-20" transform="translate(1885.1875 0)"/>
     <use xlink:href="#DejaVuSerif-6c" transform="translate(1916.974609 0)"/>
     <use xlink:href="#DejaVuSerif-69" transform="translate(1948.957031 0)"/>
     <use xlink:href="#DejaVuSerif-6e" transform="translate(1980.939453 0)"/>
     <use xlink:href="#DejaVuSerif-65" transform="translate(2045.34375 0)"/>
     <use xlink:href="#DejaVuSerif-20" transform="translate(2104.523438 0)"/>
     <use xlink:href="#DejaVuSerif-3d" transform="translate(2136.310547 0)"/>
     <use xlink:href="#DejaVuSerif-20" transform="translate(2220.099609 0)"/>
     <use xlink:href="#DejaVuSerif-6d" transform="translate(2251.886719 0)"/>
     <use xlink:href="#DejaVuSerif-65" transform="translate(2346.710938 0)"/>
     <use xlink:href="#DejaVuSerif-61" transform="translate(2405.890625 0)"/>
     <use xlink:href="#DejaVuSerif-6e" transform="translate(2465.509766 0)"/>
     <use xlink:href="#DejaVuSerif-29" transform="translate(2529.914062 0)"/>
    </g>
   </g>
  </g>
 </g>
 <defs>
  <clipPath id="pa4c39bbeac">
   <rect x="66.310359" y="22.774031" width="585.9" height="332.64"/>
  </clipPath>
 </defs>
</svg>
