<?xml version="1.0" encoding="utf-8" standalone="no"?>
<!DOCTYPE svg PUBLIC "-//W3C//DTD SVG 1.1//EN"
  "http://www.w3.org/Graphics/SVG/1.1/DTD/svg11.dtd">
<svg xmlns:xlink="http://www.w3.org/1999/xlink" width="586.230388pt" height="498.145607pt" viewBox="0 0 586.230388 498.145607" xmlns="http://www.w3.org/2000/svg" version="1.1">
 <metadata>
  <rdf:RDF xmlns:dc="http://purl.org/dc/elements/1.1/" xmlns:cc="http://creativecommons.org/ns#" xmlns:rdf="http://www.w3.org/1999/02/22-rdf-syntax-ns#">
   <cc:Work>
    <dc:type rdf:resource="http://purl.org/dc/dcmitype/StillImage"/>
    <dc:date>2026-06-08T13:54:11.106569</dc:date>
    <dc:format>image/svg+xml</dc:format>
    <dc:creator>
     <cc:Agent>
      <dc:title>Matplotlib v3.10.8, https://matplotlib.org/</dc:title>
     </cc:Agent>
    </dc:creator>
   </cc:Work>
  </rdf:RDF>
 </metadata>
 <defs>
  <style type="text/css">*{stroke-linejoin: round; stroke-linecap: butt}</style>
 </defs>
 <g id="figure_1">
  <g id="patch_1">
   <path d="M 0 498.145607 
L 586.230388 498.145607 
L 586.230388 0 
L 0 0 
z
" style="fill: #ffffff"/>
  </g>
  <g id="axes_1">
   <g id="patch_2">
    <path d="M 76.830388 379.295812 
L 579.030388 379.295812 
L 579.030388 46.655812 
L 76.830388 46.655812 
z
" style="fill: #ffffff"/>
   </g>
   <g id="matplotlib.axis_1">
    <g id="xtick_1">
     <g id="text_1">
      <!-- 4550 (Best-performer) -->
      <g style="fill: #262626" transform="translate(13.405707 488.115202) rotate(-45) scale(0.1155 -0.1155)">
       <defs>
        <path id="DejaVuSerif-34" d="M 2234 1581 
L 2234 4063 
L 641 1581 
L 2234 1581 
z
M 3609 0 
L 1484 0 
L 1484 331 
L 2234 331 
L 2234 1247 
L 197 1247 
L 197 1588 
L 2241 4750 
L 2859 4750 
L 2859 1581 
L 3750 1581 
L 3750 1247 
L 2859 1247 
L 2859 331 
L 3609 331 
L 3609 0 
z
" transform="scale(0.015625)"/>
        <path id="DejaVuSerif-35" d="M 3219 4666 
L 3219 4153 
L 1081 4153 
L 1081 2816 
Q 1244 2928 1461 2984 
Q 1678 3041 1947 3041 
Q 2703 3041 3140 2622 
Q 3578 2203 3578 1478 
Q 3578 738 3136 323 
Q 2694 -91 1894 -91 
Q 1572 -91 1234 -12 
Q 897 66 544 225 
L 544 1131 
L 897 1131 
Q 925 688 1179 453 
Q 1434 219 1894 219 
Q 2388 219 2653 544 
Q 2919 869 2919 1478 
Q 2919 2084 2655 2407 
Q 2391 2731 1894 2731 
Q 1613 2731 1398 2631 
Q 1184 2531 1019 2322 
L 750 2322 
L 750 4666 
L 3219 4666 
z
" transform="scale(0.015625)"/>
        <path id="DejaVuSerif-30" d="M 2034 219 
Q 2513 219 2750 744 
Q 2988 1269 2988 2328 
Q 2988 3391 2750 3916 
Q 2513 4441 2034 4441 
Q 1556 4441 1318 3916 
Q 1081 3391 1081 2328 
Q 1081 1269 1318 744 
Q 1556 219 2034 219 
z
M 2034 -91 
Q 1275 -91 848 546 
Q 422 1184 422 2328 
Q 422 3475 848 4112 
Q 1275 4750 2034 4750 
Q 2797 4750 3222 4112 
Q 3647 3475 3647 2328 
Q 3647 1184 3222 546 
Q 2797 -91 2034 -91 
z
" transform="scale(0.015625)"/>
        <path id="DejaVuSerif-20" transform="scale(0.015625)"/>
        <path id="DejaVuSerif-28" d="M 2041 -997 
Q 1281 -656 893 83 
Q 506 822 506 1931 
Q 506 3044 893 3783 
Q 1281 4522 2041 4863 
L 2041 4556 
Q 1559 4225 1350 3623 
Q 1141 3022 1141 1931 
Q 1141 844 1350 242 
Q 1559 -359 2041 -691 
L 2041 -997 
z
" transform="scale(0.015625)"/>
        <path id="DejaVuSerif-42" d="M 1581 331 
L 2516 331 
Q 3078 331 3337 575 
Q 3597 819 3597 1350 
Q 3597 1878 3339 2120 
Q 3081 2363 2516 2363 
L 1581 2363 
L 1581 331 
z
M 1581 2694 
L 2375 2694 
Q 2888 2694 3123 2891 
Q 3359 3088 3359 3513 
Q 3359 3941 3123 4136 
Q 2888 4331 2375 4331 
L 1581 4331 
L 1581 2694 
z
M 353 0 
L 353 331 
L 947 331 
L 947 4331 
L 353 4331 
L 353 4666 
L 2656 4666 
Q 3363 4666 3720 4377 
Q 4078 4088 4078 3513 
Q 4078 3097 3829 2850 
Q 3581 2603 3103 2547 
Q 3697 2472 4005 2167 
Q 4313 1863 4313 1350 
Q 4313 656 3875 328 
Q 3438 0 2509 0 
L 353 0 
z
" transform="scale(0.015625)"/>
        <path id="DejaVuSerif-65" d="M 3469 1600 
L 991 1600 
L 991 1575 
Q 991 903 1244 561 
Q 1497 219 1991 219 
Q 2369 219 2611 417 
Q 2853 616 2950 1006 
L 3413 1006 
Q 3275 459 2904 184 
Q 2534 -91 1931 -91 
Q 1203 -91 761 389 
Q 319 869 319 1663 
Q 319 2450 753 2931 
Q 1188 3413 1894 3413 
Q 2647 3413 3050 2948 
Q 3453 2484 3469 1600 
z
M 2791 1931 
Q 2772 2513 2545 2808 
Q 2319 3103 1894 3103 
Q 1497 3103 1269 2806 
Q 1041 2509 991 1931 
L 2791 1931 
z
" transform="scale(0.015625)"/>
        <path id="DejaVuSerif-73" d="M 359 184 
L 359 959 
L 691 959 
Q 703 588 923 403 
Q 1144 219 1575 219 
Q 1963 219 2166 364 
Q 2369 509 2369 788 
Q 2369 1006 2220 1140 
Q 2072 1275 1594 1428 
L 1178 1569 
Q 750 1706 558 1912 
Q 366 2119 366 2438 
Q 366 2894 700 3153 
Q 1034 3413 1625 3413 
Q 1888 3413 2178 3344 
Q 2469 3275 2778 3144 
L 2778 2419 
L 2447 2419 
Q 2434 2741 2221 2922 
Q 2009 3103 1644 3103 
Q 1281 3103 1095 2975 
Q 909 2847 909 2591 
Q 909 2381 1050 2254 
Q 1191 2128 1613 1997 
L 2069 1856 
Q 2541 1709 2748 1489 
Q 2956 1269 2956 922 
Q 2956 450 2595 179 
Q 2234 -91 1600 -91 
Q 1278 -91 972 -22 
Q 666 47 359 184 
z
" transform="scale(0.015625)"/>
        <path id="DejaVuSerif-74" d="M 691 2988 
L 184 2988 
L 184 3322 
L 691 3322 
L 691 4353 
L 1269 4353 
L 1269 3322 
L 2350 3322 
L 2350 2988 
L 1269 2988 
L 1269 878 
Q 1269 456 1350 337 
Q 1431 219 1650 219 
Q 1875 219 1978 351 
Q 2081 484 2088 781 
L 2522 781 
Q 2497 328 2275 118 
Q 2053 -91 1600 -91 
Q 1103 -91 897 129 
Q 691 350 691 878 
L 691 2988 
z
" transform="scale(0.015625)"/>
        <path id="DejaVuSerif-2d" d="M 281 1959 
L 1881 1959 
L 1881 1472 
L 281 1472 
L 281 1959 
z
" transform="scale(0.015625)"/>
        <path id="DejaVuSerif-70" d="M 1313 1825 
L 1313 1497 
Q 1313 897 1542 583 
Q 1772 269 2209 269 
Q 2650 269 2876 622 
Q 3103 975 3103 1663 
Q 3103 2353 2876 2703 
Q 2650 3053 2209 3053 
Q 1772 3053 1542 2737 
Q 1313 2422 1313 1825 
z
M 738 2988 
L 184 2988 
L 184 3322 
L 1313 3322 
L 1313 2803 
Q 1481 3116 1742 3264 
Q 2003 3413 2388 3413 
Q 3000 3413 3387 2928 
Q 3775 2444 3775 1663 
Q 3775 881 3387 395 
Q 3000 -91 2388 -91 
Q 2003 -91 1742 57 
Q 1481 206 1313 519 
L 1313 -997 
L 1856 -997 
L 1856 -1331 
L 184 -1331 
L 184 -997 
L 738 -997 
L 738 2988 
z
" transform="scale(0.015625)"/>
        <path id="DejaVuSerif-72" d="M 3059 3328 
L 3059 2497 
L 2728 2497 
Q 2713 2744 2591 2866 
Q 2469 2988 2234 2988 
Q 1809 2988 1582 2694 
Q 1356 2400 1356 1850 
L 1356 331 
L 2022 331 
L 2022 0 
L 263 0 
L 263 331 
L 781 331 
L 781 2994 
L 231 2994 
L 231 3322 
L 1356 3322 
L 1356 2731 
Q 1525 3078 1790 3245 
Q 2056 3413 2438 3413 
Q 2578 3413 2733 3391 
Q 2888 3369 3059 3328 
z
" transform="scale(0.015625)"/>
        <path id="DejaVuSerif-66" d="M 2753 4078 
L 2450 4078 
Q 2447 4313 2317 4434 
Q 2188 4556 1941 4556 
Q 1619 4556 1487 4379 
Q 1356 4203 1356 3750 
L 1356 3322 
L 2284 3322 
L 2284 2988 
L 1356 2988 
L 1356 331 
L 2094 331 
L 2094 0 
L 231 0 
L 231 331 
L 781 331 
L 781 2988 
L 231 2988 
L 231 3322 
L 781 3322 
L 781 3738 
Q 781 4294 1070 4578 
Q 1359 4863 1919 4863 
Q 2128 4863 2337 4825 
Q 2547 4788 2753 4709 
L 2753 4078 
z
" transform="scale(0.015625)"/>
        <path id="DejaVuSerif-6f" d="M 1925 219 
Q 2388 219 2623 584 
Q 2859 950 2859 1663 
Q 2859 2375 2623 2739 
Q 2388 3103 1925 3103 
Q 1463 3103 1227 2739 
Q 991 2375 991 1663 
Q 991 950 1228 584 
Q 1466 219 1925 219 
z
M 1925 -91 
Q 1200 -91 759 389 
Q 319 869 319 1663 
Q 319 2456 758 2934 
Q 1197 3413 1925 3413 
Q 2653 3413 3092 2934 
Q 3531 2456 3531 1663 
Q 3531 869 3092 389 
Q 2653 -91 1925 -91 
z
" transform="scale(0.015625)"/>
        <path id="DejaVuSerif-6d" d="M 3316 2675 
Q 3481 3041 3739 3227 
Q 3997 3413 4341 3413 
Q 4863 3413 5119 3089 
Q 5375 2766 5375 2113 
L 5375 331 
L 5894 331 
L 5894 0 
L 4300 0 
L 4300 331 
L 4800 331 
L 4800 2047 
Q 4800 2556 4650 2772 
Q 4500 2988 4153 2988 
Q 3769 2988 3567 2697 
Q 3366 2406 3366 1850 
L 3366 331 
L 3866 331 
L 3866 0 
L 2291 0 
L 2291 331 
L 2791 331 
L 2791 2069 
Q 2791 2566 2641 2777 
Q 2491 2988 2144 2988 
Q 1759 2988 1557 2697 
Q 1356 2406 1356 1850 
L 1356 331 
L 1856 331 
L 1856 0 
L 263 0 
L 263 331 
L 781 331 
L 781 2994 
L 231 2994 
L 231 3322 
L 1356 3322 
L 1356 2731 
Q 1516 3063 1762 3238 
Q 2009 3413 2322 3413 
Q 2709 3413 2968 3220 
Q 3228 3028 3316 2675 
z
" transform="scale(0.015625)"/>
        <path id="DejaVuSerif-29" d="M 453 -997 
L 453 -691 
Q 934 -359 1145 242 
Q 1356 844 1356 1931 
Q 1356 3022 1145 3623 
Q 934 4225 453 4556 
L 453 4863 
Q 1216 4522 1603 3783 
Q 1991 3044 1991 1931 
Q 1991 822 1603 83 
Q 1216 -656 453 -997 
z
" transform="scale(0.015625)"/>
       </defs>
       <use xlink:href="#DejaVuSerif-34"/>
       <use xlink:href="#DejaVuSerif-35" transform="translate(63.623047 0)"/>
       <use xlink:href="#DejaVuSerif-35" transform="translate(127.246094 0)"/>
       <use xlink:href="#DejaVuSerif-30" transform="translate(190.869141 0)"/>
       <use xlink:href="#DejaVuSerif-20" transform="translate(254.492188 0)"/>
       <use xlink:href="#DejaVuSerif-28" transform="translate(286.279297 0)"/>
       <use xlink:href="#DejaVuSerif-42" transform="translate(325.292969 0)"/>
       <use xlink:href="#DejaVuSerif-65" transform="translate(398.779297 0)"/>
       <use xlink:href="#DejaVuSerif-73" transform="translate(457.958984 0)"/>
       <use xlink:href="#DejaVuSerif-74" transform="translate(509.277344 0)"/>
       <use xlink:href="#DejaVuSerif-2d" transform="translate(549.462891 0)"/>
       <use xlink:href="#DejaVuSerif-70" transform="translate(583.251953 0)"/>
       <use xlink:href="#DejaVuSerif-65" transform="translate(647.265625 0)"/>
       <use xlink:href="#DejaVuSerif-72" transform="translate(706.445312 0)"/>
       <use xlink:href="#DejaVuSerif-66" transform="translate(754.248047 0)"/>
       <use xlink:href="#DejaVuSerif-6f" transform="translate(791.259766 0)"/>
       <use xlink:href="#DejaVuSerif-72" transform="translate(851.464844 0)"/>
       <use xlink:href="#DejaVuSerif-6d" transform="translate(899.267578 0)"/>
       <use xlink:href="#DejaVuSerif-65" transform="translate(994.091797 0)"/>
       <use xlink:href="#DejaVuSerif-72" transform="translate(1053.271484 0)"/>
       <use xlink:href="#DejaVuSerif-29" transform="translate(1101.074219 0)"/>
      </g>
     </g>
    </g>
    <g id="xtick_2">
     <g id="text_2">
      <!-- 8191 (Full-feature) -->
      <g style="fill: #262626" transform="translate(90.622408 473.673502) rotate(-45) scale(0.1155 -0.1155)">
       <defs>
        <path id="DejaVuSerif-38" d="M 2981 1275 
Q 2981 1775 2732 2051 
Q 2484 2328 2034 2328 
Q 1584 2328 1336 2051 
Q 1088 1775 1088 1275 
Q 1088 772 1336 495 
Q 1584 219 2034 219 
Q 2484 219 2732 495 
Q 2981 772 2981 1275 
z
M 2853 3541 
Q 2853 3966 2637 4203 
Q 2422 4441 2034 4441 
Q 1650 4441 1433 4203 
Q 1216 3966 1216 3541 
Q 1216 3113 1433 2875 
Q 1650 2638 2034 2638 
Q 2422 2638 2637 2875 
Q 2853 3113 2853 3541 
z
M 2516 2484 
Q 3047 2413 3344 2092 
Q 3641 1772 3641 1275 
Q 3641 619 3225 264 
Q 2809 -91 2034 -91 
Q 1263 -91 845 264 
Q 428 619 428 1275 
Q 428 1772 725 2092 
Q 1022 2413 1556 2484 
Q 1084 2569 832 2842 
Q 581 3116 581 3541 
Q 581 4103 968 4426 
Q 1356 4750 2034 4750 
Q 2713 4750 3100 4426 
Q 3488 4103 3488 3541 
Q 3488 3116 3236 2842 
Q 2984 2569 2516 2484 
z
" transform="scale(0.015625)"/>
        <path id="DejaVuSerif-31" d="M 909 0 
L 909 331 
L 1722 331 
L 1722 4213 
L 781 3603 
L 781 4013 
L 1919 4750 
L 2350 4750 
L 2350 331 
L 3163 331 
L 3163 0 
L 909 0 
z
" transform="scale(0.015625)"/>
        <path id="DejaVuSerif-39" d="M 2994 2091 
Q 2784 1856 2512 1740 
Q 2241 1625 1900 1625 
Q 1206 1625 804 2044 
Q 403 2463 403 3188 
Q 403 3897 839 4323 
Q 1275 4750 2003 4750 
Q 2794 4750 3217 4161 
Q 3641 3572 3641 2478 
Q 3641 1253 3137 581 
Q 2634 -91 1722 -91 
Q 1475 -91 1203 -44 
Q 931 3 647 97 
L 647 872 
L 997 872 
Q 1038 556 1241 387 
Q 1444 219 1784 219 
Q 2391 219 2687 676 
Q 2984 1134 2994 2091 
z
M 1978 4441 
Q 1534 4441 1298 4117 
Q 1063 3794 1063 3188 
Q 1063 2581 1298 2256 
Q 1534 1931 1978 1931 
Q 2422 1931 2658 2245 
Q 2894 2559 2894 3150 
Q 2894 3772 2656 4106 
Q 2419 4441 1978 4441 
z
" transform="scale(0.015625)"/>
        <path id="DejaVuSerif-46" d="M 353 0 
L 353 331 
L 947 331 
L 947 4331 
L 353 4331 
L 353 4666 
L 4172 4666 
L 4172 3628 
L 3788 3628 
L 3788 4281 
L 1581 4281 
L 1581 2719 
L 3175 2719 
L 3175 3303 
L 3559 3303 
L 3559 1753 
L 3175 1753 
L 3175 2338 
L 1581 2338 
L 1581 331 
L 2328 331 
L 2328 0 
L 353 0 
z
" transform="scale(0.015625)"/>
        <path id="DejaVuSerif-75" d="M 2266 3322 
L 3341 3322 
L 3341 331 
L 3884 331 
L 3884 0 
L 2766 0 
L 2766 588 
Q 2606 256 2353 82 
Q 2100 -91 1766 -91 
Q 1213 -91 952 223 
Q 691 538 691 1209 
L 691 2988 
L 172 2988 
L 172 3322 
L 1269 3322 
L 1269 1388 
Q 1269 781 1417 556 
Q 1566 331 1947 331 
Q 2347 331 2556 625 
Q 2766 919 2766 1478 
L 2766 2988 
L 2266 2988 
L 2266 3322 
z
" transform="scale(0.015625)"/>
        <path id="DejaVuSerif-6c" d="M 1313 331 
L 1856 331 
L 1856 0 
L 184 0 
L 184 331 
L 738 331 
L 738 4531 
L 184 4531 
L 184 4863 
L 1313 4863 
L 1313 331 
z
" transform="scale(0.015625)"/>
        <path id="DejaVuSerif-61" d="M 2547 1044 
L 2547 1747 
L 1806 1747 
Q 1378 1747 1168 1562 
Q 959 1378 959 997 
Q 959 650 1171 447 
Q 1384 244 1747 244 
Q 2106 244 2326 466 
Q 2547 688 2547 1044 
z
M 3122 2075 
L 3122 331 
L 3634 331 
L 3634 0 
L 2547 0 
L 2547 359 
Q 2356 128 2106 18 
Q 1856 -91 1522 -91 
Q 969 -91 644 203 
Q 319 497 319 997 
Q 319 1513 691 1797 
Q 1063 2081 1741 2081 
L 2547 2081 
L 2547 2309 
Q 2547 2688 2317 2895 
Q 2088 3103 1672 3103 
Q 1328 3103 1125 2947 
Q 922 2791 872 2484 
L 575 2484 
L 575 3156 
Q 875 3284 1158 3348 
Q 1441 3413 1709 3413 
Q 2400 3413 2761 3070 
Q 3122 2728 3122 2075 
z
" transform="scale(0.015625)"/>
       </defs>
       <use xlink:href="#DejaVuSerif-38"/>
       <use xlink:href="#DejaVuSerif-31" transform="translate(63.623047 0)"/>
       <use xlink:href="#DejaVuSerif-39" transform="translate(127.246094 0)"/>
       <use xlink:href="#DejaVuSerif-31" transform="translate(190.869141 0)"/>
       <use xlink:href="#DejaVuSerif-20" transform="translate(254.492188 0)"/>
       <use xlink:href="#DejaVuSerif-28" transform="translate(286.279297 0)"/>
       <use xlink:href="#DejaVuSerif-46" transform="translate(325.292969 0)"/>
       <use xlink:href="#DejaVuSerif-75" transform="translate(394.677734 0)"/>
       <use xlink:href="#DejaVuSerif-6c" transform="translate(459.082031 0)"/>
       <use xlink:href="#DejaVuSerif-6c" transform="translate(491.064453 0)"/>
       <use xlink:href="#DejaVuSerif-2d" transform="translate(523.046875 0)"/>
       <use xlink:href="#DejaVuSerif-66" transform="translate(556.835938 0)"/>
       <use xlink:href="#DejaVuSerif-65" transform="translate(593.847656 0)"/>
       <use xlink:href="#DejaVuSerif-61" transform="translate(653.027344 0)"/>
       <use xlink:href="#DejaVuSerif-74" transform="translate(712.646484 0)"/>
       <use xlink:href="#DejaVuSerif-75" transform="translate(752.832031 0)"/>
       <use xlink:href="#DejaVuSerif-72" transform="translate(817.236328 0)"/>
       <use xlink:href="#DejaVuSerif-65" transform="translate(865.039062 0)"/>
       <use xlink:href="#DejaVuSerif-29" transform="translate(924.21875 0)"/>
      </g>
     </g>
    </g>
    <g id="xtick_3">
     <g id="text_3">
      <!-- 4096 (CPOR_SM-only) -->
      <g style="fill: #262626" transform="translate(139.295152 487.548611) rotate(-45) scale(0.1155 -0.1155)">
       <defs>
        <path id="DejaVuSerif-36" d="M 2094 219 
Q 2534 219 2771 542 
Q 3009 866 3009 1472 
Q 3009 2078 2771 2401 
Q 2534 2725 2094 2725 
Q 1647 2725 1412 2412 
Q 1178 2100 1178 1509 
Q 1178 888 1415 553 
Q 1653 219 2094 219 
z
M 1075 2569 
Q 1288 2803 1556 2918 
Q 1825 3034 2163 3034 
Q 2859 3034 3264 2615 
Q 3669 2197 3669 1472 
Q 3669 763 3233 336 
Q 2797 -91 2069 -91 
Q 1278 -91 853 498 
Q 428 1088 428 2181 
Q 428 3406 931 4078 
Q 1434 4750 2350 4750 
Q 2597 4750 2869 4703 
Q 3141 4656 3425 4563 
L 3425 3794 
L 3072 3794 
Q 3034 4109 2831 4275 
Q 2628 4441 2284 4441 
Q 1678 4441 1381 3981 
Q 1084 3522 1075 2569 
z
" transform="scale(0.015625)"/>
        <path id="DejaVuSerif-43" d="M 4513 1234 
Q 4306 581 3820 245 
Q 3334 -91 2591 -91 
Q 2134 -91 1743 65 
Q 1353 222 1050 525 
Q 700 875 529 1320 
Q 359 1766 359 2328 
Q 359 3416 987 4083 
Q 1616 4750 2644 4750 
Q 3025 4750 3456 4650 
Q 3888 4550 4384 4347 
L 4384 3272 
L 4031 3272 
Q 3916 3859 3567 4137 
Q 3219 4416 2591 4416 
Q 1844 4416 1459 3886 
Q 1075 3356 1075 2328 
Q 1075 1303 1459 773 
Q 1844 244 2591 244 
Q 3113 244 3450 492 
Q 3788 741 3938 1234 
L 4513 1234 
z
" transform="scale(0.015625)"/>
        <path id="DejaVuSerif-50" d="M 1581 2375 
L 2406 2375 
Q 2872 2375 3115 2626 
Q 3359 2878 3359 3353 
Q 3359 3831 3115 4081 
Q 2872 4331 2406 4331 
L 1581 4331 
L 1581 2375 
z
M 353 0 
L 353 331 
L 947 331 
L 947 4331 
L 353 4331 
L 353 4666 
L 2559 4666 
Q 3259 4666 3668 4311 
Q 4078 3956 4078 3353 
Q 4078 2753 3668 2397 
Q 3259 2041 2559 2041 
L 1581 2041 
L 1581 331 
L 2303 331 
L 2303 0 
L 353 0 
z
" transform="scale(0.015625)"/>
        <path id="DejaVuSerif-4f" d="M 2625 244 
Q 3391 244 3781 770 
Q 4172 1297 4172 2328 
Q 4172 3363 3781 3889 
Q 3391 4416 2625 4416 
Q 1856 4416 1465 3889 
Q 1075 3363 1075 2328 
Q 1075 1297 1465 770 
Q 1856 244 2625 244 
z
M 2625 -91 
Q 2150 -91 1751 65 
Q 1353 222 1050 525 
Q 700 875 529 1319 
Q 359 1763 359 2328 
Q 359 2894 529 3339 
Q 700 3784 1050 4134 
Q 1356 4441 1750 4595 
Q 2144 4750 2625 4750 
Q 3641 4750 4266 4084 
Q 4891 3419 4891 2328 
Q 4891 1769 4719 1320 
Q 4547 872 4197 525 
Q 3891 219 3497 64 
Q 3103 -91 2625 -91 
z
" transform="scale(0.015625)"/>
        <path id="DejaVuSerif-52" d="M 3066 2316 
Q 3284 2256 3442 2114 
Q 3600 1972 3725 1716 
L 4403 331 
L 4972 331 
L 4972 0 
L 3872 0 
L 3144 1484 
Q 2934 1916 2759 2042 
Q 2584 2169 2278 2169 
L 1581 2169 
L 1581 331 
L 2241 331 
L 2241 0 
L 353 0 
L 353 331 
L 947 331 
L 947 4331 
L 353 4331 
L 353 4666 
L 2719 4666 
Q 3400 4666 3770 4341 
Q 4141 4016 4141 3419 
Q 4141 2938 3870 2661 
Q 3600 2384 3066 2316 
z
M 1581 2503 
L 2503 2503 
Q 2975 2503 3200 2726 
Q 3425 2950 3425 3419 
Q 3425 3888 3200 4109 
Q 2975 4331 2503 4331 
L 1581 4331 
L 1581 2503 
z
" transform="scale(0.015625)"/>
        <path id="DejaVuSerif-5f" d="M 3200 -1259 
L 3200 -1509 
L 0 -1509 
L 0 -1259 
L 3200 -1259 
z
" transform="scale(0.015625)"/>
        <path id="DejaVuSerif-53" d="M 594 225 
L 594 1288 
L 953 1284 
Q 969 753 1261 498 
Q 1553 244 2150 244 
Q 2706 244 2998 464 
Q 3291 684 3291 1106 
Q 3291 1444 3114 1625 
Q 2938 1806 2369 1978 
L 1753 2163 
Q 1084 2366 811 2669 
Q 538 2972 538 3500 
Q 538 4094 959 4422 
Q 1381 4750 2144 4750 
Q 2469 4750 2856 4679 
Q 3244 4609 3681 4475 
L 3681 3481 
L 3328 3481 
Q 3275 3975 2998 4195 
Q 2722 4416 2156 4416 
Q 1663 4416 1405 4214 
Q 1147 4013 1147 3628 
Q 1147 3294 1340 3103 
Q 1534 2913 2163 2725 
L 2741 2553 
Q 3375 2363 3645 2067 
Q 3916 1772 3916 1275 
Q 3916 597 3481 253 
Q 3047 -91 2188 -91 
Q 1803 -91 1404 -12 
Q 1006 66 594 225 
z
" transform="scale(0.015625)"/>
        <path id="DejaVuSerif-4d" d="M 353 0 
L 353 331 
L 947 331 
L 947 4331 
L 319 4331 
L 319 4666 
L 1678 4666 
L 3316 1344 
L 4953 4666 
L 6228 4666 
L 6228 4331 
L 5606 4331 
L 5606 331 
L 6203 331 
L 6203 0 
L 4378 0 
L 4378 331 
L 4972 331 
L 4972 3938 
L 3372 684 
L 2931 684 
L 1331 3938 
L 1331 331 
L 1925 331 
L 1925 0 
L 353 0 
z
" transform="scale(0.015625)"/>
        <path id="DejaVuSerif-6e" d="M 263 0 
L 263 331 
L 781 331 
L 781 2988 
L 231 2988 
L 231 3322 
L 1356 3322 
L 1356 2731 
Q 1516 3069 1770 3241 
Q 2025 3413 2363 3413 
Q 2913 3413 3172 3097 
Q 3431 2781 3431 2113 
L 3431 331 
L 3944 331 
L 3944 0 
L 2356 0 
L 2356 331 
L 2853 331 
L 2853 1931 
Q 2853 2541 2703 2767 
Q 2553 2994 2175 2994 
Q 1775 2994 1565 2701 
Q 1356 2409 1356 1850 
L 1356 331 
L 1856 331 
L 1856 0 
L 263 0 
z
" transform="scale(0.015625)"/>
        <path id="DejaVuSerif-79" d="M 1381 -609 
L 1600 -56 
L 359 2988 
L -19 2988 
L -19 3322 
L 1509 3322 
L 1509 2988 
L 978 2988 
L 1913 703 
L 2847 2988 
L 2350 2988 
L 2350 3322 
L 3597 3322 
L 3597 2988 
L 3225 2988 
L 1703 -750 
Q 1547 -1138 1356 -1280 
Q 1166 -1422 819 -1422 
Q 672 -1422 517 -1397 
Q 363 -1372 206 -1325 
L 206 -691 
L 500 -691 
Q 519 -903 608 -995 
Q 697 -1088 884 -1088 
Q 1056 -1088 1161 -992 
Q 1266 -897 1381 -609 
z
" transform="scale(0.015625)"/>
       </defs>
       <use xlink:href="#DejaVuSerif-34"/>
       <use xlink:href="#DejaVuSerif-30" transform="translate(63.623047 0)"/>
       <use xlink:href="#DejaVuSerif-39" transform="translate(127.246094 0)"/>
       <use xlink:href="#DejaVuSerif-36" transform="translate(190.869141 0)"/>
       <use xlink:href="#DejaVuSerif-20" transform="translate(254.492188 0)"/>
       <use xlink:href="#DejaVuSerif-28" transform="translate(286.279297 0)"/>
       <use xlink:href="#DejaVuSerif-43" transform="translate(325.292969 0)"/>
       <use xlink:href="#DejaVuSerif-50" transform="translate(401.806641 0)"/>
       <use xlink:href="#DejaVuSerif-4f" transform="translate(469.091797 0)"/>
       <use xlink:href="#DejaVuSerif-52" transform="translate(551.074219 0)"/>
       <use xlink:href="#DejaVuSerif-5f" transform="translate(626.367188 0)"/>
       <use xlink:href="#DejaVuSerif-53" transform="translate(676.367188 0)"/>
       <use xlink:href="#DejaVuSerif-4d" transform="translate(744.873047 0)"/>
       <use xlink:href="#DejaVuSerif-2d" transform="translate(847.265625 0)"/>
       <use xlink:href="#DejaVuSerif-6f" transform="translate(881.054688 0)"/>
       <use xlink:href="#DejaVuSerif-6e" transform="translate(941.259766 0)"/>
       <use xlink:href="#DejaVuSerif-6c" transform="translate(1005.664062 0)"/>
       <use xlink:href="#DejaVuSerif-79" transform="translate(1037.646484 0)"/>
       <use xlink:href="#DejaVuSerif-29" transform="translate(1094.140625 0)"/>
      </g>
     </g>
    </g>
    <g id="xtick_4">
     <g id="text_4">
      <!-- Log-linear (CPOR_SM) -->
      <g style="fill: #262626" transform="translate(200.598801 489.019962) rotate(-45) scale(0.1155 -0.1155)">
       <defs>
        <path id="DejaVuSerif-4c" d="M 353 0 
L 353 331 
L 947 331 
L 947 4331 
L 353 4331 
L 353 4666 
L 2175 4666 
L 2175 4331 
L 1581 4331 
L 1581 384 
L 3713 384 
L 3713 1166 
L 4097 1166 
L 4097 0 
L 353 0 
z
" transform="scale(0.015625)"/>
        <path id="DejaVuSerif-67" d="M 3359 2988 
L 3359 72 
Q 3359 -644 2965 -1033 
Q 2572 -1422 1844 -1422 
Q 1516 -1422 1216 -1362 
Q 916 -1303 641 -1184 
L 641 -488 
L 941 -488 
Q 997 -813 1206 -963 
Q 1416 -1113 1806 -1113 
Q 2313 -1113 2548 -827 
Q 2784 -541 2784 72 
L 2784 519 
Q 2616 206 2355 57 
Q 2094 -91 1709 -91 
Q 1097 -91 708 395 
Q 319 881 319 1663 
Q 319 2444 706 2928 
Q 1094 3413 1709 3413 
Q 2094 3413 2355 3264 
Q 2616 3116 2784 2803 
L 2784 3322 
L 3909 3322 
L 3909 2988 
L 3359 2988 
z
M 2784 1825 
Q 2784 2422 2554 2737 
Q 2325 3053 1888 3053 
Q 1444 3053 1217 2703 
Q 991 2353 991 1663 
Q 991 975 1217 622 
Q 1444 269 1888 269 
Q 2325 269 2554 583 
Q 2784 897 2784 1497 
L 2784 1825 
z
" transform="scale(0.015625)"/>
        <path id="DejaVuSerif-69" d="M 622 4353 
Q 622 4497 726 4603 
Q 831 4709 978 4709 
Q 1122 4709 1226 4603 
Q 1331 4497 1331 4353 
Q 1331 4206 1228 4103 
Q 1125 4000 978 4000 
Q 831 4000 726 4103 
Q 622 4206 622 4353 
z
M 1356 331 
L 1900 331 
L 1900 0 
L 231 0 
L 231 331 
L 781 331 
L 781 2988 
L 231 2988 
L 231 3322 
L 1356 3322 
L 1356 331 
z
" transform="scale(0.015625)"/>
       </defs>
       <use xlink:href="#DejaVuSerif-4c"/>
       <use xlink:href="#DejaVuSerif-6f" transform="translate(66.40625 0)"/>
       <use xlink:href="#DejaVuSerif-67" transform="translate(126.611328 0)"/>
       <use xlink:href="#DejaVuSerif-2d" transform="translate(190.625 0)"/>
       <use xlink:href="#DejaVuSerif-6c" transform="translate(224.414062 0)"/>
       <use xlink:href="#DejaVuSerif-69" transform="translate(256.396484 0)"/>
       <use xlink:href="#DejaVuSerif-6e" transform="translate(288.378906 0)"/>
       <use xlink:href="#DejaVuSerif-65" transform="translate(352.783203 0)"/>
       <use xlink:href="#DejaVuSerif-61" transform="translate(411.962891 0)"/>
       <use xlink:href="#DejaVuSerif-72" transform="translate(471.582031 0)"/>
       <use xlink:href="#DejaVuSerif-20" transform="translate(519.384766 0)"/>
       <use xlink:href="#DejaVuSerif-28" transform="translate(551.171875 0)"/>
       <use xlink:href="#DejaVuSerif-43" transform="translate(590.185547 0)"/>
       <use xlink:href="#DejaVuSerif-50" transform="translate(666.699219 0)"/>
       <use xlink:href="#DejaVuSerif-4f" transform="translate(733.984375 0)"/>
       <use xlink:href="#DejaVuSerif-52" transform="translate(815.966797 0)"/>
       <use xlink:href="#DejaVuSerif-5f" transform="translate(891.259766 0)"/>
       <use xlink:href="#DejaVuSerif-53" transform="translate(941.259766 0)"/>
       <use xlink:href="#DejaVuSerif-4d" transform="translate(1009.765625 0)"/>
       <use xlink:href="#DejaVuSerif-29" transform="translate(1112.158203 0)"/>
      </g>
     </g>
    </g>
    <g id="xtick_5">
     <g id="text_5">
      <!-- Timur (CPOR_SM) -->
      <g style="fill: #262626" transform="translate(280.825837 471.567926) rotate(-45) scale(0.1155 -0.1155)">
       <defs>
        <path id="DejaVuSerif-54" d="M 1222 0 
L 1222 331 
L 1819 331 
L 1819 4294 
L 447 4294 
L 447 3566 
L 63 3566 
L 63 4666 
L 4206 4666 
L 4206 3566 
L 3822 3566 
L 3822 4294 
L 2450 4294 
L 2450 331 
L 3047 331 
L 3047 0 
L 1222 0 
z
" transform="scale(0.015625)"/>
       </defs>
       <use xlink:href="#DejaVuSerif-54"/>
       <use xlink:href="#DejaVuSerif-69" transform="translate(66.699219 0)"/>
       <use xlink:href="#DejaVuSerif-6d" transform="translate(98.681641 0)"/>
       <use xlink:href="#DejaVuSerif-75" transform="translate(193.505859 0)"/>
       <use xlink:href="#DejaVuSerif-72" transform="translate(257.910156 0)"/>
       <use xlink:href="#DejaVuSerif-20" transform="translate(305.712891 0)"/>
       <use xlink:href="#DejaVuSerif-28" transform="translate(337.5 0)"/>
       <use xlink:href="#DejaVuSerif-43" transform="translate(376.513672 0)"/>
       <use xlink:href="#DejaVuSerif-50" transform="translate(453.027344 0)"/>
       <use xlink:href="#DejaVuSerif-4f" transform="translate(520.3125 0)"/>
       <use xlink:href="#DejaVuSerif-52" transform="translate(602.294922 0)"/>
       <use xlink:href="#DejaVuSerif-5f" transform="translate(677.587891 0)"/>
       <use xlink:href="#DejaVuSerif-53" transform="translate(727.587891 0)"/>
       <use xlink:href="#DejaVuSerif-4d" transform="translate(796.09375 0)"/>
       <use xlink:href="#DejaVuSerif-29" transform="translate(898.486328 0)"/>
      </g>
     </g>
    </g>
    <g id="xtick_6">
     <g id="text_6">
      <!-- 640 (Budget wireline) -->
      <g style="fill: #262626" transform="translate(329.632572 485.647212) rotate(-45) scale(0.1155 -0.1155)">
       <defs>
        <path id="DejaVuSerif-64" d="M 3359 331 
L 3909 331 
L 3909 0 
L 2784 0 
L 2784 519 
Q 2616 206 2355 57 
Q 2094 -91 1709 -91 
Q 1097 -91 708 395 
Q 319 881 319 1663 
Q 319 2444 706 2928 
Q 1094 3413 1709 3413 
Q 2094 3413 2355 3264 
Q 2616 3116 2784 2803 
L 2784 4531 
L 2241 4531 
L 2241 4863 
L 3359 4863 
L 3359 331 
z
M 2784 1497 
L 2784 1825 
Q 2784 2422 2554 2737 
Q 2325 3053 1888 3053 
Q 1444 3053 1217 2703 
Q 991 2353 991 1663 
Q 991 975 1217 622 
Q 1444 269 1888 269 
Q 2325 269 2554 583 
Q 2784 897 2784 1497 
z
" transform="scale(0.015625)"/>
        <path id="DejaVuSerif-77" d="M 3072 3322 
L 3922 728 
L 4672 2988 
L 4191 2988 
L 4191 3322 
L 5394 3322 
L 5394 2988 
L 5025 2988 
L 4038 0 
L 3559 0 
L 2741 2484 
L 1919 0 
L 1459 0 
L 475 2988 
L 103 2988 
L 103 3322 
L 1606 3322 
L 1606 2988 
L 1069 2988 
L 1813 728 
L 2669 3322 
L 3072 3322 
z
" transform="scale(0.015625)"/>
       </defs>
       <use xlink:href="#DejaVuSerif-36"/>
       <use xlink:href="#DejaVuSerif-34" transform="translate(63.623047 0)"/>
       <use xlink:href="#DejaVuSerif-30" transform="translate(127.246094 0)"/>
       <use xlink:href="#DejaVuSerif-20" transform="translate(190.869141 0)"/>
       <use xlink:href="#DejaVuSerif-28" transform="translate(222.65625 0)"/>
       <use xlink:href="#DejaVuSerif-42" transform="translate(261.669922 0)"/>
       <use xlink:href="#DejaVuSerif-75" transform="translate(335.15625 0)"/>
       <use xlink:href="#DejaVuSerif-64" transform="translate(399.560547 0)"/>
       <use xlink:href="#DejaVuSerif-67" transform="translate(463.574219 0)"/>
       <use xlink:href="#DejaVuSerif-65" transform="translate(527.587891 0)"/>
       <use xlink:href="#DejaVuSerif-74" transform="translate(586.767578 0)"/>
       <use xlink:href="#DejaVuSerif-20" transform="translate(626.953125 0)"/>
       <use xlink:href="#DejaVuSerif-77" transform="translate(658.740234 0)"/>
       <use xlink:href="#DejaVuSerif-69" transform="translate(744.335938 0)"/>
       <use xlink:href="#DejaVuSerif-72" transform="translate(776.318359 0)"/>
       <use xlink:href="#DejaVuSerif-65" transform="translate(824.121094 0)"/>
       <use xlink:href="#DejaVuSerif-6c" transform="translate(883.300781 0)"/>
       <use xlink:href="#DejaVuSerif-69" transform="translate(915.283203 0)"/>
       <use xlink:href="#DejaVuSerif-6e" transform="translate(947.265625 0)"/>
       <use xlink:href="#DejaVuSerif-65" transform="translate(1011.669922 0)"/>
       <use xlink:href="#DejaVuSerif-29" transform="translate(1070.849609 0)"/>
      </g>
     </g>
    </g>
    <g id="xtick_7">
     <g id="text_7">
      <!-- Log-linear (PHIT) -->
      <g style="fill: #262626" transform="translate(410.373879 467.680905) rotate(-45) scale(0.1155 -0.1155)">
       <defs>
        <path id="DejaVuSerif-48" d="M 353 0 
L 353 331 
L 947 331 
L 947 4331 
L 353 4331 
L 353 4666 
L 2175 4666 
L 2175 4331 
L 1581 4331 
L 1581 2719 
L 4000 2719 
L 4000 4331 
L 3406 4331 
L 3406 4666 
L 5228 4666 
L 5228 4331 
L 4634 4331 
L 4634 331 
L 5228 331 
L 5228 0 
L 3406 0 
L 3406 331 
L 4000 331 
L 4000 2338 
L 1581 2338 
L 1581 331 
L 2175 331 
L 2175 0 
L 353 0 
z
" transform="scale(0.015625)"/>
        <path id="DejaVuSerif-49" d="M 1581 331 
L 2175 331 
L 2175 0 
L 353 0 
L 353 331 
L 947 331 
L 947 4331 
L 353 4331 
L 353 4666 
L 2175 4666 
L 2175 4331 
L 1581 4331 
L 1581 331 
z
" transform="scale(0.015625)"/>
       </defs>
       <use xlink:href="#DejaVuSerif-4c"/>
       <use xlink:href="#DejaVuSerif-6f" transform="translate(66.40625 0)"/>
       <use xlink:href="#DejaVuSerif-67" transform="translate(126.611328 0)"/>
       <use xlink:href="#DejaVuSerif-2d" transform="translate(190.625 0)"/>
       <use xlink:href="#DejaVuSerif-6c" transform="translate(224.414062 0)"/>
       <use xlink:href="#DejaVuSerif-69" transform="translate(256.396484 0)"/>
       <use xlink:href="#DejaVuSerif-6e" transform="translate(288.378906 0)"/>
       <use xlink:href="#DejaVuSerif-65" transform="translate(352.783203 0)"/>
       <use xlink:href="#DejaVuSerif-61" transform="translate(411.962891 0)"/>
       <use xlink:href="#DejaVuSerif-72" transform="translate(471.582031 0)"/>
       <use xlink:href="#DejaVuSerif-20" transform="translate(519.384766 0)"/>
       <use xlink:href="#DejaVuSerif-28" transform="translate(551.171875 0)"/>
       <use xlink:href="#DejaVuSerif-50" transform="translate(590.185547 0)"/>
       <use xlink:href="#DejaVuSerif-48" transform="translate(657.470703 0)"/>
       <use xlink:href="#DejaVuSerif-49" transform="translate(744.677734 0)"/>
       <use xlink:href="#DejaVuSerif-54" transform="translate(784.179688 0)"/>
       <use xlink:href="#DejaVuSerif-29" transform="translate(850.878906 0)"/>
      </g>
     </g>
    </g>
    <g id="xtick_8">
     <g id="text_8">
      <!-- Timur (PHIT) -->
      <g style="fill: #262626" transform="translate(490.717041 450.228868) rotate(-45) scale(0.1155 -0.1155)">
       <use xlink:href="#DejaVuSerif-54"/>
       <use xlink:href="#DejaVuSerif-69" transform="translate(66.699219 0)"/>
       <use xlink:href="#DejaVuSerif-6d" transform="translate(98.681641 0)"/>
       <use xlink:href="#DejaVuSerif-75" transform="translate(193.505859 0)"/>
       <use xlink:href="#DejaVuSerif-72" transform="translate(257.910156 0)"/>
       <use xlink:href="#DejaVuSerif-20" transform="translate(305.712891 0)"/>
       <use xlink:href="#DejaVuSerif-28" transform="translate(337.5 0)"/>
       <use xlink:href="#DejaVuSerif-50" transform="translate(376.513672 0)"/>
       <use xlink:href="#DejaVuSerif-48" transform="translate(443.798828 0)"/>
       <use xlink:href="#DejaVuSerif-49" transform="translate(531.005859 0)"/>
       <use xlink:href="#DejaVuSerif-54" transform="translate(570.507812 0)"/>
       <use xlink:href="#DejaVuSerif-29" transform="translate(637.207031 0)"/>
      </g>
     </g>
    </g>
   </g>
   <g id="matplotlib.axis_2">
    <g id="ytick_1">
     <g id="line2d_1">
      <path d="M 76.830388 362.950477 
L 579.030388 362.950477 
" clip-path="url(#p448754fb2b)" style="fill: none; stroke: #cccccc; stroke-linecap: round"/>
     </g>
     <g id="text_9">
      <!-- 0.6 -->
      <g style="fill: #262626" transform="translate(48.962279 367.338575) scale(0.1155 -0.1155)">
       <defs>
        <path id="DejaVuSerif-2e" d="M 603 325 
Q 603 500 722 622 
Q 841 744 1019 744 
Q 1191 744 1312 622 
Q 1434 500 1434 325 
Q 1434 153 1312 31 
Q 1191 -91 1019 -91 
Q 841 -91 722 29 
Q 603 150 603 325 
z
" transform="scale(0.015625)"/>
       </defs>
       <use xlink:href="#DejaVuSerif-30"/>
       <use xlink:href="#DejaVuSerif-2e" transform="translate(63.623047 0)"/>
       <use xlink:href="#DejaVuSerif-36" transform="translate(95.410156 0)"/>
      </g>
     </g>
    </g>
    <g id="ytick_2">
     <g id="line2d_2">
      <path d="M 76.830388 293.357289 
L 579.030388 293.357289 
" clip-path="url(#p448754fb2b)" style="fill: none; stroke: #cccccc; stroke-linecap: round"/>
     </g>
     <g id="text_10">
      <!-- 0.7 -->
      <g style="fill: #262626" transform="translate(48.962279 297.745387) scale(0.1155 -0.1155)">
       <defs>
        <path id="DejaVuSerif-37" d="M 3609 4347 
L 1784 0 
L 1319 0 
L 3059 4153 
L 903 4153 
L 903 3578 
L 538 3578 
L 538 4666 
L 3609 4666 
L 3609 4347 
z
" transform="scale(0.015625)"/>
       </defs>
       <use xlink:href="#DejaVuSerif-30"/>
       <use xlink:href="#DejaVuSerif-2e" transform="translate(63.623047 0)"/>
       <use xlink:href="#DejaVuSerif-37" transform="translate(95.410156 0)"/>
      </g>
     </g>
    </g>
    <g id="ytick_3">
     <g id="line2d_3">
      <path d="M 76.830388 223.764101 
L 579.030388 223.764101 
" clip-path="url(#p448754fb2b)" style="fill: none; stroke: #cccccc; stroke-linecap: round"/>
     </g>
     <g id="text_11">
      <!-- 0.8 -->
      <g style="fill: #262626" transform="translate(48.962279 228.152198) scale(0.1155 -0.1155)">
       <use xlink:href="#DejaVuSerif-30"/>
       <use xlink:href="#DejaVuSerif-2e" transform="translate(63.623047 0)"/>
       <use xlink:href="#DejaVuSerif-38" transform="translate(95.410156 0)"/>
      </g>
     </g>
    </g>
    <g id="ytick_4">
     <g id="line2d_4">
      <path d="M 76.830388 154.170912 
L 579.030388 154.170912 
" clip-path="url(#p448754fb2b)" style="fill: none; stroke: #cccccc; stroke-linecap: round"/>
     </g>
     <g id="text_12">
      <!-- 0.9 -->
      <g style="fill: #262626" transform="translate(48.962279 158.55901) scale(0.1155 -0.1155)">
       <use xlink:href="#DejaVuSerif-30"/>
       <use xlink:href="#DejaVuSerif-2e" transform="translate(63.623047 0)"/>
       <use xlink:href="#DejaVuSerif-39" transform="translate(95.410156 0)"/>
      </g>
     </g>
    </g>
    <g id="ytick_5">
     <g id="line2d_5">
      <path d="M 76.830388 84.577724 
L 579.030388 84.577724 
" clip-path="url(#p448754fb2b)" style="fill: none; stroke: #cccccc; stroke-linecap: round"/>
     </g>
     <g id="text_13">
      <!-- 1.0 -->
      <g style="fill: #262626" transform="translate(48.962279 88.965821) scale(0.1155 -0.1155)">
       <use xlink:href="#DejaVuSerif-31"/>
       <use xlink:href="#DejaVuSerif-2e" transform="translate(63.623047 0)"/>
       <use xlink:href="#DejaVuSerif-30" transform="translate(95.410156 0)"/>
      </g>
     </g>
    </g>
    <g id="text_14">
     <!-- RMSE_log -->
     <g style="fill: #262626" transform="translate(41.991435 246.075422) rotate(-90) scale(0.126 -0.126)">
      <defs>
       <path id="DejaVuSerif-45" d="M 353 0 
L 353 331 
L 947 331 
L 947 4331 
L 353 4331 
L 353 4666 
L 4109 4666 
L 4109 3628 
L 3725 3628 
L 3725 4281 
L 1581 4281 
L 1581 2719 
L 3109 2719 
L 3109 3303 
L 3494 3303 
L 3494 1753 
L 3109 1753 
L 3109 2338 
L 1581 2338 
L 1581 384 
L 3775 384 
L 3775 1038 
L 4159 1038 
L 4159 0 
L 353 0 
z
" transform="scale(0.015625)"/>
      </defs>
      <use xlink:href="#DejaVuSerif-52"/>
      <use xlink:href="#DejaVuSerif-4d" transform="translate(75.292969 0)"/>
      <use xlink:href="#DejaVuSerif-53" transform="translate(177.685547 0)"/>
      <use xlink:href="#DejaVuSerif-45" transform="translate(246.191406 0)"/>
      <use xlink:href="#DejaVuSerif-5f" transform="translate(319.189453 0)"/>
      <use xlink:href="#DejaVuSerif-6c" transform="translate(369.189453 0)"/>
      <use xlink:href="#DejaVuSerif-6f" transform="translate(401.171875 0)"/>
      <use xlink:href="#DejaVuSerif-67" transform="translate(461.376953 0)"/>
     </g>
    </g>
   </g>
   <g id="patch_3">
    <path d="M 90.954763 351.395062 
L 125.481013 351.395062 
L 125.481013 293.052348 
L 90.954763 293.052348 
L 90.954763 351.395062 
z
" clip-path="url(#p448754fb2b)" style="fill: #96cac1; stroke: #5f5f5f; stroke-width: 0.8; stroke-linejoin: miter"/>
   </g>
   <g id="line2d_6">
    <path d="M 108.217888 351.395062 
L 108.217888 364.175812 
" clip-path="url(#p448754fb2b)" style="fill: none; stroke: #5f5f5f; stroke-width: 0.8"/>
   </g>
   <g id="line2d_7">
    <path d="M 108.217888 293.052348 
L 108.217888 254.944 
" clip-path="url(#p448754fb2b)" style="fill: none; stroke: #5f5f5f; stroke-width: 0.8"/>
   </g>
   <g id="line2d_8">
    <path d="M 99.586325 364.175812 
L 116.84945 364.175812 
" clip-path="url(#p448754fb2b)" style="fill: none; stroke: #5f5f5f; stroke-width: 0.8; stroke-linecap: round"/>
   </g>
   <g id="line2d_9">
    <path d="M 99.586325 254.944 
L 116.84945 254.944 
" clip-path="url(#p448754fb2b)" style="fill: none; stroke: #5f5f5f; stroke-width: 0.8; stroke-linecap: round"/>
   </g>
   <g id="line2d_10"/>
   <g id="patch_4">
    <path d="M 153.729763 333.483526 
L 188.256013 333.483526 
L 188.256013 282.127728 
L 153.729763 282.127728 
L 153.729763 333.483526 
z
" clip-path="url(#p448754fb2b)" style="fill: #f6f6bc; stroke: #5f5f5f; stroke-width: 0.8; stroke-linejoin: miter"/>
   </g>
   <g id="line2d_11">
    <path d="M 170.992888 333.483526 
L 170.992888 354.142484 
" clip-path="url(#p448754fb2b)" style="fill: none; stroke: #5f5f5f; stroke-width: 0.8"/>
   </g>
   <g id="line2d_12">
    <path d="M 170.992888 282.127728 
L 170.992888 264.676787 
" clip-path="url(#p448754fb2b)" style="fill: none; stroke: #5f5f5f; stroke-width: 0.8"/>
   </g>
   <g id="line2d_13">
    <path d="M 162.361325 354.142484 
L 179.62445 354.142484 
" clip-path="url(#p448754fb2b)" style="fill: none; stroke: #5f5f5f; stroke-width: 0.8; stroke-linecap: round"/>
   </g>
   <g id="line2d_14">
    <path d="M 162.361325 264.676787 
L 179.62445 264.676787 
" clip-path="url(#p448754fb2b)" style="fill: none; stroke: #5f5f5f; stroke-width: 0.8; stroke-linecap: round"/>
   </g>
   <g id="line2d_15"/>
   <g id="patch_5">
    <path d="M 216.504763 298.183456 
L 251.031013 298.183456 
L 251.031013 260.114338 
L 216.504763 260.114338 
L 216.504763 298.183456 
z
" clip-path="url(#p448754fb2b)" style="fill: #c1bed6; stroke: #5f5f5f; stroke-width: 0.8; stroke-linejoin: miter"/>
   </g>
   <g id="line2d_16">
    <path d="M 233.767888 298.183456 
L 233.767888 313.991294 
" clip-path="url(#p448754fb2b)" style="fill: none; stroke: #5f5f5f; stroke-width: 0.8"/>
   </g>
   <g id="line2d_17">
    <path d="M 233.767888 260.114338 
L 233.767888 236.301005 
" clip-path="url(#p448754fb2b)" style="fill: none; stroke: #5f5f5f; stroke-width: 0.8"/>
   </g>
   <g id="line2d_18">
    <path d="M 225.136325 313.991294 
L 242.39945 313.991294 
" clip-path="url(#p448754fb2b)" style="fill: none; stroke: #5f5f5f; stroke-width: 0.8; stroke-linecap: round"/>
   </g>
   <g id="line2d_19">
    <path d="M 225.136325 236.301005 
L 242.39945 236.301005 
" clip-path="url(#p448754fb2b)" style="fill: none; stroke: #5f5f5f; stroke-width: 0.8; stroke-linecap: round"/>
   </g>
   <g id="line2d_20"/>
   <g id="patch_6">
    <path d="M 279.279763 300.085636 
L 313.806013 300.085636 
L 313.806013 251.767247 
L 279.279763 251.767247 
L 279.279763 300.085636 
z
" clip-path="url(#p448754fb2b)" style="fill: url(#h3728ac767b); stroke: #5f5f5f; stroke-width: 0.8; stroke-linejoin: miter"/>
   </g>
   <g id="line2d_21">
    <path d="M 296.542888 300.085636 
L 296.542888 313.768831 
" clip-path="url(#p448754fb2b)" style="fill: none; stroke: #5f5f5f; stroke-width: 0.8"/>
   </g>
   <g id="line2d_22">
    <path d="M 296.542888 251.767247 
L 296.542888 228.070339 
" clip-path="url(#p448754fb2b)" style="fill: none; stroke: #5f5f5f; stroke-width: 0.8"/>
   </g>
   <g id="line2d_23">
    <path d="M 287.911325 313.768831 
L 305.17445 313.768831 
" clip-path="url(#p448754fb2b)" style="fill: none; stroke: #5f5f5f; stroke-width: 0.8; stroke-linecap: round"/>
   </g>
   <g id="line2d_24">
    <path d="M 287.911325 228.070339 
L 305.17445 228.070339 
" clip-path="url(#p448754fb2b)" style="fill: none; stroke: #5f5f5f; stroke-width: 0.8; stroke-linecap: round"/>
   </g>
   <g id="line2d_25"/>
   <g id="patch_7">
    <path d="M 342.054763 268.423353 
L 376.581013 268.423353 
L 376.581013 207.72355 
L 342.054763 207.72355 
L 342.054763 268.423353 
z
" clip-path="url(#p448754fb2b)" style="fill: url(#h3728ac767b); stroke: #5f5f5f; stroke-width: 0.8; stroke-linejoin: miter"/>
   </g>
   <g id="line2d_26">
    <path d="M 359.317888 268.423353 
L 359.317888 289.606774 
" clip-path="url(#p448754fb2b)" style="fill: none; stroke: #5f5f5f; stroke-width: 0.8"/>
   </g>
   <g id="line2d_27">
    <path d="M 359.317888 207.72355 
L 359.317888 131.815939 
" clip-path="url(#p448754fb2b)" style="fill: none; stroke: #5f5f5f; stroke-width: 0.8"/>
   </g>
   <g id="line2d_28">
    <path d="M 350.686325 289.606774 
L 367.94945 289.606774 
" clip-path="url(#p448754fb2b)" style="fill: none; stroke: #5f5f5f; stroke-width: 0.8; stroke-linecap: round"/>
   </g>
   <g id="line2d_29">
    <path d="M 350.686325 131.815939 
L 367.94945 131.815939 
" clip-path="url(#p448754fb2b)" style="fill: none; stroke: #5f5f5f; stroke-width: 0.8; stroke-linecap: round"/>
   </g>
   <g id="line2d_30"/>
   <g id="patch_8">
    <path d="M 404.829763 270.166326 
L 439.356013 270.166326 
L 439.356013 169.528564 
L 404.829763 169.528564 
L 404.829763 270.166326 
z
" clip-path="url(#p448754fb2b)" style="fill: #ea8e83; stroke: #5f5f5f; stroke-width: 0.8; stroke-linejoin: miter"/>
   </g>
   <g id="line2d_31">
    <path d="M 422.092888 270.166326 
L 422.092888 287.018257 
" clip-path="url(#p448754fb2b)" style="fill: none; stroke: #5f5f5f; stroke-width: 0.8"/>
   </g>
   <g id="line2d_32">
    <path d="M 422.092888 169.528564 
L 422.092888 153.592004 
" clip-path="url(#p448754fb2b)" style="fill: none; stroke: #5f5f5f; stroke-width: 0.8"/>
   </g>
   <g id="line2d_33">
    <path d="M 413.461325 287.018257 
L 430.72445 287.018257 
" clip-path="url(#p448754fb2b)" style="fill: none; stroke: #5f5f5f; stroke-width: 0.8; stroke-linecap: round"/>
   </g>
   <g id="line2d_34">
    <path d="M 413.461325 153.592004 
L 430.72445 153.592004 
" clip-path="url(#p448754fb2b)" style="fill: none; stroke: #5f5f5f; stroke-width: 0.8; stroke-linecap: round"/>
   </g>
   <g id="line2d_35"/>
   <g id="patch_9">
    <path d="M 467.604763 247.4717 
L 502.131013 247.4717 
L 502.131013 154.332125 
L 467.604763 154.332125 
L 467.604763 247.4717 
z
" clip-path="url(#p448754fb2b)" style="fill: url(#h3728ac767b); stroke: #5f5f5f; stroke-width: 0.8; stroke-linejoin: miter"/>
   </g>
   <g id="line2d_36">
    <path d="M 484.867888 247.4717 
L 484.867888 262.032613 
" clip-path="url(#p448754fb2b)" style="fill: none; stroke: #5f5f5f; stroke-width: 0.8"/>
   </g>
   <g id="line2d_37">
    <path d="M 484.867888 154.332125 
L 484.867888 66.082693 
" clip-path="url(#p448754fb2b)" style="fill: none; stroke: #5f5f5f; stroke-width: 0.8"/>
   </g>
   <g id="line2d_38">
    <path d="M 476.236325 262.032613 
L 493.49945 262.032613 
" clip-path="url(#p448754fb2b)" style="fill: none; stroke: #5f5f5f; stroke-width: 0.8; stroke-linecap: round"/>
   </g>
   <g id="line2d_39">
    <path d="M 476.236325 66.082693 
L 493.49945 66.082693 
" clip-path="url(#p448754fb2b)" style="fill: none; stroke: #5f5f5f; stroke-width: 0.8; stroke-linecap: round"/>
   </g>
   <g id="line2d_40"/>
   <g id="patch_10">
    <path d="M 530.379763 211.19793 
L 564.906013 211.19793 
L 564.906013 124.714537 
L 530.379763 124.714537 
L 530.379763 211.19793 
z
" clip-path="url(#p448754fb2b)" style="fill: url(#h3728ac767b); stroke: #5f5f5f; stroke-width: 0.8; stroke-linejoin: miter"/>
   </g>
   <g id="line2d_41">
    <path d="M 547.642888 211.19793 
L 547.642888 230.346911 
" clip-path="url(#p448754fb2b)" style="fill: none; stroke: #5f5f5f; stroke-width: 0.8"/>
   </g>
   <g id="line2d_42">
    <path d="M 547.642888 124.714537 
L 547.642888 61.775812 
" clip-path="url(#p448754fb2b)" style="fill: none; stroke: #5f5f5f; stroke-width: 0.8"/>
   </g>
   <g id="line2d_43">
    <path d="M 539.011325 230.346911 
L 556.27445 230.346911 
" clip-path="url(#p448754fb2b)" style="fill: none; stroke: #5f5f5f; stroke-width: 0.8; stroke-linecap: round"/>
   </g>
   <g id="line2d_44">
    <path d="M 539.011325 61.775812 
L 556.27445 61.775812 
" clip-path="url(#p448754fb2b)" style="fill: none; stroke: #5f5f5f; stroke-width: 0.8; stroke-linecap: round"/>
   </g>
   <g id="line2d_45"/>
   <g id="line2d_46">
    <path d="M 90.954763 335.678504 
L 125.481013 335.678504 
" clip-path="url(#p448754fb2b)" style="fill: none; stroke: #5f5f5f; stroke-width: 0.8"/>
   </g>
   <g id="line2d_47">
    <path d="M 90.954763 320.527591 
L 125.481013 320.527591 
" clip-path="url(#p448754fb2b)" style="fill: none; stroke: #ff0000; stroke-opacity: 0.65; stroke-width: 1.6"/>
   </g>
   <g id="line2d_48">
    <path d="M 153.729763 314.021692 
L 188.256013 314.021692 
" clip-path="url(#p448754fb2b)" style="fill: none; stroke: #5f5f5f; stroke-width: 0.8"/>
   </g>
   <g id="line2d_49">
    <path d="M 153.729763 309.151925 
L 188.256013 309.151925 
" clip-path="url(#p448754fb2b)" style="fill: none; stroke: #ff0000; stroke-opacity: 0.65; stroke-width: 1.6"/>
   </g>
   <g id="line2d_50">
    <path d="M 216.504763 274.425071 
L 251.031013 274.425071 
" clip-path="url(#p448754fb2b)" style="fill: none; stroke: #5f5f5f; stroke-width: 0.8"/>
   </g>
   <g id="line2d_51">
    <path d="M 216.504763 277.330423 
L 251.031013 277.330423 
" clip-path="url(#p448754fb2b)" style="fill: none; stroke: #ff0000; stroke-opacity: 0.65; stroke-width: 1.6"/>
   </g>
   <g id="line2d_52">
    <path d="M 279.279763 289.305455 
L 313.806013 289.305455 
" clip-path="url(#p448754fb2b)" style="fill: none; stroke: #5f5f5f; stroke-width: 0.8"/>
   </g>
   <g id="line2d_53">
    <path d="M 279.279763 276.407199 
L 313.806013 276.407199 
" clip-path="url(#p448754fb2b)" style="fill: none; stroke: #ff0000; stroke-opacity: 0.65; stroke-width: 1.6"/>
   </g>
   <g id="line2d_54">
    <path d="M 342.054763 232.606842 
L 376.581013 232.606842 
" clip-path="url(#p448754fb2b)" style="fill: none; stroke: #5f5f5f; stroke-width: 0.8"/>
   </g>
   <g id="line2d_55">
    <path d="M 342.054763 229.474766 
L 376.581013 229.474766 
" clip-path="url(#p448754fb2b)" style="fill: none; stroke: #ff0000; stroke-opacity: 0.65; stroke-width: 1.6"/>
   </g>
   <g id="line2d_56">
    <path d="M 404.829763 195.985501 
L 439.356013 195.985501 
" clip-path="url(#p448754fb2b)" style="fill: none; stroke: #5f5f5f; stroke-width: 0.8"/>
   </g>
   <g id="line2d_57">
    <path d="M 404.829763 216.569363 
L 439.356013 216.569363 
" clip-path="url(#p448754fb2b)" style="fill: none; stroke: #ff0000; stroke-opacity: 0.65; stroke-width: 1.6"/>
   </g>
   <g id="line2d_58">
    <path d="M 467.604763 173.313354 
L 502.131013 173.313354 
" clip-path="url(#p448754fb2b)" style="fill: none; stroke: #5f5f5f; stroke-width: 0.8"/>
   </g>
   <g id="line2d_59">
    <path d="M 467.604763 186.433759 
L 502.131013 186.433759 
" clip-path="url(#p448754fb2b)" style="fill: none; stroke: #ff0000; stroke-opacity: 0.65; stroke-width: 1.6"/>
   </g>
   <g id="line2d_60">
    <path d="M 530.379763 185.59017 
L 564.906013 185.59017 
" clip-path="url(#p448754fb2b)" style="fill: none; stroke: #5f5f5f; stroke-width: 0.8"/>
   </g>
   <g id="line2d_61">
    <path d="M 530.379763 164.21969 
L 564.906013 164.21969 
" clip-path="url(#p448754fb2b)" style="fill: none; stroke: #ff0000; stroke-opacity: 0.65; stroke-width: 1.6"/>
   </g>
   <g id="patch_11">
    <path d="M 76.830388 379.295812 
L 76.830388 46.655812 
" style="fill: none; stroke: #cccccc; stroke-width: 1.25; stroke-linejoin: miter; stroke-linecap: square"/>
   </g>
   <g id="patch_12">
    <path d="M 579.030388 379.295812 
L 579.030388 46.655812 
" style="fill: none; stroke: #cccccc; stroke-width: 1.25; stroke-linejoin: miter; stroke-linecap: square"/>
   </g>
   <g id="patch_13">
    <path d="M 76.830388 379.295812 
L 579.030388 379.295812 
" style="fill: none; stroke: #cccccc; stroke-width: 1.25; stroke-linejoin: miter; stroke-linecap: square"/>
   </g>
   <g id="patch_14">
    <path d="M 76.830388 46.655812 
L 579.030388 46.655812 
" style="fill: none; stroke: #cccccc; stroke-width: 1.25; stroke-linejoin: miter; stroke-linecap: square"/>
   </g>
   <g id="PathCollection_1">
    <defs>
     <path id="md4e7293c68" d="M 0 2.5 
C 0.663008 2.5 1.29895 2.236584 1.767767 1.767767 
C 2.236584 1.29895 2.5 0.663008 2.5 0 
C 2.5 -0.663008 2.236584 -1.29895 1.767767 -1.767767 
C 1.29895 -2.236584 0.663008 -2.5 0 -2.5 
C -0.663008 -2.5 -1.29895 -2.236584 -1.767767 -1.767767 
C -2.236584 -1.29895 -2.5 -0.663008 -2.5 0 
C -2.5 0.663008 -2.236584 1.29895 -1.767767 1.767767 
C -1.29895 2.236584 -0.663008 2.5 0 2.5 
z
"/>
    </defs>
    <g clip-path="url(#p448754fb2b)">
     <use xlink:href="#md4e7293c68" x="113.672371" y="272.03707" style="fill-opacity: 0.75"/>
     <use xlink:href="#md4e7293c68" x="112.933645" y="351.851621" style="fill-opacity: 0.75"/>
     <use xlink:href="#md4e7293c68" x="110.942269" y="254.944" style="fill-opacity: 0.75"/>
     <use xlink:href="#md4e7293c68" x="107.290927" y="364.175812" style="fill-opacity: 0.75"/>
     <use xlink:href="#md4e7293c68" x="113.08294" y="335.678504" style="fill-opacity: 0.75"/>
     <use xlink:href="#md4e7293c68" x="107.947134" y="314.067625" style="fill-opacity: 0.75"/>
     <use xlink:href="#md4e7293c68" x="106.975856" y="350.938503" style="fill-opacity: 0.75"/>
    </g>
   </g>
   <g id="PathCollection_2">
    <g clip-path="url(#p448754fb2b)">
     <use xlink:href="#md4e7293c68" x="167.416441" y="264.676787" style="fill-opacity: 0.75"/>
     <use xlink:href="#md4e7293c68" x="173.779615" y="314.021692" style="fill-opacity: 0.75"/>
     <use xlink:href="#md4e7293c68" x="176.593461" y="267.311987" style="fill-opacity: 0.75"/>
     <use xlink:href="#md4e7293c68" x="172.686086" y="329.244502" style="fill-opacity: 0.75"/>
     <use xlink:href="#md4e7293c68" x="168.447642" y="354.142484" style="fill-opacity: 0.75"/>
     <use xlink:href="#md4e7293c68" x="171.693831" y="296.94347" style="fill-opacity: 0.75"/>
     <use xlink:href="#md4e7293c68" x="164.896504" y="337.722551" style="fill-opacity: 0.75"/>
    </g>
   </g>
   <g id="PathCollection_3">
    <g clip-path="url(#p448754fb2b)">
     <use xlink:href="#md4e7293c68" x="234.663099" y="261.029033" style="fill-opacity: 0.75"/>
     <use xlink:href="#md4e7293c68" x="231.763099" y="313.991294" style="fill-opacity: 0.75"/>
     <use xlink:href="#md4e7293c68" x="230.337599" y="259.199644" style="fill-opacity: 0.75"/>
     <use xlink:href="#md4e7293c68" x="236.063127" y="295.958711" style="fill-opacity: 0.75"/>
     <use xlink:href="#md4e7293c68" x="230.617963" y="300.408201" style="fill-opacity: 0.75"/>
     <use xlink:href="#md4e7293c68" x="228.424668" y="236.301005" style="fill-opacity: 0.75"/>
     <use xlink:href="#md4e7293c68" x="234.621609" y="274.425071" style="fill-opacity: 0.75"/>
    </g>
   </g>
   <g id="PathCollection_4">
    <g clip-path="url(#p448754fb2b)">
     <use xlink:href="#md4e7293c68" x="302.252725" y="313.768831" style="fill-opacity: 0.75"/>
     <use xlink:href="#md4e7293c68" x="291.674921" y="295.324039" style="fill-opacity: 0.75"/>
     <use xlink:href="#md4e7293c68" x="293.434058" y="304.847233" style="fill-opacity: 0.75"/>
     <use xlink:href="#md4e7293c68" x="296.070244" y="235.614791" style="fill-opacity: 0.75"/>
     <use xlink:href="#md4e7293c68" x="301.856523" y="267.919703" style="fill-opacity: 0.75"/>
     <use xlink:href="#md4e7293c68" x="300.182564" y="289.305455" style="fill-opacity: 0.75"/>
     <use xlink:href="#md4e7293c68" x="292.377726" y="228.070339" style="fill-opacity: 0.75"/>
    </g>
   </g>
   <g id="PathCollection_5">
    <g clip-path="url(#p448754fb2b)">
     <use xlink:href="#md4e7293c68" x="357.881193" y="289.606774" style="fill-opacity: 0.75"/>
     <use xlink:href="#md4e7293c68" x="360.233156" y="250.536338" style="fill-opacity: 0.75"/>
     <use xlink:href="#md4e7293c68" x="355.678008" y="286.310368" style="fill-opacity: 0.75"/>
     <use xlink:href="#md4e7293c68" x="354.021016" y="232.606842" style="fill-opacity: 0.75"/>
     <use xlink:href="#md4e7293c68" x="362.097747" y="211.01095" style="fill-opacity: 0.75"/>
     <use xlink:href="#md4e7293c68" x="359.806845" y="204.436151" style="fill-opacity: 0.75"/>
     <use xlink:href="#md4e7293c68" x="363.877357" y="131.815939" style="fill-opacity: 0.75"/>
    </g>
   </g>
   <g id="PathCollection_6">
    <g clip-path="url(#p448754fb2b)">
     <use xlink:href="#md4e7293c68" x="424.820156" y="168.207235" style="fill-opacity: 0.75"/>
     <use xlink:href="#md4e7293c68" x="425.411217" y="271.64296" style="fill-opacity: 0.75"/>
     <use xlink:href="#md4e7293c68" x="423.858018" y="195.985501" style="fill-opacity: 0.75"/>
     <use xlink:href="#md4e7293c68" x="419.700873" y="170.849893" style="fill-opacity: 0.75"/>
     <use xlink:href="#md4e7293c68" x="418.604014" y="287.018257" style="fill-opacity: 0.75"/>
     <use xlink:href="#md4e7293c68" x="419.098285" y="153.592004" style="fill-opacity: 0.75"/>
     <use xlink:href="#md4e7293c68" x="420.584487" y="268.689691" style="fill-opacity: 0.75"/>
    </g>
   </g>
   <g id="PathCollection_7">
    <g clip-path="url(#p448754fb2b)">
     <use xlink:href="#md4e7293c68" x="486.973911" y="262.032613" style="fill-opacity: 0.75"/>
     <use xlink:href="#md4e7293c68" x="481.292526" y="238.675812" style="fill-opacity: 0.75"/>
     <use xlink:href="#md4e7293c68" x="479.826824" y="172.044584" style="fill-opacity: 0.75"/>
     <use xlink:href="#md4e7293c68" x="478.884619" y="136.619665" style="fill-opacity: 0.75"/>
     <use xlink:href="#md4e7293c68" x="482.129094" y="66.082693" style="fill-opacity: 0.75"/>
     <use xlink:href="#md4e7293c68" x="490.114274" y="256.267588" style="fill-opacity: 0.75"/>
     <use xlink:href="#md4e7293c68" x="488.475058" y="173.313354" style="fill-opacity: 0.75"/>
    </g>
   </g>
   <g id="PathCollection_8">
    <g clip-path="url(#p448754fb2b)">
     <use xlink:href="#md4e7293c68" x="548.486996" y="185.59017" style="fill-opacity: 0.75"/>
     <use xlink:href="#md4e7293c68" x="542.212317" y="193.86845" style="fill-opacity: 0.75"/>
     <use xlink:href="#md4e7293c68" x="551.96052" y="135.921891" style="fill-opacity: 0.75"/>
     <use xlink:href="#md4e7293c68" x="547.874118" y="113.507183" style="fill-opacity: 0.75"/>
     <use xlink:href="#md4e7293c68" x="545.995148" y="61.775812" style="fill-opacity: 0.75"/>
     <use xlink:href="#md4e7293c68" x="550.27906" y="230.346911" style="fill-opacity: 0.75"/>
     <use xlink:href="#md4e7293c68" x="542.42547" y="228.527411" style="fill-opacity: 0.75"/>
    </g>
   </g>
   <g id="text_15">
    <!-- Nested LOWO per-well RMSE_log: -->
    <g style="fill: #262626" transform="translate(230.992029 15.558281) scale(0.11 -0.11)">
     <defs>
      <path id="DejaVuSerif-4e" d="M 313 0 
L 313 331 
L 941 331 
L 941 4331 
L 313 4331 
L 313 4666 
L 1509 4666 
L 4306 984 
L 4306 4331 
L 3681 4331 
L 3681 4666 
L 5319 4666 
L 5319 4331 
L 4691 4331 
L 4691 -91 
L 4313 -91 
L 1325 3841 
L 1325 331 
L 1953 331 
L 1953 0 
L 313 0 
z
" transform="scale(0.015625)"/>
      <path id="DejaVuSerif-57" d="M 4878 0 
L 4366 0 
L 3297 3794 
L 2228 0 
L 1716 0 
L 494 4331 
L 31 4331 
L 31 4666 
L 1734 4666 
L 1734 4331 
L 1153 4331 
L 2125 884 
L 3188 4666 
L 3694 4666 
L 4775 844 
L 5753 4331 
L 5216 4331 
L 5216 4666 
L 6559 4666 
L 6559 4331 
L 6100 4331 
L 4878 0 
z
" transform="scale(0.015625)"/>
      <path id="DejaVuSerif-3a" d="M 666 325 
Q 666 500 786 622 
Q 906 744 1081 744 
Q 1256 744 1376 622 
Q 1497 500 1497 325 
Q 1497 150 1378 29 
Q 1259 -91 1081 -91 
Q 903 -91 784 29 
Q 666 150 666 325 
z
M 666 2363 
Q 666 2538 786 2658 
Q 906 2778 1081 2778 
Q 1259 2778 1378 2659 
Q 1497 2541 1497 2363 
Q 1497 2184 1378 2065 
Q 1259 1947 1081 1947 
Q 906 1947 786 2067 
Q 666 2188 666 2363 
z
" transform="scale(0.015625)"/>
     </defs>
     <use xlink:href="#DejaVuSerif-4e"/>
     <use xlink:href="#DejaVuSerif-65" transform="translate(87.5 0)"/>
     <use xlink:href="#DejaVuSerif-73" transform="translate(146.679688 0)"/>
     <use xlink:href="#DejaVuSerif-74" transform="translate(197.998047 0)"/>
     <use xlink:href="#DejaVuSerif-65" transform="translate(238.183594 0)"/>
     <use xlink:href="#DejaVuSerif-64" transform="translate(297.363281 0)"/>
     <use xlink:href="#DejaVuSerif-20" transform="translate(361.376953 0)"/>
     <use xlink:href="#DejaVuSerif-4c" transform="translate(393.164062 0)"/>
     <use xlink:href="#DejaVuSerif-4f" transform="translate(459.570312 0)"/>
     <use xlink:href="#DejaVuSerif-57" transform="translate(541.552734 0)"/>
     <use xlink:href="#DejaVuSerif-4f" transform="translate(644.335938 0)"/>
     <use xlink:href="#DejaVuSerif-20" transform="translate(726.318359 0)"/>
     <use xlink:href="#DejaVuSerif-70" transform="translate(758.105469 0)"/>
     <use xlink:href="#DejaVuSerif-65" transform="translate(822.119141 0)"/>
     <use xlink:href="#DejaVuSerif-72" transform="translate(881.298828 0)"/>
     <use xlink:href="#DejaVuSerif-2d" transform="translate(929.101562 0)"/>
     <use xlink:href="#DejaVuSerif-77" transform="translate(962.890625 0)"/>
     <use xlink:href="#DejaVuSerif-65" transform="translate(1048.486328 0)"/>
     <use xlink:href="#DejaVuSerif-6c" transform="translate(1107.666016 0)"/>
     <use xlink:href="#DejaVuSerif-6c" transform="translate(1139.648438 0)"/>
     <use xlink:href="#DejaVuSerif-20" transform="translate(1171.630859 0)"/>
     <use xlink:href="#DejaVuSerif-52" transform="translate(1203.417969 0)"/>
     <use xlink:href="#DejaVuSerif-4d" transform="translate(1278.710938 0)"/>
     <use xlink:href="#DejaVuSerif-53" transform="translate(1381.103516 0)"/>
     <use xlink:href="#DejaVuSerif-45" transform="translate(1449.609375 0)"/>
     <use xlink:href="#DejaVuSerif-5f" transform="translate(1522.607422 0)"/>
     <use xlink:href="#DejaVuSerif-6c" transform="translate(1572.607422 0)"/>
     <use xlink:href="#DejaVuSerif-6f" transform="translate(1604.589844 0)"/>
     <use xlink:href="#DejaVuSerif-67" transform="translate(1664.794922 0)"/>
     <use xlink:href="#DejaVuSerif-3a" transform="translate(1728.808594 0)"/>
    </g>
    <!-- subsets vs petrophysical baselines -->
    <g style="fill: #262626" transform="translate(231.948513 28.181812) scale(0.11 -0.11)">
     <defs>
      <path id="DejaVuSerif-62" d="M 738 331 
L 738 4531 
L 184 4531 
L 184 4863 
L 1313 4863 
L 1313 2803 
Q 1481 3116 1742 3264 
Q 2003 3413 2388 3413 
Q 3000 3413 3387 2928 
Q 3775 2444 3775 1663 
Q 3775 881 3387 395 
Q 3000 -91 2388 -91 
Q 2003 -91 1742 57 
Q 1481 206 1313 519 
L 1313 0 
L 184 0 
L 184 331 
L 738 331 
z
M 1313 1497 
Q 1313 897 1542 583 
Q 1772 269 2209 269 
Q 2650 269 2876 622 
Q 3103 975 3103 1663 
Q 3103 2353 2876 2703 
Q 2650 3053 2209 3053 
Q 1772 3053 1542 2737 
Q 1313 2422 1313 1825 
L 1313 1497 
z
" transform="scale(0.015625)"/>
      <path id="DejaVuSerif-76" d="M 1581 0 
L 359 2988 
L -19 2988 
L -19 3322 
L 1509 3322 
L 1509 2988 
L 978 2988 
L 1913 703 
L 2847 2988 
L 2350 2988 
L 2350 3322 
L 3597 3322 
L 3597 2988 
L 3225 2988 
L 2003 0 
L 1581 0 
z
" transform="scale(0.015625)"/>
      <path id="DejaVuSerif-68" d="M 263 0 
L 263 331 
L 781 331 
L 781 4531 
L 231 4531 
L 231 4863 
L 1356 4863 
L 1356 2731 
Q 1516 3069 1770 3241 
Q 2025 3413 2363 3413 
Q 2913 3413 3172 3097 
Q 3431 2781 3431 2113 
L 3431 331 
L 3944 331 
L 3944 0 
L 2356 0 
L 2356 331 
L 2853 331 
L 2853 1931 
Q 2853 2541 2704 2764 
Q 2556 2988 2175 2988 
Q 1775 2988 1565 2697 
Q 1356 2406 1356 1850 
L 1356 331 
L 1856 331 
L 1856 0 
L 263 0 
z
" transform="scale(0.015625)"/>
      <path id="DejaVuSerif-63" d="M 3291 997 
Q 3169 466 2822 187 
Q 2475 -91 1925 -91 
Q 1200 -91 759 389 
Q 319 869 319 1663 
Q 319 2459 759 2936 
Q 1200 3413 1925 3413 
Q 2241 3413 2553 3339 
Q 2866 3266 3181 3116 
L 3181 2266 
L 2847 2266 
Q 2781 2703 2561 2903 
Q 2341 3103 1931 3103 
Q 1466 3103 1228 2742 
Q 991 2381 991 1663 
Q 991 944 1227 581 
Q 1463 219 1931 219 
Q 2303 219 2525 412 
Q 2747 606 2828 997 
L 3291 997 
z
" transform="scale(0.015625)"/>
     </defs>
     <use xlink:href="#DejaVuSerif-73"/>
     <use xlink:href="#DejaVuSerif-75" transform="translate(51.318359 0)"/>
     <use xlink:href="#DejaVuSerif-62" transform="translate(115.722656 0)"/>
     <use xlink:href="#DejaVuSerif-73" transform="translate(179.736328 0)"/>
     <use xlink:href="#DejaVuSerif-65" transform="translate(231.054688 0)"/>
     <use xlink:href="#DejaVuSerif-74" transform="translate(290.234375 0)"/>
     <use xlink:href="#DejaVuSerif-73" transform="translate(330.419922 0)"/>
     <use xlink:href="#DejaVuSerif-20" transform="translate(381.738281 0)"/>
     <use xlink:href="#DejaVuSerif-76" transform="translate(413.525391 0)"/>
     <use xlink:href="#DejaVuSerif-73" transform="translate(470.019531 0)"/>
     <use xlink:href="#DejaVuSerif-20" transform="translate(521.337891 0)"/>
     <use xlink:href="#DejaVuSerif-70" transform="translate(553.125 0)"/>
     <use xlink:href="#DejaVuSerif-65" transform="translate(617.138672 0)"/>
     <use xlink:href="#DejaVuSerif-74" transform="translate(676.318359 0)"/>
     <use xlink:href="#DejaVuSerif-72" transform="translate(716.503906 0)"/>
     <use xlink:href="#DejaVuSerif-6f" transform="translate(764.306641 0)"/>
     <use xlink:href="#DejaVuSerif-70" transform="translate(824.511719 0)"/>
     <use xlink:href="#DejaVuSerif-68" transform="translate(888.525391 0)"/>
     <use xlink:href="#DejaVuSerif-79" transform="translate(952.929688 0)"/>
     <use xlink:href="#DejaVuSerif-73" transform="translate(1009.423828 0)"/>
     <use xlink:href="#DejaVuSerif-69" transform="translate(1060.742188 0)"/>
     <use xlink:href="#DejaVuSerif-63" transform="translate(1092.724609 0)"/>
     <use xlink:href="#DejaVuSerif-61" transform="translate(1148.730469 0)"/>
     <use xlink:href="#DejaVuSerif-6c" transform="translate(1208.349609 0)"/>
     <use xlink:href="#DejaVuSerif-20" transform="translate(1240.332031 0)"/>
     <use xlink:href="#DejaVuSerif-62" transform="translate(1272.119141 0)"/>
     <use xlink:href="#DejaVuSerif-61" transform="translate(1336.132812 0)"/>
     <use xlink:href="#DejaVuSerif-73" transform="translate(1395.751953 0)"/>
     <use xlink:href="#DejaVuSerif-65" transform="translate(1447.070312 0)"/>
     <use xlink:href="#DejaVuSerif-6c" transform="translate(1506.25 0)"/>
     <use xlink:href="#DejaVuSerif-69" transform="translate(1538.232422 0)"/>
     <use xlink:href="#DejaVuSerif-6e" transform="translate(1570.214844 0)"/>
     <use xlink:href="#DejaVuSerif-65" transform="translate(1634.619141 0)"/>
     <use xlink:href="#DejaVuSerif-73" transform="translate(1693.798828 0)"/>
    </g>
    <!-- Sorted by mean, best at left; red line = mean -->
    <g style="fill: #262626" transform="translate(201.801638 40.655812) scale(0.11 -0.11)">
     <defs>
      <path id="DejaVuSerif-2c" d="M 231 -622 
Q 525 -406 662 -114 
Q 800 178 800 594 
L 800 709 
L 1416 709 
Q 1391 175 1164 -208 
Q 938 -591 481 -872 
L 231 -622 
z
" transform="scale(0.015625)"/>
      <path id="DejaVuSerif-3b" d="M 231 -622 
Q 525 -406 662 -114 
Q 800 178 800 594 
L 800 709 
L 1416 709 
Q 1391 175 1164 -208 
Q 938 -591 481 -872 
L 231 -622 
z
M 678 2363 
Q 678 2538 798 2658 
Q 919 2778 1094 2778 
Q 1269 2778 1389 2656 
Q 1509 2534 1509 2363 
Q 1509 2188 1389 2067 
Q 1269 1947 1094 1947 
Q 919 1947 798 2067 
Q 678 2188 678 2363 
z
" transform="scale(0.015625)"/>
      <path id="DejaVuSerif-3d" d="M 678 2894 
L 4684 2894 
L 4684 2394 
L 678 2394 
L 678 2894 
z
M 678 1619 
L 4684 1619 
L 4684 1119 
L 678 1119 
L 678 1619 
z
" transform="scale(0.015625)"/>
     </defs>
     <use xlink:href="#DejaVuSerif-53"/>
     <use xlink:href="#DejaVuSerif-6f" transform="translate(68.505859 0)"/>
     <use xlink:href="#DejaVuSerif-72" transform="translate(128.710938 0)"/>
     <use xlink:href="#DejaVuSerif-74" transform="translate(176.513672 0)"/>
     <use xlink:href="#DejaVuSerif-65" transform="translate(216.699219 0)"/>
     <use xlink:href="#DejaVuSerif-64" transform="translate(275.878906 0)"/>
     <use xlink:href="#DejaVuSerif-20" transform="translate(339.892578 0)"/>
     <use xlink:href="#DejaVuSerif-62" transform="translate(371.679688 0)"/>
     <use xlink:href="#DejaVuSerif-79" transform="translate(435.693359 0)"/>
     <use xlink:href="#DejaVuSerif-20" transform="translate(492.1875 0)"/>
     <use xlink:href="#DejaVuSerif-6d" transform="translate(523.974609 0)"/>
     <use xlink:href="#DejaVuSerif-65" transform="translate(618.798828 0)"/>
     <use xlink:href="#DejaVuSerif-61" transform="translate(677.978516 0)"/>
     <use xlink:href="#DejaVuSerif-6e" transform="translate(737.597656 0)"/>
     <use xlink:href="#DejaVuSerif-2c" transform="translate(802.001953 0)"/>
     <use xlink:href="#DejaVuSerif-20" transform="translate(833.789062 0)"/>
     <use xlink:href="#DejaVuSerif-62" transform="translate(865.576172 0)"/>
     <use xlink:href="#DejaVuSerif-65" transform="translate(929.589844 0)"/>
     <use xlink:href="#DejaVuSerif-73" transform="translate(988.769531 0)"/>
     <use xlink:href="#DejaVuSerif-74" transform="translate(1040.087891 0)"/>
     <use xlink:href="#DejaVuSerif-20" transform="translate(1080.273438 0)"/>
     <use xlink:href="#DejaVuSerif-61" transform="translate(1112.060547 0)"/>
     <use xlink:href="#DejaVuSerif-74" transform="translate(1171.679688 0)"/>
     <use xlink:href="#DejaVuSerif-20" transform="translate(1211.865234 0)"/>
     <use xlink:href="#DejaVuSerif-6c" transform="translate(1243.652344 0)"/>
     <use xlink:href="#DejaVuSerif-65" transform="translate(1275.634766 0)"/>
     <use xlink:href="#DejaVuSerif-66" transform="translate(1334.814453 0)"/>
     <use xlink:href="#DejaVuSerif-74" transform="translate(1371.826172 0)"/>
     <use xlink:href="#DejaVuSerif-3b" transform="translate(1412.011719 0)"/>
     <use xlink:href="#DejaVuSerif-20" transform="translate(1445.703125 0)"/>
     <use xlink:href="#DejaVuSerif-72" transform="translate(1477.490234 0)"/>
     <use xlink:href="#DejaVuSerif-65" transform="translate(1525.292969 0)"/>
     <use xlink:href="#DejaVuSerif-64" transform="translate(1584.472656 0)"/>
     <use xlink:href="#DejaVuSerif-20" transform="translate(1648.486328 0)"/>
     <use xlink:href="#DejaVuSerif-6c" transform="translate(1680.273438 0)"/>
     <use xlink:href="#DejaVuSerif-69" transform="translate(1712.255859 0)"/>
     <use xlink:href="#DejaVuSerif-6e" transform="translate(1744.238281 0)"/>
     <use xlink:href="#DejaVuSerif-65" transform="translate(1808.642578 0)"/>
     <use xlink:href="#DejaVuSerif-20" transform="translate(1867.822266 0)"/>
     <use xlink:href="#DejaVuSerif-3d" transform="translate(1899.609375 0)"/>
     <use xlink:href="#DejaVuSerif-20" transform="translate(1983.398438 0)"/>
     <use xlink:href="#DejaVuSerif-6d" transform="translate(2015.185547 0)"/>
     <use xlink:href="#DejaVuSerif-65" transform="translate(2110.009766 0)"/>
     <use xlink:href="#DejaVuSerif-61" transform="translate(2169.189453 0)"/>
     <use xlink:href="#DejaVuSerif-6e" transform="translate(2228.808594 0)"/>
    </g>
   </g>
  </g>
 </g>
 <defs>
  <clipPath id="p448754fb2b">
   <rect x="76.830388" y="46.655812" width="502.2" height="332.64"/>
  </clipPath>
 </defs>
 <defs>
  <pattern id="h3728ac767b" patternUnits="userSpaceOnUse" x="0" y="0" width="72" height="72">
   <rect x="0" y="0" width="73" height="73" fill="#9e9e9e"/>
   <path d="M -36 36 
L 36 -36 
M -30 42 
L 42 -30 
M -24 48 
L 48 -24 
M -18 54 
L 54 -18 
M -12 60 
L 60 -12 
M -6 66 
L 66 -6 
M 0 72 
L 72 0 
M 6 78 
L 78 6 
M 12 84 
L 84 12 
M 18 90 
L 90 18 
M 24 96 
L 96 24 
M 30 102 
L 102 30 
M 36 108 
L 108 36 
" style="fill: #5f5f5f; stroke: #5f5f5f; stroke-width: 1.0; stroke-linecap: butt; stroke-linejoin: miter"/>
  </pattern>
 </defs>
</svg>
