<?xml version="1.0" encoding="utf-8" standalone="no"?>
<!DOCTYPE svg PUBLIC "-//W3C//DTD SVG 1.1//EN"
  "http://www.w3.org/Graphics/SVG/1.1/DTD/svg11.dtd">
<svg xmlns:xlink="http://www.w3.org/1999/xlink" width="522.240211pt" height="426.708577pt" viewBox="0 0 522.240211 426.708577" xmlns="http://www.w3.org/2000/svg" version="1.1">
 <metadata>
  <rdf:RDF xmlns:dc="http://purl.org/dc/elements/1.1/" xmlns:cc="http://creativecommons.org/ns#" xmlns:rdf="http://www.w3.org/1999/02/22-rdf-syntax-ns#">
   <cc:Work>
    <dc:type rdf:resource="http://purl.org/dc/dcmitype/StillImage"/>
    <dc:date>2026-06-08T13:54:12.269810</dc:date>
    <dc:format>image/svg+xml</dc:format>
    <dc:creator>
     <cc:Agent>
      <dc:title>Matplotlib v3.10.8, https://matplotlib.org/</dc:title>
     </cc:Agent>
    </dc:creator>
   </cc:Work>
  </rdf:RDF>
 </metadata>
 <defs>
  <style type="text/css">*{stroke-linejoin: round; stroke-linecap: butt}</style>
 </defs>
 <g id="figure_1">
  <g id="patch_1">
   <path d="M 0 426.708577 
L 522.240211 426.708577 
L 522.240211 0 
L 0 0 
z
" style="fill: #ffffff"/>
  </g>
  <g id="axes_1">
   <g id="patch_2">
    <path d="M 68.640211 369.523275 
L 515.040211 369.523275 
L 515.040211 36.883275 
L 68.640211 36.883275 
z
" style="fill: #ffffff"/>
   </g>
   <g id="matplotlib.axis_1">
    <g id="xtick_1">
     <g id="text_1">
      <!-- Drop source -->
      <g style="fill: #262626" transform="translate(88.46918 387.79947) scale(0.1155 -0.1155)">
       <defs>
        <path id="DejaVuSerif-44" d="M 1581 331 
L 2163 331 
Q 3072 331 3558 850 
Q 4044 1369 4044 2338 
Q 4044 3306 3559 3818 
Q 3075 4331 2163 4331 
L 1581 4331 
L 1581 331 
z
M 353 0 
L 353 331 
L 947 331 
L 947 4331 
L 353 4331 
L 353 4666 
L 2209 4666 
Q 3416 4666 4089 4050 
Q 4763 3434 4763 2338 
Q 4763 1238 4088 619 
Q 3413 0 2209 0 
L 353 0 
z
" transform="scale(0.015625)"/>
        <path id="DejaVuSerif-72" d="M 3059 3328 
L 3059 2497 
L 2728 2497 
Q 2713 2744 2591 2866 
Q 2469 2988 2234 2988 
Q 1809 2988 1582 2694 
Q 1356 2400 1356 1850 
L 1356 331 
L 2022 331 
L 2022 0 
L 263 0 
L 263 331 
L 781 331 
L 781 2994 
L 231 2994 
L 231 3322 
L 1356 3322 
L 1356 2731 
Q 1525 3078 1790 3245 
Q 2056 3413 2438 3413 
Q 2578 3413 2733 3391 
Q 2888 3369 3059 3328 
z
" transform="scale(0.015625)"/>
        <path id="DejaVuSerif-6f" d="M 1925 219 
Q 2388 219 2623 584 
Q 2859 950 2859 1663 
Q 2859 2375 2623 2739 
Q 2388 3103 1925 3103 
Q 1463 3103 1227 2739 
Q 991 2375 991 1663 
Q 991 950 1228 584 
Q 1466 219 1925 219 
z
M 1925 -91 
Q 1200 -91 759 389 
Q 319 869 319 1663 
Q 319 2456 758 2934 
Q 1197 3413 1925 3413 
Q 2653 3413 3092 2934 
Q 3531 2456 3531 1663 
Q 3531 869 3092 389 
Q 2653 -91 1925 -91 
z
" transform="scale(0.015625)"/>
        <path id="DejaVuSerif-70" d="M 1313 1825 
L 1313 1497 
Q 1313 897 1542 583 
Q 1772 269 2209 269 
Q 2650 269 2876 622 
Q 3103 975 3103 1663 
Q 3103 2353 2876 2703 
Q 2650 3053 2209 3053 
Q 1772 3053 1542 2737 
Q 1313 2422 1313 1825 
z
M 738 2988 
L 184 2988 
L 184 3322 
L 1313 3322 
L 1313 2803 
Q 1481 3116 1742 3264 
Q 2003 3413 2388 3413 
Q 3000 3413 3387 2928 
Q 3775 2444 3775 1663 
Q 3775 881 3387 395 
Q 3000 -91 2388 -91 
Q 2003 -91 1742 57 
Q 1481 206 1313 519 
L 1313 -997 
L 1856 -997 
L 1856 -1331 
L 184 -1331 
L 184 -997 
L 738 -997 
L 738 2988 
z
" transform="scale(0.015625)"/>
        <path id="DejaVuSerif-20" transform="scale(0.015625)"/>
        <path id="DejaVuSerif-73" d="M 359 184 
L 359 959 
L 691 959 
Q 703 588 923 403 
Q 1144 219 1575 219 
Q 1963 219 2166 364 
Q 2369 509 2369 788 
Q 2369 1006 2220 1140 
Q 2072 1275 1594 1428 
L 1178 1569 
Q 750 1706 558 1912 
Q 366 2119 366 2438 
Q 366 2894 700 3153 
Q 1034 3413 1625 3413 
Q 1888 3413 2178 3344 
Q 2469 3275 2778 3144 
L 2778 2419 
L 2447 2419 
Q 2434 2741 2221 2922 
Q 2009 3103 1644 3103 
Q 1281 3103 1095 2975 
Q 909 2847 909 2591 
Q 909 2381 1050 2254 
Q 1191 2128 1613 1997 
L 2069 1856 
Q 2541 1709 2748 1489 
Q 2956 1269 2956 922 
Q 2956 450 2595 179 
Q 2234 -91 1600 -91 
Q 1278 -91 972 -22 
Q 666 47 359 184 
z
" transform="scale(0.015625)"/>
        <path id="DejaVuSerif-75" d="M 2266 3322 
L 3341 3322 
L 3341 331 
L 3884 331 
L 3884 0 
L 2766 0 
L 2766 588 
Q 2606 256 2353 82 
Q 2100 -91 1766 -91 
Q 1213 -91 952 223 
Q 691 538 691 1209 
L 691 2988 
L 172 2988 
L 172 3322 
L 1269 3322 
L 1269 1388 
Q 1269 781 1417 556 
Q 1566 331 1947 331 
Q 2347 331 2556 625 
Q 2766 919 2766 1478 
L 2766 2988 
L 2266 2988 
L 2266 3322 
z
" transform="scale(0.015625)"/>
        <path id="DejaVuSerif-63" d="M 3291 997 
Q 3169 466 2822 187 
Q 2475 -91 1925 -91 
Q 1200 -91 759 389 
Q 319 869 319 1663 
Q 319 2459 759 2936 
Q 1200 3413 1925 3413 
Q 2241 3413 2553 3339 
Q 2866 3266 3181 3116 
L 3181 2266 
L 2847 2266 
Q 2781 2703 2561 2903 
Q 2341 3103 1931 3103 
Q 1466 3103 1228 2742 
Q 991 2381 991 1663 
Q 991 944 1227 581 
Q 1463 219 1931 219 
Q 2303 219 2525 412 
Q 2747 606 2828 997 
L 3291 997 
z
" transform="scale(0.015625)"/>
        <path id="DejaVuSerif-65" d="M 3469 1600 
L 991 1600 
L 991 1575 
Q 991 903 1244 561 
Q 1497 219 1991 219 
Q 2369 219 2611 417 
Q 2853 616 2950 1006 
L 3413 1006 
Q 3275 459 2904 184 
Q 2534 -91 1931 -91 
Q 1203 -91 761 389 
Q 319 869 319 1663 
Q 319 2450 753 2931 
Q 1188 3413 1894 3413 
Q 2647 3413 3050 2948 
Q 3453 2484 3469 1600 
z
M 2791 1931 
Q 2772 2513 2545 2808 
Q 2319 3103 1894 3103 
Q 1497 3103 1269 2806 
Q 1041 2509 991 1931 
L 2791 1931 
z
" transform="scale(0.015625)"/>
       </defs>
       <use xlink:href="#DejaVuSerif-44"/>
       <use xlink:href="#DejaVuSerif-72" transform="translate(80.175781 0)"/>
       <use xlink:href="#DejaVuSerif-6f" transform="translate(127.978516 0)"/>
       <use xlink:href="#DejaVuSerif-70" transform="translate(188.183594 0)"/>
       <use xlink:href="#DejaVuSerif-20" transform="translate(252.197266 0)"/>
       <use xlink:href="#DejaVuSerif-73" transform="translate(283.984375 0)"/>
       <use xlink:href="#DejaVuSerif-6f" transform="translate(335.302734 0)"/>
       <use xlink:href="#DejaVuSerif-75" transform="translate(395.507812 0)"/>
       <use xlink:href="#DejaVuSerif-72" transform="translate(459.912109 0)"/>
       <use xlink:href="#DejaVuSerif-63" transform="translate(507.714844 0)"/>
       <use xlink:href="#DejaVuSerif-65" transform="translate(563.720703 0)"/>
      </g>
     </g>
    </g>
    <g id="xtick_2">
     <g id="text_2">
      <!-- Drop zone -->
      <g style="fill: #262626" transform="translate(205.984043 387.79947) scale(0.1155 -0.1155)">
       <defs>
        <path id="DejaVuSerif-7a" d="M 256 0 
L 256 269 
L 2338 2988 
L 691 2988 
L 691 2413 
L 359 2413 
L 359 3322 
L 3078 3322 
L 3078 3053 
L 997 331 
L 2803 331 
L 2803 934 
L 3138 934 
L 3138 0 
L 256 0 
z
" transform="scale(0.015625)"/>
        <path id="DejaVuSerif-6e" d="M 263 0 
L 263 331 
L 781 331 
L 781 2988 
L 231 2988 
L 231 3322 
L 1356 3322 
L 1356 2731 
Q 1516 3069 1770 3241 
Q 2025 3413 2363 3413 
Q 2913 3413 3172 3097 
Q 3431 2781 3431 2113 
L 3431 331 
L 3944 331 
L 3944 0 
L 2356 0 
L 2356 331 
L 2853 331 
L 2853 1931 
Q 2853 2541 2703 2767 
Q 2553 2994 2175 2994 
Q 1775 2994 1565 2701 
Q 1356 2409 1356 1850 
L 1356 331 
L 1856 331 
L 1856 0 
L 263 0 
z
" transform="scale(0.015625)"/>
       </defs>
       <use xlink:href="#DejaVuSerif-44"/>
       <use xlink:href="#DejaVuSerif-72" transform="translate(80.175781 0)"/>
       <use xlink:href="#DejaVuSerif-6f" transform="translate(127.978516 0)"/>
       <use xlink:href="#DejaVuSerif-70" transform="translate(188.183594 0)"/>
       <use xlink:href="#DejaVuSerif-20" transform="translate(252.197266 0)"/>
       <use xlink:href="#DejaVuSerif-7a" transform="translate(283.984375 0)"/>
       <use xlink:href="#DejaVuSerif-6f" transform="translate(336.669922 0)"/>
       <use xlink:href="#DejaVuSerif-6e" transform="translate(396.875 0)"/>
       <use xlink:href="#DejaVuSerif-65" transform="translate(461.279297 0)"/>
      </g>
     </g>
    </g>
    <g id="xtick_3">
     <g id="text_3">
      <!-- Drop depth -->
      <g style="fill: #262626" transform="translate(314.388844 387.79947) scale(0.1155 -0.1155)">
       <defs>
        <path id="DejaVuSerif-64" d="M 3359 331 
L 3909 331 
L 3909 0 
L 2784 0 
L 2784 519 
Q 2616 206 2355 57 
Q 2094 -91 1709 -91 
Q 1097 -91 708 395 
Q 319 881 319 1663 
Q 319 2444 706 2928 
Q 1094 3413 1709 3413 
Q 2094 3413 2355 3264 
Q 2616 3116 2784 2803 
L 2784 4531 
L 2241 4531 
L 2241 4863 
L 3359 4863 
L 3359 331 
z
M 2784 1497 
L 2784 1825 
Q 2784 2422 2554 2737 
Q 2325 3053 1888 3053 
Q 1444 3053 1217 2703 
Q 991 2353 991 1663 
Q 991 975 1217 622 
Q 1444 269 1888 269 
Q 2325 269 2554 583 
Q 2784 897 2784 1497 
z
" transform="scale(0.015625)"/>
        <path id="DejaVuSerif-74" d="M 691 2988 
L 184 2988 
L 184 3322 
L 691 3322 
L 691 4353 
L 1269 4353 
L 1269 3322 
L 2350 3322 
L 2350 2988 
L 1269 2988 
L 1269 878 
Q 1269 456 1350 337 
Q 1431 219 1650 219 
Q 1875 219 1978 351 
Q 2081 484 2088 781 
L 2522 781 
Q 2497 328 2275 118 
Q 2053 -91 1600 -91 
Q 1103 -91 897 129 
Q 691 350 691 878 
L 691 2988 
z
" transform="scale(0.015625)"/>
        <path id="DejaVuSerif-68" d="M 263 0 
L 263 331 
L 781 331 
L 781 4531 
L 231 4531 
L 231 4863 
L 1356 4863 
L 1356 2731 
Q 1516 3069 1770 3241 
Q 2025 3413 2363 3413 
Q 2913 3413 3172 3097 
Q 3431 2781 3431 2113 
L 3431 331 
L 3944 331 
L 3944 0 
L 2356 0 
L 2356 331 
L 2853 331 
L 2853 1931 
Q 2853 2541 2704 2764 
Q 2556 2988 2175 2988 
Q 1775 2988 1565 2697 
Q 1356 2406 1356 1850 
L 1356 331 
L 1856 331 
L 1856 0 
L 263 0 
z
" transform="scale(0.015625)"/>
       </defs>
       <use xlink:href="#DejaVuSerif-44"/>
       <use xlink:href="#DejaVuSerif-72" transform="translate(80.175781 0)"/>
       <use xlink:href="#DejaVuSerif-6f" transform="translate(127.978516 0)"/>
       <use xlink:href="#DejaVuSerif-70" transform="translate(188.183594 0)"/>
       <use xlink:href="#DejaVuSerif-20" transform="translate(252.197266 0)"/>
       <use xlink:href="#DejaVuSerif-64" transform="translate(283.984375 0)"/>
       <use xlink:href="#DejaVuSerif-65" transform="translate(347.998047 0)"/>
       <use xlink:href="#DejaVuSerif-70" transform="translate(407.177734 0)"/>
       <use xlink:href="#DejaVuSerif-74" transform="translate(471.191406 0)"/>
       <use xlink:href="#DejaVuSerif-68" transform="translate(511.376953 0)"/>
      </g>
     </g>
    </g>
    <g id="xtick_4">
     <g id="text_4">
      <!-- Drop source, -->
      <g style="fill: #262626" transform="translate(421.433812 387.79947) scale(0.1155 -0.1155)">
       <defs>
        <path id="DejaVuSerif-2c" d="M 231 -622 
Q 525 -406 662 -114 
Q 800 178 800 594 
L 800 709 
L 1416 709 
Q 1391 175 1164 -208 
Q 938 -591 481 -872 
L 231 -622 
z
" transform="scale(0.015625)"/>
       </defs>
       <use xlink:href="#DejaVuSerif-44"/>
       <use xlink:href="#DejaVuSerif-72" transform="translate(80.175781 0)"/>
       <use xlink:href="#DejaVuSerif-6f" transform="translate(127.978516 0)"/>
       <use xlink:href="#DejaVuSerif-70" transform="translate(188.183594 0)"/>
       <use xlink:href="#DejaVuSerif-20" transform="translate(252.197266 0)"/>
       <use xlink:href="#DejaVuSerif-73" transform="translate(283.984375 0)"/>
       <use xlink:href="#DejaVuSerif-6f" transform="translate(335.302734 0)"/>
       <use xlink:href="#DejaVuSerif-75" transform="translate(395.507812 0)"/>
       <use xlink:href="#DejaVuSerif-72" transform="translate(459.912109 0)"/>
       <use xlink:href="#DejaVuSerif-63" transform="translate(507.714844 0)"/>
       <use xlink:href="#DejaVuSerif-65" transform="translate(563.720703 0)"/>
       <use xlink:href="#DejaVuSerif-2c" transform="translate(622.900391 0)"/>
      </g>
      <!-- zone, and depth -->
      <g style="fill: #262626" transform="translate(412.365258 400.732944) scale(0.1155 -0.1155)">
       <defs>
        <path id="DejaVuSerif-61" d="M 2547 1044 
L 2547 1747 
L 1806 1747 
Q 1378 1747 1168 1562 
Q 959 1378 959 997 
Q 959 650 1171 447 
Q 1384 244 1747 244 
Q 2106 244 2326 466 
Q 2547 688 2547 1044 
z
M 3122 2075 
L 3122 331 
L 3634 331 
L 3634 0 
L 2547 0 
L 2547 359 
Q 2356 128 2106 18 
Q 1856 -91 1522 -91 
Q 969 -91 644 203 
Q 319 497 319 997 
Q 319 1513 691 1797 
Q 1063 2081 1741 2081 
L 2547 2081 
L 2547 2309 
Q 2547 2688 2317 2895 
Q 2088 3103 1672 3103 
Q 1328 3103 1125 2947 
Q 922 2791 872 2484 
L 575 2484 
L 575 3156 
Q 875 3284 1158 3348 
Q 1441 3413 1709 3413 
Q 2400 3413 2761 3070 
Q 3122 2728 3122 2075 
z
" transform="scale(0.015625)"/>
       </defs>
       <use xlink:href="#DejaVuSerif-7a"/>
       <use xlink:href="#DejaVuSerif-6f" transform="translate(52.685547 0)"/>
       <use xlink:href="#DejaVuSerif-6e" transform="translate(112.890625 0)"/>
       <use xlink:href="#DejaVuSerif-65" transform="translate(177.294922 0)"/>
       <use xlink:href="#DejaVuSerif-2c" transform="translate(236.474609 0)"/>
       <use xlink:href="#DejaVuSerif-20" transform="translate(268.261719 0)"/>
       <use xlink:href="#DejaVuSerif-61" transform="translate(300.048828 0)"/>
       <use xlink:href="#DejaVuSerif-6e" transform="translate(359.667969 0)"/>
       <use xlink:href="#DejaVuSerif-64" transform="translate(424.072266 0)"/>
       <use xlink:href="#DejaVuSerif-20" transform="translate(488.085938 0)"/>
       <use xlink:href="#DejaVuSerif-64" transform="translate(519.873047 0)"/>
       <use xlink:href="#DejaVuSerif-65" transform="translate(583.886719 0)"/>
       <use xlink:href="#DejaVuSerif-70" transform="translate(643.066406 0)"/>
       <use xlink:href="#DejaVuSerif-74" transform="translate(707.080078 0)"/>
       <use xlink:href="#DejaVuSerif-68" transform="translate(747.265625 0)"/>
      </g>
     </g>
    </g>
    <g id="text_5">
     <!-- Ablation configuration -->
     <g style="fill: #262626" transform="translate(220.105852 416.709014) scale(0.126 -0.126)">
      <defs>
       <path id="DejaVuSerif-41" d="M 1281 1691 
L 2994 1691 
L 2138 3909 
L 1281 1691 
z
M -38 0 
L -38 331 
L 372 331 
L 2034 4666 
L 2559 4666 
L 4225 331 
L 4684 331 
L 4684 0 
L 2988 0 
L 2988 331 
L 3506 331 
L 3116 1356 
L 1153 1356 
L 763 331 
L 1275 331 
L 1275 0 
L -38 0 
z
" transform="scale(0.015625)"/>
       <path id="DejaVuSerif-62" d="M 738 331 
L 738 4531 
L 184 4531 
L 184 4863 
L 1313 4863 
L 1313 2803 
Q 1481 3116 1742 3264 
Q 2003 3413 2388 3413 
Q 3000 3413 3387 2928 
Q 3775 2444 3775 1663 
Q 3775 881 3387 395 
Q 3000 -91 2388 -91 
Q 2003 -91 1742 57 
Q 1481 206 1313 519 
L 1313 0 
L 184 0 
L 184 331 
L 738 331 
z
M 1313 1497 
Q 1313 897 1542 583 
Q 1772 269 2209 269 
Q 2650 269 2876 622 
Q 3103 975 3103 1663 
Q 3103 2353 2876 2703 
Q 2650 3053 2209 3053 
Q 1772 3053 1542 2737 
Q 1313 2422 1313 1825 
L 1313 1497 
z
" transform="scale(0.015625)"/>
       <path id="DejaVuSerif-6c" d="M 1313 331 
L 1856 331 
L 1856 0 
L 184 0 
L 184 331 
L 738 331 
L 738 4531 
L 184 4531 
L 184 4863 
L 1313 4863 
L 1313 331 
z
" transform="scale(0.015625)"/>
       <path id="DejaVuSerif-69" d="M 622 4353 
Q 622 4497 726 4603 
Q 831 4709 978 4709 
Q 1122 4709 1226 4603 
Q 1331 4497 1331 4353 
Q 1331 4206 1228 4103 
Q 1125 4000 978 4000 
Q 831 4000 726 4103 
Q 622 4206 622 4353 
z
M 1356 331 
L 1900 331 
L 1900 0 
L 231 0 
L 231 331 
L 781 331 
L 781 2988 
L 231 2988 
L 231 3322 
L 1356 3322 
L 1356 331 
z
" transform="scale(0.015625)"/>
       <path id="DejaVuSerif-66" d="M 2753 4078 
L 2450 4078 
Q 2447 4313 2317 4434 
Q 2188 4556 1941 4556 
Q 1619 4556 1487 4379 
Q 1356 4203 1356 3750 
L 1356 3322 
L 2284 3322 
L 2284 2988 
L 1356 2988 
L 1356 331 
L 2094 331 
L 2094 0 
L 231 0 
L 231 331 
L 781 331 
L 781 2988 
L 231 2988 
L 231 3322 
L 781 3322 
L 781 3738 
Q 781 4294 1070 4578 
Q 1359 4863 1919 4863 
Q 2128 4863 2337 4825 
Q 2547 4788 2753 4709 
L 2753 4078 
z
" transform="scale(0.015625)"/>
       <path id="DejaVuSerif-67" d="M 3359 2988 
L 3359 72 
Q 3359 -644 2965 -1033 
Q 2572 -1422 1844 -1422 
Q 1516 -1422 1216 -1362 
Q 916 -1303 641 -1184 
L 641 -488 
L 941 -488 
Q 997 -813 1206 -963 
Q 1416 -1113 1806 -1113 
Q 2313 -1113 2548 -827 
Q 2784 -541 2784 72 
L 2784 519 
Q 2616 206 2355 57 
Q 2094 -91 1709 -91 
Q 1097 -91 708 395 
Q 319 881 319 1663 
Q 319 2444 706 2928 
Q 1094 3413 1709 3413 
Q 2094 3413 2355 3264 
Q 2616 3116 2784 2803 
L 2784 3322 
L 3909 3322 
L 3909 2988 
L 3359 2988 
z
M 2784 1825 
Q 2784 2422 2554 2737 
Q 2325 3053 1888 3053 
Q 1444 3053 1217 2703 
Q 991 2353 991 1663 
Q 991 975 1217 622 
Q 1444 269 1888 269 
Q 2325 269 2554 583 
Q 2784 897 2784 1497 
L 2784 1825 
z
" transform="scale(0.015625)"/>
      </defs>
      <use xlink:href="#DejaVuSerif-41"/>
      <use xlink:href="#DejaVuSerif-62" transform="translate(72.216797 0)"/>
      <use xlink:href="#DejaVuSerif-6c" transform="translate(136.230469 0)"/>
      <use xlink:href="#DejaVuSerif-61" transform="translate(168.212891 0)"/>
      <use xlink:href="#DejaVuSerif-74" transform="translate(227.832031 0)"/>
      <use xlink:href="#DejaVuSerif-69" transform="translate(268.017578 0)"/>
      <use xlink:href="#DejaVuSerif-6f" transform="translate(300 0)"/>
      <use xlink:href="#DejaVuSerif-6e" transform="translate(360.205078 0)"/>
      <use xlink:href="#DejaVuSerif-20" transform="translate(424.609375 0)"/>
      <use xlink:href="#DejaVuSerif-63" transform="translate(456.396484 0)"/>
      <use xlink:href="#DejaVuSerif-6f" transform="translate(512.402344 0)"/>
      <use xlink:href="#DejaVuSerif-6e" transform="translate(572.607422 0)"/>
      <use xlink:href="#DejaVuSerif-66" transform="translate(637.011719 0)"/>
      <use xlink:href="#DejaVuSerif-69" transform="translate(674.023438 0)"/>
      <use xlink:href="#DejaVuSerif-67" transform="translate(706.005859 0)"/>
      <use xlink:href="#DejaVuSerif-75" transform="translate(770.019531 0)"/>
      <use xlink:href="#DejaVuSerif-72" transform="translate(834.423828 0)"/>
      <use xlink:href="#DejaVuSerif-61" transform="translate(882.226562 0)"/>
      <use xlink:href="#DejaVuSerif-74" transform="translate(941.845703 0)"/>
      <use xlink:href="#DejaVuSerif-69" transform="translate(982.03125 0)"/>
      <use xlink:href="#DejaVuSerif-6f" transform="translate(1014.013672 0)"/>
      <use xlink:href="#DejaVuSerif-6e" transform="translate(1074.21875 0)"/>
     </g>
    </g>
   </g>
   <g id="matplotlib.axis_2">
    <g id="ytick_1">
     <g id="line2d_1">
      <path d="M 68.640211 352.912956 
L 515.040211 352.912956 
" clip-path="url(#p0c57f0787f)" style="fill: none; stroke: #cccccc; stroke-linecap: round"/>
     </g>
     <g id="text_6">
      <!-- −0.02 -->
      <g style="fill: #262626" transform="translate(23.744875 357.301054) scale(0.1155 -0.1155)">
       <defs>
        <path id="DejaVuSerif-2212" d="M 678 2259 
L 4684 2259 
L 4684 1753 
L 678 1753 
L 678 2259 
z
" transform="scale(0.015625)"/>
        <path id="DejaVuSerif-30" d="M 2034 219 
Q 2513 219 2750 744 
Q 2988 1269 2988 2328 
Q 2988 3391 2750 3916 
Q 2513 4441 2034 4441 
Q 1556 4441 1318 3916 
Q 1081 3391 1081 2328 
Q 1081 1269 1318 744 
Q 1556 219 2034 219 
z
M 2034 -91 
Q 1275 -91 848 546 
Q 422 1184 422 2328 
Q 422 3475 848 4112 
Q 1275 4750 2034 4750 
Q 2797 4750 3222 4112 
Q 3647 3475 3647 2328 
Q 3647 1184 3222 546 
Q 2797 -91 2034 -91 
z
" transform="scale(0.015625)"/>
        <path id="DejaVuSerif-2e" d="M 603 325 
Q 603 500 722 622 
Q 841 744 1019 744 
Q 1191 744 1312 622 
Q 1434 500 1434 325 
Q 1434 153 1312 31 
Q 1191 -91 1019 -91 
Q 841 -91 722 29 
Q 603 150 603 325 
z
" transform="scale(0.015625)"/>
        <path id="DejaVuSerif-32" d="M 819 3553 
L 469 3553 
L 469 4384 
Q 803 4563 1142 4656 
Q 1481 4750 1806 4750 
Q 2534 4750 2956 4397 
Q 3378 4044 3378 3438 
Q 3378 2753 2422 1800 
Q 2347 1728 2309 1691 
L 1131 513 
L 3078 513 
L 3078 1088 
L 3444 1088 
L 3444 0 
L 434 0 
L 434 341 
L 1850 1753 
Q 2319 2222 2519 2614 
Q 2719 3006 2719 3438 
Q 2719 3909 2473 4175 
Q 2228 4441 1797 4441 
Q 1350 4441 1106 4219 
Q 863 3997 819 3553 
z
" transform="scale(0.015625)"/>
       </defs>
       <use xlink:href="#DejaVuSerif-2212"/>
       <use xlink:href="#DejaVuSerif-30" transform="translate(83.789062 0)"/>
       <use xlink:href="#DejaVuSerif-2e" transform="translate(147.412109 0)"/>
       <use xlink:href="#DejaVuSerif-30" transform="translate(179.199219 0)"/>
       <use xlink:href="#DejaVuSerif-32" transform="translate(242.822266 0)"/>
      </g>
     </g>
    </g>
    <g id="ytick_2">
     <g id="line2d_2">
      <path d="M 68.640211 313.294432 
L 515.040211 313.294432 
" clip-path="url(#p0c57f0787f)" style="fill: none; stroke: #cccccc; stroke-linecap: round"/>
     </g>
     <g id="text_7">
      <!-- −0.01 -->
      <g style="fill: #262626" transform="translate(23.744875 317.682529) scale(0.1155 -0.1155)">
       <defs>
        <path id="DejaVuSerif-31" d="M 909 0 
L 909 331 
L 1722 331 
L 1722 4213 
L 781 3603 
L 781 4013 
L 1919 4750 
L 2350 4750 
L 2350 331 
L 3163 331 
L 3163 0 
L 909 0 
z
" transform="scale(0.015625)"/>
       </defs>
       <use xlink:href="#DejaVuSerif-2212"/>
       <use xlink:href="#DejaVuSerif-30" transform="translate(83.789062 0)"/>
       <use xlink:href="#DejaVuSerif-2e" transform="translate(147.412109 0)"/>
       <use xlink:href="#DejaVuSerif-30" transform="translate(179.199219 0)"/>
       <use xlink:href="#DejaVuSerif-31" transform="translate(242.822266 0)"/>
      </g>
     </g>
    </g>
    <g id="ytick_3">
     <g id="line2d_3">
      <path d="M 68.640211 273.675907 
L 515.040211 273.675907 
" clip-path="url(#p0c57f0787f)" style="fill: none; stroke: #cccccc; stroke-linecap: round"/>
     </g>
     <g id="text_8">
      <!-- 0.00 -->
      <g style="fill: #262626" transform="translate(33.423414 278.064005) scale(0.1155 -0.1155)">
       <use xlink:href="#DejaVuSerif-30"/>
       <use xlink:href="#DejaVuSerif-2e" transform="translate(63.623047 0)"/>
       <use xlink:href="#DejaVuSerif-30" transform="translate(95.410156 0)"/>
       <use xlink:href="#DejaVuSerif-30" transform="translate(159.033203 0)"/>
      </g>
     </g>
    </g>
    <g id="ytick_4">
     <g id="line2d_4">
      <path d="M 68.640211 234.057382 
L 515.040211 234.057382 
" clip-path="url(#p0c57f0787f)" style="fill: none; stroke: #cccccc; stroke-linecap: round"/>
     </g>
     <g id="text_9">
      <!-- 0.01 -->
      <g style="fill: #262626" transform="translate(33.423414 238.44548) scale(0.1155 -0.1155)">
       <use xlink:href="#DejaVuSerif-30"/>
       <use xlink:href="#DejaVuSerif-2e" transform="translate(63.623047 0)"/>
       <use xlink:href="#DejaVuSerif-30" transform="translate(95.410156 0)"/>
       <use xlink:href="#DejaVuSerif-31" transform="translate(159.033203 0)"/>
      </g>
     </g>
    </g>
    <g id="ytick_5">
     <g id="line2d_5">
      <path d="M 68.640211 194.438858 
L 515.040211 194.438858 
" clip-path="url(#p0c57f0787f)" style="fill: none; stroke: #cccccc; stroke-linecap: round"/>
     </g>
     <g id="text_10">
      <!-- 0.02 -->
      <g style="fill: #262626" transform="translate(33.423414 198.826955) scale(0.1155 -0.1155)">
       <use xlink:href="#DejaVuSerif-30"/>
       <use xlink:href="#DejaVuSerif-2e" transform="translate(63.623047 0)"/>
       <use xlink:href="#DejaVuSerif-30" transform="translate(95.410156 0)"/>
       <use xlink:href="#DejaVuSerif-32" transform="translate(159.033203 0)"/>
      </g>
     </g>
    </g>
    <g id="ytick_6">
     <g id="line2d_6">
      <path d="M 68.640211 154.820333 
L 515.040211 154.820333 
" clip-path="url(#p0c57f0787f)" style="fill: none; stroke: #cccccc; stroke-linecap: round"/>
     </g>
     <g id="text_11">
      <!-- 0.03 -->
      <g style="fill: #262626" transform="translate(33.423414 159.208431) scale(0.1155 -0.1155)">
       <defs>
        <path id="DejaVuSerif-33" d="M 622 4469 
Q 988 4606 1323 4678 
Q 1659 4750 1953 4750 
Q 2638 4750 3022 4454 
Q 3406 4159 3406 3634 
Q 3406 3213 3140 2930 
Q 2875 2647 2388 2547 
Q 2963 2466 3280 2130 
Q 3597 1794 3597 1259 
Q 3597 606 3158 257 
Q 2719 -91 1894 -91 
Q 1528 -91 1179 -12 
Q 831 66 488 225 
L 488 1131 
L 838 1131 
Q 869 681 1141 450 
Q 1413 219 1906 219 
Q 2384 219 2661 495 
Q 2938 772 2938 1253 
Q 2938 1803 2653 2086 
Q 2369 2369 1819 2369 
L 1522 2369 
L 1522 2688 
L 1678 2688 
Q 2225 2688 2498 2914 
Q 2772 3141 2772 3597 
Q 2772 4006 2547 4223 
Q 2322 4441 1900 4441 
Q 1478 4441 1245 4241 
Q 1013 4041 972 3647 
L 622 3647 
L 622 4469 
z
" transform="scale(0.015625)"/>
       </defs>
       <use xlink:href="#DejaVuSerif-30"/>
       <use xlink:href="#DejaVuSerif-2e" transform="translate(63.623047 0)"/>
       <use xlink:href="#DejaVuSerif-30" transform="translate(95.410156 0)"/>
       <use xlink:href="#DejaVuSerif-33" transform="translate(159.033203 0)"/>
      </g>
     </g>
    </g>
    <g id="ytick_7">
     <g id="line2d_7">
      <path d="M 68.640211 115.201808 
L 515.040211 115.201808 
" clip-path="url(#p0c57f0787f)" style="fill: none; stroke: #cccccc; stroke-linecap: round"/>
     </g>
     <g id="text_12">
      <!-- 0.04 -->
      <g style="fill: #262626" transform="translate(33.423414 119.589906) scale(0.1155 -0.1155)">
       <defs>
        <path id="DejaVuSerif-34" d="M 2234 1581 
L 2234 4063 
L 641 1581 
L 2234 1581 
z
M 3609 0 
L 1484 0 
L 1484 331 
L 2234 331 
L 2234 1247 
L 197 1247 
L 197 1588 
L 2241 4750 
L 2859 4750 
L 2859 1581 
L 3750 1581 
L 3750 1247 
L 2859 1247 
L 2859 331 
L 3609 331 
L 3609 0 
z
" transform="scale(0.015625)"/>
       </defs>
       <use xlink:href="#DejaVuSerif-30"/>
       <use xlink:href="#DejaVuSerif-2e" transform="translate(63.623047 0)"/>
       <use xlink:href="#DejaVuSerif-30" transform="translate(95.410156 0)"/>
       <use xlink:href="#DejaVuSerif-34" transform="translate(159.033203 0)"/>
      </g>
     </g>
    </g>
    <g id="ytick_8">
     <g id="line2d_8">
      <path d="M 68.640211 75.583284 
L 515.040211 75.583284 
" clip-path="url(#p0c57f0787f)" style="fill: none; stroke: #cccccc; stroke-linecap: round"/>
     </g>
     <g id="text_13">
      <!-- 0.05 -->
      <g style="fill: #262626" transform="translate(33.423414 79.971381) scale(0.1155 -0.1155)">
       <defs>
        <path id="DejaVuSerif-35" d="M 3219 4666 
L 3219 4153 
L 1081 4153 
L 1081 2816 
Q 1244 2928 1461 2984 
Q 1678 3041 1947 3041 
Q 2703 3041 3140 2622 
Q 3578 2203 3578 1478 
Q 3578 738 3136 323 
Q 2694 -91 1894 -91 
Q 1572 -91 1234 -12 
Q 897 66 544 225 
L 544 1131 
L 897 1131 
Q 925 688 1179 453 
Q 1434 219 1894 219 
Q 2388 219 2653 544 
Q 2919 869 2919 1478 
Q 2919 2084 2655 2407 
Q 2391 2731 1894 2731 
Q 1613 2731 1398 2631 
Q 1184 2531 1019 2322 
L 750 2322 
L 750 4666 
L 3219 4666 
z
" transform="scale(0.015625)"/>
       </defs>
       <use xlink:href="#DejaVuSerif-30"/>
       <use xlink:href="#DejaVuSerif-2e" transform="translate(63.623047 0)"/>
       <use xlink:href="#DejaVuSerif-30" transform="translate(95.410156 0)"/>
       <use xlink:href="#DejaVuSerif-35" transform="translate(159.033203 0)"/>
      </g>
     </g>
    </g>
    <g id="text_14">
     <!-- RMSE_log change vs all-covariates model -->
     <g style="fill: #262626" transform="translate(16.774031 336.637275) rotate(-90) scale(0.126 -0.126)">
      <defs>
       <path id="DejaVuSerif-52" d="M 3066 2316 
Q 3284 2256 3442 2114 
Q 3600 1972 3725 1716 
L 4403 331 
L 4972 331 
L 4972 0 
L 3872 0 
L 3144 1484 
Q 2934 1916 2759 2042 
Q 2584 2169 2278 2169 
L 1581 2169 
L 1581 331 
L 2241 331 
L 2241 0 
L 353 0 
L 353 331 
L 947 331 
L 947 4331 
L 353 4331 
L 353 4666 
L 2719 4666 
Q 3400 4666 3770 4341 
Q 4141 4016 4141 3419 
Q 4141 2938 3870 2661 
Q 3600 2384 3066 2316 
z
M 1581 2503 
L 2503 2503 
Q 2975 2503 3200 2726 
Q 3425 2950 3425 3419 
Q 3425 3888 3200 4109 
Q 2975 4331 2503 4331 
L 1581 4331 
L 1581 2503 
z
" transform="scale(0.015625)"/>
       <path id="DejaVuSerif-4d" d="M 353 0 
L 353 331 
L 947 331 
L 947 4331 
L 319 4331 
L 319 4666 
L 1678 4666 
L 3316 1344 
L 4953 4666 
L 6228 4666 
L 6228 4331 
L 5606 4331 
L 5606 331 
L 6203 331 
L 6203 0 
L 4378 0 
L 4378 331 
L 4972 331 
L 4972 3938 
L 3372 684 
L 2931 684 
L 1331 3938 
L 1331 331 
L 1925 331 
L 1925 0 
L 353 0 
z
" transform="scale(0.015625)"/>
       <path id="DejaVuSerif-53" d="M 594 225 
L 594 1288 
L 953 1284 
Q 969 753 1261 498 
Q 1553 244 2150 244 
Q 2706 244 2998 464 
Q 3291 684 3291 1106 
Q 3291 1444 3114 1625 
Q 2938 1806 2369 1978 
L 1753 2163 
Q 1084 2366 811 2669 
Q 538 2972 538 3500 
Q 538 4094 959 4422 
Q 1381 4750 2144 4750 
Q 2469 4750 2856 4679 
Q 3244 4609 3681 4475 
L 3681 3481 
L 3328 3481 
Q 3275 3975 2998 4195 
Q 2722 4416 2156 4416 
Q 1663 4416 1405 4214 
Q 1147 4013 1147 3628 
Q 1147 3294 1340 3103 
Q 1534 2913 2163 2725 
L 2741 2553 
Q 3375 2363 3645 2067 
Q 3916 1772 3916 1275 
Q 3916 597 3481 253 
Q 3047 -91 2188 -91 
Q 1803 -91 1404 -12 
Q 1006 66 594 225 
z
" transform="scale(0.015625)"/>
       <path id="DejaVuSerif-45" d="M 353 0 
L 353 331 
L 947 331 
L 947 4331 
L 353 4331 
L 353 4666 
L 4109 4666 
L 4109 3628 
L 3725 3628 
L 3725 4281 
L 1581 4281 
L 1581 2719 
L 3109 2719 
L 3109 3303 
L 3494 3303 
L 3494 1753 
L 3109 1753 
L 3109 2338 
L 1581 2338 
L 1581 384 
L 3775 384 
L 3775 1038 
L 4159 1038 
L 4159 0 
L 353 0 
z
" transform="scale(0.015625)"/>
       <path id="DejaVuSerif-5f" d="M 3200 -1259 
L 3200 -1509 
L 0 -1509 
L 0 -1259 
L 3200 -1259 
z
" transform="scale(0.015625)"/>
       <path id="DejaVuSerif-76" d="M 1581 0 
L 359 2988 
L -19 2988 
L -19 3322 
L 1509 3322 
L 1509 2988 
L 978 2988 
L 1913 703 
L 2847 2988 
L 2350 2988 
L 2350 3322 
L 3597 3322 
L 3597 2988 
L 3225 2988 
L 2003 0 
L 1581 0 
z
" transform="scale(0.015625)"/>
       <path id="DejaVuSerif-2d" d="M 281 1959 
L 1881 1959 
L 1881 1472 
L 281 1472 
L 281 1959 
z
" transform="scale(0.015625)"/>
       <path id="DejaVuSerif-6d" d="M 3316 2675 
Q 3481 3041 3739 3227 
Q 3997 3413 4341 3413 
Q 4863 3413 5119 3089 
Q 5375 2766 5375 2113 
L 5375 331 
L 5894 331 
L 5894 0 
L 4300 0 
L 4300 331 
L 4800 331 
L 4800 2047 
Q 4800 2556 4650 2772 
Q 4500 2988 4153 2988 
Q 3769 2988 3567 2697 
Q 3366 2406 3366 1850 
L 3366 331 
L 3866 331 
L 3866 0 
L 2291 0 
L 2291 331 
L 2791 331 
L 2791 2069 
Q 2791 2566 2641 2777 
Q 2491 2988 2144 2988 
Q 1759 2988 1557 2697 
Q 1356 2406 1356 1850 
L 1356 331 
L 1856 331 
L 1856 0 
L 263 0 
L 263 331 
L 781 331 
L 781 2994 
L 231 2994 
L 231 3322 
L 1356 3322 
L 1356 2731 
Q 1516 3063 1762 3238 
Q 2009 3413 2322 3413 
Q 2709 3413 2968 3220 
Q 3228 3028 3316 2675 
z
" transform="scale(0.015625)"/>
      </defs>
      <use xlink:href="#DejaVuSerif-52"/>
      <use xlink:href="#DejaVuSerif-4d" transform="translate(75.292969 0)"/>
      <use xlink:href="#DejaVuSerif-53" transform="translate(177.685547 0)"/>
      <use xlink:href="#DejaVuSerif-45" transform="translate(246.191406 0)"/>
      <use xlink:href="#DejaVuSerif-5f" transform="translate(319.189453 0)"/>
      <use xlink:href="#DejaVuSerif-6c" transform="translate(369.189453 0)"/>
      <use xlink:href="#DejaVuSerif-6f" transform="translate(401.171875 0)"/>
      <use xlink:href="#DejaVuSerif-67" transform="translate(461.376953 0)"/>
      <use xlink:href="#DejaVuSerif-20" transform="translate(525.390625 0)"/>
      <use xlink:href="#DejaVuSerif-63" transform="translate(557.177734 0)"/>
      <use xlink:href="#DejaVuSerif-68" transform="translate(613.183594 0)"/>
      <use xlink:href="#DejaVuSerif-61" transform="translate(677.587891 0)"/>
      <use xlink:href="#DejaVuSerif-6e" transform="translate(737.207031 0)"/>
      <use xlink:href="#DejaVuSerif-67" transform="translate(801.611328 0)"/>
      <use xlink:href="#DejaVuSerif-65" transform="translate(865.625 0)"/>
      <use xlink:href="#DejaVuSerif-20" transform="translate(924.804688 0)"/>
      <use xlink:href="#DejaVuSerif-76" transform="translate(956.591797 0)"/>
      <use xlink:href="#DejaVuSerif-73" transform="translate(1013.085938 0)"/>
      <use xlink:href="#DejaVuSerif-20" transform="translate(1064.404297 0)"/>
      <use xlink:href="#DejaVuSerif-61" transform="translate(1096.191406 0)"/>
      <use xlink:href="#DejaVuSerif-6c" transform="translate(1155.810547 0)"/>
      <use xlink:href="#DejaVuSerif-6c" transform="translate(1187.792969 0)"/>
      <use xlink:href="#DejaVuSerif-2d" transform="translate(1219.775391 0)"/>
      <use xlink:href="#DejaVuSerif-63" transform="translate(1253.564453 0)"/>
      <use xlink:href="#DejaVuSerif-6f" transform="translate(1309.570312 0)"/>
      <use xlink:href="#DejaVuSerif-76" transform="translate(1369.775391 0)"/>
      <use xlink:href="#DejaVuSerif-61" transform="translate(1426.269531 0)"/>
      <use xlink:href="#DejaVuSerif-72" transform="translate(1485.888672 0)"/>
      <use xlink:href="#DejaVuSerif-69" transform="translate(1533.691406 0)"/>
      <use xlink:href="#DejaVuSerif-61" transform="translate(1565.673828 0)"/>
      <use xlink:href="#DejaVuSerif-74" transform="translate(1625.292969 0)"/>
      <use xlink:href="#DejaVuSerif-65" transform="translate(1665.478516 0)"/>
      <use xlink:href="#DejaVuSerif-73" transform="translate(1724.658203 0)"/>
      <use xlink:href="#DejaVuSerif-20" transform="translate(1775.976562 0)"/>
      <use xlink:href="#DejaVuSerif-6d" transform="translate(1807.763672 0)"/>
      <use xlink:href="#DejaVuSerif-6f" transform="translate(1902.587891 0)"/>
      <use xlink:href="#DejaVuSerif-64" transform="translate(1962.792969 0)"/>
      <use xlink:href="#DejaVuSerif-65" transform="translate(2026.806641 0)"/>
      <use xlink:href="#DejaVuSerif-6c" transform="translate(2085.986328 0)"/>
     </g>
    </g>
   </g>
   <g id="patch_3">
    <path d="M 79.800211 273.675907 
L 109.560211 273.675907 
L 109.560211 242.31184 
L 79.800211 242.31184 
z
" clip-path="url(#p0c57f0787f)" style="fill: #72b6a1; stroke: #000000; stroke-width: 0.5; stroke-linejoin: miter"/>
   </g>
   <g id="patch_4">
    <path d="M 191.400211 273.675907 
L 221.160211 273.675907 
L 221.160211 294.00803 
L 191.400211 294.00803 
z
" clip-path="url(#p0c57f0787f)" style="fill: #72b6a1; stroke: #000000; stroke-width: 0.5; stroke-linejoin: miter"/>
   </g>
   <g id="patch_5">
    <path d="M 303.000211 273.675907 
L 332.760211 273.675907 
L 332.760211 255.544289 
L 303.000211 255.544289 
z
" clip-path="url(#p0c57f0787f)" style="fill: #72b6a1; stroke: #000000; stroke-width: 0.5; stroke-linejoin: miter"/>
   </g>
   <g id="patch_6">
    <path d="M 414.600211 273.675907 
L 444.360211 273.675907 
L 444.360211 249.338663 
L 414.600211 249.338663 
z
" clip-path="url(#p0c57f0787f)" style="fill: #72b6a1; stroke: #000000; stroke-width: 0.5; stroke-linejoin: miter"/>
   </g>
   <g id="patch_7">
    <path d="M 109.560211 273.675907 
L 139.320211 273.675907 
L 139.320211 354.403275 
L 109.560211 354.403275 
z
" clip-path="url(#p0c57f0787f)" style="fill: #e99675; stroke: #000000; stroke-width: 0.5; stroke-linejoin: miter"/>
   </g>
   <g id="patch_8">
    <path d="M 221.160211 273.675907 
L 250.920211 273.675907 
L 250.920211 211.038571 
L 221.160211 211.038571 
z
" clip-path="url(#p0c57f0787f)" style="fill: #e99675; stroke: #000000; stroke-width: 0.5; stroke-linejoin: miter"/>
   </g>
   <g id="patch_9">
    <path d="M 332.760211 273.675907 
L 362.520211 273.675907 
L 362.520211 233.223693 
L 332.760211 233.223693 
z
" clip-path="url(#p0c57f0787f)" style="fill: #e99675; stroke: #000000; stroke-width: 0.5; stroke-linejoin: miter"/>
   </g>
   <g id="patch_10">
    <path d="M 444.360211 273.675907 
L 474.120211 273.675907 
L 474.120211 273.794553 
L 444.360211 273.794553 
z
" clip-path="url(#p0c57f0787f)" style="fill: #e99675; stroke: #000000; stroke-width: 0.5; stroke-linejoin: miter"/>
   </g>
   <g id="patch_11">
    <path d="M 139.320211 273.675907 
L 169.080211 273.675907 
L 169.080211 274.963775 
L 139.320211 274.963775 
z
" clip-path="url(#p0c57f0787f)" style="fill: #95a3c3; stroke: #000000; stroke-width: 0.5; stroke-linejoin: miter"/>
   </g>
   <g id="patch_12">
    <path d="M 250.920211 273.675907 
L 280.680211 273.675907 
L 280.680211 169.583982 
L 250.920211 169.583982 
z
" clip-path="url(#p0c57f0787f)" style="fill: #95a3c3; stroke: #000000; stroke-width: 0.5; stroke-linejoin: miter"/>
   </g>
   <g id="patch_13">
    <path d="M 362.520211 273.675907 
L 392.280211 273.675907 
L 392.280211 244.681672 
L 362.520211 244.681672 
z
" clip-path="url(#p0c57f0787f)" style="fill: #95a3c3; stroke: #000000; stroke-width: 0.5; stroke-linejoin: miter"/>
   </g>
   <g id="patch_14">
    <path d="M 474.120211 273.675907 
L 503.880211 273.675907 
L 503.880211 52.003275 
L 474.120211 52.003275 
z
" clip-path="url(#p0c57f0787f)" style="fill: #95a3c3; stroke: #000000; stroke-width: 0.5; stroke-linejoin: miter"/>
   </g>
   <g id="patch_15">
    <path d="M 124.440211 273.675907 
L 124.440211 273.675907 
L 124.440211 273.675907 
L 124.440211 273.675907 
z
" clip-path="url(#p0c57f0787f)" style="fill: #72b6a1; stroke: #000000; stroke-width: 0.5; stroke-linejoin: miter"/>
   </g>
   <g id="patch_16">
    <path d="M 124.440211 273.675907 
L 124.440211 273.675907 
L 124.440211 273.675907 
L 124.440211 273.675907 
z
" clip-path="url(#p0c57f0787f)" style="fill: #e99675; stroke: #000000; stroke-width: 0.5; stroke-linejoin: miter"/>
   </g>
   <g id="patch_17">
    <path d="M 124.440211 273.675907 
L 124.440211 273.675907 
L 124.440211 273.675907 
L 124.440211 273.675907 
z
" clip-path="url(#p0c57f0787f)" style="fill: #95a3c3; stroke: #000000; stroke-width: 0.5; stroke-linejoin: miter"/>
   </g>
   <g id="line2d_9">
    <path d="M 68.640211 273.675907 
L 515.040211 273.675907 
" clip-path="url(#p0c57f0787f)" style="fill: none; stroke: #000000; stroke-linecap: round"/>
   </g>
   <g id="line2d_10">
    <path clip-path="url(#p0c57f0787f)" style="fill: none; stroke: #424242; stroke-width: 2.25; stroke-linecap: round"/>
   </g>
   <g id="line2d_11">
    <path clip-path="url(#p0c57f0787f)" style="fill: none; stroke: #424242; stroke-width: 2.25; stroke-linecap: round"/>
   </g>
   <g id="line2d_12">
    <path clip-path="url(#p0c57f0787f)" style="fill: none; stroke: #424242; stroke-width: 2.25; stroke-linecap: round"/>
   </g>
   <g id="line2d_13">
    <path clip-path="url(#p0c57f0787f)" style="fill: none; stroke: #424242; stroke-width: 2.25; stroke-linecap: round"/>
   </g>
   <g id="line2d_14">
    <path clip-path="url(#p0c57f0787f)" style="fill: none; stroke: #424242; stroke-width: 2.25; stroke-linecap: round"/>
   </g>
   <g id="line2d_15">
    <path clip-path="url(#p0c57f0787f)" style="fill: none; stroke: #424242; stroke-width: 2.25; stroke-linecap: round"/>
   </g>
   <g id="line2d_16">
    <path clip-path="url(#p0c57f0787f)" style="fill: none; stroke: #424242; stroke-width: 2.25; stroke-linecap: round"/>
   </g>
   <g id="line2d_17">
    <path clip-path="url(#p0c57f0787f)" style="fill: none; stroke: #424242; stroke-width: 2.25; stroke-linecap: round"/>
   </g>
   <g id="line2d_18">
    <path clip-path="url(#p0c57f0787f)" style="fill: none; stroke: #424242; stroke-width: 2.25; stroke-linecap: round"/>
   </g>
   <g id="line2d_19">
    <path clip-path="url(#p0c57f0787f)" style="fill: none; stroke: #424242; stroke-width: 2.25; stroke-linecap: round"/>
   </g>
   <g id="line2d_20">
    <path clip-path="url(#p0c57f0787f)" style="fill: none; stroke: #424242; stroke-width: 2.25; stroke-linecap: round"/>
   </g>
   <g id="line2d_21">
    <path clip-path="url(#p0c57f0787f)" style="fill: none; stroke: #424242; stroke-width: 2.25; stroke-linecap: round"/>
   </g>
   <g id="patch_18">
    <path d="M 68.640211 369.523275 
L 68.640211 36.883275 
" style="fill: none; stroke: #cccccc; stroke-width: 1.25; stroke-linejoin: miter; stroke-linecap: square"/>
   </g>
   <g id="patch_19">
    <path d="M 515.040211 369.523275 
L 515.040211 36.883275 
" style="fill: none; stroke: #cccccc; stroke-width: 1.25; stroke-linejoin: miter; stroke-linecap: square"/>
   </g>
   <g id="patch_20">
    <path d="M 68.640211 369.523275 
L 515.040211 369.523275 
" style="fill: none; stroke: #cccccc; stroke-width: 1.25; stroke-linejoin: miter; stroke-linecap: square"/>
   </g>
   <g id="patch_21">
    <path d="M 68.640211 36.883275 
L 515.040211 36.883275 
" style="fill: none; stroke: #cccccc; stroke-width: 1.25; stroke-linejoin: miter; stroke-linecap: square"/>
   </g>
   <g id="text_15">
    <!-- Nested LOWO structural-covariate ablation: -->
    <g style="fill: #262626" transform="translate(150.45443 16.774031) scale(0.126 -0.126)">
     <defs>
      <path id="DejaVuSerif-4e" d="M 313 0 
L 313 331 
L 941 331 
L 941 4331 
L 313 4331 
L 313 4666 
L 1509 4666 
L 4306 984 
L 4306 4331 
L 3681 4331 
L 3681 4666 
L 5319 4666 
L 5319 4331 
L 4691 4331 
L 4691 -91 
L 4313 -91 
L 1325 3841 
L 1325 331 
L 1953 331 
L 1953 0 
L 313 0 
z
" transform="scale(0.015625)"/>
      <path id="DejaVuSerif-4c" d="M 353 0 
L 353 331 
L 947 331 
L 947 4331 
L 353 4331 
L 353 4666 
L 2175 4666 
L 2175 4331 
L 1581 4331 
L 1581 384 
L 3713 384 
L 3713 1166 
L 4097 1166 
L 4097 0 
L 353 0 
z
" transform="scale(0.015625)"/>
      <path id="DejaVuSerif-4f" d="M 2625 244 
Q 3391 244 3781 770 
Q 4172 1297 4172 2328 
Q 4172 3363 3781 3889 
Q 3391 4416 2625 4416 
Q 1856 4416 1465 3889 
Q 1075 3363 1075 2328 
Q 1075 1297 1465 770 
Q 1856 244 2625 244 
z
M 2625 -91 
Q 2150 -91 1751 65 
Q 1353 222 1050 525 
Q 700 875 529 1319 
Q 359 1763 359 2328 
Q 359 2894 529 3339 
Q 700 3784 1050 4134 
Q 1356 4441 1750 4595 
Q 2144 4750 2625 4750 
Q 3641 4750 4266 4084 
Q 4891 3419 4891 2328 
Q 4891 1769 4719 1320 
Q 4547 872 4197 525 
Q 3891 219 3497 64 
Q 3103 -91 2625 -91 
z
" transform="scale(0.015625)"/>
      <path id="DejaVuSerif-57" d="M 4878 0 
L 4366 0 
L 3297 3794 
L 2228 0 
L 1716 0 
L 494 4331 
L 31 4331 
L 31 4666 
L 1734 4666 
L 1734 4331 
L 1153 4331 
L 2125 884 
L 3188 4666 
L 3694 4666 
L 4775 844 
L 5753 4331 
L 5216 4331 
L 5216 4666 
L 6559 4666 
L 6559 4331 
L 6100 4331 
L 4878 0 
z
" transform="scale(0.015625)"/>
      <path id="DejaVuSerif-3a" d="M 666 325 
Q 666 500 786 622 
Q 906 744 1081 744 
Q 1256 744 1376 622 
Q 1497 500 1497 325 
Q 1497 150 1378 29 
Q 1259 -91 1081 -91 
Q 903 -91 784 29 
Q 666 150 666 325 
z
M 666 2363 
Q 666 2538 786 2658 
Q 906 2778 1081 2778 
Q 1259 2778 1378 2659 
Q 1497 2541 1497 2363 
Q 1497 2184 1378 2065 
Q 1259 1947 1081 1947 
Q 906 1947 786 2067 
Q 666 2188 666 2363 
z
" transform="scale(0.015625)"/>
     </defs>
     <use xlink:href="#DejaVuSerif-4e"/>
     <use xlink:href="#DejaVuSerif-65" transform="translate(87.5 0)"/>
     <use xlink:href="#DejaVuSerif-73" transform="translate(146.679688 0)"/>
     <use xlink:href="#DejaVuSerif-74" transform="translate(197.998047 0)"/>
     <use xlink:href="#DejaVuSerif-65" transform="translate(238.183594 0)"/>
     <use xlink:href="#DejaVuSerif-64" transform="translate(297.363281 0)"/>
     <use xlink:href="#DejaVuSerif-20" transform="translate(361.376953 0)"/>
     <use xlink:href="#DejaVuSerif-4c" transform="translate(393.164062 0)"/>
     <use xlink:href="#DejaVuSerif-4f" transform="translate(459.570312 0)"/>
     <use xlink:href="#DejaVuSerif-57" transform="translate(541.552734 0)"/>
     <use xlink:href="#DejaVuSerif-4f" transform="translate(644.335938 0)"/>
     <use xlink:href="#DejaVuSerif-20" transform="translate(726.318359 0)"/>
     <use xlink:href="#DejaVuSerif-73" transform="translate(758.105469 0)"/>
     <use xlink:href="#DejaVuSerif-74" transform="translate(809.423828 0)"/>
     <use xlink:href="#DejaVuSerif-72" transform="translate(849.609375 0)"/>
     <use xlink:href="#DejaVuSerif-75" transform="translate(897.412109 0)"/>
     <use xlink:href="#DejaVuSerif-63" transform="translate(961.816406 0)"/>
     <use xlink:href="#DejaVuSerif-74" transform="translate(1017.822266 0)"/>
     <use xlink:href="#DejaVuSerif-75" transform="translate(1058.007812 0)"/>
     <use xlink:href="#DejaVuSerif-72" transform="translate(1122.412109 0)"/>
     <use xlink:href="#DejaVuSerif-61" transform="translate(1170.214844 0)"/>
     <use xlink:href="#DejaVuSerif-6c" transform="translate(1229.833984 0)"/>
     <use xlink:href="#DejaVuSerif-2d" transform="translate(1261.816406 0)"/>
     <use xlink:href="#DejaVuSerif-63" transform="translate(1295.605469 0)"/>
     <use xlink:href="#DejaVuSerif-6f" transform="translate(1351.611328 0)"/>
     <use xlink:href="#DejaVuSerif-76" transform="translate(1411.816406 0)"/>
     <use xlink:href="#DejaVuSerif-61" transform="translate(1468.310547 0)"/>
     <use xlink:href="#DejaVuSerif-72" transform="translate(1527.929688 0)"/>
     <use xlink:href="#DejaVuSerif-69" transform="translate(1575.732422 0)"/>
     <use xlink:href="#DejaVuSerif-61" transform="translate(1607.714844 0)"/>
     <use xlink:href="#DejaVuSerif-74" transform="translate(1667.333984 0)"/>
     <use xlink:href="#DejaVuSerif-65" transform="translate(1707.519531 0)"/>
     <use xlink:href="#DejaVuSerif-20" transform="translate(1766.699219 0)"/>
     <use xlink:href="#DejaVuSerif-61" transform="translate(1798.486328 0)"/>
     <use xlink:href="#DejaVuSerif-62" transform="translate(1858.105469 0)"/>
     <use xlink:href="#DejaVuSerif-6c" transform="translate(1922.119141 0)"/>
     <use xlink:href="#DejaVuSerif-61" transform="translate(1954.101562 0)"/>
     <use xlink:href="#DejaVuSerif-74" transform="translate(2013.720703 0)"/>
     <use xlink:href="#DejaVuSerif-69" transform="translate(2053.90625 0)"/>
     <use xlink:href="#DejaVuSerif-6f" transform="translate(2085.888672 0)"/>
     <use xlink:href="#DejaVuSerif-6e" transform="translate(2146.09375 0)"/>
     <use xlink:href="#DejaVuSerif-3a" transform="translate(2210.498047 0)"/>
    </g>
    <!-- RMSE_log change vs all-covariates model (higher = worse) -->
    <g style="fill: #262626" transform="translate(102.143273 30.883275) scale(0.126 -0.126)">
     <defs>
      <path id="DejaVuSerif-28" d="M 2041 -997 
Q 1281 -656 893 83 
Q 506 822 506 1931 
Q 506 3044 893 3783 
Q 1281 4522 2041 4863 
L 2041 4556 
Q 1559 4225 1350 3623 
Q 1141 3022 1141 1931 
Q 1141 844 1350 242 
Q 1559 -359 2041 -691 
L 2041 -997 
z
" transform="scale(0.015625)"/>
      <path id="DejaVuSerif-3d" d="M 678 2894 
L 4684 2894 
L 4684 2394 
L 678 2394 
L 678 2894 
z
M 678 1619 
L 4684 1619 
L 4684 1119 
L 678 1119 
L 678 1619 
z
" transform="scale(0.015625)"/>
      <path id="DejaVuSerif-77" d="M 3072 3322 
L 3922 728 
L 4672 2988 
L 4191 2988 
L 4191 3322 
L 5394 3322 
L 5394 2988 
L 5025 2988 
L 4038 0 
L 3559 0 
L 2741 2484 
L 1919 0 
L 1459 0 
L 475 2988 
L 103 2988 
L 103 3322 
L 1606 3322 
L 1606 2988 
L 1069 2988 
L 1813 728 
L 2669 3322 
L 3072 3322 
z
" transform="scale(0.015625)"/>
      <path id="DejaVuSerif-29" d="M 453 -997 
L 453 -691 
Q 934 -359 1145 242 
Q 1356 844 1356 1931 
Q 1356 3022 1145 3623 
Q 934 4225 453 4556 
L 453 4863 
Q 1216 4522 1603 3783 
Q 1991 3044 1991 1931 
Q 1991 822 1603 83 
Q 1216 -656 453 -997 
z
" transform="scale(0.015625)"/>
     </defs>
     <use xlink:href="#DejaVuSerif-52"/>
     <use xlink:href="#DejaVuSerif-4d" transform="translate(75.292969 0)"/>
     <use xlink:href="#DejaVuSerif-53" transform="translate(177.685547 0)"/>
     <use xlink:href="#DejaVuSerif-45" transform="translate(246.191406 0)"/>
     <use xlink:href="#DejaVuSerif-5f" transform="translate(319.189453 0)"/>
     <use xlink:href="#DejaVuSerif-6c" transform="translate(369.189453 0)"/>
     <use xlink:href="#DejaVuSerif-6f" transform="translate(401.171875 0)"/>
     <use xlink:href="#DejaVuSerif-67" transform="translate(461.376953 0)"/>
     <use xlink:href="#DejaVuSerif-20" transform="translate(525.390625 0)"/>
     <use xlink:href="#DejaVuSerif-63" transform="translate(557.177734 0)"/>
     <use xlink:href="#DejaVuSerif-68" transform="translate(613.183594 0)"/>
     <use xlink:href="#DejaVuSerif-61" transform="translate(677.587891 0)"/>
     <use xlink:href="#DejaVuSerif-6e" transform="translate(737.207031 0)"/>
     <use xlink:href="#DejaVuSerif-67" transform="translate(801.611328 0)"/>
     <use xlink:href="#DejaVuSerif-65" transform="translate(865.625 0)"/>
     <use xlink:href="#DejaVuSerif-20" transform="translate(924.804688 0)"/>
     <use xlink:href="#DejaVuSerif-76" transform="translate(956.591797 0)"/>
     <use xlink:href="#DejaVuSerif-73" transform="translate(1013.085938 0)"/>
     <use xlink:href="#DejaVuSerif-20" transform="translate(1064.404297 0)"/>
     <use xlink:href="#DejaVuSerif-61" transform="translate(1096.191406 0)"/>
     <use xlink:href="#DejaVuSerif-6c" transform="translate(1155.810547 0)"/>
     <use xlink:href="#DejaVuSerif-6c" transform="translate(1187.792969 0)"/>
     <use xlink:href="#DejaVuSerif-2d" transform="translate(1219.775391 0)"/>
     <use xlink:href="#DejaVuSerif-63" transform="translate(1253.564453 0)"/>
     <use xlink:href="#DejaVuSerif-6f" transform="translate(1309.570312 0)"/>
     <use xlink:href="#DejaVuSerif-76" transform="translate(1369.775391 0)"/>
     <use xlink:href="#DejaVuSerif-61" transform="translate(1426.269531 0)"/>
     <use xlink:href="#DejaVuSerif-72" transform="translate(1485.888672 0)"/>
     <use xlink:href="#DejaVuSerif-69" transform="translate(1533.691406 0)"/>
     <use xlink:href="#DejaVuSerif-61" transform="translate(1565.673828 0)"/>
     <use xlink:href="#DejaVuSerif-74" transform="translate(1625.292969 0)"/>
     <use xlink:href="#DejaVuSerif-65" transform="translate(1665.478516 0)"/>
     <use xlink:href="#DejaVuSerif-73" transform="translate(1724.658203 0)"/>
     <use xlink:href="#DejaVuSerif-20" transform="translate(1775.976562 0)"/>
     <use xlink:href="#DejaVuSerif-6d" transform="translate(1807.763672 0)"/>
     <use xlink:href="#DejaVuSerif-6f" transform="translate(1902.587891 0)"/>
     <use xlink:href="#DejaVuSerif-64" transform="translate(1962.792969 0)"/>
     <use xlink:href="#DejaVuSerif-65" transform="translate(2026.806641 0)"/>
     <use xlink:href="#DejaVuSerif-6c" transform="translate(2085.986328 0)"/>
     <use xlink:href="#DejaVuSerif-20" transform="translate(2117.96875 0)"/>
     <use xlink:href="#DejaVuSerif-28" transform="translate(2149.755859 0)"/>
     <use xlink:href="#DejaVuSerif-68" transform="translate(2188.769531 0)"/>
     <use xlink:href="#DejaVuSerif-69" transform="translate(2253.173828 0)"/>
     <use xlink:href="#DejaVuSerif-67" transform="translate(2285.15625 0)"/>
     <use xlink:href="#DejaVuSerif-68" transform="translate(2349.169922 0)"/>
     <use xlink:href="#DejaVuSerif-65" transform="translate(2413.574219 0)"/>
     <use xlink:href="#DejaVuSerif-72" transform="translate(2472.753906 0)"/>
     <use xlink:href="#DejaVuSerif-20" transform="translate(2520.556641 0)"/>
     <use xlink:href="#DejaVuSerif-3d" transform="translate(2552.34375 0)"/>
     <use xlink:href="#DejaVuSerif-20" transform="translate(2636.132812 0)"/>
     <use xlink:href="#DejaVuSerif-77" transform="translate(2667.919922 0)"/>
     <use xlink:href="#DejaVuSerif-6f" transform="translate(2753.515625 0)"/>
     <use xlink:href="#DejaVuSerif-72" transform="translate(2813.720703 0)"/>
     <use xlink:href="#DejaVuSerif-73" transform="translate(2861.523438 0)"/>
     <use xlink:href="#DejaVuSerif-65" transform="translate(2912.841797 0)"/>
     <use xlink:href="#DejaVuSerif-29" transform="translate(2972.021484 0)"/>
    </g>
   </g>
   <g id="legend_1">
    <g id="patch_22">
     <path d="M 74.240211 91.557337 
L 191.048961 91.557337 
Q 192.648961 91.557337 192.648961 89.957337 
L 192.648961 42.483275 
Q 192.648961 40.883275 191.048961 40.883275 
L 74.240211 40.883275 
Q 72.640211 40.883275 72.640211 42.483275 
L 72.640211 89.957337 
Q 72.640211 91.557337 74.240211 91.557337 
z
" style="fill: #ffffff; opacity: 0.9; stroke: #cccccc; stroke-linejoin: miter"/>
    </g>
    <g id="text_16">
     <!-- Subset -->
     <g style="fill: #262626" transform="translate(117.002164 50.921869) scale(0.09 -0.09)">
      <use xlink:href="#DejaVuSerif-53"/>
      <use xlink:href="#DejaVuSerif-75" transform="translate(68.505859 0)"/>
      <use xlink:href="#DejaVuSerif-62" transform="translate(132.910156 0)"/>
      <use xlink:href="#DejaVuSerif-73" transform="translate(196.923828 0)"/>
      <use xlink:href="#DejaVuSerif-65" transform="translate(248.242188 0)"/>
      <use xlink:href="#DejaVuSerif-74" transform="translate(307.421875 0)"/>
     </g>
    </g>
    <g id="patch_23">
     <path d="M 75.840211 62.872338 
L 91.840211 62.872338 
L 91.840211 57.272338 
L 75.840211 57.272338 
z
" style="fill: #72b6a1; stroke: #000000; stroke-width: 0.5; stroke-linejoin: miter"/>
    </g>
    <g id="text_17">
     <!-- 640 (Budget wireline) -->
     <g style="fill: #262626" transform="translate(98.240211 62.872338) scale(0.08 -0.08)">
      <defs>
       <path id="DejaVuSerif-36" d="M 2094 219 
Q 2534 219 2771 542 
Q 3009 866 3009 1472 
Q 3009 2078 2771 2401 
Q 2534 2725 2094 2725 
Q 1647 2725 1412 2412 
Q 1178 2100 1178 1509 
Q 1178 888 1415 553 
Q 1653 219 2094 219 
z
M 1075 2569 
Q 1288 2803 1556 2918 
Q 1825 3034 2163 3034 
Q 2859 3034 3264 2615 
Q 3669 2197 3669 1472 
Q 3669 763 3233 336 
Q 2797 -91 2069 -91 
Q 1278 -91 853 498 
Q 428 1088 428 2181 
Q 428 3406 931 4078 
Q 1434 4750 2350 4750 
Q 2597 4750 2869 4703 
Q 3141 4656 3425 4563 
L 3425 3794 
L 3072 3794 
Q 3034 4109 2831 4275 
Q 2628 4441 2284 4441 
Q 1678 4441 1381 3981 
Q 1084 3522 1075 2569 
z
" transform="scale(0.015625)"/>
       <path id="DejaVuSerif-42" d="M 1581 331 
L 2516 331 
Q 3078 331 3337 575 
Q 3597 819 3597 1350 
Q 3597 1878 3339 2120 
Q 3081 2363 2516 2363 
L 1581 2363 
L 1581 331 
z
M 1581 2694 
L 2375 2694 
Q 2888 2694 3123 2891 
Q 3359 3088 3359 3513 
Q 3359 3941 3123 4136 
Q 2888 4331 2375 4331 
L 1581 4331 
L 1581 2694 
z
M 353 0 
L 353 331 
L 947 331 
L 947 4331 
L 353 4331 
L 353 4666 
L 2656 4666 
Q 3363 4666 3720 4377 
Q 4078 4088 4078 3513 
Q 4078 3097 3829 2850 
Q 3581 2603 3103 2547 
Q 3697 2472 4005 2167 
Q 4313 1863 4313 1350 
Q 4313 656 3875 328 
Q 3438 0 2509 0 
L 353 0 
z
" transform="scale(0.015625)"/>
      </defs>
      <use xlink:href="#DejaVuSerif-36"/>
      <use xlink:href="#DejaVuSerif-34" transform="translate(63.623047 0)"/>
      <use xlink:href="#DejaVuSerif-30" transform="translate(127.246094 0)"/>
      <use xlink:href="#DejaVuSerif-20" transform="translate(190.869141 0)"/>
      <use xlink:href="#DejaVuSerif-28" transform="translate(222.65625 0)"/>
      <use xlink:href="#DejaVuSerif-42" transform="translate(261.669922 0)"/>
      <use xlink:href="#DejaVuSerif-75" transform="translate(335.15625 0)"/>
      <use xlink:href="#DejaVuSerif-64" transform="translate(399.560547 0)"/>
      <use xlink:href="#DejaVuSerif-67" transform="translate(463.574219 0)"/>
      <use xlink:href="#DejaVuSerif-65" transform="translate(527.587891 0)"/>
      <use xlink:href="#DejaVuSerif-74" transform="translate(586.767578 0)"/>
      <use xlink:href="#DejaVuSerif-20" transform="translate(626.953125 0)"/>
      <use xlink:href="#DejaVuSerif-77" transform="translate(658.740234 0)"/>
      <use xlink:href="#DejaVuSerif-69" transform="translate(744.335938 0)"/>
      <use xlink:href="#DejaVuSerif-72" transform="translate(776.318359 0)"/>
      <use xlink:href="#DejaVuSerif-65" transform="translate(824.121094 0)"/>
      <use xlink:href="#DejaVuSerif-6c" transform="translate(883.300781 0)"/>
      <use xlink:href="#DejaVuSerif-69" transform="translate(915.283203 0)"/>
      <use xlink:href="#DejaVuSerif-6e" transform="translate(947.265625 0)"/>
      <use xlink:href="#DejaVuSerif-65" transform="translate(1011.669922 0)"/>
      <use xlink:href="#DejaVuSerif-29" transform="translate(1070.849609 0)"/>
     </g>
    </g>
    <g id="patch_24">
     <path d="M 75.840211 74.728588 
L 91.840211 74.728588 
L 91.840211 69.128588 
L 75.840211 69.128588 
z
" style="fill: #e99675; stroke: #000000; stroke-width: 0.5; stroke-linejoin: miter"/>
    </g>
    <g id="text_18">
     <!-- 4096 (CPOR_SM-only) -->
     <g style="fill: #262626" transform="translate(98.240211 74.728588) scale(0.08 -0.08)">
      <defs>
       <path id="DejaVuSerif-39" d="M 2994 2091 
Q 2784 1856 2512 1740 
Q 2241 1625 1900 1625 
Q 1206 1625 804 2044 
Q 403 2463 403 3188 
Q 403 3897 839 4323 
Q 1275 4750 2003 4750 
Q 2794 4750 3217 4161 
Q 3641 3572 3641 2478 
Q 3641 1253 3137 581 
Q 2634 -91 1722 -91 
Q 1475 -91 1203 -44 
Q 931 3 647 97 
L 647 872 
L 997 872 
Q 1038 556 1241 387 
Q 1444 219 1784 219 
Q 2391 219 2687 676 
Q 2984 1134 2994 2091 
z
M 1978 4441 
Q 1534 4441 1298 4117 
Q 1063 3794 1063 3188 
Q 1063 2581 1298 2256 
Q 1534 1931 1978 1931 
Q 2422 1931 2658 2245 
Q 2894 2559 2894 3150 
Q 2894 3772 2656 4106 
Q 2419 4441 1978 4441 
z
" transform="scale(0.015625)"/>
       <path id="DejaVuSerif-43" d="M 4513 1234 
Q 4306 581 3820 245 
Q 3334 -91 2591 -91 
Q 2134 -91 1743 65 
Q 1353 222 1050 525 
Q 700 875 529 1320 
Q 359 1766 359 2328 
Q 359 3416 987 4083 
Q 1616 4750 2644 4750 
Q 3025 4750 3456 4650 
Q 3888 4550 4384 4347 
L 4384 3272 
L 4031 3272 
Q 3916 3859 3567 4137 
Q 3219 4416 2591 4416 
Q 1844 4416 1459 3886 
Q 1075 3356 1075 2328 
Q 1075 1303 1459 773 
Q 1844 244 2591 244 
Q 3113 244 3450 492 
Q 3788 741 3938 1234 
L 4513 1234 
z
" transform="scale(0.015625)"/>
       <path id="DejaVuSerif-50" d="M 1581 2375 
L 2406 2375 
Q 2872 2375 3115 2626 
Q 3359 2878 3359 3353 
Q 3359 3831 3115 4081 
Q 2872 4331 2406 4331 
L 1581 4331 
L 1581 2375 
z
M 353 0 
L 353 331 
L 947 331 
L 947 4331 
L 353 4331 
L 353 4666 
L 2559 4666 
Q 3259 4666 3668 4311 
Q 4078 3956 4078 3353 
Q 4078 2753 3668 2397 
Q 3259 2041 2559 2041 
L 1581 2041 
L 1581 331 
L 2303 331 
L 2303 0 
L 353 0 
z
" transform="scale(0.015625)"/>
       <path id="DejaVuSerif-79" d="M 1381 -609 
L 1600 -56 
L 359 2988 
L -19 2988 
L -19 3322 
L 1509 3322 
L 1509 2988 
L 978 2988 
L 1913 703 
L 2847 2988 
L 2350 2988 
L 2350 3322 
L 3597 3322 
L 3597 2988 
L 3225 2988 
L 1703 -750 
Q 1547 -1138 1356 -1280 
Q 1166 -1422 819 -1422 
Q 672 -1422 517 -1397 
Q 363 -1372 206 -1325 
L 206 -691 
L 500 -691 
Q 519 -903 608 -995 
Q 697 -1088 884 -1088 
Q 1056 -1088 1161 -992 
Q 1266 -897 1381 -609 
z
" transform="scale(0.015625)"/>
      </defs>
      <use xlink:href="#DejaVuSerif-34"/>
      <use xlink:href="#DejaVuSerif-30" transform="translate(63.623047 0)"/>
      <use xlink:href="#DejaVuSerif-39" transform="translate(127.246094 0)"/>
      <use xlink:href="#DejaVuSerif-36" transform="translate(190.869141 0)"/>
      <use xlink:href="#DejaVuSerif-20" transform="translate(254.492188 0)"/>
      <use xlink:href="#DejaVuSerif-28" transform="translate(286.279297 0)"/>
      <use xlink:href="#DejaVuSerif-43" transform="translate(325.292969 0)"/>
      <use xlink:href="#DejaVuSerif-50" transform="translate(401.806641 0)"/>
      <use xlink:href="#DejaVuSerif-4f" transform="translate(469.091797 0)"/>
      <use xlink:href="#DejaVuSerif-52" transform="translate(551.074219 0)"/>
      <use xlink:href="#DejaVuSerif-5f" transform="translate(626.367188 0)"/>
      <use xlink:href="#DejaVuSerif-53" transform="translate(676.367188 0)"/>
      <use xlink:href="#DejaVuSerif-4d" transform="translate(744.873047 0)"/>
      <use xlink:href="#DejaVuSerif-2d" transform="translate(847.265625 0)"/>
      <use xlink:href="#DejaVuSerif-6f" transform="translate(881.054688 0)"/>
      <use xlink:href="#DejaVuSerif-6e" transform="translate(941.259766 0)"/>
      <use xlink:href="#DejaVuSerif-6c" transform="translate(1005.664062 0)"/>
      <use xlink:href="#DejaVuSerif-79" transform="translate(1037.646484 0)"/>
      <use xlink:href="#DejaVuSerif-29" transform="translate(1094.140625 0)"/>
     </g>
    </g>
    <g id="patch_25">
     <path d="M 75.840211 86.693588 
L 91.840211 86.693588 
L 91.840211 81.093588 
L 75.840211 81.093588 
z
" style="fill: #95a3c3; stroke: #000000; stroke-width: 0.5; stroke-linejoin: miter"/>
    </g>
    <g id="text_19">
     <!-- 4550 (Best-performer) -->
     <g style="fill: #262626" transform="translate(98.240211 86.693588) scale(0.08 -0.08)">
      <use xlink:href="#DejaVuSerif-34"/>
      <use xlink:href="#DejaVuSerif-35" transform="translate(63.623047 0)"/>
      <use xlink:href="#DejaVuSerif-35" transform="translate(127.246094 0)"/>
      <use xlink:href="#DejaVuSerif-30" transform="translate(190.869141 0)"/>
      <use xlink:href="#DejaVuSerif-20" transform="translate(254.492188 0)"/>
      <use xlink:href="#DejaVuSerif-28" transform="translate(286.279297 0)"/>
      <use xlink:href="#DejaVuSerif-42" transform="translate(325.292969 0)"/>
      <use xlink:href="#DejaVuSerif-65" transform="translate(398.779297 0)"/>
      <use xlink:href="#DejaVuSerif-73" transform="translate(457.958984 0)"/>
      <use xlink:href="#DejaVuSerif-74" transform="translate(509.277344 0)"/>
      <use xlink:href="#DejaVuSerif-2d" transform="translate(549.462891 0)"/>
      <use xlink:href="#DejaVuSerif-70" transform="translate(583.251953 0)"/>
      <use xlink:href="#DejaVuSerif-65" transform="translate(647.265625 0)"/>
      <use xlink:href="#DejaVuSerif-72" transform="translate(706.445312 0)"/>
      <use xlink:href="#DejaVuSerif-66" transform="translate(754.248047 0)"/>
      <use xlink:href="#DejaVuSerif-6f" transform="translate(791.259766 0)"/>
      <use xlink:href="#DejaVuSerif-72" transform="translate(851.464844 0)"/>
      <use xlink:href="#DejaVuSerif-6d" transform="translate(899.267578 0)"/>
      <use xlink:href="#DejaVuSerif-65" transform="translate(994.091797 0)"/>
      <use xlink:href="#DejaVuSerif-72" transform="translate(1053.271484 0)"/>
      <use xlink:href="#DejaVuSerif-29" transform="translate(1101.074219 0)"/>
     </g>
    </g>
   </g>
  </g>
 </g>
 <defs>
  <clipPath id="p0c57f0787f">
   <rect x="68.640211" y="36.883275" width="446.4" height="332.64"/>
  </clipPath>
 </defs>
</svg>
