<?xml version="1.0" encoding="utf-8" standalone="no"?>
<!DOCTYPE svg PUBLIC "-//W3C//DTD SVG 1.1//EN"
  "http://www.w3.org/Graphics/SVG/1.1/DTD/svg11.dtd">
<svg xmlns:xlink="http://www.w3.org/1999/xlink" width="640.993672pt" height="401.348469pt" viewBox="0 0 640.993672 401.348469" xmlns="http://www.w3.org/2000/svg" version="1.1">
 <metadata>
  <rdf:RDF xmlns:dc="http://purl.org/dc/elements/1.1/" xmlns:cc="http://creativecommons.org/ns#" xmlns:rdf="http://www.w3.org/1999/02/22-rdf-syntax-ns#">
   <cc:Work>
    <dc:type rdf:resource="http://purl.org/dc/dcmitype/StillImage"/>
    <dc:date>2026-06-03T11:56:43.450761</dc:date>
    <dc:format>image/svg+xml</dc:format>
    <dc:creator>
     <cc:Agent>
      <dc:title>Matplotlib v3.10.8, https://matplotlib.org/</dc:title>
     </cc:Agent>
    </dc:creator>
   </cc:Work>
  </rdf:RDF>
 </metadata>
 <defs>
  <style type="text/css">*{stroke-linejoin: round; stroke-linecap: butt}</style>
 </defs>
 <g id="figure_1">
  <g id="patch_1">
   <path d="M 0 401.348469 
L 640.993672 401.348469 
L 640.993672 0 
L 0 0 
z
" style="fill: #ffffff"/>
  </g>
  <g id="axes_1">
   <g id="patch_2">
    <path d="M 118.122969 355.869937 
L 620.322969 355.869937 
L 620.322969 23.229937 
L 118.122969 23.229937 
z
" style="fill: #ffffff"/>
   </g>
   <g id="matplotlib.axis_1">
    <g id="xtick_1">
     <g id="line2d_1">
      <path d="M 118.122969 355.869937 
L 118.122969 23.229937 
" clip-path="url(#pfffcd7e76e)" style="fill: none; stroke: #cccccc; stroke-linecap: round"/>
     </g>
     <g id="text_1">
      <!-- 0.00 -->
      <g style="fill: #262626" transform="translate(104.652266 374.564047) scale(0.121 -0.121)">
       <defs>
        <path id="DejaVuSerif-30" d="M 2034 219 
Q 2513 219 2750 744 
Q 2988 1269 2988 2328 
Q 2988 3391 2750 3916 
Q 2513 4441 2034 4441 
Q 1556 4441 1318 3916 
Q 1081 3391 1081 2328 
Q 1081 1269 1318 744 
Q 1556 219 2034 219 
z
M 2034 -91 
Q 1275 -91 848 546 
Q 422 1184 422 2328 
Q 422 3475 848 4112 
Q 1275 4750 2034 4750 
Q 2797 4750 3222 4112 
Q 3647 3475 3647 2328 
Q 3647 1184 3222 546 
Q 2797 -91 2034 -91 
z
" transform="scale(0.015625)"/>
        <path id="DejaVuSerif-2e" d="M 603 325 
Q 603 500 722 622 
Q 841 744 1019 744 
Q 1191 744 1312 622 
Q 1434 500 1434 325 
Q 1434 153 1312 31 
Q 1191 -91 1019 -91 
Q 841 -91 722 29 
Q 603 150 603 325 
z
" transform="scale(0.015625)"/>
       </defs>
       <use xlink:href="#DejaVuSerif-30"/>
       <use xlink:href="#DejaVuSerif-2e" transform="translate(63.623047 0)"/>
       <use xlink:href="#DejaVuSerif-30" transform="translate(95.410156 0)"/>
       <use xlink:href="#DejaVuSerif-30" transform="translate(159.033203 0)"/>
      </g>
     </g>
    </g>
    <g id="xtick_2">
     <g id="line2d_2">
      <path d="M 189.865826 355.869937 
L 189.865826 23.229937 
" clip-path="url(#pfffcd7e76e)" style="fill: none; stroke: #cccccc; stroke-linecap: round"/>
     </g>
     <g id="text_2">
      <!-- 0.05 -->
      <g style="fill: #262626" transform="translate(176.395123 374.564047) scale(0.121 -0.121)">
       <defs>
        <path id="DejaVuSerif-35" d="M 3219 4666 
L 3219 4153 
L 1081 4153 
L 1081 2816 
Q 1244 2928 1461 2984 
Q 1678 3041 1947 3041 
Q 2703 3041 3140 2622 
Q 3578 2203 3578 1478 
Q 3578 738 3136 323 
Q 2694 -91 1894 -91 
Q 1572 -91 1234 -12 
Q 897 66 544 225 
L 544 1131 
L 897 1131 
Q 925 688 1179 453 
Q 1434 219 1894 219 
Q 2388 219 2653 544 
Q 2919 869 2919 1478 
Q 2919 2084 2655 2407 
Q 2391 2731 1894 2731 
Q 1613 2731 1398 2631 
Q 1184 2531 1019 2322 
L 750 2322 
L 750 4666 
L 3219 4666 
z
" transform="scale(0.015625)"/>
       </defs>
       <use xlink:href="#DejaVuSerif-30"/>
       <use xlink:href="#DejaVuSerif-2e" transform="translate(63.623047 0)"/>
       <use xlink:href="#DejaVuSerif-30" transform="translate(95.410156 0)"/>
       <use xlink:href="#DejaVuSerif-35" transform="translate(159.033203 0)"/>
      </g>
     </g>
    </g>
    <g id="xtick_3">
     <g id="line2d_3">
      <path d="M 261.608683 355.869937 
L 261.608683 23.229937 
" clip-path="url(#pfffcd7e76e)" style="fill: none; stroke: #cccccc; stroke-linecap: round"/>
     </g>
     <g id="text_3">
      <!-- 0.10 -->
      <g style="fill: #262626" transform="translate(248.13798 374.564047) scale(0.121 -0.121)">
       <defs>
        <path id="DejaVuSerif-31" d="M 909 0 
L 909 331 
L 1722 331 
L 1722 4213 
L 781 3603 
L 781 4013 
L 1919 4750 
L 2350 4750 
L 2350 331 
L 3163 331 
L 3163 0 
L 909 0 
z
" transform="scale(0.015625)"/>
       </defs>
       <use xlink:href="#DejaVuSerif-30"/>
       <use xlink:href="#DejaVuSerif-2e" transform="translate(63.623047 0)"/>
       <use xlink:href="#DejaVuSerif-31" transform="translate(95.410156 0)"/>
       <use xlink:href="#DejaVuSerif-30" transform="translate(159.033203 0)"/>
      </g>
     </g>
    </g>
    <g id="xtick_4">
     <g id="line2d_4">
      <path d="M 333.35154 355.869937 
L 333.35154 23.229937 
" clip-path="url(#pfffcd7e76e)" style="fill: none; stroke: #cccccc; stroke-linecap: round"/>
     </g>
     <g id="text_4">
      <!-- 0.15 -->
      <g style="fill: #262626" transform="translate(319.880837 374.564047) scale(0.121 -0.121)">
       <use xlink:href="#DejaVuSerif-30"/>
       <use xlink:href="#DejaVuSerif-2e" transform="translate(63.623047 0)"/>
       <use xlink:href="#DejaVuSerif-31" transform="translate(95.410156 0)"/>
       <use xlink:href="#DejaVuSerif-35" transform="translate(159.033203 0)"/>
      </g>
     </g>
    </g>
    <g id="xtick_5">
     <g id="line2d_5">
      <path d="M 405.094397 355.869937 
L 405.094397 23.229937 
" clip-path="url(#pfffcd7e76e)" style="fill: none; stroke: #cccccc; stroke-linecap: round"/>
     </g>
     <g id="text_5">
      <!-- 0.20 -->
      <g style="fill: #262626" transform="translate(391.623694 374.564047) scale(0.121 -0.121)">
       <defs>
        <path id="DejaVuSerif-32" d="M 819 3553 
L 469 3553 
L 469 4384 
Q 803 4563 1142 4656 
Q 1481 4750 1806 4750 
Q 2534 4750 2956 4397 
Q 3378 4044 3378 3438 
Q 3378 2753 2422 1800 
Q 2347 1728 2309 1691 
L 1131 513 
L 3078 513 
L 3078 1088 
L 3444 1088 
L 3444 0 
L 434 0 
L 434 341 
L 1850 1753 
Q 2319 2222 2519 2614 
Q 2719 3006 2719 3438 
Q 2719 3909 2473 4175 
Q 2228 4441 1797 4441 
Q 1350 4441 1106 4219 
Q 863 3997 819 3553 
z
" transform="scale(0.015625)"/>
       </defs>
       <use xlink:href="#DejaVuSerif-30"/>
       <use xlink:href="#DejaVuSerif-2e" transform="translate(63.623047 0)"/>
       <use xlink:href="#DejaVuSerif-32" transform="translate(95.410156 0)"/>
       <use xlink:href="#DejaVuSerif-30" transform="translate(159.033203 0)"/>
      </g>
     </g>
    </g>
    <g id="xtick_6">
     <g id="line2d_6">
      <path d="M 476.837254 355.869937 
L 476.837254 23.229937 
" clip-path="url(#pfffcd7e76e)" style="fill: none; stroke: #cccccc; stroke-linecap: round"/>
     </g>
     <g id="text_6">
      <!-- 0.25 -->
      <g style="fill: #262626" transform="translate(463.366551 374.564047) scale(0.121 -0.121)">
       <use xlink:href="#DejaVuSerif-30"/>
       <use xlink:href="#DejaVuSerif-2e" transform="translate(63.623047 0)"/>
       <use xlink:href="#DejaVuSerif-32" transform="translate(95.410156 0)"/>
       <use xlink:href="#DejaVuSerif-35" transform="translate(159.033203 0)"/>
      </g>
     </g>
    </g>
    <g id="xtick_7">
     <g id="line2d_7">
      <path d="M 548.580112 355.869937 
L 548.580112 23.229937 
" clip-path="url(#pfffcd7e76e)" style="fill: none; stroke: #cccccc; stroke-linecap: round"/>
     </g>
     <g id="text_7">
      <!-- 0.30 -->
      <g style="fill: #262626" transform="translate(535.109408 374.564047) scale(0.121 -0.121)">
       <defs>
        <path id="DejaVuSerif-33" d="M 622 4469 
Q 988 4606 1323 4678 
Q 1659 4750 1953 4750 
Q 2638 4750 3022 4454 
Q 3406 4159 3406 3634 
Q 3406 3213 3140 2930 
Q 2875 2647 2388 2547 
Q 2963 2466 3280 2130 
Q 3597 1794 3597 1259 
Q 3597 606 3158 257 
Q 2719 -91 1894 -91 
Q 1528 -91 1179 -12 
Q 831 66 488 225 
L 488 1131 
L 838 1131 
Q 869 681 1141 450 
Q 1413 219 1906 219 
Q 2384 219 2661 495 
Q 2938 772 2938 1253 
Q 2938 1803 2653 2086 
Q 2369 2369 1819 2369 
L 1522 2369 
L 1522 2688 
L 1678 2688 
Q 2225 2688 2498 2914 
Q 2772 3141 2772 3597 
Q 2772 4006 2547 4223 
Q 2322 4441 1900 4441 
Q 1478 4441 1245 4241 
Q 1013 4041 972 3647 
L 622 3647 
L 622 4469 
z
" transform="scale(0.015625)"/>
       </defs>
       <use xlink:href="#DejaVuSerif-30"/>
       <use xlink:href="#DejaVuSerif-2e" transform="translate(63.623047 0)"/>
       <use xlink:href="#DejaVuSerif-33" transform="translate(95.410156 0)"/>
       <use xlink:href="#DejaVuSerif-30" transform="translate(159.033203 0)"/>
      </g>
     </g>
    </g>
    <g id="xtick_8">
     <g id="line2d_8">
      <path d="M 620.322969 355.869937 
L 620.322969 23.229937 
" clip-path="url(#pfffcd7e76e)" style="fill: none; stroke: #cccccc; stroke-linecap: round"/>
     </g>
     <g id="text_8">
      <!-- 0.35 -->
      <g style="fill: #262626" transform="translate(606.852266 374.564047) scale(0.121 -0.121)">
       <use xlink:href="#DejaVuSerif-30"/>
       <use xlink:href="#DejaVuSerif-2e" transform="translate(63.623047 0)"/>
       <use xlink:href="#DejaVuSerif-33" transform="translate(95.410156 0)"/>
       <use xlink:href="#DejaVuSerif-35" transform="translate(159.033203 0)"/>
      </g>
     </g>
    </g>
    <g id="text_9">
     <!-- Max frontier dissimilarity $1 - J$ over $\delta \in [-0.3, +0.3]$ -->
     <g style="fill: #262626" transform="translate(192.804969 391.112469) scale(0.132 -0.132)">
      <defs>
       <path id="DejaVuSerif-4d" d="M 353 0 
L 353 331 
L 947 331 
L 947 4331 
L 319 4331 
L 319 4666 
L 1678 4666 
L 3316 1344 
L 4953 4666 
L 6228 4666 
L 6228 4331 
L 5606 4331 
L 5606 331 
L 6203 331 
L 6203 0 
L 4378 0 
L 4378 331 
L 4972 331 
L 4972 3938 
L 3372 684 
L 2931 684 
L 1331 3938 
L 1331 331 
L 1925 331 
L 1925 0 
L 353 0 
z
" transform="scale(0.015625)"/>
       <path id="DejaVuSerif-61" d="M 2547 1044 
L 2547 1747 
L 1806 1747 
Q 1378 1747 1168 1562 
Q 959 1378 959 997 
Q 959 650 1171 447 
Q 1384 244 1747 244 
Q 2106 244 2326 466 
Q 2547 688 2547 1044 
z
M 3122 2075 
L 3122 331 
L 3634 331 
L 3634 0 
L 2547 0 
L 2547 359 
Q 2356 128 2106 18 
Q 1856 -91 1522 -91 
Q 969 -91 644 203 
Q 319 497 319 997 
Q 319 1513 691 1797 
Q 1063 2081 1741 2081 
L 2547 2081 
L 2547 2309 
Q 2547 2688 2317 2895 
Q 2088 3103 1672 3103 
Q 1328 3103 1125 2947 
Q 922 2791 872 2484 
L 575 2484 
L 575 3156 
Q 875 3284 1158 3348 
Q 1441 3413 1709 3413 
Q 2400 3413 2761 3070 
Q 3122 2728 3122 2075 
z
" transform="scale(0.015625)"/>
       <path id="DejaVuSerif-78" d="M 1863 2028 
L 2559 2988 
L 2113 2988 
L 2113 3322 
L 3391 3322 
L 3391 2988 
L 2950 2988 
L 2059 1759 
L 3097 331 
L 3531 331 
L 3531 0 
L 1997 0 
L 1997 331 
L 2419 331 
L 1697 1325 
L 972 331 
L 1403 331 
L 1403 0 
L 141 0 
L 141 331 
L 581 331 
L 1497 1594 
L 488 2988 
L 78 2988 
L 78 3322 
L 1563 3322 
L 1563 2988 
L 1166 2988 
L 1863 2028 
z
" transform="scale(0.015625)"/>
       <path id="DejaVuSerif-20" transform="scale(0.015625)"/>
       <path id="DejaVuSerif-66" d="M 2753 4078 
L 2450 4078 
Q 2447 4313 2317 4434 
Q 2188 4556 1941 4556 
Q 1619 4556 1487 4379 
Q 1356 4203 1356 3750 
L 1356 3322 
L 2284 3322 
L 2284 2988 
L 1356 2988 
L 1356 331 
L 2094 331 
L 2094 0 
L 231 0 
L 231 331 
L 781 331 
L 781 2988 
L 231 2988 
L 231 3322 
L 781 3322 
L 781 3738 
Q 781 4294 1070 4578 
Q 1359 4863 1919 4863 
Q 2128 4863 2337 4825 
Q 2547 4788 2753 4709 
L 2753 4078 
z
" transform="scale(0.015625)"/>
       <path id="DejaVuSerif-72" d="M 3059 3328 
L 3059 2497 
L 2728 2497 
Q 2713 2744 2591 2866 
Q 2469 2988 2234 2988 
Q 1809 2988 1582 2694 
Q 1356 2400 1356 1850 
L 1356 331 
L 2022 331 
L 2022 0 
L 263 0 
L 263 331 
L 781 331 
L 781 2994 
L 231 2994 
L 231 3322 
L 1356 3322 
L 1356 2731 
Q 1525 3078 1790 3245 
Q 2056 3413 2438 3413 
Q 2578 3413 2733 3391 
Q 2888 3369 3059 3328 
z
" transform="scale(0.015625)"/>
       <path id="DejaVuSerif-6f" d="M 1925 219 
Q 2388 219 2623 584 
Q 2859 950 2859 1663 
Q 2859 2375 2623 2739 
Q 2388 3103 1925 3103 
Q 1463 3103 1227 2739 
Q 991 2375 991 1663 
Q 991 950 1228 584 
Q 1466 219 1925 219 
z
M 1925 -91 
Q 1200 -91 759 389 
Q 319 869 319 1663 
Q 319 2456 758 2934 
Q 1197 3413 1925 3413 
Q 2653 3413 3092 2934 
Q 3531 2456 3531 1663 
Q 3531 869 3092 389 
Q 2653 -91 1925 -91 
z
" transform="scale(0.015625)"/>
       <path id="DejaVuSerif-6e" d="M 263 0 
L 263 331 
L 781 331 
L 781 2988 
L 231 2988 
L 231 3322 
L 1356 3322 
L 1356 2731 
Q 1516 3069 1770 3241 
Q 2025 3413 2363 3413 
Q 2913 3413 3172 3097 
Q 3431 2781 3431 2113 
L 3431 331 
L 3944 331 
L 3944 0 
L 2356 0 
L 2356 331 
L 2853 331 
L 2853 1931 
Q 2853 2541 2703 2767 
Q 2553 2994 2175 2994 
Q 1775 2994 1565 2701 
Q 1356 2409 1356 1850 
L 1356 331 
L 1856 331 
L 1856 0 
L 263 0 
z
" transform="scale(0.015625)"/>
       <path id="DejaVuSerif-74" d="M 691 2988 
L 184 2988 
L 184 3322 
L 691 3322 
L 691 4353 
L 1269 4353 
L 1269 3322 
L 2350 3322 
L 2350 2988 
L 1269 2988 
L 1269 878 
Q 1269 456 1350 337 
Q 1431 219 1650 219 
Q 1875 219 1978 351 
Q 2081 484 2088 781 
L 2522 781 
Q 2497 328 2275 118 
Q 2053 -91 1600 -91 
Q 1103 -91 897 129 
Q 691 350 691 878 
L 691 2988 
z
" transform="scale(0.015625)"/>
       <path id="DejaVuSerif-69" d="M 622 4353 
Q 622 4497 726 4603 
Q 831 4709 978 4709 
Q 1122 4709 1226 4603 
Q 1331 4497 1331 4353 
Q 1331 4206 1228 4103 
Q 1125 4000 978 4000 
Q 831 4000 726 4103 
Q 622 4206 622 4353 
z
M 1356 331 
L 1900 331 
L 1900 0 
L 231 0 
L 231 331 
L 781 331 
L 781 2988 
L 231 2988 
L 231 3322 
L 1356 3322 
L 1356 331 
z
" transform="scale(0.015625)"/>
       <path id="DejaVuSerif-65" d="M 3469 1600 
L 991 1600 
L 991 1575 
Q 991 903 1244 561 
Q 1497 219 1991 219 
Q 2369 219 2611 417 
Q 2853 616 2950 1006 
L 3413 1006 
Q 3275 459 2904 184 
Q 2534 -91 1931 -91 
Q 1203 -91 761 389 
Q 319 869 319 1663 
Q 319 2450 753 2931 
Q 1188 3413 1894 3413 
Q 2647 3413 3050 2948 
Q 3453 2484 3469 1600 
z
M 2791 1931 
Q 2772 2513 2545 2808 
Q 2319 3103 1894 3103 
Q 1497 3103 1269 2806 
Q 1041 2509 991 1931 
L 2791 1931 
z
" transform="scale(0.015625)"/>
       <path id="DejaVuSerif-64" d="M 3359 331 
L 3909 331 
L 3909 0 
L 2784 0 
L 2784 519 
Q 2616 206 2355 57 
Q 2094 -91 1709 -91 
Q 1097 -91 708 395 
Q 319 881 319 1663 
Q 319 2444 706 2928 
Q 1094 3413 1709 3413 
Q 2094 3413 2355 3264 
Q 2616 3116 2784 2803 
L 2784 4531 
L 2241 4531 
L 2241 4863 
L 3359 4863 
L 3359 331 
z
M 2784 1497 
L 2784 1825 
Q 2784 2422 2554 2737 
Q 2325 3053 1888 3053 
Q 1444 3053 1217 2703 
Q 991 2353 991 1663 
Q 991 975 1217 622 
Q 1444 269 1888 269 
Q 2325 269 2554 583 
Q 2784 897 2784 1497 
z
" transform="scale(0.015625)"/>
       <path id="DejaVuSerif-73" d="M 359 184 
L 359 959 
L 691 959 
Q 703 588 923 403 
Q 1144 219 1575 219 
Q 1963 219 2166 364 
Q 2369 509 2369 788 
Q 2369 1006 2220 1140 
Q 2072 1275 1594 1428 
L 1178 1569 
Q 750 1706 558 1912 
Q 366 2119 366 2438 
Q 366 2894 700 3153 
Q 1034 3413 1625 3413 
Q 1888 3413 2178 3344 
Q 2469 3275 2778 3144 
L 2778 2419 
L 2447 2419 
Q 2434 2741 2221 2922 
Q 2009 3103 1644 3103 
Q 1281 3103 1095 2975 
Q 909 2847 909 2591 
Q 909 2381 1050 2254 
Q 1191 2128 1613 1997 
L 2069 1856 
Q 2541 1709 2748 1489 
Q 2956 1269 2956 922 
Q 2956 450 2595 179 
Q 2234 -91 1600 -91 
Q 1278 -91 972 -22 
Q 666 47 359 184 
z
" transform="scale(0.015625)"/>
       <path id="DejaVuSerif-6d" d="M 3316 2675 
Q 3481 3041 3739 3227 
Q 3997 3413 4341 3413 
Q 4863 3413 5119 3089 
Q 5375 2766 5375 2113 
L 5375 331 
L 5894 331 
L 5894 0 
L 4300 0 
L 4300 331 
L 4800 331 
L 4800 2047 
Q 4800 2556 4650 2772 
Q 4500 2988 4153 2988 
Q 3769 2988 3567 2697 
Q 3366 2406 3366 1850 
L 3366 331 
L 3866 331 
L 3866 0 
L 2291 0 
L 2291 331 
L 2791 331 
L 2791 2069 
Q 2791 2566 2641 2777 
Q 2491 2988 2144 2988 
Q 1759 2988 1557 2697 
Q 1356 2406 1356 1850 
L 1356 331 
L 1856 331 
L 1856 0 
L 263 0 
L 263 331 
L 781 331 
L 781 2994 
L 231 2994 
L 231 3322 
L 1356 3322 
L 1356 2731 
Q 1516 3063 1762 3238 
Q 2009 3413 2322 3413 
Q 2709 3413 2968 3220 
Q 3228 3028 3316 2675 
z
" transform="scale(0.015625)"/>
       <path id="DejaVuSerif-6c" d="M 1313 331 
L 1856 331 
L 1856 0 
L 184 0 
L 184 331 
L 738 331 
L 738 4531 
L 184 4531 
L 184 4863 
L 1313 4863 
L 1313 331 
z
" transform="scale(0.015625)"/>
       <path id="DejaVuSerif-79" d="M 1381 -609 
L 1600 -56 
L 359 2988 
L -19 2988 
L -19 3322 
L 1509 3322 
L 1509 2988 
L 978 2988 
L 1913 703 
L 2847 2988 
L 2350 2988 
L 2350 3322 
L 3597 3322 
L 3597 2988 
L 3225 2988 
L 1703 -750 
Q 1547 -1138 1356 -1280 
Q 1166 -1422 819 -1422 
Q 672 -1422 517 -1397 
Q 363 -1372 206 -1325 
L 206 -691 
L 500 -691 
Q 519 -903 608 -995 
Q 697 -1088 884 -1088 
Q 1056 -1088 1161 -992 
Q 1266 -897 1381 -609 
z
" transform="scale(0.015625)"/>
       <path id="DejaVuSans-31" d="M 794 531 
L 1825 531 
L 1825 4091 
L 703 3866 
L 703 4441 
L 1819 4666 
L 2450 4666 
L 2450 531 
L 3481 531 
L 3481 0 
L 794 0 
L 794 531 
z
" transform="scale(0.015625)"/>
       <path id="DejaVuSans-2212" d="M 678 2272 
L 4684 2272 
L 4684 1741 
L 678 1741 
L 678 2272 
z
" transform="scale(0.015625)"/>
       <path id="DejaVuSans-Oblique-4a" d="M 1069 4666 
L 1703 4666 
L 856 325 
Q 691 -522 298 -901 
Q -94 -1281 -800 -1281 
L -1050 -1281 
L -947 -750 
L -750 -750 
Q -328 -750 -109 -509 
Q 109 -269 225 325 
L 1069 4666 
z
" transform="scale(0.015625)"/>
       <path id="DejaVuSerif-76" d="M 1581 0 
L 359 2988 
L -19 2988 
L -19 3322 
L 1509 3322 
L 1509 2988 
L 978 2988 
L 1913 703 
L 2847 2988 
L 2350 2988 
L 2350 3322 
L 3597 3322 
L 3597 2988 
L 3225 2988 
L 2003 0 
L 1581 0 
z
" transform="scale(0.015625)"/>
       <path id="DejaVuSans-Oblique-3b4" d="M 3472 4053 
Q 3197 4272 2450 4272 
Q 1659 4272 1588 3906 
Q 1531 3619 2328 3469 
Q 2953 3353 3253 3003 
Q 3616 2581 3447 1716 
Q 3284 888 2763 400 
Q 2238 -91 1488 -91 
Q 741 -91 406 400 
Q 72 888 241 1747 
Q 363 2384 891 2900 
Q 1097 3100 1353 3213 
Q 913 3459 1000 3900 
Q 1166 4750 2544 4750 
Q 3234 4750 3566 4531 
L 3472 4053 
z
M 1753 3056 
Q 1525 2966 1306 2738 
Q 969 2384 847 1747 
Q 722 1113 919 756 
Q 1119 397 1584 397 
Q 2044 397 2381 759 
Q 2722 1122 2838 1716 
Q 2956 2338 2731 2638 
Q 2491 2959 2103 2994 
Q 1906 3013 1753 3056 
z
" transform="scale(0.015625)"/>
       <path id="DejaVuSans-2208" d="M 1072 1959 
Q 1094 1728 1291 1353 
Q 1522 919 1959 675 
Q 2388 438 2850 434 
L 5028 434 
L 5028 -63 
L 2850 -63 
Q 2250 -63 1695 246 
Q 1141 556 844 1106 
Q 547 1656 547 2241 
Q 547 2819 844 3369 
Q 1141 3919 1695 4231 
Q 2250 4544 2850 4544 
L 5028 4544 
L 5028 4047 
L 2850 4047 
Q 2388 4044 1959 3803 
Q 1525 3556 1291 3125 
Q 1091 2750 1063 2459 
L 5028 2459 
L 5028 1959 
L 1072 1959 
z
" transform="scale(0.015625)"/>
       <path id="DejaVuSans-5b" d="M 550 4863 
L 1875 4863 
L 1875 4416 
L 1125 4416 
L 1125 -397 
L 1875 -397 
L 1875 -844 
L 550 -844 
L 550 4863 
z
" transform="scale(0.015625)"/>
       <path id="DejaVuSans-30" d="M 2034 4250 
Q 1547 4250 1301 3770 
Q 1056 3291 1056 2328 
Q 1056 1369 1301 889 
Q 1547 409 2034 409 
Q 2525 409 2770 889 
Q 3016 1369 3016 2328 
Q 3016 3291 2770 3770 
Q 2525 4250 2034 4250 
z
M 2034 4750 
Q 2819 4750 3233 4129 
Q 3647 3509 3647 2328 
Q 3647 1150 3233 529 
Q 2819 -91 2034 -91 
Q 1250 -91 836 529 
Q 422 1150 422 2328 
Q 422 3509 836 4129 
Q 1250 4750 2034 4750 
z
" transform="scale(0.015625)"/>
       <path id="DejaVuSans-2e" d="M 684 794 
L 1344 794 
L 1344 0 
L 684 0 
L 684 794 
z
" transform="scale(0.015625)"/>
       <path id="DejaVuSans-33" d="M 2597 2516 
Q 3050 2419 3304 2112 
Q 3559 1806 3559 1356 
Q 3559 666 3084 287 
Q 2609 -91 1734 -91 
Q 1441 -91 1130 -33 
Q 819 25 488 141 
L 488 750 
Q 750 597 1062 519 
Q 1375 441 1716 441 
Q 2309 441 2620 675 
Q 2931 909 2931 1356 
Q 2931 1769 2642 2001 
Q 2353 2234 1838 2234 
L 1294 2234 
L 1294 2753 
L 1863 2753 
Q 2328 2753 2575 2939 
Q 2822 3125 2822 3475 
Q 2822 3834 2567 4026 
Q 2313 4219 1838 4219 
Q 1578 4219 1281 4162 
Q 984 4106 628 3988 
L 628 4550 
Q 988 4650 1302 4700 
Q 1616 4750 1894 4750 
Q 2613 4750 3031 4423 
Q 3450 4097 3450 3541 
Q 3450 3153 3228 2886 
Q 3006 2619 2597 2516 
z
" transform="scale(0.015625)"/>
       <path id="DejaVuSans-2c" d="M 750 794 
L 1409 794 
L 1409 256 
L 897 -744 
L 494 -744 
L 750 256 
L 750 794 
z
" transform="scale(0.015625)"/>
       <path id="DejaVuSans-2b" d="M 2944 4013 
L 2944 2272 
L 4684 2272 
L 4684 1741 
L 2944 1741 
L 2944 0 
L 2419 0 
L 2419 1741 
L 678 1741 
L 678 2272 
L 2419 2272 
L 2419 4013 
L 2944 4013 
z
" transform="scale(0.015625)"/>
       <path id="DejaVuSans-5d" d="M 1947 4863 
L 1947 -844 
L 622 -844 
L 622 -397 
L 1369 -397 
L 1369 4416 
L 622 4416 
L 622 4863 
L 1947 4863 
z
" transform="scale(0.015625)"/>
      </defs>
      <use xlink:href="#DejaVuSerif-4d" transform="translate(0 0.015625)"/>
      <use xlink:href="#DejaVuSerif-61" transform="translate(102.392578 0.015625)"/>
      <use xlink:href="#DejaVuSerif-78" transform="translate(162.011719 0.015625)"/>
      <use xlink:href="#DejaVuSerif-20" transform="translate(218.408203 0.015625)"/>
      <use xlink:href="#DejaVuSerif-66" transform="translate(250.195312 0.015625)"/>
      <use xlink:href="#DejaVuSerif-72" transform="translate(287.207031 0.015625)"/>
      <use xlink:href="#DejaVuSerif-6f" transform="translate(335.009766 0.015625)"/>
      <use xlink:href="#DejaVuSerif-6e" transform="translate(395.214844 0.015625)"/>
      <use xlink:href="#DejaVuSerif-74" transform="translate(459.619141 0.015625)"/>
      <use xlink:href="#DejaVuSerif-69" transform="translate(499.804688 0.015625)"/>
      <use xlink:href="#DejaVuSerif-65" transform="translate(531.787109 0.015625)"/>
      <use xlink:href="#DejaVuSerif-72" transform="translate(590.966797 0.015625)"/>
      <use xlink:href="#DejaVuSerif-20" transform="translate(638.769531 0.015625)"/>
      <use xlink:href="#DejaVuSerif-64" transform="translate(670.556641 0.015625)"/>
      <use xlink:href="#DejaVuSerif-69" transform="translate(734.570312 0.015625)"/>
      <use xlink:href="#DejaVuSerif-73" transform="translate(766.552734 0.015625)"/>
      <use xlink:href="#DejaVuSerif-73" transform="translate(817.871094 0.015625)"/>
      <use xlink:href="#DejaVuSerif-69" transform="translate(869.189453 0.015625)"/>
      <use xlink:href="#DejaVuSerif-6d" transform="translate(901.171875 0.015625)"/>
      <use xlink:href="#DejaVuSerif-69" transform="translate(995.996094 0.015625)"/>
      <use xlink:href="#DejaVuSerif-6c" transform="translate(1027.978516 0.015625)"/>
      <use xlink:href="#DejaVuSerif-61" transform="translate(1059.960938 0.015625)"/>
      <use xlink:href="#DejaVuSerif-72" transform="translate(1119.580078 0.015625)"/>
      <use xlink:href="#DejaVuSerif-69" transform="translate(1167.382812 0.015625)"/>
      <use xlink:href="#DejaVuSerif-74" transform="translate(1199.365234 0.015625)"/>
      <use xlink:href="#DejaVuSerif-79" transform="translate(1239.550781 0.015625)"/>
      <use xlink:href="#DejaVuSerif-20" transform="translate(1296.044922 0.015625)"/>
      <use xlink:href="#DejaVuSans-31" transform="translate(1327.832031 0.015625)"/>
      <use xlink:href="#DejaVuSans-2212" transform="translate(1410.9375 0.015625)"/>
      <use xlink:href="#DejaVuSans-Oblique-4a" transform="translate(1514.208984 0.015625)"/>
      <use xlink:href="#DejaVuSerif-20" transform="translate(1543.701172 0.015625)"/>
      <use xlink:href="#DejaVuSerif-6f" transform="translate(1575.488281 0.015625)"/>
      <use xlink:href="#DejaVuSerif-76" transform="translate(1635.693359 0.015625)"/>
      <use xlink:href="#DejaVuSerif-65" transform="translate(1692.1875 0.015625)"/>
      <use xlink:href="#DejaVuSerif-72" transform="translate(1751.367188 0.015625)"/>
      <use xlink:href="#DejaVuSerif-20" transform="translate(1799.169922 0.015625)"/>
      <use xlink:href="#DejaVuSans-Oblique-3b4" transform="translate(1830.957031 0.015625)"/>
      <use xlink:href="#DejaVuSans-2208" transform="translate(1911.621094 0.015625)"/>
      <use xlink:href="#DejaVuSans-5b" transform="translate(2018.212891 0.015625)"/>
      <use xlink:href="#DejaVuSans-2212" transform="translate(2057.226562 0.015625)"/>
      <use xlink:href="#DejaVuSans-30" transform="translate(2141.015625 0.015625)"/>
      <use xlink:href="#DejaVuSans-2e" transform="translate(2204.638672 0.015625)"/>
      <use xlink:href="#DejaVuSans-33" transform="translate(2236.425781 0.015625)"/>
      <use xlink:href="#DejaVuSans-2c" transform="translate(2300.048828 0.015625)"/>
      <use xlink:href="#DejaVuSans-2b" transform="translate(2370.800781 0.015625)"/>
      <use xlink:href="#DejaVuSans-30" transform="translate(2474.072266 0.015625)"/>
      <use xlink:href="#DejaVuSans-2e" transform="translate(2537.695312 0.015625)"/>
      <use xlink:href="#DejaVuSans-33" transform="translate(2569.482422 0.015625)"/>
      <use xlink:href="#DejaVuSans-5d" transform="translate(2633.105469 0.015625)"/>
     </g>
    </g>
   </g>
   <g id="matplotlib.axis_2">
    <g id="ytick_1">
     <g id="line2d_9">
      <path d="M 118.122969 322.961702 
L 620.322969 322.961702 
" clip-path="url(#pfffcd7e76e)" style="fill: none; stroke: #cccccc; stroke-linecap: round"/>
     </g>
     <g id="text_10">
      <!-- PHIT_marginal -->
      <g style="fill: #262626" transform="translate(39.777187 326.380999) scale(0.09 -0.09)">
       <defs>
        <path id="DejaVuSerif-50" d="M 1581 2375 
L 2406 2375 
Q 2872 2375 3115 2626 
Q 3359 2878 3359 3353 
Q 3359 3831 3115 4081 
Q 2872 4331 2406 4331 
L 1581 4331 
L 1581 2375 
z
M 353 0 
L 353 331 
L 947 331 
L 947 4331 
L 353 4331 
L 353 4666 
L 2559 4666 
Q 3259 4666 3668 4311 
Q 4078 3956 4078 3353 
Q 4078 2753 3668 2397 
Q 3259 2041 2559 2041 
L 1581 2041 
L 1581 331 
L 2303 331 
L 2303 0 
L 353 0 
z
" transform="scale(0.015625)"/>
        <path id="DejaVuSerif-48" d="M 353 0 
L 353 331 
L 947 331 
L 947 4331 
L 353 4331 
L 353 4666 
L 2175 4666 
L 2175 4331 
L 1581 4331 
L 1581 2719 
L 4000 2719 
L 4000 4331 
L 3406 4331 
L 3406 4666 
L 5228 4666 
L 5228 4331 
L 4634 4331 
L 4634 331 
L 5228 331 
L 5228 0 
L 3406 0 
L 3406 331 
L 4000 331 
L 4000 2338 
L 1581 2338 
L 1581 331 
L 2175 331 
L 2175 0 
L 353 0 
z
" transform="scale(0.015625)"/>
        <path id="DejaVuSerif-49" d="M 1581 331 
L 2175 331 
L 2175 0 
L 353 0 
L 353 331 
L 947 331 
L 947 4331 
L 353 4331 
L 353 4666 
L 2175 4666 
L 2175 4331 
L 1581 4331 
L 1581 331 
z
" transform="scale(0.015625)"/>
        <path id="DejaVuSerif-54" d="M 1222 0 
L 1222 331 
L 1819 331 
L 1819 4294 
L 447 4294 
L 447 3566 
L 63 3566 
L 63 4666 
L 4206 4666 
L 4206 3566 
L 3822 3566 
L 3822 4294 
L 2450 4294 
L 2450 331 
L 3047 331 
L 3047 0 
L 1222 0 
z
" transform="scale(0.015625)"/>
        <path id="DejaVuSerif-5f" d="M 3200 -1259 
L 3200 -1509 
L 0 -1509 
L 0 -1259 
L 3200 -1259 
z
" transform="scale(0.015625)"/>
        <path id="DejaVuSerif-67" d="M 3359 2988 
L 3359 72 
Q 3359 -644 2965 -1033 
Q 2572 -1422 1844 -1422 
Q 1516 -1422 1216 -1362 
Q 916 -1303 641 -1184 
L 641 -488 
L 941 -488 
Q 997 -813 1206 -963 
Q 1416 -1113 1806 -1113 
Q 2313 -1113 2548 -827 
Q 2784 -541 2784 72 
L 2784 519 
Q 2616 206 2355 57 
Q 2094 -91 1709 -91 
Q 1097 -91 708 395 
Q 319 881 319 1663 
Q 319 2444 706 2928 
Q 1094 3413 1709 3413 
Q 2094 3413 2355 3264 
Q 2616 3116 2784 2803 
L 2784 3322 
L 3909 3322 
L 3909 2988 
L 3359 2988 
z
M 2784 1825 
Q 2784 2422 2554 2737 
Q 2325 3053 1888 3053 
Q 1444 3053 1217 2703 
Q 991 2353 991 1663 
Q 991 975 1217 622 
Q 1444 269 1888 269 
Q 2325 269 2554 583 
Q 2784 897 2784 1497 
L 2784 1825 
z
" transform="scale(0.015625)"/>
       </defs>
       <use xlink:href="#DejaVuSerif-50"/>
       <use xlink:href="#DejaVuSerif-48" transform="translate(67.285156 0)"/>
       <use xlink:href="#DejaVuSerif-49" transform="translate(154.492188 0)"/>
       <use xlink:href="#DejaVuSerif-54" transform="translate(193.994141 0)"/>
       <use xlink:href="#DejaVuSerif-5f" transform="translate(260.693359 0)"/>
       <use xlink:href="#DejaVuSerif-6d" transform="translate(310.693359 0)"/>
       <use xlink:href="#DejaVuSerif-61" transform="translate(405.517578 0)"/>
       <use xlink:href="#DejaVuSerif-72" transform="translate(465.136719 0)"/>
       <use xlink:href="#DejaVuSerif-67" transform="translate(512.939453 0)"/>
       <use xlink:href="#DejaVuSerif-69" transform="translate(576.953125 0)"/>
       <use xlink:href="#DejaVuSerif-6e" transform="translate(608.935547 0)"/>
       <use xlink:href="#DejaVuSerif-61" transform="translate(673.339844 0)"/>
       <use xlink:href="#DejaVuSerif-6c" transform="translate(732.958984 0)"/>
      </g>
     </g>
    </g>
    <g id="ytick_2">
     <g id="line2d_10">
      <path d="M 118.122969 278.491114 
L 620.322969 278.491114 
" clip-path="url(#pfffcd7e76e)" style="fill: none; stroke: #cccccc; stroke-linecap: round"/>
     </g>
     <g id="text_11">
      <!-- SWT_marginal -->
      <g style="fill: #262626" transform="translate(41.820469 281.910411) scale(0.09 -0.09)">
       <defs>
        <path id="DejaVuSerif-53" d="M 594 225 
L 594 1288 
L 953 1284 
Q 969 753 1261 498 
Q 1553 244 2150 244 
Q 2706 244 2998 464 
Q 3291 684 3291 1106 
Q 3291 1444 3114 1625 
Q 2938 1806 2369 1978 
L 1753 2163 
Q 1084 2366 811 2669 
Q 538 2972 538 3500 
Q 538 4094 959 4422 
Q 1381 4750 2144 4750 
Q 2469 4750 2856 4679 
Q 3244 4609 3681 4475 
L 3681 3481 
L 3328 3481 
Q 3275 3975 2998 4195 
Q 2722 4416 2156 4416 
Q 1663 4416 1405 4214 
Q 1147 4013 1147 3628 
Q 1147 3294 1340 3103 
Q 1534 2913 2163 2725 
L 2741 2553 
Q 3375 2363 3645 2067 
Q 3916 1772 3916 1275 
Q 3916 597 3481 253 
Q 3047 -91 2188 -91 
Q 1803 -91 1404 -12 
Q 1006 66 594 225 
z
" transform="scale(0.015625)"/>
        <path id="DejaVuSerif-57" d="M 4878 0 
L 4366 0 
L 3297 3794 
L 2228 0 
L 1716 0 
L 494 4331 
L 31 4331 
L 31 4666 
L 1734 4666 
L 1734 4331 
L 1153 4331 
L 2125 884 
L 3188 4666 
L 3694 4666 
L 4775 844 
L 5753 4331 
L 5216 4331 
L 5216 4666 
L 6559 4666 
L 6559 4331 
L 6100 4331 
L 4878 0 
z
" transform="scale(0.015625)"/>
       </defs>
       <use xlink:href="#DejaVuSerif-53"/>
       <use xlink:href="#DejaVuSerif-57" transform="translate(68.505859 0)"/>
       <use xlink:href="#DejaVuSerif-54" transform="translate(171.289062 0)"/>
       <use xlink:href="#DejaVuSerif-5f" transform="translate(237.988281 0)"/>
       <use xlink:href="#DejaVuSerif-6d" transform="translate(287.988281 0)"/>
       <use xlink:href="#DejaVuSerif-61" transform="translate(382.8125 0)"/>
       <use xlink:href="#DejaVuSerif-72" transform="translate(442.431641 0)"/>
       <use xlink:href="#DejaVuSerif-67" transform="translate(490.234375 0)"/>
       <use xlink:href="#DejaVuSerif-69" transform="translate(554.248047 0)"/>
       <use xlink:href="#DejaVuSerif-6e" transform="translate(586.230469 0)"/>
       <use xlink:href="#DejaVuSerif-61" transform="translate(650.634766 0)"/>
       <use xlink:href="#DejaVuSerif-6c" transform="translate(710.253906 0)"/>
      </g>
     </g>
    </g>
    <g id="ytick_3">
     <g id="line2d_11">
      <path d="M 118.122969 234.020526 
L 620.322969 234.020526 
" clip-path="url(#pfffcd7e76e)" style="fill: none; stroke: #cccccc; stroke-linecap: round"/>
     </g>
     <g id="text_12">
      <!-- SWT_standalone -->
      <g style="fill: #262626" transform="translate(32.758594 237.439823) scale(0.09 -0.09)">
       <use xlink:href="#DejaVuSerif-53"/>
       <use xlink:href="#DejaVuSerif-57" transform="translate(68.505859 0)"/>
       <use xlink:href="#DejaVuSerif-54" transform="translate(171.289062 0)"/>
       <use xlink:href="#DejaVuSerif-5f" transform="translate(237.988281 0)"/>
       <use xlink:href="#DejaVuSerif-73" transform="translate(287.988281 0)"/>
       <use xlink:href="#DejaVuSerif-74" transform="translate(339.306641 0)"/>
       <use xlink:href="#DejaVuSerif-61" transform="translate(379.492188 0)"/>
       <use xlink:href="#DejaVuSerif-6e" transform="translate(439.111328 0)"/>
       <use xlink:href="#DejaVuSerif-64" transform="translate(503.515625 0)"/>
       <use xlink:href="#DejaVuSerif-61" transform="translate(567.529297 0)"/>
       <use xlink:href="#DejaVuSerif-6c" transform="translate(627.148438 0)"/>
       <use xlink:href="#DejaVuSerif-6f" transform="translate(659.130859 0)"/>
       <use xlink:href="#DejaVuSerif-6e" transform="translate(719.335938 0)"/>
       <use xlink:href="#DejaVuSerif-65" transform="translate(783.740234 0)"/>
      </g>
     </g>
    </g>
    <g id="ytick_4">
     <g id="line2d_12">
      <path d="M 118.122969 189.549937 
L 620.322969 189.549937 
" clip-path="url(#pfffcd7e76e)" style="fill: none; stroke: #cccccc; stroke-linecap: round"/>
     </g>
     <g id="text_13">
      <!-- CPOR_SM_standalone -->
      <g style="fill: #262626" transform="translate(7.2 192.969234) scale(0.09 -0.09)">
       <defs>
        <path id="DejaVuSerif-43" d="M 4513 1234 
Q 4306 581 3820 245 
Q 3334 -91 2591 -91 
Q 2134 -91 1743 65 
Q 1353 222 1050 525 
Q 700 875 529 1320 
Q 359 1766 359 2328 
Q 359 3416 987 4083 
Q 1616 4750 2644 4750 
Q 3025 4750 3456 4650 
Q 3888 4550 4384 4347 
L 4384 3272 
L 4031 3272 
Q 3916 3859 3567 4137 
Q 3219 4416 2591 4416 
Q 1844 4416 1459 3886 
Q 1075 3356 1075 2328 
Q 1075 1303 1459 773 
Q 1844 244 2591 244 
Q 3113 244 3450 492 
Q 3788 741 3938 1234 
L 4513 1234 
z
" transform="scale(0.015625)"/>
        <path id="DejaVuSerif-4f" d="M 2625 244 
Q 3391 244 3781 770 
Q 4172 1297 4172 2328 
Q 4172 3363 3781 3889 
Q 3391 4416 2625 4416 
Q 1856 4416 1465 3889 
Q 1075 3363 1075 2328 
Q 1075 1297 1465 770 
Q 1856 244 2625 244 
z
M 2625 -91 
Q 2150 -91 1751 65 
Q 1353 222 1050 525 
Q 700 875 529 1319 
Q 359 1763 359 2328 
Q 359 2894 529 3339 
Q 700 3784 1050 4134 
Q 1356 4441 1750 4595 
Q 2144 4750 2625 4750 
Q 3641 4750 4266 4084 
Q 4891 3419 4891 2328 
Q 4891 1769 4719 1320 
Q 4547 872 4197 525 
Q 3891 219 3497 64 
Q 3103 -91 2625 -91 
z
" transform="scale(0.015625)"/>
        <path id="DejaVuSerif-52" d="M 3066 2316 
Q 3284 2256 3442 2114 
Q 3600 1972 3725 1716 
L 4403 331 
L 4972 331 
L 4972 0 
L 3872 0 
L 3144 1484 
Q 2934 1916 2759 2042 
Q 2584 2169 2278 2169 
L 1581 2169 
L 1581 331 
L 2241 331 
L 2241 0 
L 353 0 
L 353 331 
L 947 331 
L 947 4331 
L 353 4331 
L 353 4666 
L 2719 4666 
Q 3400 4666 3770 4341 
Q 4141 4016 4141 3419 
Q 4141 2938 3870 2661 
Q 3600 2384 3066 2316 
z
M 1581 2503 
L 2503 2503 
Q 2975 2503 3200 2726 
Q 3425 2950 3425 3419 
Q 3425 3888 3200 4109 
Q 2975 4331 2503 4331 
L 1581 4331 
L 1581 2503 
z
" transform="scale(0.015625)"/>
       </defs>
       <use xlink:href="#DejaVuSerif-43"/>
       <use xlink:href="#DejaVuSerif-50" transform="translate(76.513672 0)"/>
       <use xlink:href="#DejaVuSerif-4f" transform="translate(143.798828 0)"/>
       <use xlink:href="#DejaVuSerif-52" transform="translate(225.78125 0)"/>
       <use xlink:href="#DejaVuSerif-5f" transform="translate(301.074219 0)"/>
       <use xlink:href="#DejaVuSerif-53" transform="translate(351.074219 0)"/>
       <use xlink:href="#DejaVuSerif-4d" transform="translate(419.580078 0)"/>
       <use xlink:href="#DejaVuSerif-5f" transform="translate(521.972656 0)"/>
       <use xlink:href="#DejaVuSerif-73" transform="translate(571.972656 0)"/>
       <use xlink:href="#DejaVuSerif-74" transform="translate(623.291016 0)"/>
       <use xlink:href="#DejaVuSerif-61" transform="translate(663.476562 0)"/>
       <use xlink:href="#DejaVuSerif-6e" transform="translate(723.095703 0)"/>
       <use xlink:href="#DejaVuSerif-64" transform="translate(787.5 0)"/>
       <use xlink:href="#DejaVuSerif-61" transform="translate(851.513672 0)"/>
       <use xlink:href="#DejaVuSerif-6c" transform="translate(911.132812 0)"/>
       <use xlink:href="#DejaVuSerif-6f" transform="translate(943.115234 0)"/>
       <use xlink:href="#DejaVuSerif-6e" transform="translate(1003.320312 0)"/>
       <use xlink:href="#DejaVuSerif-65" transform="translate(1067.724609 0)"/>
      </g>
     </g>
    </g>
    <g id="ytick_5">
     <g id="line2d_13">
      <path d="M 118.122969 145.079349 
L 620.322969 145.079349 
" clip-path="url(#pfffcd7e76e)" style="fill: none; stroke: #cccccc; stroke-linecap: round"/>
     </g>
     <g id="text_14">
      <!-- PHIT_standalone -->
      <g style="fill: #262626" transform="translate(30.715312 148.498646) scale(0.09 -0.09)">
       <use xlink:href="#DejaVuSerif-50"/>
       <use xlink:href="#DejaVuSerif-48" transform="translate(67.285156 0)"/>
       <use xlink:href="#DejaVuSerif-49" transform="translate(154.492188 0)"/>
       <use xlink:href="#DejaVuSerif-54" transform="translate(193.994141 0)"/>
       <use xlink:href="#DejaVuSerif-5f" transform="translate(260.693359 0)"/>
       <use xlink:href="#DejaVuSerif-73" transform="translate(310.693359 0)"/>
       <use xlink:href="#DejaVuSerif-74" transform="translate(362.011719 0)"/>
       <use xlink:href="#DejaVuSerif-61" transform="translate(402.197266 0)"/>
       <use xlink:href="#DejaVuSerif-6e" transform="translate(461.816406 0)"/>
       <use xlink:href="#DejaVuSerif-64" transform="translate(526.220703 0)"/>
       <use xlink:href="#DejaVuSerif-61" transform="translate(590.234375 0)"/>
       <use xlink:href="#DejaVuSerif-6c" transform="translate(649.853516 0)"/>
       <use xlink:href="#DejaVuSerif-6f" transform="translate(681.835938 0)"/>
       <use xlink:href="#DejaVuSerif-6e" transform="translate(742.041016 0)"/>
       <use xlink:href="#DejaVuSerif-65" transform="translate(806.445312 0)"/>
      </g>
     </g>
    </g>
    <g id="ytick_6">
     <g id="line2d_14">
      <path d="M 118.122969 100.608761 
L 620.322969 100.608761 
" clip-path="url(#pfffcd7e76e)" style="fill: none; stroke: #cccccc; stroke-linecap: round"/>
     </g>
     <g id="text_15">
      <!-- PEF_marginal -->
      <g style="fill: #262626" transform="translate(44.368594 104.028058) scale(0.09 -0.09)">
       <defs>
        <path id="DejaVuSerif-45" d="M 353 0 
L 353 331 
L 947 331 
L 947 4331 
L 353 4331 
L 353 4666 
L 4109 4666 
L 4109 3628 
L 3725 3628 
L 3725 4281 
L 1581 4281 
L 1581 2719 
L 3109 2719 
L 3109 3303 
L 3494 3303 
L 3494 1753 
L 3109 1753 
L 3109 2338 
L 1581 2338 
L 1581 384 
L 3775 384 
L 3775 1038 
L 4159 1038 
L 4159 0 
L 353 0 
z
" transform="scale(0.015625)"/>
        <path id="DejaVuSerif-46" d="M 353 0 
L 353 331 
L 947 331 
L 947 4331 
L 353 4331 
L 353 4666 
L 4172 4666 
L 4172 3628 
L 3788 3628 
L 3788 4281 
L 1581 4281 
L 1581 2719 
L 3175 2719 
L 3175 3303 
L 3559 3303 
L 3559 1753 
L 3175 1753 
L 3175 2338 
L 1581 2338 
L 1581 331 
L 2328 331 
L 2328 0 
L 353 0 
z
" transform="scale(0.015625)"/>
       </defs>
       <use xlink:href="#DejaVuSerif-50"/>
       <use xlink:href="#DejaVuSerif-45" transform="translate(67.285156 0)"/>
       <use xlink:href="#DejaVuSerif-46" transform="translate(140.283203 0)"/>
       <use xlink:href="#DejaVuSerif-5f" transform="translate(209.667969 0)"/>
       <use xlink:href="#DejaVuSerif-6d" transform="translate(259.667969 0)"/>
       <use xlink:href="#DejaVuSerif-61" transform="translate(354.492188 0)"/>
       <use xlink:href="#DejaVuSerif-72" transform="translate(414.111328 0)"/>
       <use xlink:href="#DejaVuSerif-67" transform="translate(461.914062 0)"/>
       <use xlink:href="#DejaVuSerif-69" transform="translate(525.927734 0)"/>
       <use xlink:href="#DejaVuSerif-6e" transform="translate(557.910156 0)"/>
       <use xlink:href="#DejaVuSerif-61" transform="translate(622.314453 0)"/>
       <use xlink:href="#DejaVuSerif-6c" transform="translate(681.933594 0)"/>
      </g>
     </g>
    </g>
    <g id="ytick_7">
     <g id="line2d_15">
      <path d="M 118.122969 56.138173 
L 620.322969 56.138173 
" clip-path="url(#pfffcd7e76e)" style="fill: none; stroke: #cccccc; stroke-linecap: round"/>
     </g>
     <g id="text_16">
      <!-- PEF_standalone -->
      <g style="fill: #262626" transform="translate(35.306719 59.55747) scale(0.09 -0.09)">
       <use xlink:href="#DejaVuSerif-50"/>
       <use xlink:href="#DejaVuSerif-45" transform="translate(67.285156 0)"/>
       <use xlink:href="#DejaVuSerif-46" transform="translate(140.283203 0)"/>
       <use xlink:href="#DejaVuSerif-5f" transform="translate(209.667969 0)"/>
       <use xlink:href="#DejaVuSerif-73" transform="translate(259.667969 0)"/>
       <use xlink:href="#DejaVuSerif-74" transform="translate(310.986328 0)"/>
       <use xlink:href="#DejaVuSerif-61" transform="translate(351.171875 0)"/>
       <use xlink:href="#DejaVuSerif-6e" transform="translate(410.791016 0)"/>
       <use xlink:href="#DejaVuSerif-64" transform="translate(475.195312 0)"/>
       <use xlink:href="#DejaVuSerif-61" transform="translate(539.208984 0)"/>
       <use xlink:href="#DejaVuSerif-6c" transform="translate(598.828125 0)"/>
       <use xlink:href="#DejaVuSerif-6f" transform="translate(630.810547 0)"/>
       <use xlink:href="#DejaVuSerif-6e" transform="translate(691.015625 0)"/>
       <use xlink:href="#DejaVuSerif-65" transform="translate(755.419922 0)"/>
      </g>
     </g>
    </g>
   </g>
   <g id="patch_3">
    <path d="M 118.122969 340.749937 
L 118.122969 340.749937 
L 118.122969 305.173467 
L 118.122969 305.173467 
z
" clip-path="url(#pfffcd7e76e)" style="fill: #808080; stroke: #000000; stroke-width: 0.4; stroke-linejoin: miter"/>
   </g>
   <g id="patch_4">
    <path d="M 118.122969 296.279349 
L 118.122969 296.279349 
L 118.122969 260.702879 
L 118.122969 260.702879 
z
" clip-path="url(#pfffcd7e76e)" style="fill: #808080; stroke: #000000; stroke-width: 0.4; stroke-linejoin: miter"/>
   </g>
   <g id="patch_5">
    <path d="M 118.122969 251.808761 
L 118.122969 251.808761 
L 118.122969 216.23229 
L 118.122969 216.23229 
z
" clip-path="url(#pfffcd7e76e)" style="fill: #808080; stroke: #000000; stroke-width: 0.4; stroke-linejoin: miter"/>
   </g>
   <g id="patch_6">
    <path d="M 118.122969 207.338173 
L 309.437254 207.338173 
L 309.437254 171.761702 
L 118.122969 171.761702 
z
" clip-path="url(#pfffcd7e76e)" style="fill: #dc143c; stroke: #000000; stroke-width: 0.4; stroke-linejoin: miter"/>
   </g>
   <g id="patch_7">
    <path d="M 118.122969 162.867585 
L 371.333053 162.867585 
L 371.333053 127.291114 
L 118.122969 127.291114 
z
" clip-path="url(#pfffcd7e76e)" style="fill: #808080; stroke: #000000; stroke-width: 0.4; stroke-linejoin: miter"/>
   </g>
   <g id="patch_8">
    <path d="M 118.122969 118.396996 
L 420.198157 118.396996 
L 420.198157 82.820526 
L 118.122969 82.820526 
z
" clip-path="url(#pfffcd7e76e)" style="fill: #808080; stroke: #000000; stroke-width: 0.4; stroke-linejoin: miter"/>
   </g>
   <g id="patch_9">
    <path d="M 118.122969 73.926408 
L 596.408683 73.926408 
L 596.408683 38.349937 
L 118.122969 38.349937 
z
" clip-path="url(#pfffcd7e76e)" style="fill: #808080; stroke: #000000; stroke-width: 0.4; stroke-linejoin: miter"/>
   </g>
   <g id="patch_10">
    <path d="M 118.122969 355.869937 
L 118.122969 23.229937 
" style="fill: none; stroke: #cccccc; stroke-width: 1.25; stroke-linejoin: miter; stroke-linecap: square"/>
   </g>
   <g id="patch_11">
    <path d="M 620.322969 355.869937 
L 620.322969 23.229937 
" style="fill: none; stroke: #cccccc; stroke-width: 1.25; stroke-linejoin: miter; stroke-linecap: square"/>
   </g>
   <g id="patch_12">
    <path d="M 118.122969 355.869937 
L 620.322969 355.869937 
" style="fill: none; stroke: #cccccc; stroke-width: 1.25; stroke-linejoin: miter; stroke-linecap: square"/>
   </g>
   <g id="patch_13">
    <path d="M 118.122969 23.229937 
L 620.322969 23.229937 
" style="fill: none; stroke: #cccccc; stroke-width: 1.25; stroke-linejoin: miter; stroke-linecap: square"/>
   </g>
   <g id="text_17">
    <!-- OAT cost sensitivity (gray = all recommendations stable) -->
    <g style="fill: #262626" transform="translate(178.551031 17.229937) scale(0.132 -0.132)">
     <defs>
      <path id="DejaVuSerif-41" d="M 1281 1691 
L 2994 1691 
L 2138 3909 
L 1281 1691 
z
M -38 0 
L -38 331 
L 372 331 
L 2034 4666 
L 2559 4666 
L 4225 331 
L 4684 331 
L 4684 0 
L 2988 0 
L 2988 331 
L 3506 331 
L 3116 1356 
L 1153 1356 
L 763 331 
L 1275 331 
L 1275 0 
L -38 0 
z
" transform="scale(0.015625)"/>
      <path id="DejaVuSerif-63" d="M 3291 997 
Q 3169 466 2822 187 
Q 2475 -91 1925 -91 
Q 1200 -91 759 389 
Q 319 869 319 1663 
Q 319 2459 759 2936 
Q 1200 3413 1925 3413 
Q 2241 3413 2553 3339 
Q 2866 3266 3181 3116 
L 3181 2266 
L 2847 2266 
Q 2781 2703 2561 2903 
Q 2341 3103 1931 3103 
Q 1466 3103 1228 2742 
Q 991 2381 991 1663 
Q 991 944 1227 581 
Q 1463 219 1931 219 
Q 2303 219 2525 412 
Q 2747 606 2828 997 
L 3291 997 
z
" transform="scale(0.015625)"/>
      <path id="DejaVuSerif-28" d="M 2041 -997 
Q 1281 -656 893 83 
Q 506 822 506 1931 
Q 506 3044 893 3783 
Q 1281 4522 2041 4863 
L 2041 4556 
Q 1559 4225 1350 3623 
Q 1141 3022 1141 1931 
Q 1141 844 1350 242 
Q 1559 -359 2041 -691 
L 2041 -997 
z
" transform="scale(0.015625)"/>
      <path id="DejaVuSerif-3d" d="M 678 2894 
L 4684 2894 
L 4684 2394 
L 678 2394 
L 678 2894 
z
M 678 1619 
L 4684 1619 
L 4684 1119 
L 678 1119 
L 678 1619 
z
" transform="scale(0.015625)"/>
      <path id="DejaVuSerif-62" d="M 738 331 
L 738 4531 
L 184 4531 
L 184 4863 
L 1313 4863 
L 1313 2803 
Q 1481 3116 1742 3264 
Q 2003 3413 2388 3413 
Q 3000 3413 3387 2928 
Q 3775 2444 3775 1663 
Q 3775 881 3387 395 
Q 3000 -91 2388 -91 
Q 2003 -91 1742 57 
Q 1481 206 1313 519 
L 1313 0 
L 184 0 
L 184 331 
L 738 331 
z
M 1313 1497 
Q 1313 897 1542 583 
Q 1772 269 2209 269 
Q 2650 269 2876 622 
Q 3103 975 3103 1663 
Q 3103 2353 2876 2703 
Q 2650 3053 2209 3053 
Q 1772 3053 1542 2737 
Q 1313 2422 1313 1825 
L 1313 1497 
z
" transform="scale(0.015625)"/>
      <path id="DejaVuSerif-29" d="M 453 -997 
L 453 -691 
Q 934 -359 1145 242 
Q 1356 844 1356 1931 
Q 1356 3022 1145 3623 
Q 934 4225 453 4556 
L 453 4863 
Q 1216 4522 1603 3783 
Q 1991 3044 1991 1931 
Q 1991 822 1603 83 
Q 1216 -656 453 -997 
z
" transform="scale(0.015625)"/>
     </defs>
     <use xlink:href="#DejaVuSerif-4f"/>
     <use xlink:href="#DejaVuSerif-41" transform="translate(81.982422 0)"/>
     <use xlink:href="#DejaVuSerif-54" transform="translate(148.699219 0)"/>
     <use xlink:href="#DejaVuSerif-20" transform="translate(215.398438 0)"/>
     <use xlink:href="#DejaVuSerif-63" transform="translate(247.185547 0)"/>
     <use xlink:href="#DejaVuSerif-6f" transform="translate(303.191406 0)"/>
     <use xlink:href="#DejaVuSerif-73" transform="translate(363.396484 0)"/>
     <use xlink:href="#DejaVuSerif-74" transform="translate(414.714844 0)"/>
     <use xlink:href="#DejaVuSerif-20" transform="translate(454.900391 0)"/>
     <use xlink:href="#DejaVuSerif-73" transform="translate(486.6875 0)"/>
     <use xlink:href="#DejaVuSerif-65" transform="translate(538.005859 0)"/>
     <use xlink:href="#DejaVuSerif-6e" transform="translate(597.185547 0)"/>
     <use xlink:href="#DejaVuSerif-73" transform="translate(661.589844 0)"/>
     <use xlink:href="#DejaVuSerif-69" transform="translate(712.908203 0)"/>
     <use xlink:href="#DejaVuSerif-74" transform="translate(744.890625 0)"/>
     <use xlink:href="#DejaVuSerif-69" transform="translate(785.076172 0)"/>
     <use xlink:href="#DejaVuSerif-76" transform="translate(817.058594 0)"/>
     <use xlink:href="#DejaVuSerif-69" transform="translate(873.552734 0)"/>
     <use xlink:href="#DejaVuSerif-74" transform="translate(905.535156 0)"/>
     <use xlink:href="#DejaVuSerif-79" transform="translate(945.720703 0)"/>
     <use xlink:href="#DejaVuSerif-20" transform="translate(1002.214844 0)"/>
     <use xlink:href="#DejaVuSerif-28" transform="translate(1034.001953 0)"/>
     <use xlink:href="#DejaVuSerif-67" transform="translate(1073.015625 0)"/>
     <use xlink:href="#DejaVuSerif-72" transform="translate(1137.029297 0)"/>
     <use xlink:href="#DejaVuSerif-61" transform="translate(1184.832031 0)"/>
     <use xlink:href="#DejaVuSerif-79" transform="translate(1244.451172 0)"/>
     <use xlink:href="#DejaVuSerif-20" transform="translate(1300.945312 0)"/>
     <use xlink:href="#DejaVuSerif-3d" transform="translate(1332.732422 0)"/>
     <use xlink:href="#DejaVuSerif-20" transform="translate(1416.521484 0)"/>
     <use xlink:href="#DejaVuSerif-61" transform="translate(1448.308594 0)"/>
     <use xlink:href="#DejaVuSerif-6c" transform="translate(1507.927734 0)"/>
     <use xlink:href="#DejaVuSerif-6c" transform="translate(1539.910156 0)"/>
     <use xlink:href="#DejaVuSerif-20" transform="translate(1571.892578 0)"/>
     <use xlink:href="#DejaVuSerif-72" transform="translate(1603.679688 0)"/>
     <use xlink:href="#DejaVuSerif-65" transform="translate(1651.482422 0)"/>
     <use xlink:href="#DejaVuSerif-63" transform="translate(1710.662109 0)"/>
     <use xlink:href="#DejaVuSerif-6f" transform="translate(1766.667969 0)"/>
     <use xlink:href="#DejaVuSerif-6d" transform="translate(1826.873047 0)"/>
     <use xlink:href="#DejaVuSerif-6d" transform="translate(1921.697266 0)"/>
     <use xlink:href="#DejaVuSerif-65" transform="translate(2016.521484 0)"/>
     <use xlink:href="#DejaVuSerif-6e" transform="translate(2075.701172 0)"/>
     <use xlink:href="#DejaVuSerif-64" transform="translate(2140.105469 0)"/>
     <use xlink:href="#DejaVuSerif-61" transform="translate(2204.119141 0)"/>
     <use xlink:href="#DejaVuSerif-74" transform="translate(2263.738281 0)"/>
     <use xlink:href="#DejaVuSerif-69" transform="translate(2303.923828 0)"/>
     <use xlink:href="#DejaVuSerif-6f" transform="translate(2335.90625 0)"/>
     <use xlink:href="#DejaVuSerif-6e" transform="translate(2396.111328 0)"/>
     <use xlink:href="#DejaVuSerif-73" transform="translate(2460.515625 0)"/>
     <use xlink:href="#DejaVuSerif-20" transform="translate(2511.833984 0)"/>
     <use xlink:href="#DejaVuSerif-73" transform="translate(2543.621094 0)"/>
     <use xlink:href="#DejaVuSerif-74" transform="translate(2594.939453 0)"/>
     <use xlink:href="#DejaVuSerif-61" transform="translate(2635.125 0)"/>
     <use xlink:href="#DejaVuSerif-62" transform="translate(2694.744141 0)"/>
     <use xlink:href="#DejaVuSerif-6c" transform="translate(2758.757812 0)"/>
     <use xlink:href="#DejaVuSerif-65" transform="translate(2790.740234 0)"/>
     <use xlink:href="#DejaVuSerif-29" transform="translate(2849.919922 0)"/>
    </g>
   </g>
   <g id="legend_1">
    <g id="patch_14">
     <path d="M 438.130469 351.869937 
L 614.722969 351.869937 
Q 616.322969 351.869937 616.322969 350.269937 
L 616.322969 327.584937 
Q 616.322969 325.984937 614.722969 325.984937 
L 438.130469 325.984937 
Q 436.530469 325.984937 436.530469 327.584937 
L 436.530469 350.269937 
Q 436.530469 351.869937 438.130469 351.869937 
z
" style="fill: #ffffff; opacity: 0.8; stroke: #cccccc; stroke-linejoin: miter"/>
    </g>
    <g id="patch_15">
     <path d="M 439.730469 335.263687 
L 455.730469 335.263687 
L 455.730469 329.663687 
L 439.730469 329.663687 
z
" style="fill: #808080; stroke: #000000; stroke-linejoin: miter"/>
    </g>
    <g id="text_18">
     <!-- recommendations stable -->
     <g style="fill: #262626" transform="translate(462.130469 335.263687) scale(0.08 -0.08)">
      <use xlink:href="#DejaVuSerif-72"/>
      <use xlink:href="#DejaVuSerif-65" transform="translate(47.802734 0)"/>
      <use xlink:href="#DejaVuSerif-63" transform="translate(106.982422 0)"/>
      <use xlink:href="#DejaVuSerif-6f" transform="translate(162.988281 0)"/>
      <use xlink:href="#DejaVuSerif-6d" transform="translate(223.193359 0)"/>
      <use xlink:href="#DejaVuSerif-6d" transform="translate(318.017578 0)"/>
      <use xlink:href="#DejaVuSerif-65" transform="translate(412.841797 0)"/>
      <use xlink:href="#DejaVuSerif-6e" transform="translate(472.021484 0)"/>
      <use xlink:href="#DejaVuSerif-64" transform="translate(536.425781 0)"/>
      <use xlink:href="#DejaVuSerif-61" transform="translate(600.439453 0)"/>
      <use xlink:href="#DejaVuSerif-74" transform="translate(660.058594 0)"/>
      <use xlink:href="#DejaVuSerif-69" transform="translate(700.244141 0)"/>
      <use xlink:href="#DejaVuSerif-6f" transform="translate(732.226562 0)"/>
      <use xlink:href="#DejaVuSerif-6e" transform="translate(792.431641 0)"/>
      <use xlink:href="#DejaVuSerif-73" transform="translate(856.835938 0)"/>
      <use xlink:href="#DejaVuSerif-20" transform="translate(908.154297 0)"/>
      <use xlink:href="#DejaVuSerif-73" transform="translate(939.941406 0)"/>
      <use xlink:href="#DejaVuSerif-74" transform="translate(991.259766 0)"/>
      <use xlink:href="#DejaVuSerif-61" transform="translate(1031.445312 0)"/>
      <use xlink:href="#DejaVuSerif-62" transform="translate(1091.064453 0)"/>
      <use xlink:href="#DejaVuSerif-6c" transform="translate(1155.078125 0)"/>
      <use xlink:href="#DejaVuSerif-65" transform="translate(1187.060547 0)"/>
     </g>
    </g>
    <g id="patch_16">
     <path d="M 439.730469 347.006187 
L 455.730469 347.006187 
L 455.730469 341.406187 
L 439.730469 341.406187 
z
" style="fill: #dc143c; stroke: #000000; stroke-linejoin: miter"/>
    </g>
    <g id="text_19">
     <!-- a recommendation flips / split breaks -->
     <g style="fill: #262626" transform="translate(462.130469 347.006187) scale(0.08 -0.08)">
      <defs>
       <path id="DejaVuSerif-70" d="M 1313 1825 
L 1313 1497 
Q 1313 897 1542 583 
Q 1772 269 2209 269 
Q 2650 269 2876 622 
Q 3103 975 3103 1663 
Q 3103 2353 2876 2703 
Q 2650 3053 2209 3053 
Q 1772 3053 1542 2737 
Q 1313 2422 1313 1825 
z
M 738 2988 
L 184 2988 
L 184 3322 
L 1313 3322 
L 1313 2803 
Q 1481 3116 1742 3264 
Q 2003 3413 2388 3413 
Q 3000 3413 3387 2928 
Q 3775 2444 3775 1663 
Q 3775 881 3387 395 
Q 3000 -91 2388 -91 
Q 2003 -91 1742 57 
Q 1481 206 1313 519 
L 1313 -997 
L 1856 -997 
L 1856 -1331 
L 184 -1331 
L 184 -997 
L 738 -997 
L 738 2988 
z
" transform="scale(0.015625)"/>
       <path id="DejaVuSerif-2f" d="M 1656 4666 
L 2156 4666 
L 500 -594 
L 0 -594 
L 1656 4666 
z
" transform="scale(0.015625)"/>
       <path id="DejaVuSerif-6b" d="M 1831 0 
L 219 0 
L 219 331 
L 738 331 
L 738 4531 
L 184 4531 
L 184 4863 
L 1313 4863 
L 1313 1697 
L 2713 2988 
L 2234 2988 
L 2234 3322 
L 3738 3322 
L 3738 2988 
L 3169 2988 
L 2181 2075 
L 3444 331 
L 3922 331 
L 3922 0 
L 2284 0 
L 2284 331 
L 2759 331 
L 1766 1697 
L 1313 1275 
L 1313 331 
L 1831 331 
L 1831 0 
z
" transform="scale(0.015625)"/>
      </defs>
      <use xlink:href="#DejaVuSerif-61"/>
      <use xlink:href="#DejaVuSerif-20" transform="translate(59.619141 0)"/>
      <use xlink:href="#DejaVuSerif-72" transform="translate(91.40625 0)"/>
      <use xlink:href="#DejaVuSerif-65" transform="translate(139.208984 0)"/>
      <use xlink:href="#DejaVuSerif-63" transform="translate(198.388672 0)"/>
      <use xlink:href="#DejaVuSerif-6f" transform="translate(254.394531 0)"/>
      <use xlink:href="#DejaVuSerif-6d" transform="translate(314.599609 0)"/>
      <use xlink:href="#DejaVuSerif-6d" transform="translate(409.423828 0)"/>
      <use xlink:href="#DejaVuSerif-65" transform="translate(504.248047 0)"/>
      <use xlink:href="#DejaVuSerif-6e" transform="translate(563.427734 0)"/>
      <use xlink:href="#DejaVuSerif-64" transform="translate(627.832031 0)"/>
      <use xlink:href="#DejaVuSerif-61" transform="translate(691.845703 0)"/>
      <use xlink:href="#DejaVuSerif-74" transform="translate(751.464844 0)"/>
      <use xlink:href="#DejaVuSerif-69" transform="translate(791.650391 0)"/>
      <use xlink:href="#DejaVuSerif-6f" transform="translate(823.632812 0)"/>
      <use xlink:href="#DejaVuSerif-6e" transform="translate(883.837891 0)"/>
      <use xlink:href="#DejaVuSerif-20" transform="translate(948.242188 0)"/>
      <use xlink:href="#DejaVuSerif-66" transform="translate(980.029297 0)"/>
      <use xlink:href="#DejaVuSerif-6c" transform="translate(1017.041016 0)"/>
      <use xlink:href="#DejaVuSerif-69" transform="translate(1049.023438 0)"/>
      <use xlink:href="#DejaVuSerif-70" transform="translate(1081.005859 0)"/>
      <use xlink:href="#DejaVuSerif-73" transform="translate(1145.019531 0)"/>
      <use xlink:href="#DejaVuSerif-20" transform="translate(1196.337891 0)"/>
      <use xlink:href="#DejaVuSerif-2f" transform="translate(1228.125 0)"/>
      <use xlink:href="#DejaVuSerif-20" transform="translate(1261.816406 0)"/>
      <use xlink:href="#DejaVuSerif-73" transform="translate(1293.603516 0)"/>
      <use xlink:href="#DejaVuSerif-70" transform="translate(1344.921875 0)"/>
      <use xlink:href="#DejaVuSerif-6c" transform="translate(1408.935547 0)"/>
      <use xlink:href="#DejaVuSerif-69" transform="translate(1440.917969 0)"/>
      <use xlink:href="#DejaVuSerif-74" transform="translate(1472.900391 0)"/>
      <use xlink:href="#DejaVuSerif-20" transform="translate(1513.085938 0)"/>
      <use xlink:href="#DejaVuSerif-62" transform="translate(1544.873047 0)"/>
      <use xlink:href="#DejaVuSerif-72" transform="translate(1608.886719 0)"/>
      <use xlink:href="#DejaVuSerif-65" transform="translate(1656.689453 0)"/>
      <use xlink:href="#DejaVuSerif-61" transform="translate(1715.869141 0)"/>
      <use xlink:href="#DejaVuSerif-6b" transform="translate(1775.488281 0)"/>
      <use xlink:href="#DejaVuSerif-73" transform="translate(1836.083984 0)"/>
     </g>
    </g>
   </g>
  </g>
 </g>
 <defs>
  <clipPath id="pfffcd7e76e">
   <rect x="118.122969" y="23.229937" width="502.2" height="332.64"/>
  </clipPath>
 </defs>
</svg>
